solid Untitled-591d705b
facet normal 0.0 0.0 1.0
  outer loop
    vertex 134.66513122137496 89.52341463072334 1.641427
    vertex 137.98557222137498 91.78782763072334 1.641427
    vertex 134.66513122137496 110.27826663072334 1.641427
  endloop
endfacet
facet normal 0.0 0.0 1.0
  outer loop
    vertex 137.98557222137498 91.78782763072334 1.641427
    vertex 134.66513122137496 89.52341463072334 1.641427
    vertex 178.31799822137495 89.52341463072334 1.641427
  endloop
endfacet
facet normal 0.0 0.0 1.0
  outer loop
    vertex 137.98557222137498 91.78782763072334 1.641427
    vertex 178.31799822137495 89.52341463072334 1.641427
    vertex 143.75953122137497 91.78782763072334 1.641427
  endloop
endfacet
facet normal 0.0 0.0 1.0
  outer loop
    vertex 143.75953122137497 91.78782763072334 1.641427
    vertex 178.31799822137495 89.52341463072334 1.641427
    vertex 143.75953122137497 94.45986163072334 1.641427
  endloop
endfacet
facet normal 0.0 0.0 1.0
  outer loop
    vertex 143.75953122137497 94.45986163072334 1.641427
    vertex 178.31799822137495 89.52341463072334 1.641427
    vertex 168.53520722137495 91.78782763072334 1.641427
  endloop
endfacet
facet normal 0.0 0.0 1.0
  outer loop
    vertex 143.75953122137497 94.45986163072334 1.641427
    vertex 168.53520722137495 91.78782763072334 1.641427
    vertex 146.00015264107267 97.68058023076964 1.641427
  endloop
endfacet
facet normal 0.0 0.0 1.0
  outer loop
    vertex 143.75953122137497 94.45986163072334 1.641427
    vertex 146.00015264107267 97.68058023076964 1.641427
    vertex 143.75953122137497 105.07100563072332 1.641427
  endloop
endfacet
facet normal 0.0 0.0 1.0
  outer loop
    vertex 143.75953122137497 105.07100563072332 1.641427
    vertex 146.00015264107267 97.68058023076964 1.641427
    vertex 143.75953122137497 107.88484263072334 1.641427
  endloop
endfacet
facet normal 0.0 0.0 1.0
  outer loop
    vertex 146.00015264107267 97.68058023076964 1.641427
    vertex 168.53520722137495 91.78782763072334 1.641427
    vertex 148.44386664107267 97.68058023076964 1.641427
  endloop
endfacet
facet normal 0.0 0.0 1.0
  outer loop
    vertex 148.44386664107267 97.68058023076964 1.641427
    vertex 168.53520722137495 91.78782763072334 1.641427
    vertex 148.44386664107267 102.89383723076963 1.641427
  endloop
endfacet
facet normal 0.0 0.0 1.0
  outer loop
    vertex 148.44386664107267 102.89383723076963 1.641427
    vertex 168.53520722137495 91.78782763072334 1.641427
    vertex 161.47700931100715 97.68058023076964 1.641427
  endloop
endfacet
facet normal 0.0 0.0 1.0
  outer loop
    vertex 148.44386664107267 102.89383723076963 1.641427
    vertex 161.47700931100715 97.68058023076964 1.641427
    vertex 152.59055866965068 110.05783061683844 1.641427
  endloop
endfacet
facet normal 0.0 0.0 1.0
  outer loop
    vertex 148.44386664107267 102.89383723076963 1.641427
    vertex 152.59055866965068 110.05783061683844 1.641427
    vertex 152.36803577324397 110.59504841128197 1.641427
  endloop
endfacet
facet normal 0.0 0.0 1.0
  outer loop
    vertex 148.44386664107267 102.89383723076963 1.641427
    vertex 152.36803577324397 110.59504841128197 1.641427
    vertex 152.2921373572341 111.17155411683845 1.641427
  endloop
endfacet
facet normal 0.0 0.0 1.0
  outer loop
    vertex 152.59055866965068 110.05783061683844 1.641427
    vertex 161.47700931100715 97.68058023076964 1.641427
    vertex 152.94454147880046 109.59651123840482 1.641427
  endloop
endfacet
facet normal 0.0 0.0 1.0
  outer loop
    vertex 152.94454147880046 109.59651123840482 1.641427
    vertex 161.47700931100715 97.68058023076964 1.641427
    vertex 153.4058608572341 109.24252842925502 1.641427
  endloop
endfacet
facet normal 0.0 0.0 1.0
  outer loop
    vertex 153.4058608572341 109.24252842925502 1.641427
    vertex 161.47700931100715 97.68058023076964 1.641427
    vertex 153.9430786516776 109.02000553284833 1.641427
  endloop
endfacet
facet normal 0.0 0.0 1.0
  outer loop
    vertex 153.9430786516776 109.02000553284833 1.641427
    vertex 161.47700931100715 97.68058023076964 1.641427
    vertex 154.5195843572341 108.94410711683845 1.641427
  endloop
endfacet
facet normal 0.0 0.0 1.0
  outer loop
    vertex 154.5195843572341 108.94410711683845 1.641427
    vertex 161.47700931100715 97.68058023076964 1.641427
    vertex 155.09609006279058 109.02000553284833 1.641427
  endloop
endfacet
facet normal 0.0 0.0 1.0
  outer loop
    vertex 155.09609006279058 109.02000553284833 1.641427
    vertex 161.47700931100715 97.68058023076964 1.641427
    vertex 155.6333078572341 109.24252842925502 1.641427
  endloop
endfacet
facet normal 0.0 0.0 1.0
  outer loop
    vertex 155.6333078572341 109.24252842925502 1.641427
    vertex 161.47700931100715 97.68058023076964 1.641427
    vertex 156.09462723566773 109.59651123840482 1.641427
  endloop
endfacet
facet normal 0.0 0.0 1.0
  outer loop
    vertex 156.09462723566773 109.59651123840482 1.641427
    vertex 161.47700931100715 97.68058023076964 1.641427
    vertex 156.44861004481754 110.05783061683844 1.641427
  endloop
endfacet
facet normal 0.0 0.0 1.0
  outer loop
    vertex 156.44861004481754 110.05783061683844 1.641427
    vertex 161.47700931100715 97.68058023076964 1.641427
    vertex 156.67113294122422 110.59504841128197 1.641427
  endloop
endfacet
facet normal 0.0 0.0 1.0
  outer loop
    vertex 156.67113294122422 110.59504841128197 1.641427
    vertex 161.47700931100715 97.68058023076964 1.641427
    vertex 156.7470313572341 111.17155411683845 1.641427
  endloop
endfacet
facet normal 0.0 0.0 1.0
  outer loop
    vertex 161.47700931100715 97.68058023076964 1.641427
    vertex 168.53520722137495 91.78782763072334 1.641427
    vertex 164.08363731100715 97.68058023076964 1.641427
  endloop
endfacet
facet normal 0.0 0.0 1.0
  outer loop
    vertex 164.08363731100715 97.68058023076964 1.641427
    vertex 168.53520722137495 91.78782763072334 1.641427
    vertex 164.08363731100715 102.89383723076963 1.641427
  endloop
endfacet
facet normal 0.0 0.0 1.0
  outer loop
    vertex 168.53520722137495 91.78782763072334 1.641427
    vertex 178.31799822137495 89.52341463072334 1.641427
    vertex 174.55075022137495 91.78782763072334 1.641427
  endloop
endfacet
facet normal 0.0 0.0 1.0
  outer loop
    vertex 174.55075022137495 91.78782763072334 1.641427
    vertex 178.31799822137495 89.52341463072334 1.641427
    vertex 174.55075022137495 94.45986163072334 1.641427
  endloop
endfacet
facet normal 0.0 0.0 1.0
  outer loop
    vertex 174.55075022137495 94.45986163072334 1.641427
    vertex 178.31799822137495 89.52341463072334 1.641427
    vertex 174.55075022137495 105.07100563072332 1.641427
  endloop
endfacet
facet normal 0.0 0.0 1.0
  outer loop
    vertex 174.55075022137495 105.07100563072332 1.641427
    vertex 178.31799822137495 89.52341463072334 1.641427
    vertex 174.55075022137495 107.88484263072334 1.641427
  endloop
endfacet
facet normal 0.0 0.0 1.0
  outer loop
    vertex 164.08363731100715 102.89383723076963 1.641427
    vertex 163.97022764107268 110.27826663072334 1.641427
    vertex 161.47700931100715 102.89383723076963 1.641427
  endloop
endfacet
facet normal 0.0 0.0 1.0
  outer loop
    vertex 163.97022764107268 110.27826663072334 1.641427
    vertex 164.08363731100715 102.89383723076963 1.641427
    vertex 168.53520722137495 107.88484263072334 1.641427
  endloop
endfacet
facet normal 0.0 0.0 1.0
  outer loop
    vertex 163.97022764107268 110.27826663072334 1.641427
    vertex 168.53520722137495 107.88484263072334 1.641427
    vertex 178.31799822137495 110.27826663072334 1.641427
  endloop
endfacet
facet normal 0.0 0.0 1.0
  outer loop
    vertex 168.53520722137495 107.88484263072334 1.641427
    vertex 164.08363731100715 102.89383723076963 1.641427
    vertex 168.53520722137495 91.78782763072334 1.641427
  endloop
endfacet
facet normal 0.0 0.0 1.0
  outer loop
    vertex 168.53520722137495 107.88484263072334 1.641427
    vertex 168.53520722137495 91.78782763072334 1.641427
    vertex 168.53520722137495 94.45986163072334 1.641427
  endloop
endfacet
facet normal 0.0 0.0 1.0
  outer loop
    vertex 168.53520722137495 107.88484263072334 1.641427
    vertex 168.53520722137495 94.45986163072334 1.641427
    vertex 168.53520722137495 105.07100563072332 1.641427
  endloop
endfacet
facet normal 0.0 0.0 1.0
  outer loop
    vertex 178.31799822137495 110.27826663072334 1.641427
    vertex 168.53520722137495 107.88484263072334 1.641427
    vertex 174.55075022137495 107.88484263072334 1.641427
  endloop
endfacet
facet normal 0.0 0.0 1.0
  outer loop
    vertex 178.31799822137495 110.27826663072334 1.641427
    vertex 174.55075022137495 107.88484263072334 1.641427
    vertex 178.31799822137495 89.52341463072334 1.641427
  endloop
endfacet
facet normal 0.0 0.0 1.0
  outer loop
    vertex 174.55075022137495 94.45986163072334 1.641427
    vertex 168.53520722137495 105.07100563072332 1.641427
    vertex 168.53520722137495 94.45986163072334 1.641427
  endloop
endfacet
facet normal 0.0 0.0 1.0
  outer loop
    vertex 168.53520722137495 105.07100563072332 1.641427
    vertex 174.55075022137495 94.45986163072334 1.641427
    vertex 174.55075022137495 105.07100563072332 1.641427
  endloop
endfacet
facet normal 0.0 0.0 1.0
  outer loop
    vertex 134.66513122137496 110.27826663072334 1.641427
    vertex 137.98557222137498 107.88484263072334 1.641427
    vertex 146.00015264107267 110.27826663072334 1.641427
  endloop
endfacet
facet normal 0.0 0.0 1.0
  outer loop
    vertex 137.98557222137498 107.88484263072334 1.641427
    vertex 134.66513122137496 110.27826663072334 1.641427
    vertex 137.98557222137498 91.78782763072334 1.641427
  endloop
endfacet
facet normal 0.0 0.0 1.0
  outer loop
    vertex 137.98557222137498 107.88484263072334 1.641427
    vertex 137.98557222137498 91.78782763072334 1.641427
    vertex 137.98557222137498 94.45986163072334 1.641427
  endloop
endfacet
facet normal 0.0 0.0 1.0
  outer loop
    vertex 137.98557222137498 107.88484263072334 1.641427
    vertex 137.98557222137498 94.45986163072334 1.641427
    vertex 137.98557222137498 105.07100563072332 1.641427
  endloop
endfacet
facet normal 0.0 0.0 1.0
  outer loop
    vertex 146.00015264107267 110.27826663072334 1.641427
    vertex 137.98557222137498 107.88484263072334 1.641427
    vertex 143.75953122137497 107.88484263072334 1.641427
  endloop
endfacet
facet normal 0.0 0.0 1.0
  outer loop
    vertex 146.00015264107267 110.27826663072334 1.641427
    vertex 143.75953122137497 107.88484263072334 1.641427
    vertex 146.00015264107267 97.68058023076964 1.641427
  endloop
endfacet
facet normal 0.0 0.0 1.0
  outer loop
    vertex 146.00015264107267 110.27826663072334 1.641427
    vertex 146.00015264107267 97.68058023076964 1.641427
    vertex 146.00015264107267 102.89383723076963 1.641427
  endloop
endfacet
facet normal 0.0 0.0 1.0
  outer loop
    vertex 146.00015264107267 110.27826663072334 1.641427
    vertex 146.00015264107267 102.89383723076963 1.641427
    vertex 148.44386664107267 102.89383723076963 1.641427
  endloop
endfacet
facet normal 0.0 0.0 1.0
  outer loop
    vertex 146.00015264107267 110.27826663072334 1.641427
    vertex 148.44386664107267 102.89383723076963 1.641427
    vertex 146.00015264107267 114.69433163072334 1.641427
  endloop
endfacet
facet normal 0.0 0.0 1.0
  outer loop
    vertex 146.00015264107267 114.69433163072334 1.641427
    vertex 148.44386664107267 102.89383723076963 1.641427
    vertex 152.59055866965068 112.28527761683844 1.641427
  endloop
endfacet
facet normal 0.0 0.0 1.0
  outer loop
    vertex 146.00015264107267 114.69433163072334 1.641427
    vertex 152.59055866965068 112.28527761683844 1.641427
    vertex 152.94454147880046 112.74659699527207 1.641427
  endloop
endfacet
facet normal 0.0 0.0 1.0
  outer loop
    vertex 146.00015264107267 114.69433163072334 1.641427
    vertex 152.94454147880046 112.74659699527207 1.641427
    vertex 153.4058608572341 113.10057980442188 1.641427
  endloop
endfacet
facet normal 0.0 0.0 1.0
  outer loop
    vertex 146.00015264107267 114.69433163072334 1.641427
    vertex 153.4058608572341 113.10057980442188 1.641427
    vertex 153.9430786516776 113.32310270082856 1.641427
  endloop
endfacet
facet normal 0.0 0.0 1.0
  outer loop
    vertex 146.00015264107267 114.69433163072334 1.641427
    vertex 153.9430786516776 113.32310270082856 1.641427
    vertex 163.97022764107268 114.69433163072334 1.641427
  endloop
endfacet
facet normal 0.0 0.0 1.0
  outer loop
    vertex 152.59055866965068 112.28527761683844 1.641427
    vertex 148.44386664107267 102.89383723076963 1.641427
    vertex 152.36803577324397 111.74805982239492 1.641427
  endloop
endfacet
facet normal 0.0 0.0 1.0
  outer loop
    vertex 152.36803577324397 111.74805982239492 1.641427
    vertex 148.44386664107267 102.89383723076963 1.641427
    vertex 152.2921373572341 111.17155411683845 1.641427
  endloop
endfacet
facet normal 0.0 0.0 1.0
  outer loop
    vertex 163.97022764107268 114.69433163072334 1.641427
    vertex 153.9430786516776 113.32310270082856 1.641427
    vertex 154.5195843572341 113.39900111683845 1.641427
  endloop
endfacet
facet normal 0.0 0.0 1.0
  outer loop
    vertex 163.97022764107268 114.69433163072334 1.641427
    vertex 154.5195843572341 113.39900111683845 1.641427
    vertex 155.09609006279058 113.32310270082856 1.641427
  endloop
endfacet
facet normal 0.0 0.0 1.0
  outer loop
    vertex 163.97022764107268 114.69433163072334 1.641427
    vertex 155.09609006279058 113.32310270082856 1.641427
    vertex 155.6333078572341 113.10057980442188 1.641427
  endloop
endfacet
facet normal 0.0 0.0 1.0
  outer loop
    vertex 163.97022764107268 114.69433163072334 1.641427
    vertex 155.6333078572341 113.10057980442188 1.641427
    vertex 156.09462723566773 112.74659699527207 1.641427
  endloop
endfacet
facet normal 0.0 0.0 1.0
  outer loop
    vertex 163.97022764107268 114.69433163072334 1.641427
    vertex 156.09462723566773 112.74659699527207 1.641427
    vertex 156.44861004481754 112.28527761683844 1.641427
  endloop
endfacet
facet normal 0.0 0.0 1.0
  outer loop
    vertex 163.97022764107268 114.69433163072334 1.641427
    vertex 156.44861004481754 112.28527761683844 1.641427
    vertex 156.67113294122422 111.74805982239492 1.641427
  endloop
endfacet
facet normal 0.0 0.0 1.0
  outer loop
    vertex 163.97022764107268 114.69433163072334 1.641427
    vertex 156.67113294122422 111.74805982239492 1.641427
    vertex 156.7470313572341 111.17155411683845 1.641427
  endloop
endfacet
facet normal 0.0 0.0 1.0
  outer loop
    vertex 163.97022764107268 114.69433163072334 1.641427
    vertex 156.7470313572341 111.17155411683845 1.641427
    vertex 161.47700931100715 102.89383723076963 1.641427
  endloop
endfacet
facet normal 0.0 0.0 1.0
  outer loop
    vertex 161.47700931100715 102.89383723076963 1.641427
    vertex 156.7470313572341 111.17155411683845 1.641427
    vertex 161.47700931100715 97.68058023076964 1.641427
  endloop
endfacet
facet normal 0.0 0.0 1.0
  outer loop
    vertex 163.97022764107268 114.69433163072334 1.641427
    vertex 161.47700931100715 102.89383723076963 1.641427
    vertex 163.97022764107268 110.27826663072334 1.641427
  endloop
endfacet
facet normal 0.0 0.0 1.0
  outer loop
    vertex 143.75953122137497 94.45986163072334 1.641427
    vertex 137.98557222137498 105.07100563072332 1.641427
    vertex 137.98557222137498 94.45986163072334 1.641427
  endloop
endfacet
facet normal 0.0 0.0 1.0
  outer loop
    vertex 137.98557222137498 105.07100563072332 1.641427
    vertex 143.75953122137497 94.45986163072334 1.641427
    vertex 143.75953122137497 105.07100563072332 1.641427
  endloop
endfacet
facet normal -0.0 1.0 0.0
  outer loop
    vertex 163.97022764107268 110.27826663072334 1.641427
    vertex 178.31799822137495 110.27826663072334 0.0
    vertex 163.97022764107268 110.27826663072334 0.0
  endloop
endfacet
facet normal -0.0 1.0 0.0
  outer loop
    vertex 178.31799822137495 110.27826663072334 0.0
    vertex 163.97022764107268 110.27826663072334 1.641427
    vertex 178.31799822137495 110.27826663072334 1.641427
  endloop
endfacet
facet normal 1.0 0.0 0.0
  outer loop
    vertex 178.31799822137495 110.27826663072334 0.0
    vertex 178.31799822137495 89.52341463072334 1.641427
    vertex 178.31799822137495 89.52341463072334 0.0
  endloop
endfacet
facet normal 1.0 0.0 0.0
  outer loop
    vertex 178.31799822137495 89.52341463072334 1.641427
    vertex 178.31799822137495 110.27826663072334 0.0
    vertex 178.31799822137495 110.27826663072334 1.641427
  endloop
endfacet
facet normal -1.0 0.0 0.0
  outer loop
    vertex 146.00015264107267 114.69433163072334 1.641427
    vertex 146.00015264107267 110.27826663072334 0.0
    vertex 146.00015264107267 110.27826663072334 1.641427
  endloop
endfacet
facet normal -1.0 0.0 0.0
  outer loop
    vertex 146.00015264107267 110.27826663072334 0.0
    vertex 146.00015264107267 114.69433163072334 1.641427
    vertex 146.00015264107267 114.69433163072334 0.0
  endloop
endfacet
facet normal -0.0 1.0 0.0
  outer loop
    vertex 146.00015264107267 114.69433163072334 1.641427
    vertex 163.97022764107268 114.69433163072334 0.0
    vertex 146.00015264107267 114.69433163072334 0.0
  endloop
endfacet
facet normal -0.0 1.0 0.0
  outer loop
    vertex 163.97022764107268 114.69433163072334 0.0
    vertex 146.00015264107267 114.69433163072334 1.641427
    vertex 163.97022764107268 114.69433163072334 1.641427
  endloop
endfacet
facet normal 1.0 0.0 0.0
  outer loop
    vertex 163.97022764107268 114.69433163072334 0.0
    vertex 163.97022764107268 110.27826663072334 1.641427
    vertex 163.97022764107268 110.27826663072334 0.0
  endloop
endfacet
facet normal 1.0 0.0 0.0
  outer loop
    vertex 163.97022764107268 110.27826663072334 1.641427
    vertex 163.97022764107268 114.69433163072334 0.0
    vertex 163.97022764107268 114.69433163072334 1.641427
  endloop
endfacet
facet normal -0.0 -1.0 -0.0
  outer loop
    vertex 178.31799822137495 89.52341463072334 1.641427
    vertex 134.66513122137496 89.52341463072334 0.0
    vertex 178.31799822137495 89.52341463072334 0.0
  endloop
endfacet
facet normal -0.0 -1.0 -0.0
  outer loop
    vertex 134.66513122137496 89.52341463072334 0.0
    vertex 178.31799822137495 89.52341463072334 1.641427
    vertex 134.66513122137496 89.52341463072334 1.641427
  endloop
endfacet
facet normal -1.0 0.0 0.0
  outer loop
    vertex 134.66513122137496 110.27826663072334 1.641427
    vertex 134.66513122137496 89.52341463072334 0.0
    vertex 134.66513122137496 89.52341463072334 1.641427
  endloop
endfacet
facet normal -1.0 0.0 0.0
  outer loop
    vertex 134.66513122137496 89.52341463072334 0.0
    vertex 134.66513122137496 110.27826663072334 1.641427
    vertex 134.66513122137496 110.27826663072334 0.0
  endloop
endfacet
facet normal -0.0 1.0 0.0
  outer loop
    vertex 134.66513122137496 110.27826663072334 1.641427
    vertex 146.00015264107267 110.27826663072334 0.0
    vertex 134.66513122137496 110.27826663072334 0.0
  endloop
endfacet
facet normal -0.0 1.0 0.0
  outer loop
    vertex 146.00015264107267 110.27826663072334 0.0
    vertex 134.66513122137496 110.27826663072334 1.641427
    vertex 146.00015264107267 110.27826663072334 1.641427
  endloop
endfacet
facet normal -1.0 0.0 0.0
  outer loop
    vertex 143.75953122137497 107.88484263072334 1.641427
    vertex 143.75953122137497 105.07100563072332 0.0
    vertex 143.75953122137497 105.07100563072332 1.641427
  endloop
endfacet
facet normal -1.0 0.0 0.0
  outer loop
    vertex 143.75953122137497 105.07100563072332 0.0
    vertex 143.75953122137497 107.88484263072334 1.641427
    vertex 143.75953122137497 107.88484263072334 0.0
  endloop
endfacet
facet normal -0.0 1.0 0.0
  outer loop
    vertex 137.98557222137498 105.07100563072332 1.641427
    vertex 143.75953122137497 105.07100563072332 0.0
    vertex 137.98557222137498 105.07100563072332 0.0
  endloop
endfacet
facet normal -0.0 1.0 0.0
  outer loop
    vertex 143.75953122137497 105.07100563072332 0.0
    vertex 137.98557222137498 105.07100563072332 1.641427
    vertex 143.75953122137497 105.07100563072332 1.641427
  endloop
endfacet
facet normal -1.0 0.0 0.0
  outer loop
    vertex 148.44386664107267 102.89383723076963 1.641427
    vertex 148.44386664107267 97.68058023076964 0.0
    vertex 148.44386664107267 97.68058023076964 1.641427
  endloop
endfacet
facet normal -1.0 0.0 0.0
  outer loop
    vertex 148.44386664107267 97.68058023076964 0.0
    vertex 148.44386664107267 102.89383723076963 1.641427
    vertex 148.44386664107267 102.89383723076963 0.0
  endloop
endfacet
facet normal -0.0 -1.0 -0.0
  outer loop
    vertex 143.75953122137497 107.88484263072334 1.641427
    vertex 137.98557222137498 107.88484263072334 0.0
    vertex 143.75953122137497 107.88484263072334 0.0
  endloop
endfacet
facet normal -0.0 -1.0 -0.0
  outer loop
    vertex 137.98557222137498 107.88484263072334 0.0
    vertex 143.75953122137497 107.88484263072334 1.641427
    vertex 137.98557222137498 107.88484263072334 1.641427
  endloop
endfacet
facet normal -0.0 1.0 0.0
  outer loop
    vertex 168.53520722137495 91.78782763072334 1.641427
    vertex 174.55075022137495 91.78782763072334 0.0
    vertex 168.53520722137495 91.78782763072334 0.0
  endloop
endfacet
facet normal -0.0 1.0 0.0
  outer loop
    vertex 174.55075022137495 91.78782763072334 0.0
    vertex 168.53520722137495 91.78782763072334 1.641427
    vertex 174.55075022137495 91.78782763072334 1.641427
  endloop
endfacet
facet normal -0.0 -1.0 -0.0
  outer loop
    vertex 174.55075022137495 94.45986163072334 1.641427
    vertex 168.53520722137495 94.45986163072334 0.0
    vertex 174.55075022137495 94.45986163072334 0.0
  endloop
endfacet
facet normal -0.0 -1.0 -0.0
  outer loop
    vertex 168.53520722137495 94.45986163072334 0.0
    vertex 174.55075022137495 94.45986163072334 1.641427
    vertex 168.53520722137495 94.45986163072334 1.641427
  endloop
endfacet
facet normal -1.0 0.0 0.0
  outer loop
    vertex 174.55075022137495 107.88484263072334 1.641427
    vertex 174.55075022137495 105.07100563072332 0.0
    vertex 174.55075022137495 105.07100563072332 1.641427
  endloop
endfacet
facet normal -1.0 0.0 0.0
  outer loop
    vertex 174.55075022137495 105.07100563072332 0.0
    vertex 174.55075022137495 107.88484263072334 1.641427
    vertex 174.55075022137495 107.88484263072334 0.0
  endloop
endfacet
facet normal -0.0 -1.0 -0.0
  outer loop
    vertex 164.08363731100715 102.89383723076963 1.641427
    vertex 161.47700931100715 102.89383723076963 0.0
    vertex 164.08363731100715 102.89383723076963 0.0
  endloop
endfacet
facet normal -0.0 -1.0 -0.0
  outer loop
    vertex 161.47700931100715 102.89383723076963 0.0
    vertex 164.08363731100715 102.89383723076963 1.641427
    vertex 161.47700931100715 102.89383723076963 1.641427
  endloop
endfacet
facet normal -0.608761429008718 0.7933533402912374 0.0
  outer loop
    vertex 155.6333078572341 109.24252842925502 1.641427
    vertex 156.09462723566773 109.59651123840482 0.0
    vertex 155.6333078572341 109.24252842925502 0.0
  endloop
endfacet
facet normal -0.608761429008718 0.7933533402912374 0.0
  outer loop
    vertex 156.09462723566773 109.59651123840482 0.0
    vertex 155.6333078572341 109.24252842925502 1.641427
    vertex 156.09462723566773 109.59651123840482 1.641427
  endloop
endfacet
facet normal 1.0 0.0 0.0
  outer loop
    vertex 137.98557222137498 107.88484263072334 0.0
    vertex 137.98557222137498 105.07100563072332 1.641427
    vertex 137.98557222137498 105.07100563072332 0.0
  endloop
endfacet
facet normal 1.0 0.0 0.0
  outer loop
    vertex 137.98557222137498 105.07100563072332 1.641427
    vertex 137.98557222137498 107.88484263072334 0.0
    vertex 137.98557222137498 107.88484263072334 1.641427
  endloop
endfacet
facet normal -1.0 0.0 0.0
  outer loop
    vertex 174.55075022137495 94.45986163072334 1.641427
    vertex 174.55075022137495 91.78782763072334 0.0
    vertex 174.55075022137495 91.78782763072334 1.641427
  endloop
endfacet
facet normal -1.0 0.0 0.0
  outer loop
    vertex 174.55075022137495 91.78782763072334 0.0
    vertex 174.55075022137495 94.45986163072334 1.641427
    vertex 174.55075022137495 94.45986163072334 0.0
  endloop
endfacet
facet normal -0.7933533402912374 0.608761429008718 0.0
  outer loop
    vertex 156.44861004481754 110.05783061683844 1.641427
    vertex 156.09462723566773 109.59651123840482 0.0
    vertex 156.09462723566773 109.59651123840482 1.641427
  endloop
endfacet
facet normal -0.7933533402912374 0.608761429008718 0.0
  outer loop
    vertex 156.09462723566773 109.59651123840482 0.0
    vertex 156.44861004481754 110.05783061683844 1.641427
    vertex 156.44861004481754 110.05783061683844 0.0
  endloop
endfacet
facet normal -0.9238795325112801 -0.382683432365106 -0.0
  outer loop
    vertex 156.44861004481754 112.28527761683844 1.641427
    vertex 156.67113294122422 111.74805982239492 0.0
    vertex 156.67113294122422 111.74805982239492 1.641427
  endloop
endfacet
facet normal -0.9238795325112801 -0.382683432365106 -0.0
  outer loop
    vertex 156.67113294122422 111.74805982239492 0.0
    vertex 156.44861004481754 112.28527761683844 1.641427
    vertex 156.44861004481754 112.28527761683844 0.0
  endloop
endfacet
facet normal -0.0 1.0 0.0
  outer loop
    vertex 168.53520722137495 105.07100563072332 1.641427
    vertex 174.55075022137495 105.07100563072332 0.0
    vertex 168.53520722137495 105.07100563072332 0.0
  endloop
endfacet
facet normal -0.0 1.0 0.0
  outer loop
    vertex 174.55075022137495 105.07100563072332 0.0
    vertex 168.53520722137495 105.07100563072332 1.641427
    vertex 174.55075022137495 105.07100563072332 1.641427
  endloop
endfacet
facet normal -1.0 0.0 0.0
  outer loop
    vertex 143.75953122137497 94.45986163072334 1.641427
    vertex 143.75953122137497 91.78782763072334 0.0
    vertex 143.75953122137497 91.78782763072334 1.641427
  endloop
endfacet
facet normal -1.0 0.0 0.0
  outer loop
    vertex 143.75953122137497 91.78782763072334 0.0
    vertex 143.75953122137497 94.45986163072334 1.641427
    vertex 143.75953122137497 94.45986163072334 0.0
  endloop
endfacet
facet normal -0.0 -1.0 -0.0
  outer loop
    vertex 148.44386664107267 102.89383723076963 1.641427
    vertex 146.00015264107267 102.89383723076963 0.0
    vertex 148.44386664107267 102.89383723076963 0.0
  endloop
endfacet
facet normal -0.0 -1.0 -0.0
  outer loop
    vertex 146.00015264107267 102.89383723076963 0.0
    vertex 148.44386664107267 102.89383723076963 1.641427
    vertex 146.00015264107267 102.89383723076963 1.641427
  endloop
endfacet
facet normal -1.0 0.0 0.0
  outer loop
    vertex 164.08363731100715 102.89383723076963 1.641427
    vertex 164.08363731100715 97.68058023076964 0.0
    vertex 164.08363731100715 97.68058023076964 1.641427
  endloop
endfacet
facet normal -1.0 0.0 0.0
  outer loop
    vertex 164.08363731100715 97.68058023076964 0.0
    vertex 164.08363731100715 102.89383723076963 1.641427
    vertex 164.08363731100715 102.89383723076963 0.0
  endloop
endfacet
facet normal -0.9238795325112801 0.382683432365106 0.0
  outer loop
    vertex 156.67113294122422 110.59504841128197 1.641427
    vertex 156.44861004481754 110.05783061683844 0.0
    vertex 156.44861004481754 110.05783061683844 1.641427
  endloop
endfacet
facet normal -0.9238795325112801 0.382683432365106 0.0
  outer loop
    vertex 156.44861004481754 110.05783061683844 0.0
    vertex 156.67113294122422 110.59504841128197 1.641427
    vertex 156.67113294122422 110.59504841128197 0.0
  endloop
endfacet
facet normal -0.9914448613738114 -0.13052619222004436 -0.0
  outer loop
    vertex 156.67113294122422 111.74805982239492 1.641427
    vertex 156.7470313572341 111.17155411683845 0.0
    vertex 156.7470313572341 111.17155411683845 1.641427
  endloop
endfacet
facet normal -0.9914448613738114 -0.13052619222004436 -0.0
  outer loop
    vertex 156.7470313572341 111.17155411683845 0.0
    vertex 156.67113294122422 111.74805982239492 1.641427
    vertex 156.67113294122422 111.74805982239492 0.0
  endloop
endfacet
facet normal -0.0 1.0 0.0
  outer loop
    vertex 146.00015264107267 97.68058023076964 1.641427
    vertex 148.44386664107267 97.68058023076964 0.0
    vertex 146.00015264107267 97.68058023076964 0.0
  endloop
endfacet
facet normal -0.0 1.0 0.0
  outer loop
    vertex 148.44386664107267 97.68058023076964 0.0
    vertex 146.00015264107267 97.68058023076964 1.641427
    vertex 148.44386664107267 97.68058023076964 1.641427
  endloop
endfacet
facet normal -0.0 1.0 0.0
  outer loop
    vertex 137.98557222137498 91.78782763072334 1.641427
    vertex 143.75953122137497 91.78782763072334 0.0
    vertex 137.98557222137498 91.78782763072334 0.0
  endloop
endfacet
facet normal -0.0 1.0 0.0
  outer loop
    vertex 143.75953122137497 91.78782763072334 0.0
    vertex 137.98557222137498 91.78782763072334 1.641427
    vertex 143.75953122137497 91.78782763072334 1.641427
  endloop
endfacet
facet normal 1.0 0.0 0.0
  outer loop
    vertex 146.00015264107267 102.89383723076963 0.0
    vertex 146.00015264107267 97.68058023076964 1.641427
    vertex 146.00015264107267 97.68058023076964 0.0
  endloop
endfacet
facet normal 1.0 0.0 0.0
  outer loop
    vertex 146.00015264107267 97.68058023076964 1.641427
    vertex 146.00015264107267 102.89383723076963 0.0
    vertex 146.00015264107267 102.89383723076963 1.641427
  endloop
endfacet
facet normal -0.0 1.0 0.0
  outer loop
    vertex 161.47700931100715 97.68058023076964 1.641427
    vertex 164.08363731100715 97.68058023076964 0.0
    vertex 161.47700931100715 97.68058023076964 0.0
  endloop
endfacet
facet normal -0.0 1.0 0.0
  outer loop
    vertex 164.08363731100715 97.68058023076964 0.0
    vertex 161.47700931100715 97.68058023076964 1.641427
    vertex 164.08363731100715 97.68058023076964 1.641427
  endloop
endfacet
facet normal 1.0 0.0 0.0
  outer loop
    vertex 168.53520722137495 94.45986163072334 0.0
    vertex 168.53520722137495 91.78782763072334 1.641427
    vertex 168.53520722137495 91.78782763072334 0.0
  endloop
endfacet
facet normal 1.0 0.0 0.0
  outer loop
    vertex 168.53520722137495 91.78782763072334 1.641427
    vertex 168.53520722137495 94.45986163072334 0.0
    vertex 168.53520722137495 94.45986163072334 1.641427
  endloop
endfacet
facet normal -0.9914448613738114 0.13052619222004436 0.0
  outer loop
    vertex 156.7470313572341 111.17155411683845 1.641427
    vertex 156.67113294122422 110.59504841128197 0.0
    vertex 156.67113294122422 110.59504841128197 1.641427
  endloop
endfacet
facet normal -0.9914448613738114 0.13052619222004436 0.0
  outer loop
    vertex 156.67113294122422 110.59504841128197 0.0
    vertex 156.7470313572341 111.17155411683845 1.641427
    vertex 156.7470313572341 111.17155411683845 0.0
  endloop
endfacet
facet normal 1.0 0.0 0.0
  outer loop
    vertex 137.98557222137498 94.45986163072334 0.0
    vertex 137.98557222137498 91.78782763072334 1.641427
    vertex 137.98557222137498 91.78782763072334 0.0
  endloop
endfacet
facet normal 1.0 0.0 0.0
  outer loop
    vertex 137.98557222137498 91.78782763072334 1.641427
    vertex 137.98557222137498 94.45986163072334 0.0
    vertex 137.98557222137498 94.45986163072334 1.641427
  endloop
endfacet
facet normal 1.0 0.0 0.0
  outer loop
    vertex 161.47700931100715 102.89383723076963 0.0
    vertex 161.47700931100715 97.68058023076964 1.641427
    vertex 161.47700931100715 97.68058023076964 0.0
  endloop
endfacet
facet normal 1.0 0.0 0.0
  outer loop
    vertex 161.47700931100715 97.68058023076964 1.641427
    vertex 161.47700931100715 102.89383723076963 0.0
    vertex 161.47700931100715 102.89383723076963 1.641427
  endloop
endfacet
facet normal -0.7933533402912374 -0.608761429008718 -0.0
  outer loop
    vertex 156.09462723566773 112.74659699527207 1.641427
    vertex 156.44861004481754 112.28527761683844 0.0
    vertex 156.44861004481754 112.28527761683844 1.641427
  endloop
endfacet
facet normal -0.7933533402912374 -0.608761429008718 -0.0
  outer loop
    vertex 156.44861004481754 112.28527761683844 0.0
    vertex 156.09462723566773 112.74659699527207 1.641427
    vertex 156.09462723566773 112.74659699527207 0.0
  endloop
endfacet
facet normal -0.0 -1.0 -0.0
  outer loop
    vertex 143.75953122137497 94.45986163072334 1.641427
    vertex 137.98557222137498 94.45986163072334 0.0
    vertex 143.75953122137497 94.45986163072334 0.0
  endloop
endfacet
facet normal -0.0 -1.0 -0.0
  outer loop
    vertex 137.98557222137498 94.45986163072334 0.0
    vertex 143.75953122137497 94.45986163072334 1.641427
    vertex 137.98557222137498 94.45986163072334 1.641427
  endloop
endfacet
facet normal 1.0 0.0 0.0
  outer loop
    vertex 168.53520722137495 107.88484263072334 0.0
    vertex 168.53520722137495 105.07100563072332 1.641427
    vertex 168.53520722137495 105.07100563072332 0.0
  endloop
endfacet
facet normal 1.0 0.0 0.0
  outer loop
    vertex 168.53520722137495 105.07100563072332 1.641427
    vertex 168.53520722137495 107.88484263072334 0.0
    vertex 168.53520722137495 107.88484263072334 1.641427
  endloop
endfacet
facet normal -0.0 -1.0 -0.0
  outer loop
    vertex 174.55075022137495 107.88484263072334 1.641427
    vertex 168.53520722137495 107.88484263072334 0.0
    vertex 174.55075022137495 107.88484263072334 0.0
  endloop
endfacet
facet normal -0.0 -1.0 -0.0
  outer loop
    vertex 168.53520722137495 107.88484263072334 0.0
    vertex 174.55075022137495 107.88484263072334 1.641427
    vertex 168.53520722137495 107.88484263072334 1.641427
  endloop
endfacet
facet normal 0.608761429008718 -0.7933533402912374 0.0
  outer loop
    vertex 153.4058608572341 113.10057980442188 1.641427
    vertex 152.94454147880046 112.74659699527207 0.0
    vertex 153.4058608572341 113.10057980442188 0.0
  endloop
endfacet
facet normal 0.608761429008718 -0.7933533402912374 0.0
  outer loop
    vertex 152.94454147880046 112.74659699527207 0.0
    vertex 153.4058608572341 113.10057980442188 1.641427
    vertex 152.94454147880046 112.74659699527207 1.641427
  endloop
endfacet
facet normal 0.382683432365106 0.9238795325112801 0.0
  outer loop
    vertex 153.4058608572341 109.24252842925502 1.641427
    vertex 153.9430786516776 109.02000553284833 0.0
    vertex 153.4058608572341 109.24252842925502 0.0
  endloop
endfacet
facet normal 0.382683432365106 0.9238795325112801 0.0
  outer loop
    vertex 153.9430786516776 109.02000553284833 0.0
    vertex 153.4058608572341 109.24252842925502 1.641427
    vertex 153.9430786516776 109.02000553284833 1.641427
  endloop
endfacet
facet normal -0.382683432365106 0.9238795325112801 0.0
  outer loop
    vertex 155.09609006279058 109.02000553284833 1.641427
    vertex 155.6333078572341 109.24252842925502 0.0
    vertex 155.09609006279058 109.02000553284833 0.0
  endloop
endfacet
facet normal -0.382683432365106 0.9238795325112801 0.0
  outer loop
    vertex 155.6333078572341 109.24252842925502 0.0
    vertex 155.09609006279058 109.02000553284833 1.641427
    vertex 155.6333078572341 109.24252842925502 1.641427
  endloop
endfacet
facet normal 0.9238795325112801 0.382683432365106 0.0
  outer loop
    vertex 152.36803577324397 110.59504841128197 0.0
    vertex 152.59055866965068 110.05783061683844 1.641427
    vertex 152.59055866965068 110.05783061683844 0.0
  endloop
endfacet
facet normal 0.9238795325112801 0.382683432365106 0.0
  outer loop
    vertex 152.59055866965068 110.05783061683844 1.641427
    vertex 152.36803577324397 110.59504841128197 0.0
    vertex 152.36803577324397 110.59504841128197 1.641427
  endloop
endfacet
facet normal -0.13052619222004436 -0.9914448613738114 -0.0
  outer loop
    vertex 155.09609006279058 113.32310270082856 1.641427
    vertex 154.5195843572341 113.39900111683845 0.0
    vertex 155.09609006279058 113.32310270082856 0.0
  endloop
endfacet
facet normal -0.13052619222004436 -0.9914448613738114 -0.0
  outer loop
    vertex 154.5195843572341 113.39900111683845 0.0
    vertex 155.09609006279058 113.32310270082856 1.641427
    vertex 154.5195843572341 113.39900111683845 1.641427
  endloop
endfacet
facet normal 0.13052619222004436 -0.9914448613738114 0.0
  outer loop
    vertex 154.5195843572341 113.39900111683845 1.641427
    vertex 153.9430786516776 113.32310270082856 0.0
    vertex 154.5195843572341 113.39900111683845 0.0
  endloop
endfacet
facet normal 0.13052619222004436 -0.9914448613738114 0.0
  outer loop
    vertex 153.9430786516776 113.32310270082856 0.0
    vertex 154.5195843572341 113.39900111683845 1.641427
    vertex 153.9430786516776 113.32310270082856 1.641427
  endloop
endfacet
facet normal 0.7933533402912374 0.608761429008718 0.0
  outer loop
    vertex 152.59055866965068 110.05783061683844 0.0
    vertex 152.94454147880046 109.59651123840482 1.641427
    vertex 152.94454147880046 109.59651123840482 0.0
  endloop
endfacet
facet normal 0.7933533402912374 0.608761429008718 0.0
  outer loop
    vertex 152.94454147880046 109.59651123840482 1.641427
    vertex 152.59055866965068 110.05783061683844 0.0
    vertex 152.59055866965068 110.05783061683844 1.641427
  endloop
endfacet
facet normal 0.382683432365106 -0.9238795325112801 0.0
  outer loop
    vertex 153.9430786516776 113.32310270082856 1.641427
    vertex 153.4058608572341 113.10057980442188 0.0
    vertex 153.9430786516776 113.32310270082856 0.0
  endloop
endfacet
facet normal 0.382683432365106 -0.9238795325112801 0.0
  outer loop
    vertex 153.4058608572341 113.10057980442188 0.0
    vertex 153.9430786516776 113.32310270082856 1.641427
    vertex 153.4058608572341 113.10057980442188 1.641427
  endloop
endfacet
facet normal 0.9238795325112801 -0.382683432365106 0.0
  outer loop
    vertex 152.59055866965068 112.28527761683844 0.0
    vertex 152.36803577324397 111.74805982239492 1.641427
    vertex 152.36803577324397 111.74805982239492 0.0
  endloop
endfacet
facet normal 0.9238795325112801 -0.382683432365106 0.0
  outer loop
    vertex 152.36803577324397 111.74805982239492 1.641427
    vertex 152.59055866965068 112.28527761683844 0.0
    vertex 152.59055866965068 112.28527761683844 1.641427
  endloop
endfacet
facet normal 0.608761429008718 0.7933533402912374 0.0
  outer loop
    vertex 152.94454147880046 109.59651123840482 1.641427
    vertex 153.4058608572341 109.24252842925502 0.0
    vertex 152.94454147880046 109.59651123840482 0.0
  endloop
endfacet
facet normal 0.608761429008718 0.7933533402912374 0.0
  outer loop
    vertex 153.4058608572341 109.24252842925502 0.0
    vertex 152.94454147880046 109.59651123840482 1.641427
    vertex 153.4058608572341 109.24252842925502 1.641427
  endloop
endfacet
facet normal -0.13052619222004436 0.9914448613738114 0.0
  outer loop
    vertex 154.5195843572341 108.94410711683845 1.641427
    vertex 155.09609006279058 109.02000553284833 0.0
    vertex 154.5195843572341 108.94410711683845 0.0
  endloop
endfacet
facet normal -0.13052619222004436 0.9914448613738114 0.0
  outer loop
    vertex 155.09609006279058 109.02000553284833 0.0
    vertex 154.5195843572341 108.94410711683845 1.641427
    vertex 155.09609006279058 109.02000553284833 1.641427
  endloop
endfacet
facet normal 0.9914448613738114 0.13052619222004436 0.0
  outer loop
    vertex 152.2921373572341 111.17155411683845 0.0
    vertex 152.36803577324397 110.59504841128197 1.641427
    vertex 152.36803577324397 110.59504841128197 0.0
  endloop
endfacet
facet normal 0.9914448613738114 0.13052619222004436 0.0
  outer loop
    vertex 152.36803577324397 110.59504841128197 1.641427
    vertex 152.2921373572341 111.17155411683845 0.0
    vertex 152.2921373572341 111.17155411683845 1.641427
  endloop
endfacet
facet normal 0.7933533402912374 -0.608761429008718 0.0
  outer loop
    vertex 152.94454147880046 112.74659699527207 0.0
    vertex 152.59055866965068 112.28527761683844 1.641427
    vertex 152.59055866965068 112.28527761683844 0.0
  endloop
endfacet
facet normal 0.7933533402912374 -0.608761429008718 0.0
  outer loop
    vertex 152.59055866965068 112.28527761683844 1.641427
    vertex 152.94454147880046 112.74659699527207 0.0
    vertex 152.94454147880046 112.74659699527207 1.641427
  endloop
endfacet
facet normal 0.13052619222004436 0.9914448613738114 0.0
  outer loop
    vertex 153.9430786516776 109.02000553284833 1.641427
    vertex 154.5195843572341 108.94410711683845 0.0
    vertex 153.9430786516776 109.02000553284833 0.0
  endloop
endfacet
facet normal 0.13052619222004436 0.9914448613738114 0.0
  outer loop
    vertex 154.5195843572341 108.94410711683845 0.0
    vertex 153.9430786516776 109.02000553284833 1.641427
    vertex 154.5195843572341 108.94410711683845 1.641427
  endloop
endfacet
facet normal 0.9914448613738114 -0.13052619222004436 0.0
  outer loop
    vertex 152.36803577324397 111.74805982239492 0.0
    vertex 152.2921373572341 111.17155411683845 1.641427
    vertex 152.2921373572341 111.17155411683845 0.0
  endloop
endfacet
facet normal 0.9914448613738114 -0.13052619222004436 0.0
  outer loop
    vertex 152.2921373572341 111.17155411683845 1.641427
    vertex 152.36803577324397 111.74805982239492 0.0
    vertex 152.36803577324397 111.74805982239492 1.641427
  endloop
endfacet
facet normal -0.608761429008718 -0.7933533402912374 -0.0
  outer loop
    vertex 156.09462723566773 112.74659699527207 1.641427
    vertex 155.6333078572341 113.10057980442188 0.0
    vertex 156.09462723566773 112.74659699527207 0.0
  endloop
endfacet
facet normal -0.608761429008718 -0.7933533402912374 -0.0
  outer loop
    vertex 155.6333078572341 113.10057980442188 0.0
    vertex 156.09462723566773 112.74659699527207 1.641427
    vertex 155.6333078572341 113.10057980442188 1.641427
  endloop
endfacet
facet normal -0.382683432365106 -0.9238795325112801 -0.0
  outer loop
    vertex 155.6333078572341 113.10057980442188 1.641427
    vertex 155.09609006279058 113.32310270082856 0.0
    vertex 155.6333078572341 113.10057980442188 0.0
  endloop
endfacet
facet normal -0.382683432365106 -0.9238795325112801 -0.0
  outer loop
    vertex 155.09609006279058 113.32310270082856 0.0
    vertex 155.6333078572341 113.10057980442188 1.641427
    vertex 155.09609006279058 113.32310270082856 1.641427
  endloop
endfacet
facet normal 0.0 0.0 -1.0
  outer loop
    vertex 186.415350921079 110.6636758898764 0.0
    vertex 189.73579192107903 108.27025188987639 0.0
    vertex 186.415350921079 89.9088238898764 0.0
  endloop
endfacet
facet normal 0.0 0.0 -1.0
  outer loop
    vertex 189.73579192107903 108.27025188987639 0.0
    vertex 186.415350921079 110.6636758898764 0.0
    vertex 230.068217921079 110.6636758898764 0.0
  endloop
endfacet
facet normal 0.0 0.0 -1.0
  outer loop
    vertex 189.73579192107903 108.27025188987639 0.0
    vertex 230.068217921079 110.6636758898764 0.0
    vertex 195.50975092107902 108.27025188987639 0.0
  endloop
endfacet
facet normal 0.0 0.0 -1.0
  outer loop
    vertex 195.50975092107902 108.27025188987639 0.0
    vertex 230.068217921079 110.6636758898764 0.0
    vertex 195.50975092107902 105.45641488987638 0.0
  endloop
endfacet
facet normal 0.0 0.0 -1.0
  outer loop
    vertex 195.50975092107902 105.45641488987638 0.0
    vertex 230.068217921079 110.6636758898764 0.0
    vertex 197.75037234077672 103.2792464899227 0.0
  endloop
endfacet
facet normal 0.0 0.0 -1.0
  outer loop
    vertex 195.50975092107902 105.45641488987638 0.0
    vertex 197.75037234077672 103.2792464899227 0.0
    vertex 195.50975092107902 94.8452708898764 0.0
  endloop
endfacet
facet normal 0.0 0.0 -1.0
  outer loop
    vertex 195.50975092107902 94.8452708898764 0.0
    vertex 197.75037234077672 103.2792464899227 0.0
    vertex 195.50975092107902 92.1732368898764 0.0
  endloop
endfacet
facet normal 0.0 0.0 -1.0
  outer loop
    vertex 197.75037234077672 103.2792464899227 0.0
    vertex 230.068217921079 110.6636758898764 0.0
    vertex 220.28542692107897 108.27025188987639 0.0
  endloop
endfacet
facet normal 0.0 0.0 -1.0
  outer loop
    vertex 197.75037234077672 103.2792464899227 0.0
    vertex 220.28542692107897 108.27025188987639 0.0
    vertex 200.19408634077672 103.2792464899227 0.0
  endloop
endfacet
facet normal 0.0 0.0 -1.0
  outer loop
    vertex 200.19408634077672 103.2792464899227 0.0
    vertex 220.28542692107897 108.27025188987639 0.0
    vertex 200.19408634077672 98.06598948992269 0.0
  endloop
endfacet
facet normal 0.0 0.0 -1.0
  outer loop
    vertex 200.19408634077672 98.06598948992269 0.0
    vertex 220.28542692107897 108.27025188987639 0.0
    vertex 213.22722901071123 103.2792464899227 0.0
  endloop
endfacet
facet normal 0.0 0.0 -1.0
  outer loop
    vertex 213.22722901071123 103.2792464899227 0.0
    vertex 220.28542692107897 108.27025188987639 0.0
    vertex 215.8338570107112 103.2792464899227 0.0
  endloop
endfacet
facet normal 0.0 0.0 -1.0
  outer loop
    vertex 215.8338570107112 103.2792464899227 0.0
    vertex 220.28542692107897 108.27025188987639 0.0
    vertex 215.8338570107112 98.06598948992269 0.0
  endloop
endfacet
facet normal 0.0 0.0 -1.0
  outer loop
    vertex 220.28542692107897 108.27025188987639 0.0
    vertex 230.068217921079 110.6636758898764 0.0
    vertex 226.30096992107903 108.27025188987639 0.0
  endloop
endfacet
facet normal 0.0 0.0 -1.0
  outer loop
    vertex 226.30096992107903 108.27025188987639 0.0
    vertex 230.068217921079 110.6636758898764 0.0
    vertex 226.30096992107903 105.45641488987638 0.0
  endloop
endfacet
facet normal 0.0 0.0 -1.0
  outer loop
    vertex 226.30096992107903 105.45641488987638 0.0
    vertex 230.068217921079 110.6636758898764 0.0
    vertex 226.30096992107903 94.8452708898764 0.0
  endloop
endfacet
facet normal 0.0 0.0 -1.0
  outer loop
    vertex 226.30096992107903 94.8452708898764 0.0
    vertex 230.068217921079 110.6636758898764 0.0
    vertex 226.30096992107903 92.1732368898764 0.0
  endloop
endfacet
facet normal 0.0 0.0 -1.0
  outer loop
    vertex 186.415350921079 89.9088238898764 0.0
    vertex 189.73579192107903 92.1732368898764 0.0
    vertex 230.068217921079 89.9088238898764 0.0
  endloop
endfacet
facet normal 0.0 0.0 -1.0
  outer loop
    vertex 189.73579192107903 92.1732368898764 0.0
    vertex 186.415350921079 89.9088238898764 0.0
    vertex 189.73579192107903 108.27025188987639 0.0
  endloop
endfacet
facet normal 0.0 0.0 -1.0
  outer loop
    vertex 189.73579192107903 92.1732368898764 0.0
    vertex 189.73579192107903 108.27025188987639 0.0
    vertex 189.73579192107903 105.45641488987638 0.0
  endloop
endfacet
facet normal 0.0 0.0 -1.0
  outer loop
    vertex 189.73579192107903 92.1732368898764 0.0
    vertex 189.73579192107903 105.45641488987638 0.0
    vertex 189.73579192107903 94.8452708898764 0.0
  endloop
endfacet
facet normal 0.0 0.0 -1.0
  outer loop
    vertex 230.068217921079 89.9088238898764 0.0
    vertex 189.73579192107903 92.1732368898764 0.0
    vertex 195.50975092107902 92.1732368898764 0.0
  endloop
endfacet
facet normal 0.0 0.0 -1.0
  outer loop
    vertex 230.068217921079 89.9088238898764 0.0
    vertex 195.50975092107902 92.1732368898764 0.0
    vertex 220.28542692107897 92.1732368898764 0.0
  endloop
endfacet
facet normal 0.0 0.0 -1.0
  outer loop
    vertex 220.28542692107897 92.1732368898764 0.0
    vertex 195.50975092107902 92.1732368898764 0.0
    vertex 197.75037234077672 98.06598948992269 0.0
  endloop
endfacet
facet normal 0.0 0.0 -1.0
  outer loop
    vertex 197.75037234077672 98.06598948992269 0.0
    vertex 195.50975092107902 92.1732368898764 0.0
    vertex 197.75037234077672 103.2792464899227 0.0
  endloop
endfacet
facet normal 0.0 0.0 -1.0
  outer loop
    vertex 220.28542692107897 92.1732368898764 0.0
    vertex 197.75037234077672 98.06598948992269 0.0
    vertex 200.19408634077672 98.06598948992269 0.0
  endloop
endfacet
facet normal 0.0 0.0 -1.0
  outer loop
    vertex 220.28542692107897 92.1732368898764 0.0
    vertex 200.19408634077672 98.06598948992269 0.0
    vertex 213.22722901071123 98.06598948992269 0.0
  endloop
endfacet
facet normal 0.0 0.0 -1.0
  outer loop
    vertex 213.22722901071123 98.06598948992269 0.0
    vertex 200.19408634077672 98.06598948992269 0.0
    vertex 213.22722901071123 103.2792464899227 0.0
  endloop
endfacet
facet normal 0.0 0.0 -1.0
  outer loop
    vertex 220.28542692107897 92.1732368898764 0.0
    vertex 213.22722901071123 98.06598948992269 0.0
    vertex 215.8338570107112 98.06598948992269 0.0
  endloop
endfacet
facet normal 0.0 0.0 -1.0
  outer loop
    vertex 220.28542692107897 92.1732368898764 0.0
    vertex 215.8338570107112 98.06598948992269 0.0
    vertex 220.28542692107897 108.27025188987639 0.0
  endloop
endfacet
facet normal 0.0 0.0 -1.0
  outer loop
    vertex 220.28542692107897 92.1732368898764 0.0
    vertex 220.28542692107897 108.27025188987639 0.0
    vertex 220.28542692107897 105.45641488987638 0.0
  endloop
endfacet
facet normal 0.0 0.0 -1.0
  outer loop
    vertex 220.28542692107897 92.1732368898764 0.0
    vertex 220.28542692107897 105.45641488987638 0.0
    vertex 220.28542692107897 94.8452708898764 0.0
  endloop
endfacet
facet normal 0.0 0.0 -1.0
  outer loop
    vertex 230.068217921079 89.9088238898764 0.0
    vertex 220.28542692107897 92.1732368898764 0.0
    vertex 226.30096992107903 92.1732368898764 0.0
  endloop
endfacet
facet normal 0.0 0.0 -1.0
  outer loop
    vertex 230.068217921079 89.9088238898764 0.0
    vertex 226.30096992107903 92.1732368898764 0.0
    vertex 230.068217921079 110.6636758898764 0.0
  endloop
endfacet
facet normal 0.0 0.0 -1.0
  outer loop
    vertex 226.30096992107903 105.45641488987638 0.0
    vertex 220.28542692107897 94.8452708898764 0.0
    vertex 220.28542692107897 105.45641488987638 0.0
  endloop
endfacet
facet normal 0.0 0.0 -1.0
  outer loop
    vertex 220.28542692107897 94.8452708898764 0.0
    vertex 226.30096992107903 105.45641488987638 0.0
    vertex 226.30096992107903 94.8452708898764 0.0
  endloop
endfacet
facet normal 0.0 0.0 -1.0
  outer loop
    vertex 195.50975092107902 105.45641488987638 0.0
    vertex 189.73579192107903 94.8452708898764 0.0
    vertex 189.73579192107903 105.45641488987638 0.0
  endloop
endfacet
facet normal 0.0 0.0 -1.0
  outer loop
    vertex 189.73579192107903 94.8452708898764 0.0
    vertex 195.50975092107902 105.45641488987638 0.0
    vertex 195.50975092107902 94.8452708898764 0.0
  endloop
endfacet
facet normal 0.0 0.0 1.0
  outer loop
    vertex 186.415350921079 89.9088238898764 1.6032129999999982
    vertex 189.73579192107903 92.1732368898764 1.6032129999999982
    vertex 186.415350921079 110.6636758898764 1.6032129999999982
  endloop
endfacet
facet normal 0.0 0.0 1.0
  outer loop
    vertex 189.73579192107903 92.1732368898764 1.6032129999999982
    vertex 186.415350921079 89.9088238898764 1.6032129999999982
    vertex 230.068217921079 89.9088238898764 1.6032129999999982
  endloop
endfacet
facet normal 0.0 0.0 1.0
  outer loop
    vertex 189.73579192107903 92.1732368898764 1.6032129999999982
    vertex 230.068217921079 89.9088238898764 1.6032129999999982
    vertex 195.50975092107902 92.1732368898764 1.6032129999999982
  endloop
endfacet
facet normal 0.0 0.0 1.0
  outer loop
    vertex 195.50975092107902 92.1732368898764 1.6032129999999982
    vertex 230.068217921079 89.9088238898764 1.6032129999999982
    vertex 195.50975092107902 94.8452708898764 1.6032129999999982
  endloop
endfacet
facet normal 0.0 0.0 1.0
  outer loop
    vertex 195.50975092107902 94.8452708898764 1.6032129999999982
    vertex 230.068217921079 89.9088238898764 1.6032129999999982
    vertex 220.28542692107897 92.1732368898764 1.6032129999999982
  endloop
endfacet
facet normal 0.0 0.0 1.0
  outer loop
    vertex 195.50975092107902 94.8452708898764 1.6032129999999982
    vertex 220.28542692107897 92.1732368898764 1.6032129999999982
    vertex 197.75037234077672 98.06598948992269 1.6032129999999982
  endloop
endfacet
facet normal 0.0 0.0 1.0
  outer loop
    vertex 195.50975092107902 94.8452708898764 1.6032129999999982
    vertex 197.75037234077672 98.06598948992269 1.6032129999999982
    vertex 195.50975092107902 105.45641488987638 1.6032129999999982
  endloop
endfacet
facet normal 0.0 0.0 1.0
  outer loop
    vertex 195.50975092107902 105.45641488987638 1.6032129999999982
    vertex 197.75037234077672 98.06598948992269 1.6032129999999982
    vertex 195.50975092107902 108.27025188987639 1.6032129999999982
  endloop
endfacet
facet normal 0.0 0.0 1.0
  outer loop
    vertex 197.75037234077672 98.06598948992269 1.6032129999999982
    vertex 220.28542692107897 92.1732368898764 1.6032129999999982
    vertex 200.19408634077672 98.06598948992269 1.6032129999999982
  endloop
endfacet
facet normal 0.0 0.0 1.0
  outer loop
    vertex 200.19408634077672 98.06598948992269 1.6032129999999982
    vertex 220.28542692107897 92.1732368898764 1.6032129999999982
    vertex 200.19408634077672 103.2792464899227 1.6032129999999982
  endloop
endfacet
facet normal 0.0 0.0 1.0
  outer loop
    vertex 200.19408634077672 103.2792464899227 1.6032129999999982
    vertex 220.28542692107897 92.1732368898764 1.6032129999999982
    vertex 213.22722901071123 98.06598948992269 1.6032129999999982
  endloop
endfacet
facet normal 0.0 0.0 1.0
  outer loop
    vertex 213.22722901071123 98.06598948992269 1.6032129999999982
    vertex 220.28542692107897 92.1732368898764 1.6032129999999982
    vertex 215.8338570107112 98.06598948992269 1.6032129999999982
  endloop
endfacet
facet normal 0.0 0.0 1.0
  outer loop
    vertex 215.8338570107112 98.06598948992269 1.6032129999999982
    vertex 220.28542692107897 92.1732368898764 1.6032129999999982
    vertex 215.8338570107112 103.2792464899227 1.6032129999999982
  endloop
endfacet
facet normal 0.0 0.0 1.0
  outer loop
    vertex 220.28542692107897 92.1732368898764 1.6032129999999982
    vertex 230.068217921079 89.9088238898764 1.6032129999999982
    vertex 226.30096992107903 92.1732368898764 1.6032129999999982
  endloop
endfacet
facet normal 0.0 0.0 1.0
  outer loop
    vertex 226.30096992107903 92.1732368898764 1.6032129999999982
    vertex 230.068217921079 89.9088238898764 1.6032129999999982
    vertex 226.30096992107903 94.8452708898764 1.6032129999999982
  endloop
endfacet
facet normal 0.0 0.0 1.0
  outer loop
    vertex 226.30096992107903 94.8452708898764 1.6032129999999982
    vertex 230.068217921079 89.9088238898764 1.6032129999999982
    vertex 226.30096992107903 105.45641488987638 1.6032129999999982
  endloop
endfacet
facet normal 0.0 0.0 1.0
  outer loop
    vertex 226.30096992107903 105.45641488987638 1.6032129999999982
    vertex 230.068217921079 89.9088238898764 1.6032129999999982
    vertex 226.30096992107903 108.27025188987639 1.6032129999999982
  endloop
endfacet
facet normal 0.0 0.0 1.0
  outer loop
    vertex 186.415350921079 110.6636758898764 1.6032129999999982
    vertex 189.73579192107903 108.27025188987639 1.6032129999999982
    vertex 230.068217921079 110.6636758898764 1.6032129999999982
  endloop
endfacet
facet normal 0.0 0.0 1.0
  outer loop
    vertex 189.73579192107903 108.27025188987639 1.6032129999999982
    vertex 186.415350921079 110.6636758898764 1.6032129999999982
    vertex 189.73579192107903 92.1732368898764 1.6032129999999982
  endloop
endfacet
facet normal 0.0 0.0 1.0
  outer loop
    vertex 189.73579192107903 108.27025188987639 1.6032129999999982
    vertex 189.73579192107903 92.1732368898764 1.6032129999999982
    vertex 189.73579192107903 94.8452708898764 1.6032129999999982
  endloop
endfacet
facet normal 0.0 0.0 1.0
  outer loop
    vertex 189.73579192107903 108.27025188987639 1.6032129999999982
    vertex 189.73579192107903 94.8452708898764 1.6032129999999982
    vertex 189.73579192107903 105.45641488987638 1.6032129999999982
  endloop
endfacet
facet normal 0.0 0.0 1.0
  outer loop
    vertex 230.068217921079 110.6636758898764 1.6032129999999982
    vertex 189.73579192107903 108.27025188987639 1.6032129999999982
    vertex 195.50975092107902 108.27025188987639 1.6032129999999982
  endloop
endfacet
facet normal 0.0 0.0 1.0
  outer loop
    vertex 230.068217921079 110.6636758898764 1.6032129999999982
    vertex 195.50975092107902 108.27025188987639 1.6032129999999982
    vertex 197.75037234077672 103.2792464899227 1.6032129999999982
  endloop
endfacet
facet normal 0.0 0.0 1.0
  outer loop
    vertex 197.75037234077672 103.2792464899227 1.6032129999999982
    vertex 195.50975092107902 108.27025188987639 1.6032129999999982
    vertex 197.75037234077672 98.06598948992269 1.6032129999999982
  endloop
endfacet
facet normal 0.0 0.0 1.0
  outer loop
    vertex 230.068217921079 110.6636758898764 1.6032129999999982
    vertex 197.75037234077672 103.2792464899227 1.6032129999999982
    vertex 220.28542692107897 108.27025188987639 1.6032129999999982
  endloop
endfacet
facet normal 0.0 0.0 1.0
  outer loop
    vertex 220.28542692107897 108.27025188987639 1.6032129999999982
    vertex 197.75037234077672 103.2792464899227 1.6032129999999982
    vertex 200.19408634077672 103.2792464899227 1.6032129999999982
  endloop
endfacet
facet normal 0.0 0.0 1.0
  outer loop
    vertex 220.28542692107897 108.27025188987639 1.6032129999999982
    vertex 200.19408634077672 103.2792464899227 1.6032129999999982
    vertex 213.22722901071123 103.2792464899227 1.6032129999999982
  endloop
endfacet
facet normal 0.0 0.0 1.0
  outer loop
    vertex 213.22722901071123 103.2792464899227 1.6032129999999982
    vertex 200.19408634077672 103.2792464899227 1.6032129999999982
    vertex 213.22722901071123 98.06598948992269 1.6032129999999982
  endloop
endfacet
facet normal 0.0 0.0 1.0
  outer loop
    vertex 220.28542692107897 108.27025188987639 1.6032129999999982
    vertex 213.22722901071123 103.2792464899227 1.6032129999999982
    vertex 215.8338570107112 103.2792464899227 1.6032129999999982
  endloop
endfacet
facet normal 0.0 0.0 1.0
  outer loop
    vertex 220.28542692107897 108.27025188987639 1.6032129999999982
    vertex 215.8338570107112 103.2792464899227 1.6032129999999982
    vertex 220.28542692107897 92.1732368898764 1.6032129999999982
  endloop
endfacet
facet normal 0.0 0.0 1.0
  outer loop
    vertex 220.28542692107897 108.27025188987639 1.6032129999999982
    vertex 220.28542692107897 92.1732368898764 1.6032129999999982
    vertex 220.28542692107897 94.8452708898764 1.6032129999999982
  endloop
endfacet
facet normal 0.0 0.0 1.0
  outer loop
    vertex 220.28542692107897 108.27025188987639 1.6032129999999982
    vertex 220.28542692107897 94.8452708898764 1.6032129999999982
    vertex 220.28542692107897 105.45641488987638 1.6032129999999982
  endloop
endfacet
facet normal 0.0 0.0 1.0
  outer loop
    vertex 230.068217921079 110.6636758898764 1.6032129999999982
    vertex 220.28542692107897 108.27025188987639 1.6032129999999982
    vertex 226.30096992107903 108.27025188987639 1.6032129999999982
  endloop
endfacet
facet normal 0.0 0.0 1.0
  outer loop
    vertex 230.068217921079 110.6636758898764 1.6032129999999982
    vertex 226.30096992107903 108.27025188987639 1.6032129999999982
    vertex 230.068217921079 89.9088238898764 1.6032129999999982
  endloop
endfacet
facet normal 0.0 0.0 1.0
  outer loop
    vertex 226.30096992107903 94.8452708898764 1.6032129999999982
    vertex 220.28542692107897 105.45641488987638 1.6032129999999982
    vertex 220.28542692107897 94.8452708898764 1.6032129999999982
  endloop
endfacet
facet normal 0.0 0.0 1.0
  outer loop
    vertex 220.28542692107897 105.45641488987638 1.6032129999999982
    vertex 226.30096992107903 94.8452708898764 1.6032129999999982
    vertex 226.30096992107903 105.45641488987638 1.6032129999999982
  endloop
endfacet
facet normal 0.0 0.0 1.0
  outer loop
    vertex 195.50975092107902 94.8452708898764 1.6032129999999982
    vertex 189.73579192107903 105.45641488987638 1.6032129999999982
    vertex 189.73579192107903 94.8452708898764 1.6032129999999982
  endloop
endfacet
facet normal 0.0 0.0 1.0
  outer loop
    vertex 189.73579192107903 105.45641488987638 1.6032129999999982
    vertex 195.50975092107902 94.8452708898764 1.6032129999999982
    vertex 195.50975092107902 105.45641488987638 1.6032129999999982
  endloop
endfacet
facet normal 0.0 0.0 -1.0
  outer loop
    vertex 134.66513122137496 110.27826663072334 0.0
    vertex 137.98557222137498 107.88484263072334 0.0
    vertex 134.66513122137496 89.52341463072334 0.0
  endloop
endfacet
facet normal 0.0 0.0 -1.0
  outer loop
    vertex 137.98557222137498 107.88484263072334 0.0
    vertex 134.66513122137496 110.27826663072334 0.0
    vertex 146.00015264107267 110.27826663072334 0.0
  endloop
endfacet
facet normal 0.0 0.0 -1.0
  outer loop
    vertex 137.98557222137498 107.88484263072334 0.0
    vertex 146.00015264107267 110.27826663072334 0.0
    vertex 143.75953122137497 107.88484263072334 0.0
  endloop
endfacet
facet normal 0.0 0.0 -1.0
  outer loop
    vertex 143.75953122137497 107.88484263072334 0.0
    vertex 146.00015264107267 110.27826663072334 0.0
    vertex 143.75953122137497 105.07100563072332 0.0
  endloop
endfacet
facet normal 0.0 0.0 -1.0
  outer loop
    vertex 143.75953122137497 105.07100563072332 0.0
    vertex 146.00015264107267 110.27826663072334 0.0
    vertex 143.75953122137497 94.45986163072334 0.0
  endloop
endfacet
facet normal 0.0 0.0 -1.0
  outer loop
    vertex 143.75953122137497 94.45986163072334 0.0
    vertex 146.00015264107267 110.27826663072334 0.0
    vertex 143.75953122137497 91.78782763072334 0.0
  endloop
endfacet
facet normal 0.0 0.0 -1.0
  outer loop
    vertex 146.00015264107267 114.69433163072334 0.0
    vertex 153.9430786516776 113.32310270082856 0.0
    vertex 146.00015264107267 110.27826663072334 0.0
  endloop
endfacet
facet normal 0.0 0.0 -1.0
  outer loop
    vertex 153.9430786516776 113.32310270082856 0.0
    vertex 146.00015264107267 114.69433163072334 0.0
    vertex 163.97022764107268 114.69433163072334 0.0
  endloop
endfacet
facet normal 0.0 0.0 -1.0
  outer loop
    vertex 146.00015264107267 110.27826663072334 0.0
    vertex 153.9430786516776 113.32310270082856 0.0
    vertex 153.4058608572341 113.10057980442188 0.0
  endloop
endfacet
facet normal 0.0 0.0 -1.0
  outer loop
    vertex 146.00015264107267 110.27826663072334 0.0
    vertex 153.4058608572341 113.10057980442188 0.0
    vertex 152.94454147880046 112.74659699527207 0.0
  endloop
endfacet
facet normal 0.0 0.0 -1.0
  outer loop
    vertex 146.00015264107267 110.27826663072334 0.0
    vertex 152.94454147880046 112.74659699527207 0.0
    vertex 152.59055866965068 112.28527761683844 0.0
  endloop
endfacet
facet normal 0.0 0.0 -1.0
  outer loop
    vertex 146.00015264107267 110.27826663072334 0.0
    vertex 152.59055866965068 112.28527761683844 0.0
    vertex 146.00015264107267 102.89383723076963 0.0
  endloop
endfacet
facet normal 0.0 0.0 -1.0
  outer loop
    vertex 146.00015264107267 102.89383723076963 0.0
    vertex 152.59055866965068 112.28527761683844 0.0
    vertex 148.44386664107267 102.89383723076963 0.0
  endloop
endfacet
facet normal 0.0 0.0 -1.0
  outer loop
    vertex 148.44386664107267 102.89383723076963 0.0
    vertex 152.59055866965068 112.28527761683844 0.0
    vertex 152.36803577324397 111.74805982239492 0.0
  endloop
endfacet
facet normal 0.0 0.0 -1.0
  outer loop
    vertex 148.44386664107267 102.89383723076963 0.0
    vertex 152.36803577324397 111.74805982239492 0.0
    vertex 148.44386664107267 97.68058023076964 0.0
  endloop
endfacet
facet normal 0.0 0.0 -1.0
  outer loop
    vertex 148.44386664107267 97.68058023076964 0.0
    vertex 152.36803577324397 111.74805982239492 0.0
    vertex 152.2921373572341 111.17155411683845 0.0
  endloop
endfacet
facet normal 0.0 0.0 -1.0
  outer loop
    vertex 153.9430786516776 113.32310270082856 0.0
    vertex 163.97022764107268 114.69433163072334 0.0
    vertex 154.5195843572341 113.39900111683845 0.0
  endloop
endfacet
facet normal 0.0 0.0 -1.0
  outer loop
    vertex 154.5195843572341 113.39900111683845 0.0
    vertex 163.97022764107268 114.69433163072334 0.0
    vertex 155.09609006279058 113.32310270082856 0.0
  endloop
endfacet
facet normal 0.0 0.0 -1.0
  outer loop
    vertex 155.09609006279058 113.32310270082856 0.0
    vertex 163.97022764107268 114.69433163072334 0.0
    vertex 155.6333078572341 113.10057980442188 0.0
  endloop
endfacet
facet normal 0.0 0.0 -1.0
  outer loop
    vertex 155.6333078572341 113.10057980442188 0.0
    vertex 163.97022764107268 114.69433163072334 0.0
    vertex 156.09462723566773 112.74659699527207 0.0
  endloop
endfacet
facet normal 0.0 0.0 -1.0
  outer loop
    vertex 156.09462723566773 112.74659699527207 0.0
    vertex 163.97022764107268 114.69433163072334 0.0
    vertex 156.44861004481754 112.28527761683844 0.0
  endloop
endfacet
facet normal 0.0 0.0 -1.0
  outer loop
    vertex 156.44861004481754 112.28527761683844 0.0
    vertex 163.97022764107268 114.69433163072334 0.0
    vertex 156.67113294122422 111.74805982239492 0.0
  endloop
endfacet
facet normal 0.0 0.0 -1.0
  outer loop
    vertex 156.67113294122422 111.74805982239492 0.0
    vertex 163.97022764107268 114.69433163072334 0.0
    vertex 156.7470313572341 111.17155411683845 0.0
  endloop
endfacet
facet normal 0.0 0.0 -1.0
  outer loop
    vertex 156.7470313572341 111.17155411683845 0.0
    vertex 163.97022764107268 114.69433163072334 0.0
    vertex 161.47700931100715 102.89383723076963 0.0
  endloop
endfacet
facet normal 0.0 0.0 -1.0
  outer loop
    vertex 161.47700931100715 102.89383723076963 0.0
    vertex 163.97022764107268 114.69433163072334 0.0
    vertex 163.97022764107268 110.27826663072334 0.0
  endloop
endfacet
facet normal 0.0 0.0 -1.0
  outer loop
    vertex 161.47700931100715 102.89383723076963 0.0
    vertex 163.97022764107268 110.27826663072334 0.0
    vertex 164.08363731100715 102.89383723076963 0.0
  endloop
endfacet
facet normal 0.0 0.0 -1.0
  outer loop
    vertex 164.08363731100715 102.89383723076963 0.0
    vertex 163.97022764107268 110.27826663072334 0.0
    vertex 168.53520722137495 107.88484263072334 0.0
  endloop
endfacet
facet normal 0.0 0.0 -1.0
  outer loop
    vertex 168.53520722137495 107.88484263072334 0.0
    vertex 163.97022764107268 110.27826663072334 0.0
    vertex 178.31799822137495 110.27826663072334 0.0
  endloop
endfacet
facet normal 0.0 0.0 -1.0
  outer loop
    vertex 164.08363731100715 102.89383723076963 0.0
    vertex 168.53520722137495 107.88484263072334 0.0
    vertex 164.08363731100715 97.68058023076964 0.0
  endloop
endfacet
facet normal 0.0 0.0 -1.0
  outer loop
    vertex 168.53520722137495 107.88484263072334 0.0
    vertex 178.31799822137495 110.27826663072334 0.0
    vertex 174.55075022137495 107.88484263072334 0.0
  endloop
endfacet
facet normal 0.0 0.0 -1.0
  outer loop
    vertex 174.55075022137495 107.88484263072334 0.0
    vertex 178.31799822137495 110.27826663072334 0.0
    vertex 174.55075022137495 105.07100563072332 0.0
  endloop
endfacet
facet normal 0.0 0.0 -1.0
  outer loop
    vertex 174.55075022137495 105.07100563072332 0.0
    vertex 178.31799822137495 110.27826663072334 0.0
    vertex 174.55075022137495 94.45986163072334 0.0
  endloop
endfacet
facet normal 0.0 0.0 -1.0
  outer loop
    vertex 174.55075022137495 94.45986163072334 0.0
    vertex 178.31799822137495 110.27826663072334 0.0
    vertex 174.55075022137495 91.78782763072334 0.0
  endloop
endfacet
facet normal 0.0 0.0 -1.0
  outer loop
    vertex 134.66513122137496 89.52341463072334 0.0
    vertex 137.98557222137498 91.78782763072334 0.0
    vertex 178.31799822137495 89.52341463072334 0.0
  endloop
endfacet
facet normal 0.0 0.0 -1.0
  outer loop
    vertex 137.98557222137498 91.78782763072334 0.0
    vertex 134.66513122137496 89.52341463072334 0.0
    vertex 137.98557222137498 107.88484263072334 0.0
  endloop
endfacet
facet normal 0.0 0.0 -1.0
  outer loop
    vertex 137.98557222137498 91.78782763072334 0.0
    vertex 137.98557222137498 107.88484263072334 0.0
    vertex 137.98557222137498 105.07100563072332 0.0
  endloop
endfacet
facet normal 0.0 0.0 -1.0
  outer loop
    vertex 137.98557222137498 91.78782763072334 0.0
    vertex 137.98557222137498 105.07100563072332 0.0
    vertex 137.98557222137498 94.45986163072334 0.0
  endloop
endfacet
facet normal 0.0 0.0 -1.0
  outer loop
    vertex 178.31799822137495 89.52341463072334 0.0
    vertex 137.98557222137498 91.78782763072334 0.0
    vertex 143.75953122137497 91.78782763072334 0.0
  endloop
endfacet
facet normal 0.0 0.0 -1.0
  outer loop
    vertex 178.31799822137495 89.52341463072334 0.0
    vertex 143.75953122137497 91.78782763072334 0.0
    vertex 168.53520722137495 91.78782763072334 0.0
  endloop
endfacet
facet normal 0.0 0.0 -1.0
  outer loop
    vertex 168.53520722137495 91.78782763072334 0.0
    vertex 143.75953122137497 91.78782763072334 0.0
    vertex 146.00015264107267 97.68058023076964 0.0
  endloop
endfacet
facet normal 0.0 0.0 -1.0
  outer loop
    vertex 146.00015264107267 97.68058023076964 0.0
    vertex 143.75953122137497 91.78782763072334 0.0
    vertex 146.00015264107267 110.27826663072334 0.0
  endloop
endfacet
facet normal 0.0 0.0 -1.0
  outer loop
    vertex 146.00015264107267 97.68058023076964 0.0
    vertex 146.00015264107267 110.27826663072334 0.0
    vertex 146.00015264107267 102.89383723076963 0.0
  endloop
endfacet
facet normal 0.0 0.0 -1.0
  outer loop
    vertex 168.53520722137495 91.78782763072334 0.0
    vertex 146.00015264107267 97.68058023076964 0.0
    vertex 148.44386664107267 97.68058023076964 0.0
  endloop
endfacet
facet normal 0.0 0.0 -1.0
  outer loop
    vertex 168.53520722137495 91.78782763072334 0.0
    vertex 148.44386664107267 97.68058023076964 0.0
    vertex 161.47700931100715 97.68058023076964 0.0
  endloop
endfacet
facet normal 0.0 0.0 -1.0
  outer loop
    vertex 161.47700931100715 97.68058023076964 0.0
    vertex 148.44386664107267 97.68058023076964 0.0
    vertex 152.59055866965068 110.05783061683844 0.0
  endloop
endfacet
facet normal 0.0 0.0 -1.0
  outer loop
    vertex 152.59055866965068 110.05783061683844 0.0
    vertex 148.44386664107267 97.68058023076964 0.0
    vertex 152.36803577324397 110.59504841128197 0.0
  endloop
endfacet
facet normal 0.0 0.0 -1.0
  outer loop
    vertex 152.36803577324397 110.59504841128197 0.0
    vertex 148.44386664107267 97.68058023076964 0.0
    vertex 152.2921373572341 111.17155411683845 0.0
  endloop
endfacet
facet normal 0.0 0.0 -1.0
  outer loop
    vertex 161.47700931100715 97.68058023076964 0.0
    vertex 152.59055866965068 110.05783061683844 0.0
    vertex 152.94454147880046 109.59651123840482 0.0
  endloop
endfacet
facet normal 0.0 0.0 -1.0
  outer loop
    vertex 161.47700931100715 97.68058023076964 0.0
    vertex 152.94454147880046 109.59651123840482 0.0
    vertex 153.4058608572341 109.24252842925502 0.0
  endloop
endfacet
facet normal 0.0 0.0 -1.0
  outer loop
    vertex 161.47700931100715 97.68058023076964 0.0
    vertex 153.4058608572341 109.24252842925502 0.0
    vertex 153.9430786516776 109.02000553284833 0.0
  endloop
endfacet
facet normal 0.0 0.0 -1.0
  outer loop
    vertex 161.47700931100715 97.68058023076964 0.0
    vertex 153.9430786516776 109.02000553284833 0.0
    vertex 154.5195843572341 108.94410711683845 0.0
  endloop
endfacet
facet normal 0.0 0.0 -1.0
  outer loop
    vertex 161.47700931100715 97.68058023076964 0.0
    vertex 154.5195843572341 108.94410711683845 0.0
    vertex 155.09609006279058 109.02000553284833 0.0
  endloop
endfacet
facet normal 0.0 0.0 -1.0
  outer loop
    vertex 161.47700931100715 97.68058023076964 0.0
    vertex 155.09609006279058 109.02000553284833 0.0
    vertex 155.6333078572341 109.24252842925502 0.0
  endloop
endfacet
facet normal 0.0 0.0 -1.0
  outer loop
    vertex 161.47700931100715 97.68058023076964 0.0
    vertex 155.6333078572341 109.24252842925502 0.0
    vertex 156.09462723566773 109.59651123840482 0.0
  endloop
endfacet
facet normal 0.0 0.0 -1.0
  outer loop
    vertex 161.47700931100715 97.68058023076964 0.0
    vertex 156.09462723566773 109.59651123840482 0.0
    vertex 156.44861004481754 110.05783061683844 0.0
  endloop
endfacet
facet normal 0.0 0.0 -1.0
  outer loop
    vertex 161.47700931100715 97.68058023076964 0.0
    vertex 156.44861004481754 110.05783061683844 0.0
    vertex 156.67113294122422 110.59504841128197 0.0
  endloop
endfacet
facet normal 0.0 0.0 -1.0
  outer loop
    vertex 161.47700931100715 97.68058023076964 0.0
    vertex 156.67113294122422 110.59504841128197 0.0
    vertex 156.7470313572341 111.17155411683845 0.0
  endloop
endfacet
facet normal 0.0 0.0 -1.0
  outer loop
    vertex 161.47700931100715 97.68058023076964 0.0
    vertex 156.7470313572341 111.17155411683845 0.0
    vertex 161.47700931100715 102.89383723076963 0.0
  endloop
endfacet
facet normal 0.0 0.0 -1.0
  outer loop
    vertex 168.53520722137495 91.78782763072334 0.0
    vertex 161.47700931100715 97.68058023076964 0.0
    vertex 164.08363731100715 97.68058023076964 0.0
  endloop
endfacet
facet normal 0.0 0.0 -1.0
  outer loop
    vertex 168.53520722137495 91.78782763072334 0.0
    vertex 164.08363731100715 97.68058023076964 0.0
    vertex 168.53520722137495 107.88484263072334 0.0
  endloop
endfacet
facet normal 0.0 0.0 -1.0
  outer loop
    vertex 168.53520722137495 91.78782763072334 0.0
    vertex 168.53520722137495 107.88484263072334 0.0
    vertex 168.53520722137495 105.07100563072332 0.0
  endloop
endfacet
facet normal 0.0 0.0 -1.0
  outer loop
    vertex 168.53520722137495 91.78782763072334 0.0
    vertex 168.53520722137495 105.07100563072332 0.0
    vertex 168.53520722137495 94.45986163072334 0.0
  endloop
endfacet
facet normal 0.0 0.0 -1.0
  outer loop
    vertex 178.31799822137495 89.52341463072334 0.0
    vertex 168.53520722137495 91.78782763072334 0.0
    vertex 174.55075022137495 91.78782763072334 0.0
  endloop
endfacet
facet normal 0.0 0.0 -1.0
  outer loop
    vertex 178.31799822137495 89.52341463072334 0.0
    vertex 174.55075022137495 91.78782763072334 0.0
    vertex 178.31799822137495 110.27826663072334 0.0
  endloop
endfacet
facet normal 0.0 0.0 -1.0
  outer loop
    vertex 174.55075022137495 105.07100563072332 0.0
    vertex 168.53520722137495 94.45986163072334 0.0
    vertex 168.53520722137495 105.07100563072332 0.0
  endloop
endfacet
facet normal 0.0 0.0 -1.0
  outer loop
    vertex 168.53520722137495 94.45986163072334 0.0
    vertex 174.55075022137495 105.07100563072332 0.0
    vertex 174.55075022137495 94.45986163072334 0.0
  endloop
endfacet
facet normal 0.0 0.0 -1.0
  outer loop
    vertex 143.75953122137497 105.07100563072332 0.0
    vertex 137.98557222137498 94.45986163072334 0.0
    vertex 137.98557222137498 105.07100563072332 0.0
  endloop
endfacet
facet normal 0.0 0.0 -1.0
  outer loop
    vertex 137.98557222137498 94.45986163072334 0.0
    vertex 143.75953122137497 105.07100563072332 0.0
    vertex 143.75953122137497 94.45986163072334 0.0
  endloop
endfacet
facet normal -1.0 0.0 0.0
  outer loop
    vertex 195.50975092107902 108.27025188987639 1.6032129999999982
    vertex 195.50975092107902 105.45641488987638 0.0
    vertex 195.50975092107902 105.45641488987638 1.6032129999999982
  endloop
endfacet
facet normal -1.0 0.0 0.0
  outer loop
    vertex 195.50975092107902 105.45641488987638 0.0
    vertex 195.50975092107902 108.27025188987639 1.6032129999999982
    vertex 195.50975092107902 108.27025188987639 0.0
  endloop
endfacet
facet normal 1.0 0.0 0.0
  outer loop
    vertex 189.73579192107903 108.27025188987639 0.0
    vertex 189.73579192107903 105.45641488987638 1.6032129999999982
    vertex 189.73579192107903 105.45641488987638 0.0
  endloop
endfacet
facet normal 1.0 0.0 0.0
  outer loop
    vertex 189.73579192107903 105.45641488987638 1.6032129999999982
    vertex 189.73579192107903 108.27025188987639 0.0
    vertex 189.73579192107903 108.27025188987639 1.6032129999999982
  endloop
endfacet
facet normal -0.0 1.0 0.0
  outer loop
    vertex 186.415350921079 110.6636758898764 1.6032129999999982
    vertex 230.068217921079 110.6636758898764 0.0
    vertex 186.415350921079 110.6636758898764 0.0
  endloop
endfacet
facet normal -0.0 1.0 0.0
  outer loop
    vertex 230.068217921079 110.6636758898764 0.0
    vertex 186.415350921079 110.6636758898764 1.6032129999999982
    vertex 230.068217921079 110.6636758898764 1.6032129999999982
  endloop
endfacet
facet normal -0.0 -1.0 -0.0
  outer loop
    vertex 195.50975092107902 108.27025188987639 1.6032129999999982
    vertex 189.73579192107903 108.27025188987639 0.0
    vertex 195.50975092107902 108.27025188987639 0.0
  endloop
endfacet
facet normal -0.0 -1.0 -0.0
  outer loop
    vertex 189.73579192107903 108.27025188987639 0.0
    vertex 195.50975092107902 108.27025188987639 1.6032129999999982
    vertex 189.73579192107903 108.27025188987639 1.6032129999999982
  endloop
endfacet
facet normal -1.0 0.0 0.0
  outer loop
    vertex 195.50975092107902 94.8452708898764 1.6032129999999982
    vertex 195.50975092107902 92.1732368898764 0.0
    vertex 195.50975092107902 92.1732368898764 1.6032129999999982
  endloop
endfacet
facet normal -1.0 0.0 0.0
  outer loop
    vertex 195.50975092107902 92.1732368898764 0.0
    vertex 195.50975092107902 94.8452708898764 1.6032129999999982
    vertex 195.50975092107902 94.8452708898764 0.0
  endloop
endfacet
facet normal -0.0 -1.0 -0.0
  outer loop
    vertex 195.50975092107902 94.8452708898764 1.6032129999999982
    vertex 189.73579192107903 94.8452708898764 0.0
    vertex 195.50975092107902 94.8452708898764 0.0
  endloop
endfacet
facet normal -0.0 -1.0 -0.0
  outer loop
    vertex 189.73579192107903 94.8452708898764 0.0
    vertex 195.50975092107902 94.8452708898764 1.6032129999999982
    vertex 189.73579192107903 94.8452708898764 1.6032129999999982
  endloop
endfacet
facet normal -0.0 1.0 0.0
  outer loop
    vertex 220.28542692107897 105.45641488987638 1.6032129999999982
    vertex 226.30096992107903 105.45641488987638 0.0
    vertex 220.28542692107897 105.45641488987638 0.0
  endloop
endfacet
facet normal -0.0 1.0 0.0
  outer loop
    vertex 226.30096992107903 105.45641488987638 0.0
    vertex 220.28542692107897 105.45641488987638 1.6032129999999982
    vertex 226.30096992107903 105.45641488987638 1.6032129999999982
  endloop
endfacet
facet normal 1.0 0.0 0.0
  outer loop
    vertex 230.068217921079 110.6636758898764 0.0
    vertex 230.068217921079 89.9088238898764 1.6032129999999982
    vertex 230.068217921079 89.9088238898764 0.0
  endloop
endfacet
facet normal 1.0 0.0 0.0
  outer loop
    vertex 230.068217921079 89.9088238898764 1.6032129999999982
    vertex 230.068217921079 110.6636758898764 0.0
    vertex 230.068217921079 110.6636758898764 1.6032129999999982
  endloop
endfacet
facet normal -1.0 0.0 0.0
  outer loop
    vertex 226.30096992107903 108.27025188987639 1.6032129999999982
    vertex 226.30096992107903 105.45641488987638 0.0
    vertex 226.30096992107903 105.45641488987638 1.6032129999999982
  endloop
endfacet
facet normal -1.0 0.0 0.0
  outer loop
    vertex 226.30096992107903 105.45641488987638 0.0
    vertex 226.30096992107903 108.27025188987639 1.6032129999999982
    vertex 226.30096992107903 108.27025188987639 0.0
  endloop
endfacet
facet normal -0.0 -1.0 -0.0
  outer loop
    vertex 226.30096992107903 94.8452708898764 1.6032129999999982
    vertex 220.28542692107897 94.8452708898764 0.0
    vertex 226.30096992107903 94.8452708898764 0.0
  endloop
endfacet
facet normal -0.0 -1.0 -0.0
  outer loop
    vertex 220.28542692107897 94.8452708898764 0.0
    vertex 226.30096992107903 94.8452708898764 1.6032129999999982
    vertex 220.28542692107897 94.8452708898764 1.6032129999999982
  endloop
endfacet
facet normal -0.0 1.0 0.0
  outer loop
    vertex 189.73579192107903 92.1732368898764 1.6032129999999982
    vertex 195.50975092107902 92.1732368898764 0.0
    vertex 189.73579192107903 92.1732368898764 0.0
  endloop
endfacet
facet normal -0.0 1.0 0.0
  outer loop
    vertex 195.50975092107902 92.1732368898764 0.0
    vertex 189.73579192107903 92.1732368898764 1.6032129999999982
    vertex 195.50975092107902 92.1732368898764 1.6032129999999982
  endloop
endfacet
facet normal -0.0 -1.0 -0.0
  outer loop
    vertex 230.068217921079 89.9088238898764 1.6032129999999982
    vertex 186.415350921079 89.9088238898764 0.0
    vertex 230.068217921079 89.9088238898764 0.0
  endloop
endfacet
facet normal -0.0 -1.0 -0.0
  outer loop
    vertex 186.415350921079 89.9088238898764 0.0
    vertex 230.068217921079 89.9088238898764 1.6032129999999982
    vertex 186.415350921079 89.9088238898764 1.6032129999999982
  endloop
endfacet
facet normal -0.0 1.0 0.0
  outer loop
    vertex 189.73579192107903 105.45641488987638 1.6032129999999982
    vertex 195.50975092107902 105.45641488987638 0.0
    vertex 189.73579192107903 105.45641488987638 0.0
  endloop
endfacet
facet normal -0.0 1.0 0.0
  outer loop
    vertex 195.50975092107902 105.45641488987638 0.0
    vertex 189.73579192107903 105.45641488987638 1.6032129999999982
    vertex 195.50975092107902 105.45641488987638 1.6032129999999982
  endloop
endfacet
facet normal -1.0 0.0 0.0
  outer loop
    vertex 186.415350921079 110.6636758898764 1.6032129999999982
    vertex 186.415350921079 89.9088238898764 0.0
    vertex 186.415350921079 89.9088238898764 1.6032129999999982
  endloop
endfacet
facet normal -1.0 0.0 0.0
  outer loop
    vertex 186.415350921079 89.9088238898764 0.0
    vertex 186.415350921079 110.6636758898764 1.6032129999999982
    vertex 186.415350921079 110.6636758898764 0.0
  endloop
endfacet
facet normal 1.0 0.0 0.0
  outer loop
    vertex 189.73579192107903 94.8452708898764 0.0
    vertex 189.73579192107903 92.1732368898764 1.6032129999999982
    vertex 189.73579192107903 92.1732368898764 0.0
  endloop
endfacet
facet normal 1.0 0.0 0.0
  outer loop
    vertex 189.73579192107903 92.1732368898764 1.6032129999999982
    vertex 189.73579192107903 94.8452708898764 0.0
    vertex 189.73579192107903 94.8452708898764 1.6032129999999982
  endloop
endfacet
facet normal -0.0 -1.0 -0.0
  outer loop
    vertex 226.30096992107903 108.27025188987639 1.6032129999999982
    vertex 220.28542692107897 108.27025188987639 0.0
    vertex 226.30096992107903 108.27025188987639 0.0
  endloop
endfacet
facet normal -0.0 -1.0 -0.0
  outer loop
    vertex 220.28542692107897 108.27025188987639 0.0
    vertex 226.30096992107903 108.27025188987639 1.6032129999999982
    vertex 220.28542692107897 108.27025188987639 1.6032129999999982
  endloop
endfacet
facet normal 1.0 0.0 0.0
  outer loop
    vertex 220.28542692107897 108.27025188987639 0.0
    vertex 220.28542692107897 105.45641488987638 1.6032129999999982
    vertex 220.28542692107897 105.45641488987638 0.0
  endloop
endfacet
facet normal 1.0 0.0 0.0
  outer loop
    vertex 220.28542692107897 105.45641488987638 1.6032129999999982
    vertex 220.28542692107897 108.27025188987639 0.0
    vertex 220.28542692107897 108.27025188987639 1.6032129999999982
  endloop
endfacet
facet normal -1.0 0.0 0.0
  outer loop
    vertex 200.19408634077672 103.2792464899227 1.6032129999999982
    vertex 200.19408634077672 98.06598948992269 0.0
    vertex 200.19408634077672 98.06598948992269 1.6032129999999982
  endloop
endfacet
facet normal -1.0 0.0 0.0
  outer loop
    vertex 200.19408634077672 98.06598948992269 0.0
    vertex 200.19408634077672 103.2792464899227 1.6032129999999982
    vertex 200.19408634077672 103.2792464899227 0.0
  endloop
endfacet
facet normal 1.0 0.0 0.0
  outer loop
    vertex 220.28542692107897 94.8452708898764 0.0
    vertex 220.28542692107897 92.1732368898764 1.6032129999999982
    vertex 220.28542692107897 92.1732368898764 0.0
  endloop
endfacet
facet normal 1.0 0.0 0.0
  outer loop
    vertex 220.28542692107897 92.1732368898764 1.6032129999999982
    vertex 220.28542692107897 94.8452708898764 0.0
    vertex 220.28542692107897 94.8452708898764 1.6032129999999982
  endloop
endfacet
facet normal -1.0 0.0 0.0
  outer loop
    vertex 215.8338570107112 103.2792464899227 1.6032129999999982
    vertex 215.8338570107112 98.06598948992269 0.0
    vertex 215.8338570107112 98.06598948992269 1.6032129999999982
  endloop
endfacet
facet normal -1.0 0.0 0.0
  outer loop
    vertex 215.8338570107112 98.06598948992269 0.0
    vertex 215.8338570107112 103.2792464899227 1.6032129999999982
    vertex 215.8338570107112 103.2792464899227 0.0
  endloop
endfacet
facet normal 1.0 0.0 0.0
  outer loop
    vertex 197.75037234077672 103.2792464899227 0.0
    vertex 197.75037234077672 98.06598948992269 1.6032129999999982
    vertex 197.75037234077672 98.06598948992269 0.0
  endloop
endfacet
facet normal 1.0 0.0 0.0
  outer loop
    vertex 197.75037234077672 98.06598948992269 1.6032129999999982
    vertex 197.75037234077672 103.2792464899227 0.0
    vertex 197.75037234077672 103.2792464899227 1.6032129999999982
  endloop
endfacet
facet normal -0.0 1.0 0.0
  outer loop
    vertex 220.28542692107897 92.1732368898764 1.6032129999999982
    vertex 226.30096992107903 92.1732368898764 0.0
    vertex 220.28542692107897 92.1732368898764 0.0
  endloop
endfacet
facet normal -0.0 1.0 0.0
  outer loop
    vertex 226.30096992107903 92.1732368898764 0.0
    vertex 220.28542692107897 92.1732368898764 1.6032129999999982
    vertex 226.30096992107903 92.1732368898764 1.6032129999999982
  endloop
endfacet
facet normal -0.0 1.0 0.0
  outer loop
    vertex 213.22722901071123 98.06598948992269 1.6032129999999982
    vertex 215.8338570107112 98.06598948992269 0.0
    vertex 213.22722901071123 98.06598948992269 0.0
  endloop
endfacet
facet normal -0.0 1.0 0.0
  outer loop
    vertex 215.8338570107112 98.06598948992269 0.0
    vertex 213.22722901071123 98.06598948992269 1.6032129999999982
    vertex 215.8338570107112 98.06598948992269 1.6032129999999982
  endloop
endfacet
facet normal -0.0 -1.0 -0.0
  outer loop
    vertex 200.19408634077672 103.2792464899227 1.6032129999999982
    vertex 197.75037234077672 103.2792464899227 0.0
    vertex 200.19408634077672 103.2792464899227 0.0
  endloop
endfacet
facet normal -0.0 -1.0 -0.0
  outer loop
    vertex 197.75037234077672 103.2792464899227 0.0
    vertex 200.19408634077672 103.2792464899227 1.6032129999999982
    vertex 197.75037234077672 103.2792464899227 1.6032129999999982
  endloop
endfacet
facet normal -0.0 1.0 0.0
  outer loop
    vertex 197.75037234077672 98.06598948992269 1.6032129999999982
    vertex 200.19408634077672 98.06598948992269 0.0
    vertex 197.75037234077672 98.06598948992269 0.0
  endloop
endfacet
facet normal -0.0 1.0 0.0
  outer loop
    vertex 200.19408634077672 98.06598948992269 0.0
    vertex 197.75037234077672 98.06598948992269 1.6032129999999982
    vertex 200.19408634077672 98.06598948992269 1.6032129999999982
  endloop
endfacet
facet normal -1.0 0.0 0.0
  outer loop
    vertex 226.30096992107903 94.8452708898764 1.6032129999999982
    vertex 226.30096992107903 92.1732368898764 0.0
    vertex 226.30096992107903 92.1732368898764 1.6032129999999982
  endloop
endfacet
facet normal -1.0 0.0 0.0
  outer loop
    vertex 226.30096992107903 92.1732368898764 0.0
    vertex 226.30096992107903 94.8452708898764 1.6032129999999982
    vertex 226.30096992107903 94.8452708898764 0.0
  endloop
endfacet
facet normal -0.0 -1.0 -0.0
  outer loop
    vertex 215.8338570107112 103.2792464899227 1.6032129999999982
    vertex 213.22722901071123 103.2792464899227 0.0
    vertex 215.8338570107112 103.2792464899227 0.0
  endloop
endfacet
facet normal -0.0 -1.0 -0.0
  outer loop
    vertex 213.22722901071123 103.2792464899227 0.0
    vertex 215.8338570107112 103.2792464899227 1.6032129999999982
    vertex 213.22722901071123 103.2792464899227 1.6032129999999982
  endloop
endfacet
facet normal 1.0 0.0 0.0
  outer loop
    vertex 213.22722901071123 103.2792464899227 0.0
    vertex 213.22722901071123 98.06598948992269 1.6032129999999982
    vertex 213.22722901071123 98.06598948992269 0.0
  endloop
endfacet
facet normal 1.0 0.0 0.0
  outer loop
    vertex 213.22722901071123 98.06598948992269 1.6032129999999982
    vertex 213.22722901071123 103.2792464899227 0.0
    vertex 213.22722901071123 103.2792464899227 1.6032129999999982
  endloop
endfacet
endsolid Untitled-591d705b
