solid Untitled-591d704b
facet normal 0.0 0.0 -1.0
  outer loop
    vertex 61.19369753028918 103.95324968860385 0.0
    vertex 61.34490529081858 112.53220294728222 0.0
    vertex 63.750066530289175 103.95324968860385 0.0
  endloop
endfacet
facet normal 0.0 0.0 -1.0
  outer loop
    vertex 61.34490529081858 112.53220294728222 0.0
    vertex 61.19369753028918 103.95324968860385 0.0
    vertex 61.2873927878305 112.96905377838705 0.0
  endloop
endfacet
facet normal 0.0 0.0 -1.0
  outer loop
    vertex 63.750066530289175 103.95324968860385 0.0
    vertex 61.34490529081858 112.53220294728222 0.0
    vertex 61.51352341774808 112.12512277838705 0.0
  endloop
endfacet
facet normal 0.0 0.0 -1.0
  outer loop
    vertex 63.750066530289175 103.95324968860385 0.0
    vertex 61.51352341774808 112.12512277838705 0.0
    vertex 61.781756121923415 111.77555511247996 0.0
  endloop
endfacet
facet normal 0.0 0.0 -1.0
  outer loop
    vertex 63.750066530289175 103.95324968860385 0.0
    vertex 61.781756121923415 111.77555511247996 0.0
    vertex 62.131323787830496 111.50732240830463 0.0
  endloop
endfacet
facet normal 0.0 0.0 -1.0
  outer loop
    vertex 63.750066530289175 103.95324968860385 0.0
    vertex 62.131323787830496 111.50732240830463 0.0
    vertex 62.538403956725666 111.33870428137514 0.0
  endloop
endfacet
facet normal 0.0 0.0 -1.0
  outer loop
    vertex 63.750066530289175 103.95324968860385 0.0
    vertex 62.538403956725666 111.33870428137514 0.0
    vertex 62.9752547878305 111.28119177838705 0.0
  endloop
endfacet
facet normal 0.0 0.0 -1.0
  outer loop
    vertex 63.750066530289175 103.95324968860385 0.0
    vertex 62.9752547878305 111.28119177838705 0.0
    vertex 63.41210561893533 111.33870428137514 0.0
  endloop
endfacet
facet normal 0.0 0.0 -1.0
  outer loop
    vertex 63.750066530289175 103.95324968860385 0.0
    vertex 63.41210561893533 111.33870428137514 0.0
    vertex 63.8191857878305 111.50732240830463 0.0
  endloop
endfacet
facet normal 0.0 0.0 -1.0
  outer loop
    vertex 63.750066530289175 103.95324968860385 0.0
    vertex 63.8191857878305 111.50732240830463 0.0
    vertex 63.750066530289175 99.31988368860384 0.0
  endloop
endfacet
facet normal 0.0 0.0 -1.0
  outer loop
    vertex 60.103774151973596 115.21219122496719 0.0
    vertex 61.2873927878305 112.96905377838705 0.0
    vertex 61.19369753028918 103.95324968860385 0.0
  endloop
endfacet
facet normal 0.0 0.0 -1.0
  outer loop
    vertex 61.2873927878305 112.96905377838705 0.0
    vertex 60.103774151973596 115.21219122496719 0.0
    vertex 61.39802994604557 115.72773313710023 0.0
  endloop
endfacet
facet normal 0.0 0.0 -1.0
  outer loop
    vertex 61.2873927878305 112.96905377838705 0.0
    vertex 61.39802994604557 115.72773313710023 0.0
    vertex 61.34490529081858 113.4059046094919 0.0
  endloop
endfacet
facet normal 0.0 0.0 -1.0
  outer loop
    vertex 61.34490529081858 113.4059046094919 0.0
    vertex 61.39802994604557 115.72773313710023 0.0
    vertex 61.51352341774808 113.81298477838706 0.0
  endloop
endfacet
facet normal 0.0 0.0 -1.0
  outer loop
    vertex 61.51352341774808 113.81298477838706 0.0
    vertex 61.39802994604557 115.72773313710023 0.0
    vertex 62.78007861367592 115.90329795121689 0.0
  endloop
endfacet
facet normal 0.0 0.0 -1.0
  outer loop
    vertex 61.51352341774808 113.81298477838706 0.0
    vertex 62.78007861367592 115.90329795121689 0.0
    vertex 61.781756121923415 114.16255244429415 0.0
  endloop
endfacet
facet normal 0.0 0.0 -1.0
  outer loop
    vertex 61.781756121923415 114.16255244429415 0.0
    vertex 62.78007861367592 115.90329795121689 0.0
    vertex 62.131323787830496 114.43078514846947 0.0
  endloop
endfacet
facet normal 0.0 0.0 -1.0
  outer loop
    vertex 62.131323787830496 114.43078514846947 0.0
    vertex 62.78007861367592 115.90329795121689 0.0
    vertex 62.538403956725666 114.59940327539897 0.0
  endloop
endfacet
facet normal 0.0 0.0 -1.0
  outer loop
    vertex 62.538403956725666 114.59940327539897 0.0
    vertex 62.78007861367592 115.90329795121689 0.0
    vertex 62.9752547878305 114.65691577838706 0.0
  endloop
endfacet
facet normal 0.0 0.0 -1.0
  outer loop
    vertex 62.9752547878305 114.65691577838706 0.0
    vertex 62.78007861367592 115.90329795121689 0.0
    vertex 64.16212728130627 115.72773313710023 0.0
  endloop
endfacet
facet normal 0.0 0.0 -1.0
  outer loop
    vertex 62.9752547878305 114.65691577838706 0.0
    vertex 64.16212728130627 115.72773313710023 0.0
    vertex 63.41210561893533 114.59940327539897 0.0
  endloop
endfacet
facet normal 0.0 0.0 -1.0
  outer loop
    vertex 63.41210561893533 114.59940327539897 0.0
    vertex 64.16212728130627 115.72773313710023 0.0
    vertex 63.8191857878305 114.43078514846947 0.0
  endloop
endfacet
facet normal 0.0 0.0 -1.0
  outer loop
    vertex 63.8191857878305 114.43078514846947 0.0
    vertex 64.16212728130627 115.72773313710023 0.0
    vertex 64.16875345373758 114.16255244429415 0.0
  endloop
endfacet
facet normal 0.0 0.0 -1.0
  outer loop
    vertex 64.16875345373758 114.16255244429415 0.0
    vertex 64.16212728130627 115.72773313710023 0.0
    vertex 65.45638307537824 115.21219122496719 0.0
  endloop
endfacet
facet normal 0.0 0.0 -1.0
  outer loop
    vertex 64.16875345373758 114.16255244429415 0.0
    vertex 65.45638307537824 115.21219122496719 0.0
    vertex 64.43698615791291 113.81298477838706 0.0
  endloop
endfacet
facet normal 0.0 0.0 -1.0
  outer loop
    vertex 64.43698615791291 113.81298477838706 0.0
    vertex 65.45638307537824 115.21219122496719 0.0
    vertex 64.60560428484241 113.4059046094919 0.0
  endloop
endfacet
facet normal 0.0 0.0 -1.0
  outer loop
    vertex 64.60560428484241 113.4059046094919 0.0
    vertex 65.45638307537824 115.21219122496719 0.0
    vertex 64.6631167878305 112.96905377838705 0.0
  endloop
endfacet
facet normal 0.0 0.0 -1.0
  outer loop
    vertex 79.69294153028918 110.67702995121688 0.0
    vertex 73.54931353028918 104.05803487780564 0.0
    vertex 68.29939811367592 110.67702995121688 0.0
  endloop
endfacet
facet normal 0.0 0.0 -1.0
  outer loop
    vertex 73.54931353028918 104.05803487780564 0.0
    vertex 79.69294153028918 110.67702995121688 0.0
    vertex 75.83936353028918 104.05803487780564 0.0
  endloop
endfacet
facet normal 0.0 0.0 -1.0
  outer loop
    vertex 75.83936353028918 104.05803487780564 0.0
    vertex 79.69294153028918 110.67702995121688 0.0
    vertex 75.83936353028918 99.16011287780564 0.0
  endloop
endfacet
facet normal 0.0 0.0 -1.0
  outer loop
    vertex 45.38041153028919 92.50859495121688 0.0
    vertex 48.99785219293562 94.42024308958398 0.0
    vertex 79.69294153028918 92.50859495121688 0.0
  endloop
endfacet
facet normal 0.0 0.0 -1.0
  outer loop
    vertex 48.99785219293562 94.42024308958398 0.0
    vertex 45.38041153028919 92.50859495121688 0.0
    vertex 48.625053427969505 105.65746310553875 0.0
  endloop
endfacet
facet normal 0.0 0.0 -1.0
  outer loop
    vertex 48.625053427969505 105.65746310553875 0.0
    vertex 45.38041153028919 92.50859495121688 0.0
    vertex 48.625053427969505 108.85288110553876 0.0
  endloop
endfacet
facet normal 0.0 0.0 -1.0
  outer loop
    vertex 48.99785219293562 94.42024308958398 0.0
    vertex 48.625053427969505 105.65746310553875 0.0
    vertex 48.99785219293562 97.77543208958399 0.0
  endloop
endfacet
facet normal 0.0 0.0 -1.0
  outer loop
    vertex 79.69294153028918 92.50859495121688 0.0
    vertex 48.99785219293562 94.42024308958398 0.0
    vertex 52.93886819293561 94.42024308958398 0.0
  endloop
endfacet
facet normal 0.0 0.0 -1.0
  outer loop
    vertex 79.69294153028918 92.50859495121688 0.0
    vertex 52.93886819293561 94.42024308958398 0.0
    vertex 61.19369753028918 99.31988368860384 0.0
  endloop
endfacet
facet normal 0.0 0.0 -1.0
  outer loop
    vertex 61.19369753028918 99.31988368860384 0.0
    vertex 52.93886819293561 94.42024308958398 0.0
    vertex 57.260759113675924 110.67702995121688 0.0
  endloop
endfacet
facet normal 0.0 0.0 -1.0
  outer loop
    vertex 61.19369753028918 99.31988368860384 0.0
    vertex 57.260759113675924 110.67702995121688 0.0
    vertex 57.51138885148166 112.04745552678898 0.0
  endloop
endfacet
facet normal 0.0 0.0 -1.0
  outer loop
    vertex 61.19369753028918 99.31988368860384 0.0
    vertex 57.51138885148166 112.04745552678898 0.0
    vertex 58.0967053662037 113.31168893136595 0.0
  endloop
endfacet
facet normal 0.0 0.0 -1.0
  outer loop
    vertex 61.19369753028918 99.31988368860384 0.0
    vertex 58.0967053662037 113.31168893136595 0.0
    vertex 58.97952717503889 114.389421355254 0.0
  endloop
endfacet
facet normal 0.0 0.0 -1.0
  outer loop
    vertex 61.19369753028918 99.31988368860384 0.0
    vertex 58.97952717503889 114.389421355254 0.0
    vertex 60.103774151973596 115.21219122496719 0.0
  endloop
endfacet
facet normal 0.0 0.0 -1.0
  outer loop
    vertex 61.19369753028918 99.31988368860384 0.0
    vertex 60.103774151973596 115.21219122496719 0.0
    vertex 61.19369753028918 103.95324968860385 0.0
  endloop
endfacet
facet normal 0.0 0.0 -1.0
  outer loop
    vertex 79.69294153028918 92.50859495121688 0.0
    vertex 61.19369753028918 99.31988368860384 0.0
    vertex 63.750066530289175 99.31988368860384 0.0
  endloop
endfacet
facet normal 0.0 0.0 -1.0
  outer loop
    vertex 79.69294153028918 92.50859495121688 0.0
    vertex 63.750066530289175 99.31988368860384 0.0
    vertex 73.54931353028918 99.16011287780564 0.0
  endloop
endfacet
facet normal 0.0 0.0 -1.0
  outer loop
    vertex 73.54931353028918 99.16011287780564 0.0
    vertex 63.750066530289175 99.31988368860384 0.0
    vertex 63.8191857878305 111.50732240830463 0.0
  endloop
endfacet
facet normal 0.0 0.0 -1.0
  outer loop
    vertex 73.54931353028918 99.16011287780564 0.0
    vertex 63.8191857878305 111.50732240830463 0.0
    vertex 64.16875345373758 111.77555511247996 0.0
  endloop
endfacet
facet normal 0.0 0.0 -1.0
  outer loop
    vertex 73.54931353028918 99.16011287780564 0.0
    vertex 64.16875345373758 111.77555511247996 0.0
    vertex 64.43698615791291 112.12512277838705 0.0
  endloop
endfacet
facet normal 0.0 0.0 -1.0
  outer loop
    vertex 73.54931353028918 99.16011287780564 0.0
    vertex 64.43698615791291 112.12512277838705 0.0
    vertex 64.60560428484241 112.53220294728222 0.0
  endloop
endfacet
facet normal 0.0 0.0 -1.0
  outer loop
    vertex 73.54931353028918 99.16011287780564 0.0
    vertex 64.60560428484241 112.53220294728222 0.0
    vertex 64.6631167878305 112.96905377838705 0.0
  endloop
endfacet
facet normal 0.0 0.0 -1.0
  outer loop
    vertex 73.54931353028918 99.16011287780564 0.0
    vertex 64.6631167878305 112.96905377838705 0.0
    vertex 65.45638307537824 115.21219122496719 0.0
  endloop
endfacet
facet normal 0.0 0.0 -1.0
  outer loop
    vertex 73.54931353028918 99.16011287780564 0.0
    vertex 65.45638307537824 115.21219122496719 0.0
    vertex 66.58063005231297 114.389421355254 0.0
  endloop
endfacet
facet normal 0.0 0.0 -1.0
  outer loop
    vertex 73.54931353028918 99.16011287780564 0.0
    vertex 66.58063005231297 114.389421355254 0.0
    vertex 68.29939811367592 110.67702995121688 0.0
  endloop
endfacet
facet normal 0.0 0.0 -1.0
  outer loop
    vertex 68.29939811367592 110.67702995121688 0.0
    vertex 66.58063005231297 114.389421355254 0.0
    vertex 67.46345186114814 113.31168893136595 0.0
  endloop
endfacet
facet normal 0.0 0.0 -1.0
  outer loop
    vertex 68.29939811367592 110.67702995121688 0.0
    vertex 67.46345186114814 113.31168893136595 0.0
    vertex 68.04876837587018 112.04745552678898 0.0
  endloop
endfacet
facet normal 0.0 0.0 -1.0
  outer loop
    vertex 73.54931353028918 99.16011287780564 0.0
    vertex 68.29939811367592 110.67702995121688 0.0
    vertex 73.54931353028918 104.05803487780564 0.0
  endloop
endfacet
facet normal 0.0 0.0 -1.0
  outer loop
    vertex 79.69294153028918 92.50859495121688 0.0
    vertex 73.54931353028918 99.16011287780564 0.0
    vertex 75.83936353028918 99.16011287780564 0.0
  endloop
endfacet
facet normal 0.0 0.0 -1.0
  outer loop
    vertex 79.69294153028918 92.50859495121688 0.0
    vertex 75.83936353028918 99.16011287780564 0.0
    vertex 79.69294153028918 110.67702995121688 0.0
  endloop
endfacet
facet normal 0.0 0.0 -1.0
  outer loop
    vertex 45.38041153028919 110.67702995121688 0.0
    vertex 48.625053427969505 108.85288110553876 0.0
    vertex 45.38041153028919 92.50859495121688 0.0
  endloop
endfacet
facet normal 0.0 0.0 -1.0
  outer loop
    vertex 48.625053427969505 108.85288110553876 0.0
    vertex 45.38041153028919 110.67702995121688 0.0
    vertex 57.260759113675924 110.67702995121688 0.0
  endloop
endfacet
facet normal 0.0 0.0 -1.0
  outer loop
    vertex 48.625053427969505 108.85288110553876 0.0
    vertex 57.260759113675924 110.67702995121688 0.0
    vertex 52.6725824279695 108.85288110553876 0.0
  endloop
endfacet
facet normal 0.0 0.0 -1.0
  outer loop
    vertex 52.6725824279695 108.85288110553876 0.0
    vertex 57.260759113675924 110.67702995121688 0.0
    vertex 52.6725824279695 105.65746310553875 0.0
  endloop
endfacet
facet normal 0.0 0.0 -1.0
  outer loop
    vertex 52.6725824279695 105.65746310553875 0.0
    vertex 57.260759113675924 110.67702995121688 0.0
    vertex 52.93886819293561 97.77543208958399 0.0
  endloop
endfacet
facet normal 0.0 0.0 -1.0
  outer loop
    vertex 52.93886819293561 97.77543208958399 0.0
    vertex 57.260759113675924 110.67702995121688 0.0
    vertex 52.93886819293561 94.42024308958398 0.0
  endloop
endfacet
facet normal 0.0 0.0 -1.0
  outer loop
    vertex 52.6725824279695 105.65746310553875 0.0
    vertex 48.99785219293562 97.77543208958399 0.0
    vertex 48.625053427969505 105.65746310553875 0.0
  endloop
endfacet
facet normal 0.0 0.0 -1.0
  outer loop
    vertex 48.99785219293562 97.77543208958399 0.0
    vertex 52.6725824279695 105.65746310553875 0.0
    vertex 52.93886819293561 97.77543208958399 0.0
  endloop
endfacet
facet normal 0.0 0.0 1.0
  outer loop
    vertex 45.38041153028919 92.50859495121688 1.2798969999999998
    vertex 48.99785219293562 94.42024308958398 1.2798969999999998
    vertex 45.38041153028919 110.67702995121688 1.2798969999999998
  endloop
endfacet
facet normal 0.0 0.0 1.0
  outer loop
    vertex 48.99785219293562 94.42024308958398 1.2798969999999998
    vertex 45.38041153028919 92.50859495121688 1.2798969999999998
    vertex 79.69294153028918 92.50859495121688 1.2798969999999998
  endloop
endfacet
facet normal 0.0 0.0 1.0
  outer loop
    vertex 45.38041153028919 110.67702995121688 1.2798969999999998
    vertex 48.99785219293562 94.42024308958398 1.2798969999999998
    vertex 48.625053427969505 105.65746310553875 1.2798969999999998
  endloop
endfacet
facet normal 0.0 0.0 1.0
  outer loop
    vertex 48.99785219293562 94.42024308958398 1.2798969999999998
    vertex 79.69294153028918 92.50859495121688 1.2798969999999998
    vertex 52.93886819293561 94.42024308958398 1.2798969999999998
  endloop
endfacet
facet normal 0.0 0.0 1.0
  outer loop
    vertex 52.93886819293561 94.42024308958398 1.2798969999999998
    vertex 79.69294153028918 92.50859495121688 1.2798969999999998
    vertex 52.93886819293561 97.77543208958399 1.2798969999999998
  endloop
endfacet
facet normal 0.0 0.0 1.0
  outer loop
    vertex 52.93886819293561 97.77543208958399 1.2798969999999998
    vertex 79.69294153028918 92.50859495121688 1.2798969999999998
    vertex 61.19369753028918 99.31988368860384 1.2798969999999998
  endloop
endfacet
facet normal 0.0 0.0 1.0
  outer loop
    vertex 52.93886819293561 97.77543208958399 1.2798969999999998
    vertex 61.19369753028918 99.31988368860384 1.2798969999999998
    vertex 57.260759113675924 110.67702995121688 1.2798969999999998
  endloop
endfacet
facet normal 0.0 0.0 1.0
  outer loop
    vertex 57.260759113675924 110.67702995121688 1.2798969999999998
    vertex 61.19369753028918 99.31988368860384 1.2798969999999998
    vertex 57.51138885148166 112.04745552678898 1.2798969999999998
  endloop
endfacet
facet normal 0.0 0.0 1.0
  outer loop
    vertex 57.51138885148166 112.04745552678898 1.2798969999999998
    vertex 61.19369753028918 99.31988368860384 1.2798969999999998
    vertex 58.0967053662037 113.31168893136595 1.2798969999999998
  endloop
endfacet
facet normal 0.0 0.0 1.0
  outer loop
    vertex 58.0967053662037 113.31168893136595 1.2798969999999998
    vertex 61.19369753028918 99.31988368860384 1.2798969999999998
    vertex 58.97952717503889 114.389421355254 1.2798969999999998
  endloop
endfacet
facet normal 0.0 0.0 1.0
  outer loop
    vertex 58.97952717503889 114.389421355254 1.2798969999999998
    vertex 61.19369753028918 99.31988368860384 1.2798969999999998
    vertex 60.103774151973596 115.21219122496719 1.2798969999999998
  endloop
endfacet
facet normal 0.0 0.0 1.0
  outer loop
    vertex 61.19369753028918 99.31988368860384 1.2798969999999998
    vertex 79.69294153028918 92.50859495121688 1.2798969999999998
    vertex 63.750066530289175 99.31988368860384 1.2798969999999998
  endloop
endfacet
facet normal 0.0 0.0 1.0
  outer loop
    vertex 63.750066530289175 99.31988368860384 1.2798969999999998
    vertex 79.69294153028918 92.50859495121688 1.2798969999999998
    vertex 63.750066530289175 103.95324968860385 1.2798969999999998
  endloop
endfacet
facet normal 0.0 0.0 1.0
  outer loop
    vertex 63.750066530289175 103.95324968860385 1.2798969999999998
    vertex 79.69294153028918 92.50859495121688 1.2798969999999998
    vertex 73.54931353028918 99.16011287780564 1.2798969999999998
  endloop
endfacet
facet normal 0.0 0.0 1.0
  outer loop
    vertex 63.750066530289175 103.95324968860385 1.2798969999999998
    vertex 73.54931353028918 99.16011287780564 1.2798969999999998
    vertex 63.8191857878305 111.50732240830463 1.2798969999999998
  endloop
endfacet
facet normal 0.0 0.0 1.0
  outer loop
    vertex 63.8191857878305 111.50732240830463 1.2798969999999998
    vertex 73.54931353028918 99.16011287780564 1.2798969999999998
    vertex 64.16875345373758 111.77555511247996 1.2798969999999998
  endloop
endfacet
facet normal 0.0 0.0 1.0
  outer loop
    vertex 64.16875345373758 111.77555511247996 1.2798969999999998
    vertex 73.54931353028918 99.16011287780564 1.2798969999999998
    vertex 64.43698615791291 112.12512277838705 1.2798969999999998
  endloop
endfacet
facet normal 0.0 0.0 1.0
  outer loop
    vertex 64.43698615791291 112.12512277838705 1.2798969999999998
    vertex 73.54931353028918 99.16011287780564 1.2798969999999998
    vertex 64.60560428484241 112.53220294728222 1.2798969999999998
  endloop
endfacet
facet normal 0.0 0.0 1.0
  outer loop
    vertex 64.60560428484241 112.53220294728222 1.2798969999999998
    vertex 73.54931353028918 99.16011287780564 1.2798969999999998
    vertex 64.6631167878305 112.96905377838705 1.2798969999999998
  endloop
endfacet
facet normal 0.0 0.0 1.0
  outer loop
    vertex 64.6631167878305 112.96905377838705 1.2798969999999998
    vertex 73.54931353028918 99.16011287780564 1.2798969999999998
    vertex 65.45638307537824 115.21219122496719 1.2798969999999998
  endloop
endfacet
facet normal 0.0 0.0 1.0
  outer loop
    vertex 65.45638307537824 115.21219122496719 1.2798969999999998
    vertex 73.54931353028918 99.16011287780564 1.2798969999999998
    vertex 66.58063005231297 114.389421355254 1.2798969999999998
  endloop
endfacet
facet normal 0.0 0.0 1.0
  outer loop
    vertex 66.58063005231297 114.389421355254 1.2798969999999998
    vertex 73.54931353028918 99.16011287780564 1.2798969999999998
    vertex 68.29939811367592 110.67702995121688 1.2798969999999998
  endloop
endfacet
facet normal 0.0 0.0 1.0
  outer loop
    vertex 66.58063005231297 114.389421355254 1.2798969999999998
    vertex 68.29939811367592 110.67702995121688 1.2798969999999998
    vertex 67.46345186114814 113.31168893136595 1.2798969999999998
  endloop
endfacet
facet normal 0.0 0.0 1.0
  outer loop
    vertex 67.46345186114814 113.31168893136595 1.2798969999999998
    vertex 68.29939811367592 110.67702995121688 1.2798969999999998
    vertex 68.04876837587018 112.04745552678898 1.2798969999999998
  endloop
endfacet
facet normal 0.0 0.0 1.0
  outer loop
    vertex 73.54931353028918 99.16011287780564 1.2798969999999998
    vertex 79.69294153028918 92.50859495121688 1.2798969999999998
    vertex 75.83936353028918 99.16011287780564 1.2798969999999998
  endloop
endfacet
facet normal 0.0 0.0 1.0
  outer loop
    vertex 75.83936353028918 99.16011287780564 1.2798969999999998
    vertex 79.69294153028918 92.50859495121688 1.2798969999999998
    vertex 75.83936353028918 104.05803487780564 1.2798969999999998
  endloop
endfacet
facet normal 0.0 0.0 1.0
  outer loop
    vertex 68.29939811367592 110.67702995121688 1.2798969999999998
    vertex 73.54931353028918 104.05803487780564 1.2798969999999998
    vertex 79.69294153028918 110.67702995121688 1.2798969999999998
  endloop
endfacet
facet normal 0.0 0.0 1.0
  outer loop
    vertex 73.54931353028918 104.05803487780564 1.2798969999999998
    vertex 68.29939811367592 110.67702995121688 1.2798969999999998
    vertex 73.54931353028918 99.16011287780564 1.2798969999999998
  endloop
endfacet
facet normal 0.0 0.0 1.0
  outer loop
    vertex 79.69294153028918 110.67702995121688 1.2798969999999998
    vertex 73.54931353028918 104.05803487780564 1.2798969999999998
    vertex 75.83936353028918 104.05803487780564 1.2798969999999998
  endloop
endfacet
facet normal 0.0 0.0 1.0
  outer loop
    vertex 79.69294153028918 110.67702995121688 1.2798969999999998
    vertex 75.83936353028918 104.05803487780564 1.2798969999999998
    vertex 79.69294153028918 92.50859495121688 1.2798969999999998
  endloop
endfacet
facet normal 0.0 0.0 1.0
  outer loop
    vertex 60.103774151973596 115.21219122496719 1.2798969999999998
    vertex 61.2873927878305 112.96905377838705 1.2798969999999998
    vertex 61.39802994604557 115.72773313710023 1.2798969999999998
  endloop
endfacet
facet normal 0.0 0.0 1.0
  outer loop
    vertex 61.2873927878305 112.96905377838705 1.2798969999999998
    vertex 60.103774151973596 115.21219122496719 1.2798969999999998
    vertex 61.19369753028918 103.95324968860385 1.2798969999999998
  endloop
endfacet
facet normal 0.0 0.0 1.0
  outer loop
    vertex 61.19369753028918 103.95324968860385 1.2798969999999998
    vertex 60.103774151973596 115.21219122496719 1.2798969999999998
    vertex 61.19369753028918 99.31988368860384 1.2798969999999998
  endloop
endfacet
facet normal 0.0 0.0 1.0
  outer loop
    vertex 61.39802994604557 115.72773313710023 1.2798969999999998
    vertex 61.2873927878305 112.96905377838705 1.2798969999999998
    vertex 61.34490529081858 113.4059046094919 1.2798969999999998
  endloop
endfacet
facet normal 0.0 0.0 1.0
  outer loop
    vertex 61.39802994604557 115.72773313710023 1.2798969999999998
    vertex 61.34490529081858 113.4059046094919 1.2798969999999998
    vertex 61.51352341774808 113.81298477838706 1.2798969999999998
  endloop
endfacet
facet normal 0.0 0.0 1.0
  outer loop
    vertex 61.39802994604557 115.72773313710023 1.2798969999999998
    vertex 61.51352341774808 113.81298477838706 1.2798969999999998
    vertex 62.78007861367592 115.90329795121689 1.2798969999999998
  endloop
endfacet
facet normal 0.0 0.0 1.0
  outer loop
    vertex 62.78007861367592 115.90329795121689 1.2798969999999998
    vertex 61.51352341774808 113.81298477838706 1.2798969999999998
    vertex 61.781756121923415 114.16255244429415 1.2798969999999998
  endloop
endfacet
facet normal 0.0 0.0 1.0
  outer loop
    vertex 62.78007861367592 115.90329795121689 1.2798969999999998
    vertex 61.781756121923415 114.16255244429415 1.2798969999999998
    vertex 62.131323787830496 114.43078514846947 1.2798969999999998
  endloop
endfacet
facet normal 0.0 0.0 1.0
  outer loop
    vertex 62.78007861367592 115.90329795121689 1.2798969999999998
    vertex 62.131323787830496 114.43078514846947 1.2798969999999998
    vertex 62.538403956725666 114.59940327539897 1.2798969999999998
  endloop
endfacet
facet normal 0.0 0.0 1.0
  outer loop
    vertex 62.78007861367592 115.90329795121689 1.2798969999999998
    vertex 62.538403956725666 114.59940327539897 1.2798969999999998
    vertex 62.9752547878305 114.65691577838706 1.2798969999999998
  endloop
endfacet
facet normal 0.0 0.0 1.0
  outer loop
    vertex 62.78007861367592 115.90329795121689 1.2798969999999998
    vertex 62.9752547878305 114.65691577838706 1.2798969999999998
    vertex 64.16212728130627 115.72773313710023 1.2798969999999998
  endloop
endfacet
facet normal 0.0 0.0 1.0
  outer loop
    vertex 64.16212728130627 115.72773313710023 1.2798969999999998
    vertex 62.9752547878305 114.65691577838706 1.2798969999999998
    vertex 63.41210561893533 114.59940327539897 1.2798969999999998
  endloop
endfacet
facet normal 0.0 0.0 1.0
  outer loop
    vertex 64.16212728130627 115.72773313710023 1.2798969999999998
    vertex 63.41210561893533 114.59940327539897 1.2798969999999998
    vertex 63.8191857878305 114.43078514846947 1.2798969999999998
  endloop
endfacet
facet normal 0.0 0.0 1.0
  outer loop
    vertex 64.16212728130627 115.72773313710023 1.2798969999999998
    vertex 63.8191857878305 114.43078514846947 1.2798969999999998
    vertex 64.16875345373758 114.16255244429415 1.2798969999999998
  endloop
endfacet
facet normal 0.0 0.0 1.0
  outer loop
    vertex 64.16212728130627 115.72773313710023 1.2798969999999998
    vertex 64.16875345373758 114.16255244429415 1.2798969999999998
    vertex 65.45638307537824 115.21219122496719 1.2798969999999998
  endloop
endfacet
facet normal 0.0 0.0 1.0
  outer loop
    vertex 65.45638307537824 115.21219122496719 1.2798969999999998
    vertex 64.16875345373758 114.16255244429415 1.2798969999999998
    vertex 64.43698615791291 113.81298477838706 1.2798969999999998
  endloop
endfacet
facet normal 0.0 0.0 1.0
  outer loop
    vertex 65.45638307537824 115.21219122496719 1.2798969999999998
    vertex 64.43698615791291 113.81298477838706 1.2798969999999998
    vertex 64.60560428484241 113.4059046094919 1.2798969999999998
  endloop
endfacet
facet normal 0.0 0.0 1.0
  outer loop
    vertex 65.45638307537824 115.21219122496719 1.2798969999999998
    vertex 64.60560428484241 113.4059046094919 1.2798969999999998
    vertex 64.6631167878305 112.96905377838705 1.2798969999999998
  endloop
endfacet
facet normal 0.0 0.0 1.0
  outer loop
    vertex 61.19369753028918 103.95324968860385 1.2798969999999998
    vertex 61.34490529081858 112.53220294728222 1.2798969999999998
    vertex 61.2873927878305 112.96905377838705 1.2798969999999998
  endloop
endfacet
facet normal 0.0 0.0 1.0
  outer loop
    vertex 61.34490529081858 112.53220294728222 1.2798969999999998
    vertex 61.19369753028918 103.95324968860385 1.2798969999999998
    vertex 63.750066530289175 103.95324968860385 1.2798969999999998
  endloop
endfacet
facet normal 0.0 0.0 1.0
  outer loop
    vertex 61.34490529081858 112.53220294728222 1.2798969999999998
    vertex 63.750066530289175 103.95324968860385 1.2798969999999998
    vertex 61.51352341774808 112.12512277838705 1.2798969999999998
  endloop
endfacet
facet normal 0.0 0.0 1.0
  outer loop
    vertex 61.51352341774808 112.12512277838705 1.2798969999999998
    vertex 63.750066530289175 103.95324968860385 1.2798969999999998
    vertex 61.781756121923415 111.77555511247996 1.2798969999999998
  endloop
endfacet
facet normal 0.0 0.0 1.0
  outer loop
    vertex 61.781756121923415 111.77555511247996 1.2798969999999998
    vertex 63.750066530289175 103.95324968860385 1.2798969999999998
    vertex 62.131323787830496 111.50732240830463 1.2798969999999998
  endloop
endfacet
facet normal 0.0 0.0 1.0
  outer loop
    vertex 62.131323787830496 111.50732240830463 1.2798969999999998
    vertex 63.750066530289175 103.95324968860385 1.2798969999999998
    vertex 62.538403956725666 111.33870428137514 1.2798969999999998
  endloop
endfacet
facet normal 0.0 0.0 1.0
  outer loop
    vertex 62.538403956725666 111.33870428137514 1.2798969999999998
    vertex 63.750066530289175 103.95324968860385 1.2798969999999998
    vertex 62.9752547878305 111.28119177838705 1.2798969999999998
  endloop
endfacet
facet normal 0.0 0.0 1.0
  outer loop
    vertex 62.9752547878305 111.28119177838705 1.2798969999999998
    vertex 63.750066530289175 103.95324968860385 1.2798969999999998
    vertex 63.41210561893533 111.33870428137514 1.2798969999999998
  endloop
endfacet
facet normal 0.0 0.0 1.0
  outer loop
    vertex 63.41210561893533 111.33870428137514 1.2798969999999998
    vertex 63.750066530289175 103.95324968860385 1.2798969999999998
    vertex 63.8191857878305 111.50732240830463 1.2798969999999998
  endloop
endfacet
facet normal 0.0 0.0 1.0
  outer loop
    vertex 48.625053427969505 105.65746310553875 1.2798969999999998
    vertex 48.99785219293562 97.77543208958399 1.2798969999999998
    vertex 52.6725824279695 105.65746310553875 1.2798969999999998
  endloop
endfacet
facet normal 0.0 0.0 1.0
  outer loop
    vertex 48.99785219293562 97.77543208958399 1.2798969999999998
    vertex 48.625053427969505 105.65746310553875 1.2798969999999998
    vertex 48.99785219293562 94.42024308958398 1.2798969999999998
  endloop
endfacet
facet normal 0.0 0.0 1.0
  outer loop
    vertex 52.6725824279695 105.65746310553875 1.2798969999999998
    vertex 48.99785219293562 97.77543208958399 1.2798969999999998
    vertex 52.93886819293561 97.77543208958399 1.2798969999999998
  endloop
endfacet
facet normal 0.0 0.0 1.0
  outer loop
    vertex 52.6725824279695 105.65746310553875 1.2798969999999998
    vertex 52.93886819293561 97.77543208958399 1.2798969999999998
    vertex 52.6725824279695 108.85288110553876 1.2798969999999998
  endloop
endfacet
facet normal 0.0 0.0 1.0
  outer loop
    vertex 45.38041153028919 110.67702995121688 1.2798969999999998
    vertex 48.625053427969505 108.85288110553876 1.2798969999999998
    vertex 57.260759113675924 110.67702995121688 1.2798969999999998
  endloop
endfacet
facet normal 0.0 0.0 1.0
  outer loop
    vertex 48.625053427969505 108.85288110553876 1.2798969999999998
    vertex 45.38041153028919 110.67702995121688 1.2798969999999998
    vertex 48.625053427969505 105.65746310553875 1.2798969999999998
  endloop
endfacet
facet normal 0.0 0.0 1.0
  outer loop
    vertex 57.260759113675924 110.67702995121688 1.2798969999999998
    vertex 48.625053427969505 108.85288110553876 1.2798969999999998
    vertex 52.6725824279695 108.85288110553876 1.2798969999999998
  endloop
endfacet
facet normal 0.0 0.0 1.0
  outer loop
    vertex 57.260759113675924 110.67702995121688 1.2798969999999998
    vertex 52.6725824279695 108.85288110553876 1.2798969999999998
    vertex 52.93886819293561 97.77543208958399 1.2798969999999998
  endloop
endfacet
facet normal 0.5905801779270398 0.806978967160648 0.0
  outer loop
    vertex 65.45638307537824 115.21219122496719 1.2798969999999998
    vertex 66.58063005231297 114.389421355254 0.0
    vertex 65.45638307537824 115.21219122496719 0.0
  endloop
endfacet
facet normal 0.5905801779270398 0.806978967160648 0.0
  outer loop
    vertex 66.58063005231297 114.389421355254 0.0
    vertex 65.45638307537824 115.21219122496719 1.2798969999999998
    vertex 66.58063005231297 114.389421355254 1.2798969999999998
  endloop
endfacet
facet normal 1.0 0.0 0.0
  outer loop
    vertex 79.69294153028918 110.67702995121688 0.0
    vertex 79.69294153028918 92.50859495121688 1.2798969999999998
    vertex 79.69294153028918 92.50859495121688 0.0
  endloop
endfacet
facet normal 1.0 0.0 0.0
  outer loop
    vertex 79.69294153028918 92.50859495121688 1.2798969999999998
    vertex 79.69294153028918 110.67702995121688 0.0
    vertex 79.69294153028918 110.67702995121688 1.2798969999999998
  endloop
endfacet
facet normal -0.0 1.0 0.0
  outer loop
    vertex 48.625053427969505 105.65746310553875 1.2798969999999998
    vertex 52.6725824279695 105.65746310553875 0.0
    vertex 48.625053427969505 105.65746310553875 0.0
  endloop
endfacet
facet normal -0.0 1.0 0.0
  outer loop
    vertex 52.6725824279695 105.65746310553875 0.0
    vertex 48.625053427969505 105.65746310553875 1.2798969999999998
    vertex 52.6725824279695 105.65746310553875 1.2798969999999998
  endloop
endfacet
facet normal -1.0 0.0 0.0
  outer loop
    vertex 52.6725824279695 108.85288110553876 1.2798969999999998
    vertex 52.6725824279695 105.65746310553875 0.0
    vertex 52.6725824279695 105.65746310553875 1.2798969999999998
  endloop
endfacet
facet normal -1.0 0.0 0.0
  outer loop
    vertex 52.6725824279695 105.65746310553875 0.0
    vertex 52.6725824279695 108.85288110553876 1.2798969999999998
    vertex 52.6725824279695 108.85288110553876 0.0
  endloop
endfacet
facet normal -0.5905801779270438 0.8069789671606452 0.0
  outer loop
    vertex 58.97952717503889 114.389421355254 1.2798969999999998
    vertex 60.103774151973596 115.21219122496719 0.0
    vertex 58.97952717503889 114.389421355254 0.0
  endloop
endfacet
facet normal -0.5905801779270438 0.8069789671606452 0.0
  outer loop
    vertex 60.103774151973596 115.21219122496719 0.0
    vertex 58.97952717503889 114.389421355254 1.2798969999999998
    vertex 60.103774151973596 115.21219122496719 1.2798969999999998
  endloop
endfacet
facet normal -0.3700534565060318 0.9290104624426672 0.0
  outer loop
    vertex 60.103774151973596 115.21219122496719 1.2798969999999998
    vertex 61.39802994604557 115.72773313710023 0.0
    vertex 60.103774151973596 115.21219122496719 0.0
  endloop
endfacet
facet normal -0.3700534565060318 0.9290104624426672 0.0
  outer loop
    vertex 61.39802994604557 115.72773313710023 0.0
    vertex 60.103774151973596 115.21219122496719 1.2798969999999998
    vertex 61.39802994604557 115.72773313710023 1.2798969999999998
  endloop
endfacet
facet normal 0.12601956266931497 0.9920277565797415 0.0
  outer loop
    vertex 62.78007861367592 115.90329795121689 1.2798969999999998
    vertex 64.16212728130627 115.72773313710023 0.0
    vertex 62.78007861367592 115.90329795121689 0.0
  endloop
endfacet
facet normal 0.12601956266931497 0.9920277565797415 0.0
  outer loop
    vertex 64.16212728130627 115.72773313710023 0.0
    vertex 62.78007861367592 115.90329795121689 1.2798969999999998
    vertex 64.16212728130627 115.72773313710023 1.2798969999999998
  endloop
endfacet
facet normal 0.7735910490735881 0.6336851653567611 0.0
  outer loop
    vertex 66.58063005231297 114.389421355254 0.0
    vertex 67.46345186114814 113.31168893136595 1.2798969999999998
    vertex 67.46345186114814 113.31168893136595 0.0
  endloop
endfacet
facet normal 0.7735910490735881 0.6336851653567611 0.0
  outer loop
    vertex 67.46345186114814 113.31168893136595 1.2798969999999998
    vertex 66.58063005231297 114.389421355254 0.0
    vertex 66.58063005231297 114.389421355254 1.2798969999999998
  endloop
endfacet
facet normal 0.9074605384816358 0.4201373240960864 0.0
  outer loop
    vertex 67.46345186114814 113.31168893136595 0.0
    vertex 68.04876837587018 112.04745552678898 1.2798969999999998
    vertex 68.04876837587018 112.04745552678898 0.0
  endloop
endfacet
facet normal 0.9074605384816358 0.4201373240960864 0.0
  outer loop
    vertex 68.04876837587018 112.04745552678898 1.2798969999999998
    vertex 67.46345186114814 113.31168893136595 0.0
    vertex 67.46345186114814 113.31168893136595 1.2798969999999998
  endloop
endfacet
facet normal 0.983684758095575 0.17990079680326718 0.0
  outer loop
    vertex 68.04876837587018 112.04745552678898 0.0
    vertex 68.29939811367592 110.67702995121688 1.2798969999999998
    vertex 68.29939811367592 110.67702995121688 0.0
  endloop
endfacet
facet normal 0.983684758095575 0.17990079680326718 0.0
  outer loop
    vertex 68.29939811367592 110.67702995121688 1.2798969999999998
    vertex 68.04876837587018 112.04745552678898 0.0
    vertex 68.04876837587018 112.04745552678898 1.2798969999999998
  endloop
endfacet
facet normal -0.0 1.0 0.0
  outer loop
    vertex 68.29939811367592 110.67702995121688 1.2798969999999998
    vertex 79.69294153028918 110.67702995121688 0.0
    vertex 68.29939811367592 110.67702995121688 0.0
  endloop
endfacet
facet normal -0.0 1.0 0.0
  outer loop
    vertex 79.69294153028918 110.67702995121688 0.0
    vertex 68.29939811367592 110.67702995121688 1.2798969999999998
    vertex 79.69294153028918 110.67702995121688 1.2798969999999998
  endloop
endfacet
facet normal -0.0 1.0 0.0
  outer loop
    vertex 45.38041153028919 110.67702995121688 1.2798969999999998
    vertex 57.260759113675924 110.67702995121688 0.0
    vertex 45.38041153028919 110.67702995121688 0.0
  endloop
endfacet
facet normal -0.0 1.0 0.0
  outer loop
    vertex 57.260759113675924 110.67702995121688 0.0
    vertex 45.38041153028919 110.67702995121688 1.2798969999999998
    vertex 57.260759113675924 110.67702995121688 1.2798969999999998
  endloop
endfacet
facet normal -0.773591049073584 0.6336851653567659 0.0
  outer loop
    vertex 58.97952717503889 114.389421355254 1.2798969999999998
    vertex 58.0967053662037 113.31168893136595 0.0
    vertex 58.0967053662037 113.31168893136595 1.2798969999999998
  endloop
endfacet
facet normal -0.773591049073584 0.6336851653567659 0.0
  outer loop
    vertex 58.0967053662037 113.31168893136595 0.0
    vertex 58.97952717503889 114.389421355254 1.2798969999999998
    vertex 58.97952717503889 114.389421355254 0.0
  endloop
endfacet
facet normal -0.0 -1.0 -0.0
  outer loop
    vertex 79.69294153028918 92.50859495121688 1.2798969999999998
    vertex 45.38041153028919 92.50859495121688 0.0
    vertex 79.69294153028918 92.50859495121688 0.0
  endloop
endfacet
facet normal -0.0 -1.0 -0.0
  outer loop
    vertex 45.38041153028919 92.50859495121688 0.0
    vertex 79.69294153028918 92.50859495121688 1.2798969999999998
    vertex 45.38041153028919 92.50859495121688 1.2798969999999998
  endloop
endfacet
facet normal -1.0 0.0 0.0
  outer loop
    vertex 45.38041153028919 110.67702995121688 1.2798969999999998
    vertex 45.38041153028919 92.50859495121688 0.0
    vertex 45.38041153028919 92.50859495121688 1.2798969999999998
  endloop
endfacet
facet normal -1.0 0.0 0.0
  outer loop
    vertex 45.38041153028919 92.50859495121688 0.0
    vertex 45.38041153028919 110.67702995121688 1.2798969999999998
    vertex 45.38041153028919 110.67702995121688 0.0
  endloop
endfacet
facet normal -0.9074605384816358 0.4201373240960864 0.0
  outer loop
    vertex 58.0967053662037 113.31168893136595 1.2798969999999998
    vertex 57.51138885148166 112.04745552678898 0.0
    vertex 57.51138885148166 112.04745552678898 1.2798969999999998
  endloop
endfacet
facet normal -0.9074605384816358 0.4201373240960864 0.0
  outer loop
    vertex 57.51138885148166 112.04745552678898 0.0
    vertex 58.0967053662037 113.31168893136595 1.2798969999999998
    vertex 58.0967053662037 113.31168893136595 0.0
  endloop
endfacet
facet normal -0.12601956266931497 0.9920277565797415 0.0
  outer loop
    vertex 61.39802994604557 115.72773313710023 1.2798969999999998
    vertex 62.78007861367592 115.90329795121689 0.0
    vertex 61.39802994604557 115.72773313710023 0.0
  endloop
endfacet
facet normal -0.12601956266931497 0.9920277565797415 0.0
  outer loop
    vertex 62.78007861367592 115.90329795121689 0.0
    vertex 61.39802994604557 115.72773313710023 1.2798969999999998
    vertex 62.78007861367592 115.90329795121689 1.2798969999999998
  endloop
endfacet
facet normal -0.983684758095575 0.17990079680326718 0.0
  outer loop
    vertex 57.51138885148166 112.04745552678898 1.2798969999999998
    vertex 57.260759113675924 110.67702995121688 0.0
    vertex 57.260759113675924 110.67702995121688 1.2798969999999998
  endloop
endfacet
facet normal -0.983684758095575 0.17990079680326718 0.0
  outer loop
    vertex 57.260759113675924 110.67702995121688 0.0
    vertex 57.51138885148166 112.04745552678898 1.2798969999999998
    vertex 57.51138885148166 112.04745552678898 0.0
  endloop
endfacet
facet normal 0.3700534565060318 0.9290104624426672 0.0
  outer loop
    vertex 64.16212728130627 115.72773313710023 1.2798969999999998
    vertex 65.45638307537824 115.21219122496719 0.0
    vertex 64.16212728130627 115.72773313710023 0.0
  endloop
endfacet
facet normal 0.3700534565060318 0.9290104624426672 0.0
  outer loop
    vertex 65.45638307537824 115.21219122496719 0.0
    vertex 64.16212728130627 115.72773313710023 1.2798969999999998
    vertex 65.45638307537824 115.21219122496719 1.2798969999999998
  endloop
endfacet
facet normal 0.9914448613738094 0.13052619222006082 0.0
  outer loop
    vertex 61.2873927878305 112.96905377838705 0.0
    vertex 61.34490529081858 112.53220294728222 1.2798969999999998
    vertex 61.34490529081858 112.53220294728222 0.0
  endloop
endfacet
facet normal 0.9914448613738094 0.13052619222006082 0.0
  outer loop
    vertex 61.34490529081858 112.53220294728222 1.2798969999999998
    vertex 61.2873927878305 112.96905377838705 0.0
    vertex 61.2873927878305 112.96905377838705 1.2798969999999998
  endloop
endfacet
facet normal -0.0 1.0 0.0
  outer loop
    vertex 73.54931353028918 99.16011287780564 1.2798969999999998
    vertex 75.83936353028918 99.16011287780564 0.0
    vertex 73.54931353028918 99.16011287780564 0.0
  endloop
endfacet
facet normal -0.0 1.0 0.0
  outer loop
    vertex 75.83936353028918 99.16011287780564 0.0
    vertex 73.54931353028918 99.16011287780564 1.2798969999999998
    vertex 75.83936353028918 99.16011287780564 1.2798969999999998
  endloop
endfacet
facet normal 0.9238795325112922 -0.38268343236507657 0.0
  outer loop
    vertex 61.51352341774808 113.81298477838706 0.0
    vertex 61.34490529081858 113.4059046094919 1.2798969999999998
    vertex 61.34490529081858 113.4059046094919 0.0
  endloop
endfacet
facet normal 0.9238795325112922 -0.38268343236507657 0.0
  outer loop
    vertex 61.34490529081858 113.4059046094919 1.2798969999999998
    vertex 61.51352341774808 113.81298477838706 0.0
    vertex 61.51352341774808 113.81298477838706 1.2798969999999998
  endloop
endfacet
facet normal 1.0 0.0 0.0
  outer loop
    vertex 48.99785219293562 97.77543208958399 0.0
    vertex 48.99785219293562 94.42024308958398 1.2798969999999998
    vertex 48.99785219293562 94.42024308958398 0.0
  endloop
endfacet
facet normal 1.0 0.0 0.0
  outer loop
    vertex 48.99785219293562 94.42024308958398 1.2798969999999998
    vertex 48.99785219293562 97.77543208958399 0.0
    vertex 48.99785219293562 97.77543208958399 1.2798969999999998
  endloop
endfacet
facet normal 1.0 0.0 0.0
  outer loop
    vertex 61.19369753028918 103.95324968860385 0.0
    vertex 61.19369753028918 99.31988368860384 1.2798969999999998
    vertex 61.19369753028918 99.31988368860384 0.0
  endloop
endfacet
facet normal 1.0 0.0 0.0
  outer loop
    vertex 61.19369753028918 99.31988368860384 1.2798969999999998
    vertex 61.19369753028918 103.95324968860385 0.0
    vertex 61.19369753028918 103.95324968860385 1.2798969999999998
  endloop
endfacet
facet normal -0.9914448613738094 0.13052619222006082 0.0
  outer loop
    vertex 64.6631167878305 112.96905377838705 1.2798969999999998
    vertex 64.60560428484241 112.53220294728222 0.0
    vertex 64.60560428484241 112.53220294728222 1.2798969999999998
  endloop
endfacet
facet normal -0.9914448613738094 0.13052619222006082 0.0
  outer loop
    vertex 64.60560428484241 112.53220294728222 0.0
    vertex 64.6631167878305 112.96905377838705 1.2798969999999998
    vertex 64.6631167878305 112.96905377838705 0.0
  endloop
endfacet
facet normal 1.0 0.0 0.0
  outer loop
    vertex 73.54931353028918 104.05803487780564 0.0
    vertex 73.54931353028918 99.16011287780564 1.2798969999999998
    vertex 73.54931353028918 99.16011287780564 0.0
  endloop
endfacet
facet normal 1.0 0.0 0.0
  outer loop
    vertex 73.54931353028918 99.16011287780564 1.2798969999999998
    vertex 73.54931353028918 104.05803487780564 0.0
    vertex 73.54931353028918 104.05803487780564 1.2798969999999998
  endloop
endfacet
facet normal -0.0 -1.0 -0.0
  outer loop
    vertex 63.750066530289175 103.95324968860385 1.2798969999999998
    vertex 61.19369753028918 103.95324968860385 0.0
    vertex 63.750066530289175 103.95324968860385 0.0
  endloop
endfacet
facet normal -0.0 -1.0 -0.0
  outer loop
    vertex 61.19369753028918 103.95324968860385 0.0
    vertex 63.750066530289175 103.95324968860385 1.2798969999999998
    vertex 61.19369753028918 103.95324968860385 1.2798969999999998
  endloop
endfacet
facet normal -1.0 0.0 0.0
  outer loop
    vertex 63.750066530289175 103.95324968860385 1.2798969999999998
    vertex 63.750066530289175 99.31988368860384 0.0
    vertex 63.750066530289175 99.31988368860384 1.2798969999999998
  endloop
endfacet
facet normal -1.0 0.0 0.0
  outer loop
    vertex 63.750066530289175 99.31988368860384 0.0
    vertex 63.750066530289175 103.95324968860385 1.2798969999999998
    vertex 63.750066530289175 103.95324968860385 0.0
  endloop
endfacet
facet normal -1.0 0.0 0.0
  outer loop
    vertex 75.83936353028918 104.05803487780564 1.2798969999999998
    vertex 75.83936353028918 99.16011287780564 0.0
    vertex 75.83936353028918 99.16011287780564 1.2798969999999998
  endloop
endfacet
facet normal -1.0 0.0 0.0
  outer loop
    vertex 75.83936353028918 99.16011287780564 0.0
    vertex 75.83936353028918 104.05803487780564 1.2798969999999998
    vertex 75.83936353028918 104.05803487780564 0.0
  endloop
endfacet
facet normal -0.6087614290087205 -0.7933533402912353 -0.0
  outer loop
    vertex 64.16875345373758 114.16255244429415 1.2798969999999998
    vertex 63.8191857878305 114.43078514846947 0.0
    vertex 64.16875345373758 114.16255244429415 0.0
  endloop
endfacet
facet normal -0.6087614290087205 -0.7933533402912353 -0.0
  outer loop
    vertex 63.8191857878305 114.43078514846947 0.0
    vertex 64.16875345373758 114.16255244429415 1.2798969999999998
    vertex 63.8191857878305 114.43078514846947 1.2798969999999998
  endloop
endfacet
facet normal -0.0 -1.0 -0.0
  outer loop
    vertex 52.6725824279695 108.85288110553876 1.2798969999999998
    vertex 48.625053427969505 108.85288110553876 0.0
    vertex 52.6725824279695 108.85288110553876 0.0
  endloop
endfacet
facet normal -0.0 -1.0 -0.0
  outer loop
    vertex 48.625053427969505 108.85288110553876 0.0
    vertex 52.6725824279695 108.85288110553876 1.2798969999999998
    vertex 48.625053427969505 108.85288110553876 1.2798969999999998
  endloop
endfacet
facet normal -0.0 -1.0 -0.0
  outer loop
    vertex 52.93886819293561 97.77543208958399 1.2798969999999998
    vertex 48.99785219293562 97.77543208958399 0.0
    vertex 52.93886819293561 97.77543208958399 0.0
  endloop
endfacet
facet normal -0.0 -1.0 -0.0
  outer loop
    vertex 48.99785219293562 97.77543208958399 0.0
    vertex 52.93886819293561 97.77543208958399 1.2798969999999998
    vertex 48.99785219293562 97.77543208958399 1.2798969999999998
  endloop
endfacet
facet normal -0.7933533402912324 0.6087614290087243 0.0
  outer loop
    vertex 64.43698615791291 112.12512277838705 1.2798969999999998
    vertex 64.16875345373758 111.77555511247996 0.0
    vertex 64.16875345373758 111.77555511247996 1.2798969999999998
  endloop
endfacet
facet normal -0.7933533402912324 0.6087614290087243 0.0
  outer loop
    vertex 64.16875345373758 111.77555511247996 0.0
    vertex 64.43698615791291 112.12512277838705 1.2798969999999998
    vertex 64.43698615791291 112.12512277838705 0.0
  endloop
endfacet
facet normal -0.9914448613738094 -0.13052619222006082 -0.0
  outer loop
    vertex 64.60560428484241 113.4059046094919 1.2798969999999998
    vertex 64.6631167878305 112.96905377838705 0.0
    vertex 64.6631167878305 112.96905377838705 1.2798969999999998
  endloop
endfacet
facet normal -0.9914448613738094 -0.13052619222006082 -0.0
  outer loop
    vertex 64.6631167878305 112.96905377838705 0.0
    vertex 64.60560428484241 113.4059046094919 1.2798969999999998
    vertex 64.60560428484241 113.4059046094919 0.0
  endloop
endfacet
facet normal -0.9238795325112922 -0.38268343236507657 -0.0
  outer loop
    vertex 64.43698615791291 113.81298477838706 1.2798969999999998
    vertex 64.60560428484241 113.4059046094919 0.0
    vertex 64.60560428484241 113.4059046094919 1.2798969999999998
  endloop
endfacet
facet normal -0.9238795325112922 -0.38268343236507657 -0.0
  outer loop
    vertex 64.60560428484241 113.4059046094919 0.0
    vertex 64.43698615791291 113.81298477838706 1.2798969999999998
    vertex 64.43698615791291 113.81298477838706 0.0
  endloop
endfacet
facet normal -0.0 -1.0 -0.0
  outer loop
    vertex 75.83936353028918 104.05803487780564 1.2798969999999998
    vertex 73.54931353028918 104.05803487780564 0.0
    vertex 75.83936353028918 104.05803487780564 0.0
  endloop
endfacet
facet normal -0.0 -1.0 -0.0
  outer loop
    vertex 73.54931353028918 104.05803487780564 0.0
    vertex 75.83936353028918 104.05803487780564 1.2798969999999998
    vertex 73.54931353028918 104.05803487780564 1.2798969999999998
  endloop
endfacet
facet normal -0.3826834323650677 -0.9238795325112961 -0.0
  outer loop
    vertex 63.8191857878305 114.43078514846947 1.2798969999999998
    vertex 63.41210561893533 114.59940327539897 0.0
    vertex 63.8191857878305 114.43078514846947 0.0
  endloop
endfacet
facet normal -0.3826834323650677 -0.9238795325112961 -0.0
  outer loop
    vertex 63.41210561893533 114.59940327539897 0.0
    vertex 63.8191857878305 114.43078514846947 1.2798969999999998
    vertex 63.41210561893533 114.59940327539897 1.2798969999999998
  endloop
endfacet
facet normal -0.13052619222006412 -0.9914448613738089 -0.0
  outer loop
    vertex 63.41210561893533 114.59940327539897 1.2798969999999998
    vertex 62.9752547878305 114.65691577838706 0.0
    vertex 63.41210561893533 114.59940327539897 0.0
  endloop
endfacet
facet normal -0.13052619222006412 -0.9914448613738089 -0.0
  outer loop
    vertex 62.9752547878305 114.65691577838706 0.0
    vertex 63.41210561893533 114.59940327539897 1.2798969999999998
    vertex 62.9752547878305 114.65691577838706 1.2798969999999998
  endloop
endfacet
facet normal 0.13052619222006412 -0.9914448613738089 0.0
  outer loop
    vertex 62.9752547878305 114.65691577838706 1.2798969999999998
    vertex 62.538403956725666 114.59940327539897 0.0
    vertex 62.9752547878305 114.65691577838706 0.0
  endloop
endfacet
facet normal 0.13052619222006412 -0.9914448613738089 0.0
  outer loop
    vertex 62.538403956725666 114.59940327539897 0.0
    vertex 62.9752547878305 114.65691577838706 1.2798969999999998
    vertex 62.538403956725666 114.59940327539897 1.2798969999999998
  endloop
endfacet
facet normal 0.6087614290087205 -0.7933533402912353 0.0
  outer loop
    vertex 62.131323787830496 114.43078514846947 1.2798969999999998
    vertex 61.781756121923415 114.16255244429415 0.0
    vertex 62.131323787830496 114.43078514846947 0.0
  endloop
endfacet
facet normal 0.6087614290087205 -0.7933533402912353 0.0
  outer loop
    vertex 61.781756121923415 114.16255244429415 0.0
    vertex 62.131323787830496 114.43078514846947 1.2798969999999998
    vertex 61.781756121923415 114.16255244429415 1.2798969999999998
  endloop
endfacet
facet normal 0.7933533402912324 -0.6087614290087243 0.0
  outer loop
    vertex 61.781756121923415 114.16255244429415 0.0
    vertex 61.51352341774808 113.81298477838706 1.2798969999999998
    vertex 61.51352341774808 113.81298477838706 0.0
  endloop
endfacet
facet normal 0.7933533402912324 -0.6087614290087243 0.0
  outer loop
    vertex 61.51352341774808 113.81298477838706 1.2798969999999998
    vertex 61.781756121923415 114.16255244429415 0.0
    vertex 61.781756121923415 114.16255244429415 1.2798969999999998
  endloop
endfacet
facet normal -0.0 1.0 0.0
  outer loop
    vertex 61.19369753028918 99.31988368860384 1.2798969999999998
    vertex 63.750066530289175 99.31988368860384 0.0
    vertex 61.19369753028918 99.31988368860384 0.0
  endloop
endfacet
facet normal -0.0 1.0 0.0
  outer loop
    vertex 63.750066530289175 99.31988368860384 0.0
    vertex 61.19369753028918 99.31988368860384 1.2798969999999998
    vertex 63.750066530289175 99.31988368860384 1.2798969999999998
  endloop
endfacet
facet normal -0.9238795325112922 0.38268343236507657 0.0
  outer loop
    vertex 64.60560428484241 112.53220294728222 1.2798969999999998
    vertex 64.43698615791291 112.12512277838705 0.0
    vertex 64.43698615791291 112.12512277838705 1.2798969999999998
  endloop
endfacet
facet normal -0.9238795325112922 0.38268343236507657 0.0
  outer loop
    vertex 64.43698615791291 112.12512277838705 0.0
    vertex 64.60560428484241 112.53220294728222 1.2798969999999998
    vertex 64.60560428484241 112.53220294728222 0.0
  endloop
endfacet
facet normal 1.0 0.0 0.0
  outer loop
    vertex 48.625053427969505 108.85288110553876 0.0
    vertex 48.625053427969505 105.65746310553875 1.2798969999999998
    vertex 48.625053427969505 105.65746310553875 0.0
  endloop
endfacet
facet normal 1.0 0.0 0.0
  outer loop
    vertex 48.625053427969505 105.65746310553875 1.2798969999999998
    vertex 48.625053427969505 108.85288110553876 0.0
    vertex 48.625053427969505 108.85288110553876 1.2798969999999998
  endloop
endfacet
facet normal -0.7933533402912324 -0.6087614290087243 -0.0
  outer loop
    vertex 64.16875345373758 114.16255244429415 1.2798969999999998
    vertex 64.43698615791291 113.81298477838706 0.0
    vertex 64.43698615791291 113.81298477838706 1.2798969999999998
  endloop
endfacet
facet normal -0.7933533402912324 -0.6087614290087243 -0.0
  outer loop
    vertex 64.43698615791291 113.81298477838706 0.0
    vertex 64.16875345373758 114.16255244429415 1.2798969999999998
    vertex 64.16875345373758 114.16255244429415 0.0
  endloop
endfacet
facet normal -0.6087614290087205 0.7933533402912353 0.0
  outer loop
    vertex 63.8191857878305 111.50732240830463 1.2798969999999998
    vertex 64.16875345373758 111.77555511247996 0.0
    vertex 63.8191857878305 111.50732240830463 0.0
  endloop
endfacet
facet normal -0.6087614290087205 0.7933533402912353 0.0
  outer loop
    vertex 64.16875345373758 111.77555511247996 0.0
    vertex 63.8191857878305 111.50732240830463 1.2798969999999998
    vertex 64.16875345373758 111.77555511247996 1.2798969999999998
  endloop
endfacet
facet normal 0.3826834323650677 -0.9238795325112961 0.0
  outer loop
    vertex 62.538403956725666 114.59940327539897 1.2798969999999998
    vertex 62.131323787830496 114.43078514846947 0.0
    vertex 62.538403956725666 114.59940327539897 0.0
  endloop
endfacet
facet normal 0.3826834323650677 -0.9238795325112961 0.0
  outer loop
    vertex 62.131323787830496 114.43078514846947 0.0
    vertex 62.538403956725666 114.59940327539897 1.2798969999999998
    vertex 62.131323787830496 114.43078514846947 1.2798969999999998
  endloop
endfacet
facet normal -0.0 1.0 0.0
  outer loop
    vertex 48.99785219293562 94.42024308958398 1.2798969999999998
    vertex 52.93886819293561 94.42024308958398 0.0
    vertex 48.99785219293562 94.42024308958398 0.0
  endloop
endfacet
facet normal -0.0 1.0 0.0
  outer loop
    vertex 52.93886819293561 94.42024308958398 0.0
    vertex 48.99785219293562 94.42024308958398 1.2798969999999998
    vertex 52.93886819293561 94.42024308958398 1.2798969999999998
  endloop
endfacet
facet normal 0.9914448613738094 -0.13052619222006082 0.0
  outer loop
    vertex 61.34490529081858 113.4059046094919 0.0
    vertex 61.2873927878305 112.96905377838705 1.2798969999999998
    vertex 61.2873927878305 112.96905377838705 0.0
  endloop
endfacet
facet normal 0.9914448613738094 -0.13052619222006082 0.0
  outer loop
    vertex 61.2873927878305 112.96905377838705 1.2798969999999998
    vertex 61.34490529081858 113.4059046094919 0.0
    vertex 61.34490529081858 113.4059046094919 1.2798969999999998
  endloop
endfacet
facet normal -1.0 0.0 0.0
  outer loop
    vertex 52.93886819293561 97.77543208958399 1.2798969999999998
    vertex 52.93886819293561 94.42024308958398 0.0
    vertex 52.93886819293561 94.42024308958398 1.2798969999999998
  endloop
endfacet
facet normal -1.0 0.0 0.0
  outer loop
    vertex 52.93886819293561 94.42024308958398 0.0
    vertex 52.93886819293561 97.77543208958399 1.2798969999999998
    vertex 52.93886819293561 97.77543208958399 0.0
  endloop
endfacet
facet normal 0.9238795325112922 0.38268343236507657 0.0
  outer loop
    vertex 61.34490529081858 112.53220294728222 0.0
    vertex 61.51352341774808 112.12512277838705 1.2798969999999998
    vertex 61.51352341774808 112.12512277838705 0.0
  endloop
endfacet
facet normal 0.9238795325112922 0.38268343236507657 0.0
  outer loop
    vertex 61.51352341774808 112.12512277838705 1.2798969999999998
    vertex 61.34490529081858 112.53220294728222 0.0
    vertex 61.34490529081858 112.53220294728222 1.2798969999999998
  endloop
endfacet
facet normal -0.13052619222006412 0.9914448613738089 0.0
  outer loop
    vertex 62.9752547878305 111.28119177838705 1.2798969999999998
    vertex 63.41210561893533 111.33870428137514 0.0
    vertex 62.9752547878305 111.28119177838705 0.0
  endloop
endfacet
facet normal -0.13052619222006412 0.9914448613738089 0.0
  outer loop
    vertex 63.41210561893533 111.33870428137514 0.0
    vertex 62.9752547878305 111.28119177838705 1.2798969999999998
    vertex 63.41210561893533 111.33870428137514 1.2798969999999998
  endloop
endfacet
facet normal 0.13052619222006412 0.9914448613738089 0.0
  outer loop
    vertex 62.538403956725666 111.33870428137514 1.2798969999999998
    vertex 62.9752547878305 111.28119177838705 0.0
    vertex 62.538403956725666 111.33870428137514 0.0
  endloop
endfacet
facet normal 0.13052619222006412 0.9914448613738089 0.0
  outer loop
    vertex 62.9752547878305 111.28119177838705 0.0
    vertex 62.538403956725666 111.33870428137514 1.2798969999999998
    vertex 62.9752547878305 111.28119177838705 1.2798969999999998
  endloop
endfacet
facet normal -0.3826834323650677 0.9238795325112961 0.0
  outer loop
    vertex 63.41210561893533 111.33870428137514 1.2798969999999998
    vertex 63.8191857878305 111.50732240830463 0.0
    vertex 63.41210561893533 111.33870428137514 0.0
  endloop
endfacet
facet normal -0.3826834323650677 0.9238795325112961 0.0
  outer loop
    vertex 63.8191857878305 111.50732240830463 0.0
    vertex 63.41210561893533 111.33870428137514 1.2798969999999998
    vertex 63.8191857878305 111.50732240830463 1.2798969999999998
  endloop
endfacet
facet normal 0.3826834323650677 0.9238795325112961 0.0
  outer loop
    vertex 62.131323787830496 111.50732240830463 1.2798969999999998
    vertex 62.538403956725666 111.33870428137514 0.0
    vertex 62.131323787830496 111.50732240830463 0.0
  endloop
endfacet
facet normal 0.3826834323650677 0.9238795325112961 0.0
  outer loop
    vertex 62.538403956725666 111.33870428137514 0.0
    vertex 62.131323787830496 111.50732240830463 1.2798969999999998
    vertex 62.538403956725666 111.33870428137514 1.2798969999999998
  endloop
endfacet
facet normal 0.7933533402912324 0.6087614290087243 0.0
  outer loop
    vertex 61.51352341774808 112.12512277838705 0.0
    vertex 61.781756121923415 111.77555511247996 1.2798969999999998
    vertex 61.781756121923415 111.77555511247996 0.0
  endloop
endfacet
facet normal 0.7933533402912324 0.6087614290087243 0.0
  outer loop
    vertex 61.781756121923415 111.77555511247996 1.2798969999999998
    vertex 61.51352341774808 112.12512277838705 0.0
    vertex 61.51352341774808 112.12512277838705 1.2798969999999998
  endloop
endfacet
facet normal 0.0 0.0 1.0
  outer loop
    vertex 90.55217475466891 105.65746310553875 1.4223239999999997
    vertex 90.92497351963502 97.77543208958399 1.4223239999999997
    vertex 94.59970375466891 105.65746310553875 1.4223239999999997
  endloop
endfacet
facet normal 0.0 0.0 1.0
  outer loop
    vertex 90.92497351963502 97.77543208958399 1.4223239999999997
    vertex 90.55217475466891 105.65746310553875 1.4223239999999997
    vertex 90.92497351963502 94.42024308958398 1.4223239999999997
  endloop
endfacet
facet normal 0.0 0.0 1.0
  outer loop
    vertex 94.59970375466891 105.65746310553875 1.4223239999999997
    vertex 90.92497351963502 97.77543208958399 1.4223239999999997
    vertex 94.86598951963502 97.77543208958399 1.4223239999999997
  endloop
endfacet
facet normal 0.0 0.0 1.0
  outer loop
    vertex 94.59970375466891 105.65746310553875 1.4223239999999997
    vertex 94.86598951963502 97.77543208958399 1.4223239999999997
    vertex 94.59970375466891 108.85288110553876 1.4223239999999997
  endloop
endfacet
facet normal 0.0 0.0 1.0
  outer loop
    vertex 87.30753285698859 92.50859495121688 1.4223239999999997
    vertex 90.92497351963502 94.42024308958398 1.4223239999999997
    vertex 87.30753285698859 110.67702995121688 1.4223239999999997
  endloop
endfacet
facet normal 0.0 0.0 1.0
  outer loop
    vertex 90.92497351963502 94.42024308958398 1.4223239999999997
    vertex 87.30753285698859 92.50859495121688 1.4223239999999997
    vertex 121.6200628569886 92.50859495121688 1.4223239999999997
  endloop
endfacet
facet normal 0.0 0.0 1.0
  outer loop
    vertex 87.30753285698859 110.67702995121688 1.4223239999999997
    vertex 90.92497351963502 94.42024308958398 1.4223239999999997
    vertex 90.55217475466891 105.65746310553875 1.4223239999999997
  endloop
endfacet
facet normal 0.0 0.0 1.0
  outer loop
    vertex 90.92497351963502 94.42024308958398 1.4223239999999997
    vertex 121.6200628569886 92.50859495121688 1.4223239999999997
    vertex 94.86598951963502 94.42024308958398 1.4223239999999997
  endloop
endfacet
facet normal 0.0 0.0 1.0
  outer loop
    vertex 94.86598951963502 94.42024308958398 1.4223239999999997
    vertex 121.6200628569886 92.50859495121688 1.4223239999999997
    vertex 94.86598951963502 97.77543208958399 1.4223239999999997
  endloop
endfacet
facet normal 0.0 0.0 1.0
  outer loop
    vertex 94.86598951963502 97.77543208958399 1.4223239999999997
    vertex 121.6200628569886 92.50859495121688 1.4223239999999997
    vertex 103.12081885698856 99.31988368860384 1.4223239999999997
  endloop
endfacet
facet normal 0.0 0.0 1.0
  outer loop
    vertex 103.12081885698856 99.31988368860384 1.4223239999999997
    vertex 121.6200628569886 92.50859495121688 1.4223239999999997
    vertex 105.67718785698857 99.31988368860384 1.4223239999999997
  endloop
endfacet
facet normal 0.0 0.0 1.0
  outer loop
    vertex 105.67718785698857 99.31988368860384 1.4223239999999997
    vertex 121.6200628569886 92.50859495121688 1.4223239999999997
    vertex 105.67718785698857 103.95324968860385 1.4223239999999997
  endloop
endfacet
facet normal 0.0 0.0 1.0
  outer loop
    vertex 105.67718785698857 103.95324968860385 1.4223239999999997
    vertex 121.6200628569886 92.50859495121688 1.4223239999999997
    vertex 115.47643485698858 99.16011287780564 1.4223239999999997
  endloop
endfacet
facet normal 0.0 0.0 1.0
  outer loop
    vertex 115.47643485698858 99.16011287780564 1.4223239999999997
    vertex 121.6200628569886 92.50859495121688 1.4223239999999997
    vertex 117.76648485698858 99.16011287780564 1.4223239999999997
  endloop
endfacet
facet normal 0.0 0.0 1.0
  outer loop
    vertex 117.76648485698858 99.16011287780564 1.4223239999999997
    vertex 121.6200628569886 92.50859495121688 1.4223239999999997
    vertex 117.76648485698858 104.05803487780564 1.4223239999999997
  endloop
endfacet
facet normal 0.0 0.0 1.0
  outer loop
    vertex 87.30753285698859 110.67702995121688 1.4223239999999997
    vertex 90.55217475466891 108.85288110553876 1.4223239999999997
    vertex 121.6200628569886 110.67702995121688 1.4223239999999997
  endloop
endfacet
facet normal 0.0 0.0 1.0
  outer loop
    vertex 90.55217475466891 108.85288110553876 1.4223239999999997
    vertex 87.30753285698859 110.67702995121688 1.4223239999999997
    vertex 90.55217475466891 105.65746310553875 1.4223239999999997
  endloop
endfacet
facet normal 0.0 0.0 1.0
  outer loop
    vertex 121.6200628569886 110.67702995121688 1.4223239999999997
    vertex 90.55217475466891 108.85288110553876 1.4223239999999997
    vertex 94.59970375466891 108.85288110553876 1.4223239999999997
  endloop
endfacet
facet normal 0.0 0.0 1.0
  outer loop
    vertex 121.6200628569886 110.67702995121688 1.4223239999999997
    vertex 94.59970375466891 108.85288110553876 1.4223239999999997
    vertex 103.12081885698856 103.95324968860385 1.4223239999999997
  endloop
endfacet
facet normal 0.0 0.0 1.0
  outer loop
    vertex 103.12081885698856 103.95324968860385 1.4223239999999997
    vertex 94.59970375466891 108.85288110553876 1.4223239999999997
    vertex 94.86598951963502 97.77543208958399 1.4223239999999997
  endloop
endfacet
facet normal 0.0 0.0 1.0
  outer loop
    vertex 103.12081885698856 103.95324968860385 1.4223239999999997
    vertex 94.86598951963502 97.77543208958399 1.4223239999999997
    vertex 103.12081885698856 99.31988368860384 1.4223239999999997
  endloop
endfacet
facet normal 0.0 0.0 1.0
  outer loop
    vertex 121.6200628569886 110.67702995121688 1.4223239999999997
    vertex 103.12081885698856 103.95324968860385 1.4223239999999997
    vertex 105.67718785698857 103.95324968860385 1.4223239999999997
  endloop
endfacet
facet normal 0.0 0.0 1.0
  outer loop
    vertex 121.6200628569886 110.67702995121688 1.4223239999999997
    vertex 105.67718785698857 103.95324968860385 1.4223239999999997
    vertex 115.47643485698858 104.05803487780564 1.4223239999999997
  endloop
endfacet
facet normal 0.0 0.0 1.0
  outer loop
    vertex 115.47643485698858 104.05803487780564 1.4223239999999997
    vertex 105.67718785698857 103.95324968860385 1.4223239999999997
    vertex 115.47643485698858 99.16011287780564 1.4223239999999997
  endloop
endfacet
facet normal 0.0 0.0 1.0
  outer loop
    vertex 121.6200628569886 110.67702995121688 1.4223239999999997
    vertex 115.47643485698858 104.05803487780564 1.4223239999999997
    vertex 117.76648485698858 104.05803487780564 1.4223239999999997
  endloop
endfacet
facet normal 0.0 0.0 1.0
  outer loop
    vertex 121.6200628569886 110.67702995121688 1.4223239999999997
    vertex 117.76648485698858 104.05803487780564 1.4223239999999997
    vertex 121.6200628569886 92.50859495121688 1.4223239999999997
  endloop
endfacet
facet normal 0.0 0.0 -1.0
  outer loop
    vertex 87.30753285698859 110.67702995121688 0.0
    vertex 90.55217475466891 108.85288110553876 0.0
    vertex 87.30753285698859 92.50859495121688 0.0
  endloop
endfacet
facet normal 0.0 0.0 -1.0
  outer loop
    vertex 90.55217475466891 108.85288110553876 0.0
    vertex 87.30753285698859 110.67702995121688 0.0
    vertex 121.6200628569886 110.67702995121688 0.0
  endloop
endfacet
facet normal 0.0 0.0 -1.0
  outer loop
    vertex 90.55217475466891 108.85288110553876 0.0
    vertex 121.6200628569886 110.67702995121688 0.0
    vertex 94.59970375466891 108.85288110553876 0.0
  endloop
endfacet
facet normal 0.0 0.0 -1.0
  outer loop
    vertex 94.59970375466891 108.85288110553876 0.0
    vertex 121.6200628569886 110.67702995121688 0.0
    vertex 94.59970375466891 105.65746310553875 0.0
  endloop
endfacet
facet normal 0.0 0.0 -1.0
  outer loop
    vertex 94.59970375466891 105.65746310553875 0.0
    vertex 121.6200628569886 110.67702995121688 0.0
    vertex 103.12081885698856 103.95324968860385 0.0
  endloop
endfacet
facet normal 0.0 0.0 -1.0
  outer loop
    vertex 94.59970375466891 105.65746310553875 0.0
    vertex 103.12081885698856 103.95324968860385 0.0
    vertex 94.86598951963502 97.77543208958399 0.0
  endloop
endfacet
facet normal 0.0 0.0 -1.0
  outer loop
    vertex 94.86598951963502 97.77543208958399 0.0
    vertex 103.12081885698856 103.95324968860385 0.0
    vertex 94.86598951963502 94.42024308958398 0.0
  endloop
endfacet
facet normal 0.0 0.0 -1.0
  outer loop
    vertex 103.12081885698856 103.95324968860385 0.0
    vertex 121.6200628569886 110.67702995121688 0.0
    vertex 105.67718785698857 103.95324968860385 0.0
  endloop
endfacet
facet normal 0.0 0.0 -1.0
  outer loop
    vertex 105.67718785698857 103.95324968860385 0.0
    vertex 121.6200628569886 110.67702995121688 0.0
    vertex 105.67718785698857 99.31988368860384 0.0
  endloop
endfacet
facet normal 0.0 0.0 -1.0
  outer loop
    vertex 105.67718785698857 99.31988368860384 0.0
    vertex 121.6200628569886 110.67702995121688 0.0
    vertex 115.47643485698858 104.05803487780564 0.0
  endloop
endfacet
facet normal 0.0 0.0 -1.0
  outer loop
    vertex 115.47643485698858 104.05803487780564 0.0
    vertex 121.6200628569886 110.67702995121688 0.0
    vertex 117.76648485698858 104.05803487780564 0.0
  endloop
endfacet
facet normal 0.0 0.0 -1.0
  outer loop
    vertex 117.76648485698858 104.05803487780564 0.0
    vertex 121.6200628569886 110.67702995121688 0.0
    vertex 117.76648485698858 99.16011287780564 0.0
  endloop
endfacet
facet normal 0.0 0.0 -1.0
  outer loop
    vertex 87.30753285698859 92.50859495121688 0.0
    vertex 90.92497351963502 94.42024308958398 0.0
    vertex 121.6200628569886 92.50859495121688 0.0
  endloop
endfacet
facet normal 0.0 0.0 -1.0
  outer loop
    vertex 90.92497351963502 94.42024308958398 0.0
    vertex 87.30753285698859 92.50859495121688 0.0
    vertex 90.55217475466891 105.65746310553875 0.0
  endloop
endfacet
facet normal 0.0 0.0 -1.0
  outer loop
    vertex 90.55217475466891 105.65746310553875 0.0
    vertex 87.30753285698859 92.50859495121688 0.0
    vertex 90.55217475466891 108.85288110553876 0.0
  endloop
endfacet
facet normal 0.0 0.0 -1.0
  outer loop
    vertex 90.92497351963502 94.42024308958398 0.0
    vertex 90.55217475466891 105.65746310553875 0.0
    vertex 90.92497351963502 97.77543208958399 0.0
  endloop
endfacet
facet normal 0.0 0.0 -1.0
  outer loop
    vertex 121.6200628569886 92.50859495121688 0.0
    vertex 90.92497351963502 94.42024308958398 0.0
    vertex 94.86598951963502 94.42024308958398 0.0
  endloop
endfacet
facet normal 0.0 0.0 -1.0
  outer loop
    vertex 121.6200628569886 92.50859495121688 0.0
    vertex 94.86598951963502 94.42024308958398 0.0
    vertex 103.12081885698856 99.31988368860384 0.0
  endloop
endfacet
facet normal 0.0 0.0 -1.0
  outer loop
    vertex 103.12081885698856 99.31988368860384 0.0
    vertex 94.86598951963502 94.42024308958398 0.0
    vertex 103.12081885698856 103.95324968860385 0.0
  endloop
endfacet
facet normal 0.0 0.0 -1.0
  outer loop
    vertex 121.6200628569886 92.50859495121688 0.0
    vertex 103.12081885698856 99.31988368860384 0.0
    vertex 105.67718785698857 99.31988368860384 0.0
  endloop
endfacet
facet normal 0.0 0.0 -1.0
  outer loop
    vertex 121.6200628569886 92.50859495121688 0.0
    vertex 105.67718785698857 99.31988368860384 0.0
    vertex 115.47643485698858 99.16011287780564 0.0
  endloop
endfacet
facet normal 0.0 0.0 -1.0
  outer loop
    vertex 115.47643485698858 99.16011287780564 0.0
    vertex 105.67718785698857 99.31988368860384 0.0
    vertex 115.47643485698858 104.05803487780564 0.0
  endloop
endfacet
facet normal 0.0 0.0 -1.0
  outer loop
    vertex 121.6200628569886 92.50859495121688 0.0
    vertex 115.47643485698858 99.16011287780564 0.0
    vertex 117.76648485698858 99.16011287780564 0.0
  endloop
endfacet
facet normal 0.0 0.0 -1.0
  outer loop
    vertex 121.6200628569886 92.50859495121688 0.0
    vertex 117.76648485698858 99.16011287780564 0.0
    vertex 121.6200628569886 110.67702995121688 0.0
  endloop
endfacet
facet normal 0.0 0.0 -1.0
  outer loop
    vertex 94.59970375466891 105.65746310553875 0.0
    vertex 90.92497351963502 97.77543208958399 0.0
    vertex 90.55217475466891 105.65746310553875 0.0
  endloop
endfacet
facet normal 0.0 0.0 -1.0
  outer loop
    vertex 90.92497351963502 97.77543208958399 0.0
    vertex 94.59970375466891 105.65746310553875 0.0
    vertex 94.86598951963502 97.77543208958399 0.0
  endloop
endfacet
facet normal 0.6087614290087205 0.7933533402912353 0.0
  outer loop
    vertex 61.781756121923415 111.77555511247996 1.2798969999999998
    vertex 62.131323787830496 111.50732240830463 0.0
    vertex 61.781756121923415 111.77555511247996 0.0
  endloop
endfacet
facet normal 0.6087614290087205 0.7933533402912353 0.0
  outer loop
    vertex 62.131323787830496 111.50732240830463 0.0
    vertex 61.781756121923415 111.77555511247996 1.2798969999999998
    vertex 62.131323787830496 111.50732240830463 1.2798969999999998
  endloop
endfacet
facet normal -0.0 -1.0 -0.0
  outer loop
    vertex 94.86598951963502 97.77543208958399 1.4223239999999997
    vertex 90.92497351963502 97.77543208958399 0.0
    vertex 94.86598951963502 97.77543208958399 0.0
  endloop
endfacet
facet normal -0.0 -1.0 -0.0
  outer loop
    vertex 90.92497351963502 97.77543208958399 0.0
    vertex 94.86598951963502 97.77543208958399 1.4223239999999997
    vertex 90.92497351963502 97.77543208958399 1.4223239999999997
  endloop
endfacet
facet normal -1.0 0.0 0.0
  outer loop
    vertex 117.76648485698858 104.05803487780564 1.4223239999999997
    vertex 117.76648485698858 99.16011287780564 0.0
    vertex 117.76648485698858 99.16011287780564 1.4223239999999997
  endloop
endfacet
facet normal -1.0 0.0 0.0
  outer loop
    vertex 117.76648485698858 99.16011287780564 0.0
    vertex 117.76648485698858 104.05803487780564 1.4223239999999997
    vertex 117.76648485698858 104.05803487780564 0.0
  endloop
endfacet
facet normal -1.0 0.0 0.0
  outer loop
    vertex 105.67718785698857 103.95324968860385 1.4223239999999997
    vertex 105.67718785698857 99.31988368860384 0.0
    vertex 105.67718785698857 99.31988368860384 1.4223239999999997
  endloop
endfacet
facet normal -1.0 0.0 0.0
  outer loop
    vertex 105.67718785698857 99.31988368860384 0.0
    vertex 105.67718785698857 103.95324968860385 1.4223239999999997
    vertex 105.67718785698857 103.95324968860385 0.0
  endloop
endfacet
facet normal -0.0 -1.0 -0.0
  outer loop
    vertex 94.59970375466891 108.85288110553876 1.4223239999999997
    vertex 90.55217475466891 108.85288110553876 0.0
    vertex 94.59970375466891 108.85288110553876 0.0
  endloop
endfacet
facet normal -0.0 -1.0 -0.0
  outer loop
    vertex 90.55217475466891 108.85288110553876 0.0
    vertex 94.59970375466891 108.85288110553876 1.4223239999999997
    vertex 90.55217475466891 108.85288110553876 1.4223239999999997
  endloop
endfacet
facet normal -0.0 -1.0 -0.0
  outer loop
    vertex 117.76648485698858 104.05803487780564 1.4223239999999997
    vertex 115.47643485698858 104.05803487780564 0.0
    vertex 117.76648485698858 104.05803487780564 0.0
  endloop
endfacet
facet normal -0.0 -1.0 -0.0
  outer loop
    vertex 115.47643485698858 104.05803487780564 0.0
    vertex 117.76648485698858 104.05803487780564 1.4223239999999997
    vertex 115.47643485698858 104.05803487780564 1.4223239999999997
  endloop
endfacet
facet normal 1.0 0.0 0.0
  outer loop
    vertex 90.92497351963502 97.77543208958399 0.0
    vertex 90.92497351963502 94.42024308958398 1.4223239999999997
    vertex 90.92497351963502 94.42024308958398 0.0
  endloop
endfacet
facet normal 1.0 0.0 0.0
  outer loop
    vertex 90.92497351963502 94.42024308958398 1.4223239999999997
    vertex 90.92497351963502 97.77543208958399 0.0
    vertex 90.92497351963502 97.77543208958399 1.4223239999999997
  endloop
endfacet
facet normal -1.0 0.0 0.0
  outer loop
    vertex 87.30753285698859 110.67702995121688 1.4223239999999997
    vertex 87.30753285698859 92.50859495121688 0.0
    vertex 87.30753285698859 92.50859495121688 1.4223239999999997
  endloop
endfacet
facet normal -1.0 0.0 0.0
  outer loop
    vertex 87.30753285698859 92.50859495121688 0.0
    vertex 87.30753285698859 110.67702995121688 1.4223239999999997
    vertex 87.30753285698859 110.67702995121688 0.0
  endloop
endfacet
facet normal -0.0 1.0 0.0
  outer loop
    vertex 87.30753285698859 110.67702995121688 1.4223239999999997
    vertex 121.6200628569886 110.67702995121688 0.0
    vertex 87.30753285698859 110.67702995121688 0.0
  endloop
endfacet
facet normal -0.0 1.0 0.0
  outer loop
    vertex 121.6200628569886 110.67702995121688 0.0
    vertex 87.30753285698859 110.67702995121688 1.4223239999999997
    vertex 121.6200628569886 110.67702995121688 1.4223239999999997
  endloop
endfacet
facet normal -0.0 -1.0 -0.0
  outer loop
    vertex 121.6200628569886 92.50859495121688 1.4223239999999997
    vertex 87.30753285698859 92.50859495121688 0.0
    vertex 121.6200628569886 92.50859495121688 0.0
  endloop
endfacet
facet normal -0.0 -1.0 -0.0
  outer loop
    vertex 87.30753285698859 92.50859495121688 0.0
    vertex 121.6200628569886 92.50859495121688 1.4223239999999997
    vertex 87.30753285698859 92.50859495121688 1.4223239999999997
  endloop
endfacet
facet normal -0.0 1.0 0.0
  outer loop
    vertex 115.47643485698858 99.16011287780564 1.4223239999999997
    vertex 117.76648485698858 99.16011287780564 0.0
    vertex 115.47643485698858 99.16011287780564 0.0
  endloop
endfacet
facet normal -0.0 1.0 0.0
  outer loop
    vertex 117.76648485698858 99.16011287780564 0.0
    vertex 115.47643485698858 99.16011287780564 1.4223239999999997
    vertex 117.76648485698858 99.16011287780564 1.4223239999999997
  endloop
endfacet
facet normal -0.0 1.0 0.0
  outer loop
    vertex 90.55217475466891 105.65746310553875 1.4223239999999997
    vertex 94.59970375466891 105.65746310553875 0.0
    vertex 90.55217475466891 105.65746310553875 0.0
  endloop
endfacet
facet normal -0.0 1.0 0.0
  outer loop
    vertex 94.59970375466891 105.65746310553875 0.0
    vertex 90.55217475466891 105.65746310553875 1.4223239999999997
    vertex 94.59970375466891 105.65746310553875 1.4223239999999997
  endloop
endfacet
facet normal -1.0 0.0 0.0
  outer loop
    vertex 94.86598951963502 97.77543208958399 1.4223239999999997
    vertex 94.86598951963502 94.42024308958398 0.0
    vertex 94.86598951963502 94.42024308958398 1.4223239999999997
  endloop
endfacet
facet normal -1.0 0.0 0.0
  outer loop
    vertex 94.86598951963502 94.42024308958398 0.0
    vertex 94.86598951963502 97.77543208958399 1.4223239999999997
    vertex 94.86598951963502 97.77543208958399 0.0
  endloop
endfacet
facet normal 1.0 0.0 0.0
  outer loop
    vertex 103.12081885698856 103.95324968860385 0.0
    vertex 103.12081885698856 99.31988368860384 1.4223239999999997
    vertex 103.12081885698856 99.31988368860384 0.0
  endloop
endfacet
facet normal 1.0 0.0 0.0
  outer loop
    vertex 103.12081885698856 99.31988368860384 1.4223239999999997
    vertex 103.12081885698856 103.95324968860385 0.0
    vertex 103.12081885698856 103.95324968860385 1.4223239999999997
  endloop
endfacet
facet normal -1.0 0.0 0.0
  outer loop
    vertex 94.59970375466891 108.85288110553876 1.4223239999999997
    vertex 94.59970375466891 105.65746310553875 0.0
    vertex 94.59970375466891 105.65746310553875 1.4223239999999997
  endloop
endfacet
facet normal -1.0 0.0 0.0
  outer loop
    vertex 94.59970375466891 105.65746310553875 0.0
    vertex 94.59970375466891 108.85288110553876 1.4223239999999997
    vertex 94.59970375466891 108.85288110553876 0.0
  endloop
endfacet
facet normal -0.0 1.0 0.0
  outer loop
    vertex 90.92497351963502 94.42024308958398 1.4223239999999997
    vertex 94.86598951963502 94.42024308958398 0.0
    vertex 90.92497351963502 94.42024308958398 0.0
  endloop
endfacet
facet normal -0.0 1.0 0.0
  outer loop
    vertex 94.86598951963502 94.42024308958398 0.0
    vertex 90.92497351963502 94.42024308958398 1.4223239999999997
    vertex 94.86598951963502 94.42024308958398 1.4223239999999997
  endloop
endfacet
facet normal 1.0 0.0 0.0
  outer loop
    vertex 90.55217475466891 108.85288110553876 0.0
    vertex 90.55217475466891 105.65746310553875 1.4223239999999997
    vertex 90.55217475466891 105.65746310553875 0.0
  endloop
endfacet
facet normal 1.0 0.0 0.0
  outer loop
    vertex 90.55217475466891 105.65746310553875 1.4223239999999997
    vertex 90.55217475466891 108.85288110553876 0.0
    vertex 90.55217475466891 108.85288110553876 1.4223239999999997
  endloop
endfacet
facet normal 1.0 0.0 0.0
  outer loop
    vertex 121.6200628569886 110.67702995121688 0.0
    vertex 121.6200628569886 92.50859495121688 1.4223239999999997
    vertex 121.6200628569886 92.50859495121688 0.0
  endloop
endfacet
facet normal 1.0 0.0 0.0
  outer loop
    vertex 121.6200628569886 92.50859495121688 1.4223239999999997
    vertex 121.6200628569886 110.67702995121688 0.0
    vertex 121.6200628569886 110.67702995121688 1.4223239999999997
  endloop
endfacet
facet normal -0.0 1.0 0.0
  outer loop
    vertex 103.12081885698856 99.31988368860384 1.4223239999999997
    vertex 105.67718785698857 99.31988368860384 0.0
    vertex 103.12081885698856 99.31988368860384 0.0
  endloop
endfacet
facet normal -0.0 1.0 0.0
  outer loop
    vertex 105.67718785698857 99.31988368860384 0.0
    vertex 103.12081885698856 99.31988368860384 1.4223239999999997
    vertex 105.67718785698857 99.31988368860384 1.4223239999999997
  endloop
endfacet
facet normal -0.0 -1.0 -0.0
  outer loop
    vertex 105.67718785698857 103.95324968860385 1.4223239999999997
    vertex 103.12081885698856 103.95324968860385 0.0
    vertex 105.67718785698857 103.95324968860385 0.0
  endloop
endfacet
facet normal -0.0 -1.0 -0.0
  outer loop
    vertex 103.12081885698856 103.95324968860385 0.0
    vertex 105.67718785698857 103.95324968860385 1.4223239999999997
    vertex 103.12081885698856 103.95324968860385 1.4223239999999997
  endloop
endfacet
facet normal 1.0 0.0 0.0
  outer loop
    vertex 115.47643485698858 104.05803487780564 0.0
    vertex 115.47643485698858 99.16011287780564 1.4223239999999997
    vertex 115.47643485698858 99.16011287780564 0.0
  endloop
endfacet
facet normal 1.0 0.0 0.0
  outer loop
    vertex 115.47643485698858 99.16011287780564 1.4223239999999997
    vertex 115.47643485698858 104.05803487780564 0.0
    vertex 115.47643485698858 104.05803487780564 1.4223239999999997
  endloop
endfacet
endsolid Untitled-591d704b
