solid camera-plate-down
facet normal -0.0 -0.0 1.0
  outer loop
    vertex 83.37450753848756 86.46314974704725 0.0
    vertex 86.87283891768969 91.18660916891564 0.0
    vertex 83.37450753848756 105.43125674704723 0.0
  endloop
endfacet
facet normal -0.0 -0.0 1.0
  outer loop
    vertex 86.87283891768969 91.18660916891564 0.0
    vertex 83.37450753848756 86.46314974704725 0.0
    vertex 87.80327702069205 89.55442303090155 0.0
  endloop
endfacet
facet normal -0.0 -0.0 1.0
  outer loop
    vertex 87.80327702069205 89.55442303090155 0.0
    vertex 83.37450753848756 86.46314974704725 0.0
    vertex 117.39500053848768 86.46314974704725 0.0
  endloop
endfacet
facet normal -0.0 -0.0 1.0
  outer loop
    vertex 87.80327702069205 89.55442303090155 0.0
    vertex 117.39500053848768 86.46314974704725 0.0
    vertex 89.68201073141825 89.54411299574353 0.0
  endloop
endfacet
facet normal -0.0 -0.0 1.0
  outer loop
    vertex 89.68201073141825 89.54411299574353 0.0
    vertex 117.39500053848768 86.46314974704725 0.0
    vertex 90.63030633914208 91.16598909859961 0.0
  endloop
endfacet
facet normal -0.0 -0.0 1.0
  outer loop
    vertex 90.63030633914208 91.16598909859961 0.0
    vertex 117.39500053848768 86.46314974704725 0.0
    vertex 109.67605059594693 89.69870345334765 0.0
  endloop
endfacet
facet normal -0.0 -0.0 1.0
  outer loop
    vertex 90.63030633914208 91.16598909859961 0.0
    vertex 109.67605059594693 89.69870345334765 0.0
    vertex 98.65699865110265 94.46120055515844 0.0
  endloop
endfacet
facet normal -0.0 -0.0 1.0
  outer loop
    vertex 90.63030633914208 91.16598909859961 0.0
    vertex 98.65699865110265 94.46120055515844 0.0
    vertex 90.63030633914208 100.55622971188926 0.0
  endloop
endfacet
facet normal -0.0 -0.0 1.0
  outer loop
    vertex 90.63030633914208 100.55622971188926 0.0
    vertex 98.65699865110265 94.46120055515844 0.0
    vertex 98.26814987043505 94.75957471880741 0.0
  endloop
endfacet
facet normal -0.0 -0.0 1.0
  outer loop
    vertex 90.63030633914208 100.55622971188926 0.0
    vertex 98.26814987043505 94.75957471880741 0.0
    vertex 97.96977570678607 95.14842349947504 0.0
  endloop
endfacet
facet normal -0.0 -0.0 1.0
  outer loop
    vertex 90.63030633914208 100.55622971188926 0.0
    vertex 97.96977570678607 95.14842349947504 0.0
    vertex 97.7822098663218 95.60124749536178 0.0
  endloop
endfacet
facet normal -0.0 -0.0 1.0
  outer loop
    vertex 90.63030633914208 100.55622971188926 0.0
    vertex 97.7822098663218 95.60124749536178 0.0
    vertex 97.71823465110266 96.08718749947504 0.0
  endloop
endfacet
facet normal -0.0 -0.0 1.0
  outer loop
    vertex 98.65699865110265 94.46120055515844 0.0
    vertex 109.67605059594693 89.69870345334765 0.0
    vertex 99.10982264698941 94.27363471469417 0.0
  endloop
endfacet
facet normal -0.0 -0.0 1.0
  outer loop
    vertex 99.10982264698941 94.27363471469417 0.0
    vertex 109.67605059594693 89.69870345334765 0.0
    vertex 99.59576265110266 94.20965949947502 0.0
  endloop
endfacet
facet normal -0.0 -0.0 1.0
  outer loop
    vertex 99.59576265110266 94.20965949947502 0.0
    vertex 109.67605059594693 89.69870345334765 0.0
    vertex 100.08170265521592 94.27363471469417 0.0
  endloop
endfacet
facet normal -0.0 -0.0 1.0
  outer loop
    vertex 100.08170265521592 94.27363471469417 0.0
    vertex 109.67605059594693 89.69870345334765 0.0
    vertex 100.53452665110267 94.46120055515844 0.0
  endloop
endfacet
facet normal -0.0 -0.0 1.0
  outer loop
    vertex 100.53452665110267 94.46120055515844 0.0
    vertex 109.67605059594693 89.69870345334765 0.0
    vertex 100.92337543177028 94.75957471880741 0.0
  endloop
endfacet
facet normal -0.0 -0.0 1.0
  outer loop
    vertex 100.92337543177028 94.75957471880741 0.0
    vertex 109.67605059594693 89.69870345334765 0.0
    vertex 101.22174959541925 95.14842349947503 0.0
  endloop
endfacet
facet normal -0.0 -0.0 1.0
  outer loop
    vertex 101.22174959541925 95.14842349947503 0.0
    vertex 109.67605059594693 89.69870345334765 0.0
    vertex 101.40931543588354 95.60124749536178 0.0
  endloop
endfacet
facet normal -0.0 -0.0 1.0
  outer loop
    vertex 101.40931543588354 95.60124749536178 0.0
    vertex 109.67605059594693 89.69870345334765 0.0
    vertex 101.47329065110267 96.08718749947504 0.0
  endloop
endfacet
facet normal -0.0 -0.0 1.0
  outer loop
    vertex 101.47329065110267 96.08718749947504 0.0
    vertex 109.67605059594693 89.69870345334765 0.0
    vertex 108.74561249294457 91.33088959136174 0.0
  endloop
endfacet
facet normal -0.0 -0.0 1.0
  outer loop
    vertex 109.67605059594693 89.69870345334765 0.0
    vertex 117.39500053848768 86.46314974704725 0.0
    vertex 111.55478430667313 89.68839341818963 0.0
  endloop
endfacet
facet normal -0.0 -0.0 1.0
  outer loop
    vertex 111.55478430667313 89.68839341818963 0.0
    vertex 117.39500053848768 86.46314974704725 0.0
    vertex 112.50307991439699 91.31026952104571 0.0
  endloop
endfacet
facet normal -0.0 -0.0 1.0
  outer loop
    vertex 112.50307991439699 91.31026952104571 0.0
    vertex 117.39500053848768 86.46314974704725 0.0
    vertex 112.50307991439699 100.56653974704727 0.0
  endloop
endfacet
facet normal -0.0 -0.0 1.0
  outer loop
    vertex 83.37450753848756 105.43125674704723 0.0
    vertex 87.82113452541354 102.19872588506132 0.0
    vertex 117.39500053848768 105.43125674704723 0.0
  endloop
endfacet
facet normal -0.0 -0.0 1.0
  outer loop
    vertex 87.82113452541354 102.19872588506132 0.0
    vertex 83.37450753848756 105.43125674704723 0.0
    vertex 86.87283891768969 100.57684978220529 0.0
  endloop
endfacet
facet normal -0.0 -0.0 1.0
  outer loop
    vertex 86.87283891768969 100.57684978220529 0.0
    vertex 83.37450753848756 105.43125674704723 0.0
    vertex 86.87283891768969 91.18660916891564 0.0
  endloop
endfacet
facet normal -0.0 -0.0 1.0
  outer loop
    vertex 117.39500053848768 105.43125674704723 0.0
    vertex 87.82113452541354 102.19872588506132 0.0
    vertex 89.69986823613974 102.18841584990331 0.0
  endloop
endfacet
facet normal -0.0 -0.0 1.0
  outer loop
    vertex 117.39500053848768 105.43125674704723 0.0
    vertex 89.69986823613974 102.18841584990331 0.0
    vertex 90.63030633914208 100.55622971188926 0.0
  endloop
endfacet
facet normal -0.0 -0.0 1.0
  outer loop
    vertex 117.39500053848768 105.43125674704723 0.0
    vertex 90.63030633914208 100.55622971188926 0.0
    vertex 99.10982264698941 97.90074028425592 0.0
  endloop
endfacet
facet normal -0.0 -0.0 1.0
  outer loop
    vertex 99.10982264698941 97.90074028425592 0.0
    vertex 90.63030633914208 100.55622971188926 0.0
    vertex 98.65699865110267 97.71317444379163 0.0
  endloop
endfacet
facet normal -0.0 -0.0 1.0
  outer loop
    vertex 98.65699865110267 97.71317444379163 0.0
    vertex 90.63030633914208 100.55622971188926 0.0
    vertex 98.26814987043505 97.41480028014266 0.0
  endloop
endfacet
facet normal -0.0 -0.0 1.0
  outer loop
    vertex 98.26814987043505 97.41480028014266 0.0
    vertex 90.63030633914208 100.55622971188926 0.0
    vertex 97.96977570678607 97.02595149947504 0.0
  endloop
endfacet
facet normal -0.0 -0.0 1.0
  outer loop
    vertex 97.96977570678607 97.02595149947504 0.0
    vertex 90.63030633914208 100.55622971188926 0.0
    vertex 97.7822098663218 96.57312750358828 0.0
  endloop
endfacet
facet normal -0.0 -0.0 1.0
  outer loop
    vertex 97.7822098663218 96.57312750358828 0.0
    vertex 90.63030633914208 100.55622971188926 0.0
    vertex 97.71823465110266 96.08718749947504 0.0
  endloop
endfacet
facet normal -0.0 -0.0 1.0
  outer loop
    vertex 117.39500053848768 105.43125674704723 0.0
    vertex 99.10982264698941 97.90074028425592 0.0
    vertex 109.69390810066844 102.20903592021934 0.0
  endloop
endfacet
facet normal -0.0 -0.0 1.0
  outer loop
    vertex 109.69390810066844 102.20903592021934 0.0
    vertex 99.10982264698941 97.90074028425592 0.0
    vertex 99.59576265110266 97.96471549947503 0.0
  endloop
endfacet
facet normal -0.0 -0.0 1.0
  outer loop
    vertex 109.69390810066844 102.20903592021934 0.0
    vertex 99.59576265110266 97.96471549947503 0.0
    vertex 100.08170265521592 97.90074028425592 0.0
  endloop
endfacet
facet normal -0.0 -0.0 1.0
  outer loop
    vertex 109.69390810066844 102.20903592021934 0.0
    vertex 100.08170265521592 97.90074028425592 0.0
    vertex 100.53452665110267 97.71317444379163 0.0
  endloop
endfacet
facet normal -0.0 -0.0 1.0
  outer loop
    vertex 109.69390810066844 102.20903592021934 0.0
    vertex 100.53452665110267 97.71317444379163 0.0
    vertex 100.92337543177028 97.41480028014266 0.0
  endloop
endfacet
facet normal -0.0 -0.0 1.0
  outer loop
    vertex 109.69390810066844 102.20903592021934 0.0
    vertex 100.92337543177028 97.41480028014266 0.0
    vertex 101.22174959541925 97.02595149947503 0.0
  endloop
endfacet
facet normal -0.0 -0.0 1.0
  outer loop
    vertex 109.69390810066844 102.20903592021934 0.0
    vertex 101.22174959541925 97.02595149947503 0.0
    vertex 101.40931543588354 96.57312750358827 0.0
  endloop
endfacet
facet normal -0.0 -0.0 1.0
  outer loop
    vertex 109.69390810066844 102.20903592021934 0.0
    vertex 101.40931543588354 96.57312750358827 0.0
    vertex 101.47329065110267 96.08718749947504 0.0
  endloop
endfacet
facet normal -0.0 -0.0 1.0
  outer loop
    vertex 109.69390810066844 102.20903592021934 0.0
    vertex 101.47329065110267 96.08718749947504 0.0
    vertex 108.74561249294457 100.5871598173633 0.0
  endloop
endfacet
facet normal -0.0 -0.0 1.0
  outer loop
    vertex 108.74561249294457 100.5871598173633 0.0
    vertex 101.47329065110267 96.08718749947504 0.0
    vertex 108.74561249294457 91.33088959136174 0.0
  endloop
endfacet
facet normal -0.0 -0.0 1.0
  outer loop
    vertex 117.39500053848768 105.43125674704723 0.0
    vertex 109.69390810066844 102.20903592021934 0.0
    vertex 111.57264181139465 102.19872588506132 0.0
  endloop
endfacet
facet normal -0.0 -0.0 1.0
  outer loop
    vertex 117.39500053848768 105.43125674704723 0.0
    vertex 111.57264181139465 102.19872588506132 0.0
    vertex 112.50307991439699 100.56653974704727 0.0
  endloop
endfacet
facet normal -0.0 -0.0 1.0
  outer loop
    vertex 117.39500053848768 105.43125674704723 0.0
    vertex 112.50307991439699 100.56653974704727 0.0
    vertex 117.39500053848768 86.46314974704725 0.0
  endloop
endfacet
facet normal -0.0 -0.0 1.0
  outer loop
    vertex 109.69390810066844 92.95276569421782 0.0
    vertex 108.74561249294457 100.5871598173633 0.0
    vertex 108.74561249294457 91.33088959136174 0.0
  endloop
endfacet
facet normal -0.0 -0.0 1.0
  outer loop
    vertex 108.74561249294457 100.5871598173633 0.0
    vertex 109.69390810066844 92.95276569421782 0.0
    vertex 109.67605059594693 98.95497367934915 0.0
  endloop
endfacet
facet normal -0.0 -0.0 1.0
  outer loop
    vertex 109.67605059594693 98.95497367934915 0.0
    vertex 109.69390810066844 92.95276569421782 0.0
    vertex 111.55478430667313 98.94466364419114 0.0
  endloop
endfacet
facet normal -0.0 -0.0 1.0
  outer loop
    vertex 111.55478430667313 98.94466364419114 0.0
    vertex 109.69390810066844 92.95276569421782 0.0
    vertex 111.57264181139465 92.94245565905982 0.0
  endloop
endfacet
facet normal -0.0 -0.0 1.0
  outer loop
    vertex 111.55478430667313 98.94466364419114 0.0
    vertex 111.57264181139465 92.94245565905982 0.0
    vertex 112.50307991439699 100.56653974704727 0.0
  endloop
endfacet
facet normal -0.0 -0.0 1.0
  outer loop
    vertex 112.50307991439699 100.56653974704727 0.0
    vertex 111.57264181139465 92.94245565905982 0.0
    vertex 112.50307991439699 91.31026952104571 0.0
  endloop
endfacet
facet normal -0.0 -0.0 1.0
  outer loop
    vertex 87.82113452541354 92.80848527177172 0.0
    vertex 86.87283891768969 100.57684978220529 0.0
    vertex 86.87283891768969 91.18660916891564 0.0
  endloop
endfacet
facet normal -0.0 -0.0 1.0
  outer loop
    vertex 86.87283891768969 100.57684978220529 0.0
    vertex 87.82113452541354 92.80848527177172 0.0
    vertex 87.80327702069205 98.94466364419114 0.0
  endloop
endfacet
facet normal -0.0 -0.0 1.0
  outer loop
    vertex 87.80327702069205 98.94466364419114 0.0
    vertex 87.82113452541354 92.80848527177172 0.0
    vertex 89.68201073141825 98.93435360903312 0.0
  endloop
endfacet
facet normal -0.0 -0.0 1.0
  outer loop
    vertex 89.68201073141825 98.93435360903312 0.0
    vertex 87.82113452541354 92.80848527177172 0.0
    vertex 89.69986823613974 92.7981752366137 0.0
  endloop
endfacet
facet normal -0.0 -0.0 1.0
  outer loop
    vertex 89.68201073141825 98.93435360903312 0.0
    vertex 89.69986823613974 92.7981752366137 0.0
    vertex 90.63030633914208 100.55622971188926 0.0
  endloop
endfacet
facet normal -0.0 -0.0 1.0
  outer loop
    vertex 90.63030633914208 100.55622971188926 0.0
    vertex 89.69986823613974 92.7981752366137 0.0
    vertex 90.63030633914208 91.16598909859961 0.0
  endloop
endfacet
facet normal 0.0 0.0 -1.0
  outer loop
    vertex 83.37450753848756 105.43125674704723 -1.4921179999999998
    vertex 86.87283891768969 100.57684978220529 -1.4921179999999998
    vertex 83.37450753848756 86.46314974704725 -1.4921179999999998
  endloop
endfacet
facet normal 0.0 0.0 -1.0
  outer loop
    vertex 86.87283891768969 100.57684978220529 -1.4921179999999998
    vertex 83.37450753848756 105.43125674704723 -1.4921179999999998
    vertex 87.82113452541354 102.19872588506132 -1.4921179999999998
  endloop
endfacet
facet normal 0.0 0.0 -1.0
  outer loop
    vertex 87.82113452541354 102.19872588506132 -1.4921179999999998
    vertex 83.37450753848756 105.43125674704723 -1.4921179999999998
    vertex 117.39500053848768 105.43125674704723 -1.4921179999999998
  endloop
endfacet
facet normal 0.0 0.0 -1.0
  outer loop
    vertex 87.82113452541354 102.19872588506132 -1.4921179999999998
    vertex 117.39500053848768 105.43125674704723 -1.4921179999999998
    vertex 89.69986823613974 102.18841584990331 -1.4921179999999998
  endloop
endfacet
facet normal 0.0 0.0 -1.0
  outer loop
    vertex 89.69986823613974 102.18841584990331 -1.4921179999999998
    vertex 117.39500053848768 105.43125674704723 -1.4921179999999998
    vertex 90.63030633914208 100.55622971188926 -1.4921179999999998
  endloop
endfacet
facet normal 0.0 0.0 -1.0
  outer loop
    vertex 90.63030633914208 100.55622971188926 -1.4921179999999998
    vertex 117.39500053848768 105.43125674704723 -1.4921179999999998
    vertex 99.10982264698941 97.90074028425592 -1.4921179999999998
  endloop
endfacet
facet normal 0.0 0.0 -1.0
  outer loop
    vertex 90.63030633914208 100.55622971188926 -1.4921179999999998
    vertex 99.10982264698941 97.90074028425592 -1.4921179999999998
    vertex 98.65699865110267 97.71317444379163 -1.4921179999999998
  endloop
endfacet
facet normal 0.0 0.0 -1.0
  outer loop
    vertex 90.63030633914208 100.55622971188926 -1.4921179999999998
    vertex 98.65699865110267 97.71317444379163 -1.4921179999999998
    vertex 98.26814987043505 97.41480028014266 -1.4921179999999998
  endloop
endfacet
facet normal 0.0 0.0 -1.0
  outer loop
    vertex 90.63030633914208 100.55622971188926 -1.4921179999999998
    vertex 98.26814987043505 97.41480028014266 -1.4921179999999998
    vertex 90.63030633914208 91.16598909859961 -1.4921179999999998
  endloop
endfacet
facet normal 0.0 0.0 -1.0
  outer loop
    vertex 90.63030633914208 91.16598909859961 -1.4921179999999998
    vertex 98.26814987043505 97.41480028014266 -1.4921179999999998
    vertex 97.96977570678607 97.02595149947504 -1.4921179999999998
  endloop
endfacet
facet normal 0.0 0.0 -1.0
  outer loop
    vertex 90.63030633914208 91.16598909859961 -1.4921179999999998
    vertex 97.96977570678607 97.02595149947504 -1.4921179999999998
    vertex 97.7822098663218 96.57312750358828 -1.4921179999999998
  endloop
endfacet
facet normal 0.0 0.0 -1.0
  outer loop
    vertex 90.63030633914208 91.16598909859961 -1.4921179999999998
    vertex 97.7822098663218 96.57312750358828 -1.4921179999999998
    vertex 97.71823465110266 96.08718749947504 -1.4921179999999998
  endloop
endfacet
facet normal 0.0 0.0 -1.0
  outer loop
    vertex 99.10982264698941 97.90074028425592 -1.4921179999999998
    vertex 117.39500053848768 105.43125674704723 -1.4921179999999998
    vertex 109.69390810066844 102.20903592021934 -1.4921179999999998
  endloop
endfacet
facet normal 0.0 0.0 -1.0
  outer loop
    vertex 99.10982264698941 97.90074028425592 -1.4921179999999998
    vertex 109.69390810066844 102.20903592021934 -1.4921179999999998
    vertex 99.59576265110266 97.96471549947503 -1.4921179999999998
  endloop
endfacet
facet normal 0.0 0.0 -1.0
  outer loop
    vertex 99.59576265110266 97.96471549947503 -1.4921179999999998
    vertex 109.69390810066844 102.20903592021934 -1.4921179999999998
    vertex 100.08170265521592 97.90074028425592 -1.4921179999999998
  endloop
endfacet
facet normal 0.0 0.0 -1.0
  outer loop
    vertex 100.08170265521592 97.90074028425592 -1.4921179999999998
    vertex 109.69390810066844 102.20903592021934 -1.4921179999999998
    vertex 100.53452665110267 97.71317444379163 -1.4921179999999998
  endloop
endfacet
facet normal 0.0 0.0 -1.0
  outer loop
    vertex 100.53452665110267 97.71317444379163 -1.4921179999999998
    vertex 109.69390810066844 102.20903592021934 -1.4921179999999998
    vertex 100.92337543177028 97.41480028014266 -1.4921179999999998
  endloop
endfacet
facet normal 0.0 0.0 -1.0
  outer loop
    vertex 100.92337543177028 97.41480028014266 -1.4921179999999998
    vertex 109.69390810066844 102.20903592021934 -1.4921179999999998
    vertex 101.22174959541925 97.02595149947503 -1.4921179999999998
  endloop
endfacet
facet normal 0.0 0.0 -1.0
  outer loop
    vertex 101.22174959541925 97.02595149947503 -1.4921179999999998
    vertex 109.69390810066844 102.20903592021934 -1.4921179999999998
    vertex 101.40931543588354 96.57312750358827 -1.4921179999999998
  endloop
endfacet
facet normal 0.0 0.0 -1.0
  outer loop
    vertex 101.40931543588354 96.57312750358827 -1.4921179999999998
    vertex 109.69390810066844 102.20903592021934 -1.4921179999999998
    vertex 101.47329065110267 96.08718749947504 -1.4921179999999998
  endloop
endfacet
facet normal 0.0 0.0 -1.0
  outer loop
    vertex 101.47329065110267 96.08718749947504 -1.4921179999999998
    vertex 109.69390810066844 102.20903592021934 -1.4921179999999998
    vertex 108.74561249294457 100.5871598173633 -1.4921179999999998
  endloop
endfacet
facet normal 0.0 0.0 -1.0
  outer loop
    vertex 109.69390810066844 102.20903592021934 -1.4921179999999998
    vertex 117.39500053848768 105.43125674704723 -1.4921179999999998
    vertex 111.57264181139465 102.19872588506132 -1.4921179999999998
  endloop
endfacet
facet normal 0.0 0.0 -1.0
  outer loop
    vertex 111.57264181139465 102.19872588506132 -1.4921179999999998
    vertex 117.39500053848768 105.43125674704723 -1.4921179999999998
    vertex 112.50307991439699 100.56653974704727 -1.4921179999999998
  endloop
endfacet
facet normal 0.0 0.0 -1.0
  outer loop
    vertex 112.50307991439699 100.56653974704727 -1.4921179999999998
    vertex 117.39500053848768 105.43125674704723 -1.4921179999999998
    vertex 112.50307991439699 91.31026952104571 -1.4921179999999998
  endloop
endfacet
facet normal 0.0 0.0 -1.0
  outer loop
    vertex 83.37450753848756 86.46314974704725 -1.4921179999999998
    vertex 87.80327702069205 89.55442303090155 -1.4921179999999998
    vertex 117.39500053848768 86.46314974704725 -1.4921179999999998
  endloop
endfacet
facet normal 0.0 0.0 -1.0
  outer loop
    vertex 87.80327702069205 89.55442303090155 -1.4921179999999998
    vertex 83.37450753848756 86.46314974704725 -1.4921179999999998
    vertex 86.87283891768969 91.18660916891564 -1.4921179999999998
  endloop
endfacet
facet normal 0.0 0.0 -1.0
  outer loop
    vertex 86.87283891768969 91.18660916891564 -1.4921179999999998
    vertex 83.37450753848756 86.46314974704725 -1.4921179999999998
    vertex 86.87283891768969 100.57684978220529 -1.4921179999999998
  endloop
endfacet
facet normal 0.0 0.0 -1.0
  outer loop
    vertex 117.39500053848768 86.46314974704725 -1.4921179999999998
    vertex 87.80327702069205 89.55442303090155 -1.4921179999999998
    vertex 89.68201073141825 89.54411299574353 -1.4921179999999998
  endloop
endfacet
facet normal 0.0 0.0 -1.0
  outer loop
    vertex 117.39500053848768 86.46314974704725 -1.4921179999999998
    vertex 89.68201073141825 89.54411299574353 -1.4921179999999998
    vertex 90.63030633914208 91.16598909859961 -1.4921179999999998
  endloop
endfacet
facet normal 0.0 0.0 -1.0
  outer loop
    vertex 117.39500053848768 86.46314974704725 -1.4921179999999998
    vertex 90.63030633914208 91.16598909859961 -1.4921179999999998
    vertex 109.67605059594693 89.69870345334765 -1.4921179999999998
  endloop
endfacet
facet normal 0.0 0.0 -1.0
  outer loop
    vertex 109.67605059594693 89.69870345334765 -1.4921179999999998
    vertex 90.63030633914208 91.16598909859961 -1.4921179999999998
    vertex 98.65699865110265 94.46120055515844 -1.4921179999999998
  endloop
endfacet
facet normal 0.0 0.0 -1.0
  outer loop
    vertex 98.65699865110265 94.46120055515844 -1.4921179999999998
    vertex 90.63030633914208 91.16598909859961 -1.4921179999999998
    vertex 98.26814987043505 94.75957471880741 -1.4921179999999998
  endloop
endfacet
facet normal 0.0 0.0 -1.0
  outer loop
    vertex 98.26814987043505 94.75957471880741 -1.4921179999999998
    vertex 90.63030633914208 91.16598909859961 -1.4921179999999998
    vertex 97.96977570678607 95.14842349947504 -1.4921179999999998
  endloop
endfacet
facet normal 0.0 0.0 -1.0
  outer loop
    vertex 97.96977570678607 95.14842349947504 -1.4921179999999998
    vertex 90.63030633914208 91.16598909859961 -1.4921179999999998
    vertex 97.7822098663218 95.60124749536178 -1.4921179999999998
  endloop
endfacet
facet normal 0.0 0.0 -1.0
  outer loop
    vertex 97.7822098663218 95.60124749536178 -1.4921179999999998
    vertex 90.63030633914208 91.16598909859961 -1.4921179999999998
    vertex 97.71823465110266 96.08718749947504 -1.4921179999999998
  endloop
endfacet
facet normal 0.0 0.0 -1.0
  outer loop
    vertex 109.67605059594693 89.69870345334765 -1.4921179999999998
    vertex 98.65699865110265 94.46120055515844 -1.4921179999999998
    vertex 99.10982264698941 94.27363471469417 -1.4921179999999998
  endloop
endfacet
facet normal 0.0 0.0 -1.0
  outer loop
    vertex 109.67605059594693 89.69870345334765 -1.4921179999999998
    vertex 99.10982264698941 94.27363471469417 -1.4921179999999998
    vertex 99.59576265110266 94.20965949947502 -1.4921179999999998
  endloop
endfacet
facet normal 0.0 0.0 -1.0
  outer loop
    vertex 109.67605059594693 89.69870345334765 -1.4921179999999998
    vertex 99.59576265110266 94.20965949947502 -1.4921179999999998
    vertex 100.08170265521592 94.27363471469417 -1.4921179999999998
  endloop
endfacet
facet normal 0.0 0.0 -1.0
  outer loop
    vertex 109.67605059594693 89.69870345334765 -1.4921179999999998
    vertex 100.08170265521592 94.27363471469417 -1.4921179999999998
    vertex 100.53452665110267 94.46120055515844 -1.4921179999999998
  endloop
endfacet
facet normal 0.0 0.0 -1.0
  outer loop
    vertex 109.67605059594693 89.69870345334765 -1.4921179999999998
    vertex 100.53452665110267 94.46120055515844 -1.4921179999999998
    vertex 100.92337543177028 94.75957471880741 -1.4921179999999998
  endloop
endfacet
facet normal 0.0 0.0 -1.0
  outer loop
    vertex 109.67605059594693 89.69870345334765 -1.4921179999999998
    vertex 100.92337543177028 94.75957471880741 -1.4921179999999998
    vertex 101.22174959541925 95.14842349947503 -1.4921179999999998
  endloop
endfacet
facet normal 0.0 0.0 -1.0
  outer loop
    vertex 109.67605059594693 89.69870345334765 -1.4921179999999998
    vertex 101.22174959541925 95.14842349947503 -1.4921179999999998
    vertex 101.40931543588354 95.60124749536178 -1.4921179999999998
  endloop
endfacet
facet normal 0.0 0.0 -1.0
  outer loop
    vertex 109.67605059594693 89.69870345334765 -1.4921179999999998
    vertex 101.40931543588354 95.60124749536178 -1.4921179999999998
    vertex 101.47329065110267 96.08718749947504 -1.4921179999999998
  endloop
endfacet
facet normal 0.0 0.0 -1.0
  outer loop
    vertex 109.67605059594693 89.69870345334765 -1.4921179999999998
    vertex 101.47329065110267 96.08718749947504 -1.4921179999999998
    vertex 108.74561249294457 91.33088959136174 -1.4921179999999998
  endloop
endfacet
facet normal 0.0 0.0 -1.0
  outer loop
    vertex 108.74561249294457 91.33088959136174 -1.4921179999999998
    vertex 101.47329065110267 96.08718749947504 -1.4921179999999998
    vertex 108.74561249294457 100.5871598173633 -1.4921179999999998
  endloop
endfacet
facet normal 0.0 0.0 -1.0
  outer loop
    vertex 117.39500053848768 86.46314974704725 -1.4921179999999998
    vertex 109.67605059594693 89.69870345334765 -1.4921179999999998
    vertex 111.55478430667313 89.68839341818963 -1.4921179999999998
  endloop
endfacet
facet normal 0.0 0.0 -1.0
  outer loop
    vertex 117.39500053848768 86.46314974704725 -1.4921179999999998
    vertex 111.55478430667313 89.68839341818963 -1.4921179999999998
    vertex 112.50307991439699 91.31026952104571 -1.4921179999999998
  endloop
endfacet
facet normal 0.0 0.0 -1.0
  outer loop
    vertex 117.39500053848768 86.46314974704725 -1.4921179999999998
    vertex 112.50307991439699 91.31026952104571 -1.4921179999999998
    vertex 117.39500053848768 105.43125674704723 -1.4921179999999998
  endloop
endfacet
facet normal 0.0 0.0 -1.0
  outer loop
    vertex 109.67605059594693 98.95497367934915 -1.4921179999999998
    vertex 108.74561249294457 91.33088959136174 -1.4921179999999998
    vertex 108.74561249294457 100.5871598173633 -1.4921179999999998
  endloop
endfacet
facet normal 0.0 0.0 -1.0
  outer loop
    vertex 108.74561249294457 91.33088959136174 -1.4921179999999998
    vertex 109.67605059594693 98.95497367934915 -1.4921179999999998
    vertex 109.69390810066844 92.95276569421782 -1.4921179999999998
  endloop
endfacet
facet normal 0.0 0.0 -1.0
  outer loop
    vertex 109.69390810066844 92.95276569421782 -1.4921179999999998
    vertex 109.67605059594693 98.95497367934915 -1.4921179999999998
    vertex 111.55478430667313 98.94466364419114 -1.4921179999999998
  endloop
endfacet
facet normal 0.0 0.0 -1.0
  outer loop
    vertex 109.69390810066844 92.95276569421782 -1.4921179999999998
    vertex 111.55478430667313 98.94466364419114 -1.4921179999999998
    vertex 111.57264181139465 92.94245565905982 -1.4921179999999998
  endloop
endfacet
facet normal 0.0 0.0 -1.0
  outer loop
    vertex 111.57264181139465 92.94245565905982 -1.4921179999999998
    vertex 111.55478430667313 98.94466364419114 -1.4921179999999998
    vertex 112.50307991439699 100.56653974704727 -1.4921179999999998
  endloop
endfacet
facet normal 0.0 0.0 -1.0
  outer loop
    vertex 111.57264181139465 92.94245565905982 -1.4921179999999998
    vertex 112.50307991439699 100.56653974704727 -1.4921179999999998
    vertex 112.50307991439699 91.31026952104571 -1.4921179999999998
  endloop
endfacet
facet normal 0.0 0.0 -1.0
  outer loop
    vertex 87.80327702069205 98.94466364419114 -1.4921179999999998
    vertex 86.87283891768969 91.18660916891564 -1.4921179999999998
    vertex 86.87283891768969 100.57684978220529 -1.4921179999999998
  endloop
endfacet
facet normal 0.0 0.0 -1.0
  outer loop
    vertex 86.87283891768969 91.18660916891564 -1.4921179999999998
    vertex 87.80327702069205 98.94466364419114 -1.4921179999999998
    vertex 87.82113452541354 92.80848527177172 -1.4921179999999998
  endloop
endfacet
facet normal 0.0 0.0 -1.0
  outer loop
    vertex 87.82113452541354 92.80848527177172 -1.4921179999999998
    vertex 87.80327702069205 98.94466364419114 -1.4921179999999998
    vertex 89.68201073141825 98.93435360903312 -1.4921179999999998
  endloop
endfacet
facet normal 0.0 0.0 -1.0
  outer loop
    vertex 87.82113452541354 92.80848527177172 -1.4921179999999998
    vertex 89.68201073141825 98.93435360903312 -1.4921179999999998
    vertex 89.69986823613974 92.7981752366137 -1.4921179999999998
  endloop
endfacet
facet normal 0.0 0.0 -1.0
  outer loop
    vertex 89.69986823613974 92.7981752366137 -1.4921179999999998
    vertex 89.68201073141825 98.93435360903312 -1.4921179999999998
    vertex 90.63030633914208 100.55622971188926 -1.4921179999999998
  endloop
endfacet
facet normal 0.0 0.0 -1.0
  outer loop
    vertex 89.69986823613974 92.7981752366137 -1.4921179999999998
    vertex 90.63030633914208 100.55622971188926 -1.4921179999999998
    vertex 90.63030633914208 91.16598909859961 -1.4921179999999998
  endloop
endfacet
facet normal 0.8687562011655093 0.49524000538776475 0.0
  outer loop
    vertex 86.87283891768969 100.57684978220529 -1.4921179999999998
    vertex 87.80327702069205 98.94466364419114 0.0
    vertex 87.80327702069205 98.94466364419114 -1.4921179999999998
  endloop
endfacet
facet normal 0.8687562011655093 0.49524000538776475 0.0
  outer loop
    vertex 87.80327702069205 98.94466364419114 0.0
    vertex 86.87283891768969 100.57684978220529 -1.4921179999999998
    vertex 86.87283891768969 100.57684978220529 0.0
  endloop
endfacet
facet normal 0.868756201165502 0.4952400053877777 0.0
  outer loop
    vertex 86.87283891768969 91.18660916891564 -1.4921179999999998
    vertex 87.80327702069205 89.55442303090155 0.0
    vertex 87.80327702069205 89.55442303090155 -1.4921179999999998
  endloop
endfacet
facet normal 0.868756201165502 0.4952400053877777 0.0
  outer loop
    vertex 87.80327702069205 89.55442303090155 0.0
    vertex 86.87283891768969 91.18660916891564 -1.4921179999999998
    vertex 86.87283891768969 91.18660916891564 0.0
  endloop
endfacet
facet normal -0.005487674946593816 -0.9999849425984777 -0.0
  outer loop
    vertex 89.69986823613974 102.18841584990331 0.0
    vertex 87.82113452541354 102.19872588506132 -1.4921179999999998
    vertex 89.69986823613974 102.18841584990331 -1.4921179999999998
  endloop
endfacet
facet normal -0.005487674946593816 -0.9999849425984777 -0.0
  outer loop
    vertex 87.82113452541354 102.19872588506132 -1.4921179999999998
    vertex 89.69986823613974 102.18841584990331 0.0
    vertex 87.82113452541354 102.19872588506132 0.0
  endloop
endfacet
facet normal 0.005487674946593816 0.9999849425984777 0.0
  outer loop
    vertex 87.80327702069205 98.94466364419114 0.0
    vertex 89.68201073141825 98.93435360903312 -1.4921179999999998
    vertex 87.80327702069205 98.94466364419114 -1.4921179999999998
  endloop
endfacet
facet normal 0.005487674946593816 0.9999849425984777 0.0
  outer loop
    vertex 89.68201073141825 98.93435360903312 -1.4921179999999998
    vertex 87.80327702069205 98.94466364419114 0.0
    vertex 89.68201073141825 98.93435360903312 0.0
  endloop
endfacet
facet normal -0.868756201165502 -0.4952400053877777 -0.0
  outer loop
    vertex 111.57264181139465 92.94245565905982 0.0
    vertex 112.50307991439699 91.31026952104571 -1.4921179999999998
    vertex 112.50307991439699 91.31026952104571 0.0
  endloop
endfacet
facet normal -0.868756201165502 -0.4952400053877777 -0.0
  outer loop
    vertex 112.50307991439699 91.31026952104571 -1.4921179999999998
    vertex 111.57264181139465 92.94245565905982 0.0
    vertex 111.57264181139465 92.94245565905982 -1.4921179999999998
  endloop
endfacet
facet normal -0.005487674946593816 -0.9999849425984777 -0.0
  outer loop
    vertex 89.69986823613974 92.7981752366137 0.0
    vertex 87.82113452541354 92.80848527177172 -1.4921179999999998
    vertex 89.69986823613974 92.7981752366137 -1.4921179999999998
  endloop
endfacet
facet normal -0.005487674946593816 -0.9999849425984777 -0.0
  outer loop
    vertex 87.82113452541354 92.80848527177172 -1.4921179999999998
    vertex 89.69986823613974 92.7981752366137 0.0
    vertex 87.82113452541354 92.80848527177172 0.0
  endloop
endfacet
facet normal -0.0 -1.0 -0.0
  outer loop
    vertex 117.39500053848768 86.46314974704725 0.0
    vertex 83.37450753848756 86.46314974704725 -1.4921179999999998
    vertex 117.39500053848768 86.46314974704725 -1.4921179999999998
  endloop
endfacet
facet normal -0.0 -1.0 -0.0
  outer loop
    vertex 83.37450753848756 86.46314974704725 -1.4921179999999998
    vertex 117.39500053848768 86.46314974704725 0.0
    vertex 83.37450753848756 86.46314974704725 0.0
  endloop
endfacet
facet normal -0.005487674946593782 -0.9999849425984777 -0.0
  outer loop
    vertex 111.57264181139465 92.94245565905982 0.0
    vertex 109.69390810066844 92.95276569421782 -1.4921179999999998
    vertex 111.57264181139465 92.94245565905982 -1.4921179999999998
  endloop
endfacet
facet normal -0.005487674946593782 -0.9999849425984777 -0.0
  outer loop
    vertex 109.69390810066844 92.95276569421782 -1.4921179999999998
    vertex 111.57264181139465 92.94245565905982 0.0
    vertex 109.69390810066844 92.95276569421782 0.0
  endloop
endfacet
facet normal -0.868756201165502 -0.4952400053877777 -0.0
  outer loop
    vertex 89.69986823613974 92.7981752366137 0.0
    vertex 90.63030633914208 91.16598909859961 -1.4921179999999998
    vertex 90.63030633914208 91.16598909859961 0.0
  endloop
endfacet
facet normal -0.868756201165502 -0.4952400053877777 -0.0
  outer loop
    vertex 90.63030633914208 91.16598909859961 -1.4921179999999998
    vertex 89.69986823613974 92.7981752366137 0.0
    vertex 89.69986823613974 92.7981752366137 -1.4921179999999998
  endloop
endfacet
facet normal 0.8632685262189058 -0.5047449372107051 0.0
  outer loop
    vertex 109.69390810066844 92.95276569421782 -1.4921179999999998
    vertex 108.74561249294457 91.33088959136174 0.0
    vertex 108.74561249294457 91.33088959136174 -1.4921179999999998
  endloop
endfacet
facet normal 0.8632685262189058 -0.5047449372107051 0.0
  outer loop
    vertex 108.74561249294457 91.33088959136174 0.0
    vertex 109.69390810066844 92.95276569421782 -1.4921179999999998
    vertex 109.69390810066844 92.95276569421782 0.0
  endloop
endfacet
facet normal -1.0 0.0 0.0
  outer loop
    vertex 83.37450753848756 105.43125674704723 0.0
    vertex 83.37450753848756 86.46314974704725 -1.4921179999999998
    vertex 83.37450753848756 86.46314974704725 0.0
  endloop
endfacet
facet normal -1.0 0.0 0.0
  outer loop
    vertex 83.37450753848756 86.46314974704725 -1.4921179999999998
    vertex 83.37450753848756 105.43125674704723 0.0
    vertex 83.37450753848756 105.43125674704723 -1.4921179999999998
  endloop
endfacet
facet normal -0.0 1.0 0.0
  outer loop
    vertex 83.37450753848756 105.43125674704723 0.0
    vertex 117.39500053848768 105.43125674704723 -1.4921179999999998
    vertex 83.37450753848756 105.43125674704723 -1.4921179999999998
  endloop
endfacet
facet normal -0.0 1.0 0.0
  outer loop
    vertex 117.39500053848768 105.43125674704723 -1.4921179999999998
    vertex 83.37450753848756 105.43125674704723 0.0
    vertex 117.39500053848768 105.43125674704723 0.0
  endloop
endfacet
facet normal -0.868756201165496 -0.495240005387788 -0.0
  outer loop
    vertex 89.69986823613974 102.18841584990331 0.0
    vertex 90.63030633914208 100.55622971188926 -1.4921179999999998
    vertex 90.63030633914208 100.55622971188926 0.0
  endloop
endfacet
facet normal -0.868756201165496 -0.495240005387788 -0.0
  outer loop
    vertex 90.63030633914208 100.55622971188926 -1.4921179999999998
    vertex 89.69986823613974 102.18841584990331 0.0
    vertex 89.69986823613974 102.18841584990331 -1.4921179999999998
  endloop
endfacet
facet normal 0.8687562011655093 0.49524000538776475 0.0
  outer loop
    vertex 108.74561249294457 100.5871598173633 -1.4921179999999998
    vertex 109.67605059594693 98.95497367934915 0.0
    vertex 109.67605059594693 98.95497367934915 -1.4921179999999998
  endloop
endfacet
facet normal 0.8687562011655093 0.49524000538776475 0.0
  outer loop
    vertex 109.67605059594693 98.95497367934915 0.0
    vertex 108.74561249294457 100.5871598173633 -1.4921179999999998
    vertex 108.74561249294457 100.5871598173633 0.0
  endloop
endfacet
facet normal 1.0 0.0 0.0
  outer loop
    vertex 117.39500053848768 105.43125674704723 -1.4921179999999998
    vertex 117.39500053848768 86.46314974704725 0.0
    vertex 117.39500053848768 86.46314974704725 -1.4921179999999998
  endloop
endfacet
facet normal 1.0 0.0 0.0
  outer loop
    vertex 117.39500053848768 86.46314974704725 0.0
    vertex 117.39500053848768 105.43125674704723 -1.4921179999999998
    vertex 117.39500053848768 105.43125674704723 0.0
  endloop
endfacet
facet normal 0.005487674946593816 0.9999849425984777 0.0
  outer loop
    vertex 87.80327702069205 89.55442303090155 0.0
    vertex 89.68201073141825 89.54411299574353 -1.4921179999999998
    vertex 87.80327702069205 89.55442303090155 -1.4921179999999998
  endloop
endfacet
facet normal 0.005487674946593816 0.9999849425984777 0.0
  outer loop
    vertex 89.68201073141825 89.54411299574353 -1.4921179999999998
    vertex 87.80327702069205 89.55442303090155 0.0
    vertex 89.68201073141825 89.54411299574353 0.0
  endloop
endfacet
facet normal 0.005487674946593782 0.9999849425984777 0.0
  outer loop
    vertex 109.67605059594693 98.95497367934915 0.0
    vertex 111.55478430667313 98.94466364419114 -1.4921179999999998
    vertex 109.67605059594693 98.95497367934915 -1.4921179999999998
  endloop
endfacet
facet normal 0.005487674946593782 0.9999849425984777 0.0
  outer loop
    vertex 111.55478430667313 98.94466364419114 -1.4921179999999998
    vertex 109.67605059594693 98.95497367934915 0.0
    vertex 111.55478430667313 98.94466364419114 0.0
  endloop
endfacet
facet normal 0.8632685262189084 -0.5047449372107007 0.0
  outer loop
    vertex 87.82113452541354 92.80848527177172 -1.4921179999999998
    vertex 86.87283891768969 91.18660916891564 0.0
    vertex 86.87283891768969 91.18660916891564 -1.4921179999999998
  endloop
endfacet
facet normal 0.8632685262189084 -0.5047449372107007 0.0
  outer loop
    vertex 86.87283891768969 91.18660916891564 0.0
    vertex 87.82113452541354 92.80848527177172 -1.4921179999999998
    vertex 87.82113452541354 92.80848527177172 0.0
  endloop
endfacet
facet normal -0.005487674946593782 -0.9999849425984777 -0.0
  outer loop
    vertex 111.57264181139465 102.19872588506132 0.0
    vertex 109.69390810066844 102.20903592021934 -1.4921179999999998
    vertex 111.57264181139465 102.19872588506132 -1.4921179999999998
  endloop
endfacet
facet normal -0.005487674946593782 -0.9999849425984777 -0.0
  outer loop
    vertex 109.69390810066844 102.20903592021934 -1.4921179999999998
    vertex 111.57264181139465 102.19872588506132 0.0
    vertex 109.69390810066844 102.20903592021934 0.0
  endloop
endfacet
facet normal -0.8632685262189084 0.5047449372107007 0.0
  outer loop
    vertex 90.63030633914208 91.16598909859961 0.0
    vertex 89.68201073141825 89.54411299574353 -1.4921179999999998
    vertex 89.68201073141825 89.54411299574353 0.0
  endloop
endfacet
facet normal -0.8632685262189084 0.5047449372107007 0.0
  outer loop
    vertex 89.68201073141825 89.54411299574353 -1.4921179999999998
    vertex 90.63030633914208 91.16598909859961 0.0
    vertex 90.63030633914208 91.16598909859961 -1.4921179999999998
  endloop
endfacet
facet normal -0.8632685262189159 0.5047449372106876 0.0
  outer loop
    vertex 90.63030633914208 100.55622971188926 0.0
    vertex 89.68201073141825 98.93435360903312 -1.4921179999999998
    vertex 89.68201073141825 98.93435360903312 0.0
  endloop
endfacet
facet normal -0.8632685262189159 0.5047449372106876 0.0
  outer loop
    vertex 89.68201073141825 98.93435360903312 -1.4921179999999998
    vertex 90.63030633914208 100.55622971188926 0.0
    vertex 90.63030633914208 100.55622971188926 -1.4921179999999998
  endloop
endfacet
facet normal -0.868756201165496 -0.495240005387788 -0.0
  outer loop
    vertex 111.57264181139465 102.19872588506132 0.0
    vertex 112.50307991439699 100.56653974704727 -1.4921179999999998
    vertex 112.50307991439699 100.56653974704727 0.0
  endloop
endfacet
facet normal -0.868756201165496 -0.495240005387788 -0.0
  outer loop
    vertex 112.50307991439699 100.56653974704727 -1.4921179999999998
    vertex 111.57264181139465 102.19872588506132 0.0
    vertex 111.57264181139465 102.19872588506132 -1.4921179999999998
  endloop
endfacet
facet normal 0.868756201165502 0.4952400053877777 0.0
  outer loop
    vertex 108.74561249294457 91.33088959136174 -1.4921179999999998
    vertex 109.67605059594693 89.69870345334765 0.0
    vertex 109.67605059594693 89.69870345334765 -1.4921179999999998
  endloop
endfacet
facet normal 0.868756201165502 0.4952400053877777 0.0
  outer loop
    vertex 109.67605059594693 89.69870345334765 0.0
    vertex 108.74561249294457 91.33088959136174 -1.4921179999999998
    vertex 108.74561249294457 91.33088959136174 0.0
  endloop
endfacet
facet normal 0.005487674946593782 0.9999849425984777 0.0
  outer loop
    vertex 109.67605059594693 89.69870345334765 0.0
    vertex 111.55478430667313 89.68839341818963 -1.4921179999999998
    vertex 109.67605059594693 89.69870345334765 -1.4921179999999998
  endloop
endfacet
facet normal 0.005487674946593782 0.9999849425984777 0.0
  outer loop
    vertex 111.55478430667313 89.68839341818963 -1.4921179999999998
    vertex 109.67605059594693 89.69870345334765 0.0
    vertex 111.55478430667313 89.68839341818963 0.0
  endloop
endfacet
facet normal -0.8632685262189058 0.5047449372107051 0.0
  outer loop
    vertex 112.50307991439699 91.31026952104571 0.0
    vertex 111.55478430667313 89.68839341818963 -1.4921179999999998
    vertex 111.55478430667313 89.68839341818963 0.0
  endloop
endfacet
facet normal -0.8632685262189058 0.5047449372107051 0.0
  outer loop
    vertex 111.55478430667313 89.68839341818963 -1.4921179999999998
    vertex 112.50307991439699 91.31026952104571 0.0
    vertex 112.50307991439699 91.31026952104571 -1.4921179999999998
  endloop
endfacet
facet normal 0.8632685262188995 -0.5047449372107156 0.0
  outer loop
    vertex 109.69390810066844 102.20903592021934 -1.4921179999999998
    vertex 108.74561249294457 100.5871598173633 0.0
    vertex 108.74561249294457 100.5871598173633 -1.4921179999999998
  endloop
endfacet
facet normal 0.8632685262188995 -0.5047449372107156 0.0
  outer loop
    vertex 108.74561249294457 100.5871598173633 0.0
    vertex 109.69390810066844 102.20903592021934 -1.4921179999999998
    vertex 109.69390810066844 102.20903592021934 0.0
  endloop
endfacet
facet normal 0.8632685262189023 -0.5047449372107111 0.0
  outer loop
    vertex 87.82113452541354 102.19872588506132 -1.4921179999999998
    vertex 86.87283891768969 100.57684978220529 0.0
    vertex 86.87283891768969 100.57684978220529 -1.4921179999999998
  endloop
endfacet
facet normal 0.8632685262189023 -0.5047449372107111 0.0
  outer loop
    vertex 86.87283891768969 100.57684978220529 0.0
    vertex 87.82113452541354 102.19872588506132 -1.4921179999999998
    vertex 87.82113452541354 102.19872588506132 0.0
  endloop
endfacet
facet normal -0.8632685262189134 0.504744937210692 0.0
  outer loop
    vertex 112.50307991439699 100.56653974704727 0.0
    vertex 111.55478430667313 98.94466364419114 -1.4921179999999998
    vertex 111.55478430667313 98.94466364419114 0.0
  endloop
endfacet
facet normal -0.8632685262189134 0.504744937210692 0.0
  outer loop
    vertex 111.55478430667313 98.94466364419114 -1.4921179999999998
    vertex 112.50307991439699 100.56653974704727 0.0
    vertex 112.50307991439699 100.56653974704727 -1.4921179999999998
  endloop
endfacet
facet normal -0.793353340291239 -0.6087614290087155 -0.0
  outer loop
    vertex 100.92337543177028 97.41480028014266 0.0
    vertex 101.22174959541925 97.02595149947503 -1.4921179999999998
    vertex 101.22174959541925 97.02595149947503 0.0
  endloop
endfacet
facet normal -0.793353340291239 -0.6087614290087155 -0.0
  outer loop
    vertex 101.22174959541925 97.02595149947503 -1.4921179999999998
    vertex 100.92337543177028 97.41480028014266 0.0
    vertex 100.92337543177028 97.41480028014266 -1.4921179999999998
  endloop
endfacet
facet normal 0.9238795325112837 -0.38268343236509744 0.0
  outer loop
    vertex 97.96977570678607 97.02595149947504 -1.4921179999999998
    vertex 97.7822098663218 96.57312750358828 0.0
    vertex 97.7822098663218 96.57312750358828 -1.4921179999999998
  endloop
endfacet
facet normal 0.9238795325112837 -0.38268343236509744 0.0
  outer loop
    vertex 97.7822098663218 96.57312750358828 0.0
    vertex 97.96977570678607 97.02595149947504 -1.4921179999999998
    vertex 97.96977570678607 97.02595149947504 0.0
  endloop
endfacet
facet normal 0.9238795325112803 0.38268343236510555 0.0
  outer loop
    vertex 97.7822098663218 95.60124749536178 -1.4921179999999998
    vertex 97.96977570678607 95.14842349947504 0.0
    vertex 97.96977570678607 95.14842349947504 -1.4921179999999998
  endloop
endfacet
facet normal 0.9238795325112803 0.38268343236510555 0.0
  outer loop
    vertex 97.96977570678607 95.14842349947504 0.0
    vertex 97.7822098663218 95.60124749536178 -1.4921179999999998
    vertex 97.7822098663218 95.60124749536178 0.0
  endloop
endfacet
facet normal 0.13052619222004186 0.9914448613738118 0.0
  outer loop
    vertex 99.10982264698941 94.27363471469417 0.0
    vertex 99.59576265110266 94.20965949947502 -1.4921179999999998
    vertex 99.10982264698941 94.27363471469417 -1.4921179999999998
  endloop
endfacet
facet normal 0.13052619222004186 0.9914448613738118 0.0
  outer loop
    vertex 99.59576265110266 94.20965949947502 -1.4921179999999998
    vertex 99.10982264698941 94.27363471469417 0.0
    vertex 99.59576265110266 94.20965949947502 0.0
  endloop
endfacet
facet normal -0.38268343236510555 0.9238795325112803 0.0
  outer loop
    vertex 100.08170265521592 94.27363471469417 0.0
    vertex 100.53452665110267 94.46120055515844 -1.4921179999999998
    vertex 100.08170265521592 94.27363471469417 -1.4921179999999998
  endloop
endfacet
facet normal -0.38268343236510555 0.9238795325112803 0.0
  outer loop
    vertex 100.53452665110267 94.46120055515844 -1.4921179999999998
    vertex 100.08170265521592 94.27363471469417 0.0
    vertex 100.53452665110267 94.46120055515844 0.0
  endloop
endfacet
facet normal -0.9238795325112837 -0.38268343236509744 -0.0
  outer loop
    vertex 101.22174959541925 97.02595149947503 0.0
    vertex 101.40931543588354 96.57312750358827 -1.4921179999999998
    vertex 101.40931543588354 96.57312750358827 0.0
  endloop
endfacet
facet normal -0.9238795325112837 -0.38268343236509744 -0.0
  outer loop
    vertex 101.40931543588354 96.57312750358827 -1.4921179999999998
    vertex 101.22174959541925 97.02595149947503 0.0
    vertex 101.22174959541925 97.02595149947503 -1.4921179999999998
  endloop
endfacet
facet normal -0.6087614290087268 -0.7933533402912306 -0.0
  outer loop
    vertex 100.92337543177028 97.41480028014266 0.0
    vertex 100.53452665110267 97.71317444379163 -1.4921179999999998
    vertex 100.92337543177028 97.41480028014266 -1.4921179999999998
  endloop
endfacet
facet normal -0.6087614290087268 -0.7933533402912306 -0.0
  outer loop
    vertex 100.53452665110267 97.71317444379163 -1.4921179999999998
    vertex 100.92337543177028 97.41480028014266 0.0
    vertex 100.53452665110267 97.71317444379163 0.0
  endloop
endfacet
facet normal 0.7933533402912306 -0.6087614290087268 0.0
  outer loop
    vertex 98.26814987043505 97.41480028014266 -1.4921179999999998
    vertex 97.96977570678607 97.02595149947504 0.0
    vertex 97.96977570678607 97.02595149947504 -1.4921179999999998
  endloop
endfacet
facet normal 0.7933533402912306 -0.6087614290087268 0.0
  outer loop
    vertex 97.96977570678607 97.02595149947504 0.0
    vertex 98.26814987043505 97.41480028014266 -1.4921179999999998
    vertex 98.26814987043505 97.41480028014266 0.0
  endloop
endfacet
facet normal 0.9914448613738118 -0.13052619222004186 0.0
  outer loop
    vertex 97.7822098663218 96.57312750358828 -1.4921179999999998
    vertex 97.71823465110266 96.08718749947504 0.0
    vertex 97.71823465110266 96.08718749947504 -1.4921179999999998
  endloop
endfacet
facet normal 0.9914448613738118 -0.13052619222004186 0.0
  outer loop
    vertex 97.71823465110266 96.08718749947504 0.0
    vertex 97.7822098663218 96.57312750358828 -1.4921179999999998
    vertex 97.7822098663218 96.57312750358828 0.0
  endloop
endfacet
facet normal 0.6087614290087268 0.7933533402912306 0.0
  outer loop
    vertex 98.26814987043505 94.75957471880741 0.0
    vertex 98.65699865110265 94.46120055515844 -1.4921179999999998
    vertex 98.26814987043505 94.75957471880741 -1.4921179999999998
  endloop
endfacet
facet normal 0.6087614290087268 0.7933533402912306 0.0
  outer loop
    vertex 98.65699865110265 94.46120055515844 -1.4921179999999998
    vertex 98.26814987043505 94.75957471880741 0.0
    vertex 98.65699865110265 94.46120055515844 0.0
  endloop
endfacet
facet normal -0.6087614290087155 0.793353340291239 0.0
  outer loop
    vertex 100.53452665110267 94.46120055515844 0.0
    vertex 100.92337543177028 94.75957471880741 -1.4921179999999998
    vertex 100.53452665110267 94.46120055515844 -1.4921179999999998
  endloop
endfacet
facet normal -0.6087614290087155 0.793353340291239 0.0
  outer loop
    vertex 100.92337543177028 94.75957471880741 -1.4921179999999998
    vertex 100.53452665110267 94.46120055515844 0.0
    vertex 100.92337543177028 94.75957471880741 0.0
  endloop
endfacet
facet normal -0.9914448613738118 0.13052619222004186 0.0
  outer loop
    vertex 101.47329065110267 96.08718749947504 0.0
    vertex 101.40931543588354 95.60124749536178 -1.4921179999999998
    vertex 101.40931543588354 95.60124749536178 0.0
  endloop
endfacet
facet normal -0.9914448613738118 0.13052619222004186 0.0
  outer loop
    vertex 101.40931543588354 95.60124749536178 -1.4921179999999998
    vertex 101.47329065110267 96.08718749947504 0.0
    vertex 101.47329065110267 96.08718749947504 -1.4921179999999998
  endloop
endfacet
facet normal -0.3826834323651171 -0.9238795325112756 -0.0
  outer loop
    vertex 100.53452665110267 97.71317444379163 0.0
    vertex 100.08170265521592 97.90074028425592 -1.4921179999999998
    vertex 100.53452665110267 97.71317444379163 -1.4921179999999998
  endloop
endfacet
facet normal -0.3826834323651171 -0.9238795325112756 -0.0
  outer loop
    vertex 100.08170265521592 97.90074028425592 -1.4921179999999998
    vertex 100.53452665110267 97.71317444379163 0.0
    vertex 100.08170265521592 97.90074028425592 0.0
  endloop
endfacet
facet normal 0.3826834323651252 -0.9238795325112722 0.0
  outer loop
    vertex 99.10982264698941 97.90074028425592 0.0
    vertex 98.65699865110267 97.71317444379163 -1.4921179999999998
    vertex 99.10982264698941 97.90074028425592 -1.4921179999999998
  endloop
endfacet
facet normal 0.3826834323651252 -0.9238795325112722 0.0
  outer loop
    vertex 98.65699865110267 97.71317444379163 -1.4921179999999998
    vertex 99.10982264698941 97.90074028425592 0.0
    vertex 98.65699865110267 97.71317444379163 0.0
  endloop
endfacet
facet normal 0.9914448613738118 0.13052619222004186 0.0
  outer loop
    vertex 97.71823465110266 96.08718749947504 -1.4921179999999998
    vertex 97.7822098663218 95.60124749536178 0.0
    vertex 97.7822098663218 95.60124749536178 -1.4921179999999998
  endloop
endfacet
facet normal 0.9914448613738118 0.13052619222004186 0.0
  outer loop
    vertex 97.7822098663218 95.60124749536178 0.0
    vertex 97.71823465110266 96.08718749947504 -1.4921179999999998
    vertex 97.71823465110266 96.08718749947504 0.0
  endloop
endfacet
facet normal 0.38268343236509744 0.9238795325112837 0.0
  outer loop
    vertex 98.65699865110265 94.46120055515844 0.0
    vertex 99.10982264698941 94.27363471469417 -1.4921179999999998
    vertex 98.65699865110265 94.46120055515844 -1.4921179999999998
  endloop
endfacet
facet normal 0.38268343236509744 0.9238795325112837 0.0
  outer loop
    vertex 99.10982264698941 94.27363471469417 -1.4921179999999998
    vertex 98.65699865110265 94.46120055515844 0.0
    vertex 99.10982264698941 94.27363471469417 0.0
  endloop
endfacet
facet normal -0.9914448613738113 -0.13052619222004483 -0.0
  outer loop
    vertex 101.40931543588354 96.57312750358827 0.0
    vertex 101.47329065110267 96.08718749947504 -1.4921179999999998
    vertex 101.47329065110267 96.08718749947504 0.0
  endloop
endfacet
facet normal -0.9914448613738113 -0.13052619222004483 -0.0
  outer loop
    vertex 101.47329065110267 96.08718749947504 -1.4921179999999998
    vertex 101.40931543588354 96.57312750358827 0.0
    vertex 101.40931543588354 96.57312750358827 -1.4921179999999998
  endloop
endfacet
facet normal 0.6087614290087155 -0.793353340291239 0.0
  outer loop
    vertex 98.65699865110267 97.71317444379163 0.0
    vertex 98.26814987043505 97.41480028014266 -1.4921179999999998
    vertex 98.65699865110267 97.71317444379163 -1.4921179999999998
  endloop
endfacet
facet normal 0.6087614290087155 -0.793353340291239 0.0
  outer loop
    vertex 98.26814987043505 97.41480028014266 -1.4921179999999998
    vertex 98.65699865110267 97.71317444379163 0.0
    vertex 98.26814987043505 97.41480028014266 0.0
  endloop
endfacet
facet normal -0.9238795325112837 0.38268343236509744 0.0
  outer loop
    vertex 101.40931543588354 95.60124749536178 0.0
    vertex 101.22174959541925 95.14842349947503 -1.4921179999999998
    vertex 101.22174959541925 95.14842349947503 0.0
  endloop
endfacet
facet normal -0.9238795325112837 0.38268343236509744 0.0
  outer loop
    vertex 101.22174959541925 95.14842349947503 -1.4921179999999998
    vertex 101.40931543588354 95.60124749536178 0.0
    vertex 101.40931543588354 95.60124749536178 -1.4921179999999998
  endloop
endfacet
facet normal 0.13052619222001924 -0.9914448613738147 0.0
  outer loop
    vertex 99.59576265110266 97.96471549947503 0.0
    vertex 99.10982264698941 97.90074028425592 -1.4921179999999998
    vertex 99.59576265110266 97.96471549947503 -1.4921179999999998
  endloop
endfacet
facet normal 0.13052619222001924 -0.9914448613738147 0.0
  outer loop
    vertex 99.10982264698941 97.90074028425592 -1.4921179999999998
    vertex 99.59576265110266 97.96471549947503 0.0
    vertex 99.10982264698941 97.90074028425592 0.0
  endloop
endfacet
facet normal 0.793353340291239 0.6087614290087155 0.0
  outer loop
    vertex 97.96977570678607 95.14842349947504 -1.4921179999999998
    vertex 98.26814987043505 94.75957471880741 0.0
    vertex 98.26814987043505 94.75957471880741 -1.4921179999999998
  endloop
endfacet
facet normal 0.793353340291239 0.6087614290087155 0.0
  outer loop
    vertex 98.26814987043505 94.75957471880741 0.0
    vertex 97.96977570678607 95.14842349947504 -1.4921179999999998
    vertex 97.96977570678607 95.14842349947504 0.0
  endloop
endfacet
facet normal -0.7933533402912306 0.6087614290087268 0.0
  outer loop
    vertex 101.22174959541925 95.14842349947503 0.0
    vertex 100.92337543177028 94.75957471880741 -1.4921179999999998
    vertex 100.92337543177028 94.75957471880741 0.0
  endloop
endfacet
facet normal -0.7933533402912306 0.6087614290087268 0.0
  outer loop
    vertex 100.92337543177028 94.75957471880741 -1.4921179999999998
    vertex 101.22174959541925 95.14842349947503 0.0
    vertex 101.22174959541925 95.14842349947503 -1.4921179999999998
  endloop
endfacet
facet normal -0.13052619222001924 -0.9914448613738147 -0.0
  outer loop
    vertex 100.08170265521592 97.90074028425592 0.0
    vertex 99.59576265110266 97.96471549947503 -1.4921179999999998
    vertex 100.08170265521592 97.90074028425592 -1.4921179999999998
  endloop
endfacet
facet normal -0.13052619222001924 -0.9914448613738147 -0.0
  outer loop
    vertex 99.59576265110266 97.96471549947503 -1.4921179999999998
    vertex 100.08170265521592 97.90074028425592 0.0
    vertex 99.59576265110266 97.96471549947503 0.0
  endloop
endfacet
facet normal -0.13052619222004186 0.9914448613738118 0.0
  outer loop
    vertex 99.59576265110266 94.20965949947502 0.0
    vertex 100.08170265521592 94.27363471469417 -1.4921179999999998
    vertex 99.59576265110266 94.20965949947502 -1.4921179999999998
  endloop
endfacet
facet normal -0.13052619222004186 0.9914448613738118 0.0
  outer loop
    vertex 100.08170265521592 94.27363471469417 -1.4921179999999998
    vertex 99.59576265110266 94.20965949947502 0.0
    vertex 100.08170265521592 94.27363471469417 0.0
  endloop
endfacet
endsolid camera-plate-down
