solid camera-plate-down
facet normal 0.8632685262189083 0.5047449372107006 1.804112415015879e-16
  outer loop
    vertex 64.1936008277088 100.34441702960166 -2.2300244007093744
    vertex 65.14189643543259 98.72254092674558 -0.10406940070935396
    vertex 65.14189643543264 98.72254092674558 -2.230024400709381
  endloop
endfacet
facet normal 0.8632685262189083 0.5047449372107006 1.804112415015879e-16
  outer loop
    vertex 65.14189643543259 98.72254092674558 -0.10406940070935396
    vertex 64.1936008277088 100.34441702960166 -2.2300244007093744
    vertex 64.19360082770889 100.34441702960166 -0.10406940070936366
  endloop
endfacet
facet normal 0.8687562011655018 -0.4952400053877779 2.1163626406917042e-16
  outer loop
    vertex 65.12403893071115 101.97660316761575 -2.2300244007093597
    vertex 64.19360082770889 100.34441702960166 -0.10406940070936366
    vertex 64.1936008277088 100.34441702960166 -2.2300244007093744
  endloop
endfacet
facet normal 0.8687562011655018 -0.4952400053877779 2.1163626406917042e-16
  outer loop
    vertex 64.19360082770889 100.34441702960166 -0.10406940070936366
    vertex 65.12403893071115 101.97660316761575 -2.2300244007093597
    vertex 65.12403893071114 101.97660316761575 -0.10406940070935185
  endloop
endfacet
facet normal -0.005487674946593811 0.9999849425984777 -2.168404344971009e-18
  outer loop
    vertex 65.14189643543259 98.72254092674558 -0.10406940070935396
    vertex 67.02063014615887 98.7328509619036 -2.2300244007093766
    vertex 65.14189643543264 98.72254092674558 -2.230024400709381
  endloop
endfacet
facet normal -0.005487674946593811 0.9999849425984777 -2.168404344971009e-18
  outer loop
    vertex 67.02063014615887 98.7328509619036 -2.2300244007093766
    vertex 65.14189643543259 98.72254092674558 -0.10406940070935396
    vertex 67.0206301461588 98.7328509619036 -0.10406940070934144
  endloop
endfacet
facet normal 0.8687562011655018 -0.4952400053877779 2.1163626406917042e-16
  outer loop
    vertex 43.25126535545645 101.98691320277376 -2.2300244007093597
    vertex 42.320827252454066 100.35472706475967 -0.10406940070935906
    vertex 42.320827252454094 100.35472706475967 -2.2300244007093473
  endloop
endfacet
facet normal 0.8687562011655018 -0.4952400053877779 2.1163626406917042e-16
  outer loop
    vertex 42.320827252454066 100.35472706475967 -0.10406940070935906
    vertex 43.25126535545645 101.98691320277376 -2.2300244007093597
    vertex 43.25126535545642 101.98691320277376 -0.10406940070937229
  endloop
endfacet
facet normal -0.8632685262189083 -0.5047449372107006 -1.804112415015879e-16
  outer loop
    vertex 45.12999906618255 101.99722323793178 -0.10406940070936048
    vertex 46.078294673906484 100.3753471350757 -2.230024400709374
    vertex 46.078294673906434 100.3753471350757 -0.10406940070936153
  endloop
endfacet
facet normal -0.8632685262189083 -0.5047449372107006 -1.804112415015879e-16
  outer loop
    vertex 46.078294673906484 100.3753471350757 -2.230024400709374
    vertex 45.12999906618255 101.99722323793178 -0.10406940070936048
    vertex 45.129999066182584 101.99722323793178 -2.2300244007093752
  endloop
endfacet
facet normal 1.0 0.0 6.557254739192331e-16
  outer loop
    vertex 73.03345562836337 105.21944406475967 -2.230024400709364
    vertex 73.03345562836337 86.39517006475967 -0.10406940070935096
    vertex 73.03345562836337 86.39517006475967 -2.230024400709364
  endloop
endfacet
facet normal 1.0 0.0 6.557254739192331e-16
  outer loop
    vertex 73.03345562836337 86.39517006475967 -0.10406940070935096
    vertex 73.03345562836337 105.21944406475967 -2.230024400709364
    vertex 73.03345562836337 105.21944406475967 -0.10406940070935096
  endloop
endfacet
facet normal -0.8632685262189083 -0.5047449372107006 -1.804112415015879e-16
  outer loop
    vertex 67.00277264143737 101.98691320277376 -0.10406940070934956
    vertex 67.95106824916115 100.36503709991769 -2.230024400709357
    vertex 67.95106824916122 100.36503709991769 -0.10406940070935942
  endloop
endfacet
facet normal -0.8632685262189083 -0.5047449372107006 -1.804112415015879e-16
  outer loop
    vertex 67.95106824916115 100.36503709991769 -2.230024400709357
    vertex 67.00277264143737 101.98691320277376 -0.10406940070934956
    vertex 67.00277264143742 101.98691320277376 -2.230024400709383
  endloop
endfacet
facet normal 0.0 1.0 0.0
  outer loop
    vertex 36.16272662836335 105.21944406475967 -2.2300244007093752
    vertex 43.25126535545644 105.21944406475967 -0.8622552003547019
    vertex 73.03345562836337 105.21944406475967 -2.230024400709364
  endloop
endfacet
facet normal 0.0 1.0 0.0
  outer loop
    vertex 43.25126535545644 105.21944406475967 -0.8622552003547019
    vertex 36.16272662836335 105.21944406475967 -2.2300244007093752
    vertex 36.162726628363316 105.21944406475967 -0.10406940070937916
  endloop
endfacet
facet normal 0.0 1.0 0.0
  outer loop
    vertex 73.03345562836337 105.21944406475967 -2.230024400709364
    vertex 43.25126535545644 105.21944406475967 -0.8622552003547019
    vertex 45.12999906618256 105.21944406475967 -0.8622552003547199
  endloop
endfacet
facet normal 0.0 1.0 0.0
  outer loop
    vertex 73.03345562836337 105.21944406475967 -2.230024400709364
    vertex 45.12999906618256 105.21944406475967 -0.8622552003547199
    vertex 65.12403893071118 105.21944406475967 -0.8622552003547246
  endloop
endfacet
facet normal 0.0 1.0 0.0
  outer loop
    vertex 43.25126535545644 105.21944406475967 -0.8622552003547019
    vertex 36.162726628363316 105.21944406475967 -0.10406940070937916
    vertex 43.25126535545642 105.21944406475967 -0.10406940070937229
  endloop
endfacet
facet normal 0.0 1.0 0.0
  outer loop
    vertex 45.12999906618256 105.21944406475967 -0.8622552003547199
    vertex 65.12403893071114 105.21944406475967 -0.10406940070935185
    vertex 65.12403893071118 105.21944406475967 -0.8622552003547246
  endloop
endfacet
facet normal 0.0 1.0 0.0
  outer loop
    vertex 65.12403893071114 105.21944406475967 -0.10406940070935185
    vertex 45.12999906618256 105.21944406475967 -0.8622552003547199
    vertex 45.12999906618255 105.21944406475967 -0.10406940070936048
  endloop
endfacet
facet normal 0.0 1.0 0.0
  outer loop
    vertex 73.03345562836337 105.21944406475967 -2.230024400709364
    vertex 67.00277264143735 105.21944406475967 -0.862255200354692
    vertex 73.03345562836337 105.21944406475967 -0.10406940070935096
  endloop
endfacet
facet normal 0.0 1.0 0.0
  outer loop
    vertex 67.00277264143735 105.21944406475967 -0.862255200354692
    vertex 73.03345562836337 105.21944406475967 -2.230024400709364
    vertex 65.12403893071118 105.21944406475967 -0.8622552003547246
  endloop
endfacet
facet normal 0.0 1.0 0.0
  outer loop
    vertex 73.03345562836337 105.21944406475967 -0.10406940070935096
    vertex 67.00277264143735 105.21944406475967 -0.862255200354692
    vertex 67.00277264143737 105.21944406475967 -0.10406940070934956
  endloop
endfacet
facet normal 0.0 -1.0 0.0
  outer loop
    vertex 73.03345562836337 86.39517006475967 -0.10406940070935096
    vertex 67.0206301461589 86.39517006475967 -0.8622552003547083
    vertex 73.03345562836337 86.39517006475967 -2.230024400709364
  endloop
endfacet
facet normal 0.0 -1.0 0.0
  outer loop
    vertex 67.0206301461589 86.39517006475967 -0.8622552003547083
    vertex 73.03345562836337 86.39517006475967 -0.10406940070935096
    vertex 67.0206301461588 86.39517006475967 -0.10406940070934144
  endloop
endfacet
facet normal 0.0 -1.0 0.0
  outer loop
    vertex 65.14189643543277 86.39517006475967 -0.8622552003547019
    vertex 45.14785657090416 86.39517006475967 -0.8622552003546826
    vertex 43.26912286017785 86.39517006475967 -0.8622552003546935
  endloop
endfacet
facet normal 0.0 -1.0 0.0
  outer loop
    vertex 45.14785657090416 86.39517006475967 -0.8622552003546826
    vertex 65.14189643543277 86.39517006475967 -0.8622552003547019
    vertex 65.14189643543259 86.39517006475967 -0.10406940070935396
  endloop
endfacet
facet normal 0.0 -1.0 0.0
  outer loop
    vertex 45.14785657090416 86.39517006475967 -0.8622552003546826
    vertex 65.14189643543259 86.39517006475967 -0.10406940070935396
    vertex 45.147856570904146 86.39517006475967 -0.10406940070935485
  endloop
endfacet
facet normal 0.0 -1.0 0.0
  outer loop
    vertex 36.16272662836335 86.39517006475967 -2.2300244007093752
    vertex 43.26912286017785 86.39517006475967 -0.8622552003546935
    vertex 36.162726628363316 86.39517006475967 -0.10406940070937916
  endloop
endfacet
facet normal 0.0 -1.0 0.0
  outer loop
    vertex 43.26912286017785 86.39517006475967 -0.8622552003546935
    vertex 36.16272662836335 86.39517006475967 -2.2300244007093752
    vertex 73.03345562836337 86.39517006475967 -2.230024400709364
  endloop
endfacet
facet normal 0.0 -1.0 0.0
  outer loop
    vertex 43.26912286017785 86.39517006475967 -0.8622552003546935
    vertex 73.03345562836337 86.39517006475967 -2.230024400709364
    vertex 67.0206301461589 86.39517006475967 -0.8622552003547083
  endloop
endfacet
facet normal 0.0 -1.0 0.0
  outer loop
    vertex 43.26912286017785 86.39517006475967 -0.8622552003546935
    vertex 67.0206301461589 86.39517006475967 -0.8622552003547083
    vertex 65.14189643543277 86.39517006475967 -0.8622552003547019
  endloop
endfacet
facet normal 0.0 -1.0 0.0
  outer loop
    vertex 36.162726628363316 86.39517006475967 -0.10406940070937916
    vertex 43.26912286017785 86.39517006475967 -0.8622552003546935
    vertex 43.26912286017791 86.39517006475967 -0.10406940070937705
  endloop
endfacet
facet normal 0.005487674946593811 -0.9999849425984777 2.168404344971009e-18
  outer loop
    vertex 67.00277264143737 101.98691320277376 -0.10406940070934956
    vertex 65.12403893071115 101.97660316761575 -2.2300244007093597
    vertex 67.00277264143742 101.98691320277376 -2.230024400709383
  endloop
endfacet
facet normal 0.005487674946593811 -0.9999849425984777 2.168404344971009e-18
  outer loop
    vertex 65.12403893071115 101.97660316761575 -2.2300244007093597
    vertex 67.00277264143737 101.98691320277376 -0.10406940070934956
    vertex 65.12403893071114 101.97660316761575 -0.10406940070935185
  endloop
endfacet
facet normal -1.0 0.0 -6.557254739192331e-16
  outer loop
    vertex 36.162726628363316 105.21944406475967 -0.10406940070937916
    vertex 36.16272662836335 86.39517006475967 -2.2300244007093752
    vertex 36.162726628363316 86.39517006475967 -0.10406940070937916
  endloop
endfacet
facet normal -1.0 0.0 -6.557254739192331e-16
  outer loop
    vertex 36.16272662836335 86.39517006475967 -2.2300244007093752
    vertex 36.162726628363316 105.21944406475967 -0.10406940070937916
    vertex 36.16272662836335 105.21944406475967 -2.2300244007093752
  endloop
endfacet
facet normal -0.8687562011655018 0.4952400053877779 -2.1163626406917042e-16
  outer loop
    vertex 67.95106824916122 100.36503709991769 -0.10406940070935942
    vertex 67.02063014615887 98.7328509619036 -2.2300244007093766
    vertex 67.0206301461588 98.7328509619036 -0.10406940070934144
  endloop
endfacet
facet normal -0.8687562011655018 0.4952400053877779 -2.1163626406917042e-16
  outer loop
    vertex 67.02063014615887 98.7328509619036 -2.2300244007093766
    vertex 67.95106824916122 100.36503709991769 -0.10406940070935942
    vertex 67.95106824916115 100.36503709991769 -2.230024400709357
  endloop
endfacet
facet normal 0.005487674946593811 -0.9999849425984777 2.168404344971009e-18
  outer loop
    vertex 45.12999906618255 101.99722323793178 -0.10406940070936048
    vertex 43.25126535545645 101.98691320277376 -2.2300244007093597
    vertex 45.129999066182584 101.99722323793178 -2.2300244007093752
  endloop
endfacet
facet normal 0.005487674946593811 -0.9999849425984777 2.168404344971009e-18
  outer loop
    vertex 43.25126535545645 101.98691320277376 -2.2300244007093597
    vertex 45.12999906618255 101.99722323793178 -0.10406940070936048
    vertex 43.25126535545642 101.98691320277376 -0.10406940070937229
  endloop
endfacet
facet normal 6.557254739192331e-16 0.0 -1.0
  outer loop
    vertex 36.16272662836335 105.21944406475967 -2.2300244007093752
    vertex 42.320827252454094 100.35472706475967 -2.2300244007093473
    vertex 36.16272662836335 86.39517006475967 -2.2300244007093752
  endloop
endfacet
facet normal 6.557254739192331e-16 0.0 -1.0
  outer loop
    vertex 42.320827252454094 100.35472706475967 -2.2300244007093473
    vertex 36.16272662836335 105.21944406475967 -2.2300244007093752
    vertex 43.25126535545645 101.98691320277376 -2.2300244007093597
  endloop
endfacet
facet normal 6.557254739192331e-16 0.0 -1.0
  outer loop
    vertex 43.25126535545645 101.98691320277376 -2.2300244007093597
    vertex 36.16272662836335 105.21944406475967 -2.2300244007093752
    vertex 73.03345562836337 105.21944406475967 -2.230024400709364
  endloop
endfacet
facet normal 6.557254739192331e-16 0.0 -1.0
  outer loop
    vertex 43.25126535545645 101.98691320277376 -2.2300244007093597
    vertex 73.03345562836337 105.21944406475967 -2.230024400709364
    vertex 45.129999066182584 101.99722323793178 -2.2300244007093752
  endloop
endfacet
facet normal 6.557254739192331e-16 0.0 -1.0
  outer loop
    vertex 45.129999066182584 101.99722323793178 -2.2300244007093752
    vertex 73.03345562836337 105.21944406475967 -2.230024400709364
    vertex 46.078294673906484 100.3753471350757 -2.230024400709374
  endloop
endfacet
facet normal 6.557254739192331e-16 0.0 -1.0
  outer loop
    vertex 46.078294673906484 100.3753471350757 -2.230024400709374
    vertex 73.03345562836337 105.21944406475967 -2.230024400709364
    vertex 65.12403893071115 101.97660316761575 -2.2300244007093597
  endloop
endfacet
facet normal 6.557254739192331e-16 0.0 -1.0
  outer loop
    vertex 46.078294673906484 100.3753471350757 -2.230024400709374
    vertex 65.12403893071115 101.97660316761575 -2.2300244007093597
    vertex 54.74220451163503 97.68892760196833 -2.2300244007093597
  endloop
endfacet
facet normal 6.557254739192331e-16 0.0 -1.0
  outer loop
    vertex 46.078294673906484 100.3753471350757 -2.230024400709374
    vertex 54.74220451163503 97.68892760196833 -2.2300244007093597
    vertex 54.28938051574823 97.50136176150406 -2.2300244007093344
  endloop
endfacet
facet normal 6.557254739192331e-16 0.0 -1.0
  outer loop
    vertex 46.078294673906484 100.3753471350757 -2.230024400709374
    vertex 54.28938051574823 97.50136176150406 -2.2300244007093344
    vertex 53.90053173508071 97.20298759785508 -2.230024400709366
  endloop
endfacet
facet normal 6.557254739192331e-16 0.0 -1.0
  outer loop
    vertex 46.078294673906484 100.3753471350757 -2.230024400709374
    vertex 53.90053173508071 97.20298759785508 -2.230024400709366
    vertex 46.078294673906484 91.11907690907418 -2.230024400709374
  endloop
endfacet
facet normal 6.557254739192331e-16 0.0 -1.0
  outer loop
    vertex 46.078294673906484 91.11907690907418 -2.230024400709374
    vertex 53.90053173508071 97.20298759785508 -2.230024400709366
    vertex 53.60215757143177 96.81413881718747 -2.2300244007093797
  endloop
endfacet
facet normal 6.557254739192331e-16 0.0 -1.0
  outer loop
    vertex 46.078294673906484 91.11907690907418 -2.230024400709374
    vertex 53.60215757143177 96.81413881718747 -2.2300244007093797
    vertex 53.414591730967345 96.36131482130071 -2.2300244007093473
  endloop
endfacet
facet normal 6.557254739192331e-16 0.0 -1.0
  outer loop
    vertex 46.078294673906484 91.11907690907418 -2.230024400709374
    vertex 53.414591730967345 96.36131482130071 -2.2300244007093473
    vertex 53.35061651574822 95.87537481718746 -2.2300244007093384
  endloop
endfacet
facet normal 6.557254739192331e-16 0.0 -1.0
  outer loop
    vertex 54.74220451163503 97.68892760196833 -2.2300244007093597
    vertex 65.12403893071115 101.97660316761575 -2.2300244007093597
    vertex 55.22814451574832 97.75290281718748 -2.230024400709326
  endloop
endfacet
facet normal 6.557254739192331e-16 0.0 -1.0
  outer loop
    vertex 55.22814451574832 97.75290281718748 -2.230024400709326
    vertex 65.12403893071115 101.97660316761575 -2.2300244007093597
    vertex 55.71408451986143 97.68892760196833 -2.2300244007093317
  endloop
endfacet
facet normal 6.557254739192331e-16 0.0 -1.0
  outer loop
    vertex 55.71408451986143 97.68892760196833 -2.2300244007093317
    vertex 65.12403893071115 101.97660316761575 -2.2300244007093597
    vertex 56.16690851574828 97.50136176150406 -2.2300244007093726
  endloop
endfacet
facet normal 6.557254739192331e-16 0.0 -1.0
  outer loop
    vertex 56.16690851574828 97.50136176150406 -2.2300244007093726
    vertex 65.12403893071115 101.97660316761575 -2.2300244007093597
    vertex 56.55575729641591 97.20298759785508 -2.230024400709367
  endloop
endfacet
facet normal 6.557254739192331e-16 0.0 -1.0
  outer loop
    vertex 56.55575729641591 97.20298759785508 -2.230024400709367
    vertex 65.12403893071115 101.97660316761575 -2.2300244007093597
    vertex 56.854131460064956 96.81413881718747 -2.2300244007093477
  endloop
endfacet
facet normal 6.557254739192331e-16 0.0 -1.0
  outer loop
    vertex 56.854131460064956 96.81413881718747 -2.2300244007093477
    vertex 65.12403893071115 101.97660316761575 -2.2300244007093597
    vertex 57.04169730052913 96.36131482130072 -2.2300244007093863
  endloop
endfacet
facet normal 6.557254739192331e-16 0.0 -1.0
  outer loop
    vertex 57.04169730052913 96.36131482130072 -2.2300244007093863
    vertex 65.12403893071115 101.97660316761575 -2.2300244007093597
    vertex 57.10567251574825 95.87537481718746 -2.23002440070935
  endloop
endfacet
facet normal 6.557254739192331e-16 0.0 -1.0
  outer loop
    vertex 57.10567251574825 95.87537481718746 -2.23002440070935
    vertex 65.12403893071115 101.97660316761575 -2.2300244007093597
    vertex 64.1936008277088 100.34441702960166 -2.2300244007093744
  endloop
endfacet
facet normal 6.557254739192331e-16 0.0 -1.0
  outer loop
    vertex 65.12403893071115 101.97660316761575 -2.2300244007093597
    vertex 73.03345562836337 105.21944406475967 -2.230024400709364
    vertex 67.00277264143742 101.98691320277376 -2.230024400709383
  endloop
endfacet
facet normal 6.557254739192331e-16 0.0 -1.0
  outer loop
    vertex 67.00277264143742 101.98691320277376 -2.230024400709383
    vertex 73.03345562836337 105.21944406475967 -2.230024400709364
    vertex 67.95106824916115 100.36503709991769 -2.230024400709357
  endloop
endfacet
facet normal 6.557254739192331e-16 0.0 -1.0
  outer loop
    vertex 67.95106824916115 100.36503709991769 -2.230024400709357
    vertex 73.03345562836337 105.21944406475967 -2.230024400709364
    vertex 67.95106824916115 90.97479648662807 -2.230024400709357
  endloop
endfacet
facet normal 6.557254739192331e-16 0.0 -1.0
  outer loop
    vertex 36.16272662836335 86.39517006475967 -2.2300244007093752
    vertex 43.26912286017786 89.47658073590206 -2.230024400709378
    vertex 73.03345562836337 86.39517006475967 -2.230024400709364
  endloop
endfacet
facet normal 6.557254739192331e-16 0.0 -1.0
  outer loop
    vertex 43.26912286017786 89.47658073590206 -2.230024400709378
    vertex 36.16272662836335 86.39517006475967 -2.2300244007093752
    vertex 42.320827252454094 91.09845683875815 -2.2300244007093473
  endloop
endfacet
facet normal 6.557254739192331e-16 0.0 -1.0
  outer loop
    vertex 42.320827252454094 91.09845683875815 -2.2300244007093473
    vertex 36.16272662836335 86.39517006475967 -2.2300244007093752
    vertex 42.320827252454094 100.35472706475967 -2.2300244007093473
  endloop
endfacet
facet normal 6.557254739192331e-16 0.0 -1.0
  outer loop
    vertex 73.03345562836337 86.39517006475967 -2.230024400709364
    vertex 43.26912286017786 89.47658073590206 -2.230024400709378
    vertex 45.14785657090409 89.48689077106008 -2.230024400709374
  endloop
endfacet
facet normal 6.557254739192331e-16 0.0 -1.0
  outer loop
    vertex 73.03345562836337 86.39517006475967 -2.230024400709364
    vertex 45.14785657090409 89.48689077106008 -2.230024400709374
    vertex 46.078294673906484 91.11907690907418 -2.230024400709374
  endloop
endfacet
facet normal 6.557254739192331e-16 0.0 -1.0
  outer loop
    vertex 73.03345562836337 86.39517006475967 -2.230024400709364
    vertex 46.078294673906484 91.11907690907418 -2.230024400709374
    vertex 65.14189643543264 89.33230031345596 -2.230024400709381
  endloop
endfacet
facet normal 6.557254739192331e-16 0.0 -1.0
  outer loop
    vertex 65.14189643543264 89.33230031345596 -2.230024400709381
    vertex 46.078294673906484 91.11907690907418 -2.230024400709374
    vertex 54.28938051574824 94.24938787287087 -2.2300244007093295
  endloop
endfacet
facet normal 6.557254739192331e-16 0.0 -1.0
  outer loop
    vertex 54.28938051574824 94.24938787287087 -2.2300244007093295
    vertex 46.078294673906484 91.11907690907418 -2.230024400709374
    vertex 53.90053173508071 94.54776203651984 -2.230024400709366
  endloop
endfacet
facet normal 6.557254739192331e-16 0.0 -1.0
  outer loop
    vertex 53.90053173508071 94.54776203651984 -2.230024400709366
    vertex 46.078294673906484 91.11907690907418 -2.230024400709374
    vertex 53.60215757143177 94.93661081718746 -2.2300244007093797
  endloop
endfacet
facet normal 6.557254739192331e-16 0.0 -1.0
  outer loop
    vertex 53.60215757143177 94.93661081718746 -2.2300244007093797
    vertex 46.078294673906484 91.11907690907418 -2.230024400709374
    vertex 53.414591730967345 95.38943481307422 -2.2300244007093473
  endloop
endfacet
facet normal 6.557254739192331e-16 0.0 -1.0
  outer loop
    vertex 53.414591730967345 95.38943481307422 -2.2300244007093473
    vertex 46.078294673906484 91.11907690907418 -2.230024400709374
    vertex 53.35061651574822 95.87537481718746 -2.2300244007093384
  endloop
endfacet
facet normal 6.557254739192331e-16 0.0 -1.0
  outer loop
    vertex 65.14189643543264 89.33230031345596 -2.230024400709381
    vertex 54.28938051574824 94.24938787287087 -2.2300244007093295
    vertex 54.74220451163503 94.0618220324066 -2.2300244007093597
  endloop
endfacet
facet normal 6.557254739192331e-16 0.0 -1.0
  outer loop
    vertex 65.14189643543264 89.33230031345596 -2.230024400709381
    vertex 54.74220451163503 94.0618220324066 -2.2300244007093597
    vertex 55.22814451574832 93.99784681718747 -2.230024400709326
  endloop
endfacet
facet normal 6.557254739192331e-16 0.0 -1.0
  outer loop
    vertex 65.14189643543264 89.33230031345596 -2.230024400709381
    vertex 55.22814451574832 93.99784681718747 -2.230024400709326
    vertex 55.71408451986143 94.0618220324066 -2.2300244007093317
  endloop
endfacet
facet normal 6.557254739192331e-16 0.0 -1.0
  outer loop
    vertex 65.14189643543264 89.33230031345596 -2.230024400709381
    vertex 55.71408451986143 94.0618220324066 -2.2300244007093317
    vertex 56.16690851574828 94.24938787287087 -2.2300244007093863
  endloop
endfacet
facet normal 6.557254739192331e-16 0.0 -1.0
  outer loop
    vertex 65.14189643543264 89.33230031345596 -2.230024400709381
    vertex 56.16690851574828 94.24938787287087 -2.2300244007093863
    vertex 56.55575729641591 94.54776203651984 -2.230024400709367
  endloop
endfacet
facet normal 6.557254739192331e-16 0.0 -1.0
  outer loop
    vertex 65.14189643543264 89.33230031345596 -2.230024400709381
    vertex 56.55575729641591 94.54776203651984 -2.230024400709367
    vertex 56.854131460064956 94.93661081718747 -2.2300244007093477
  endloop
endfacet
facet normal 6.557254739192331e-16 0.0 -1.0
  outer loop
    vertex 65.14189643543264 89.33230031345596 -2.230024400709381
    vertex 56.854131460064956 94.93661081718747 -2.2300244007093477
    vertex 57.04169730052913 95.38943481307422 -2.2300244007093863
  endloop
endfacet
facet normal 6.557254739192331e-16 0.0 -1.0
  outer loop
    vertex 65.14189643543264 89.33230031345596 -2.230024400709381
    vertex 57.04169730052913 95.38943481307422 -2.2300244007093863
    vertex 57.10567251574825 95.87537481718746 -2.23002440070935
  endloop
endfacet
facet normal 6.557254739192331e-16 0.0 -1.0
  outer loop
    vertex 65.14189643543264 89.33230031345596 -2.230024400709381
    vertex 57.10567251574825 95.87537481718746 -2.23002440070935
    vertex 64.1936008277088 90.95417641631204 -2.2300244007093744
  endloop
endfacet
facet normal 6.557254739192331e-16 0.0 -1.0
  outer loop
    vertex 64.1936008277088 90.95417641631204 -2.2300244007093744
    vertex 57.10567251574825 95.87537481718746 -2.23002440070935
    vertex 64.1936008277088 100.34441702960166 -2.2300244007093744
  endloop
endfacet
facet normal 6.557254739192331e-16 0.0 -1.0
  outer loop
    vertex 73.03345562836337 86.39517006475967 -2.230024400709364
    vertex 65.14189643543264 89.33230031345596 -2.230024400709381
    vertex 67.02063014615887 89.34261034861397 -2.2300244007093766
  endloop
endfacet
facet normal 6.557254739192331e-16 0.0 -1.0
  outer loop
    vertex 73.03345562836337 86.39517006475967 -2.230024400709364
    vertex 67.02063014615887 89.34261034861397 -2.2300244007093766
    vertex 67.95106824916115 90.97479648662807 -2.230024400709357
  endloop
endfacet
facet normal 6.557254739192331e-16 0.0 -1.0
  outer loop
    vertex 73.03345562836337 86.39517006475967 -2.230024400709364
    vertex 67.95106824916115 90.97479648662807 -2.230024400709357
    vertex 73.03345562836337 105.21944406475967 -2.230024400709364
  endloop
endfacet
facet normal 6.557254739192331e-16 0.0 -1.0
  outer loop
    vertex 65.14189643543264 98.72254092674558 -2.230024400709381
    vertex 64.1936008277088 90.95417641631204 -2.2300244007093744
    vertex 64.1936008277088 100.34441702960166 -2.2300244007093744
  endloop
endfacet
facet normal 6.557254739192331e-16 0.0 -1.0
  outer loop
    vertex 64.1936008277088 90.95417641631204 -2.2300244007093744
    vertex 65.14189643543264 98.72254092674558 -2.230024400709381
    vertex 65.12403893071115 92.58636255432614 -2.2300244007093597
  endloop
endfacet
facet normal 6.557254739192331e-16 0.0 -1.0
  outer loop
    vertex 65.12403893071115 92.58636255432614 -2.2300244007093597
    vertex 65.14189643543264 98.72254092674558 -2.230024400709381
    vertex 67.00277264143742 92.59667258948414 -2.230024400709383
  endloop
endfacet
facet normal 6.557254739192331e-16 0.0 -1.0
  outer loop
    vertex 67.00277264143742 92.59667258948414 -2.230024400709383
    vertex 65.14189643543264 98.72254092674558 -2.230024400709381
    vertex 67.02063014615887 98.7328509619036 -2.2300244007093766
  endloop
endfacet
facet normal 6.557254739192331e-16 0.0 -1.0
  outer loop
    vertex 67.00277264143742 92.59667258948414 -2.230024400709383
    vertex 67.02063014615887 98.7328509619036 -2.2300244007093766
    vertex 67.95106824916115 90.97479648662807 -2.230024400709357
  endloop
endfacet
facet normal 6.557254739192331e-16 0.0 -1.0
  outer loop
    vertex 67.95106824916115 90.97479648662807 -2.230024400709357
    vertex 67.02063014615887 98.7328509619036 -2.2300244007093766
    vertex 67.95106824916115 100.36503709991769 -2.230024400709357
  endloop
endfacet
facet normal 6.557254739192331e-16 0.0 -1.0
  outer loop
    vertex 43.26912286017786 98.7328509619036 -2.230024400709378
    vertex 42.320827252454094 91.09845683875815 -2.2300244007093473
    vertex 42.320827252454094 100.35472706475967 -2.2300244007093473
  endloop
endfacet
facet normal 6.557254739192331e-16 0.0 -1.0
  outer loop
    vertex 42.320827252454094 91.09845683875815 -2.2300244007093473
    vertex 43.26912286017786 98.7328509619036 -2.230024400709378
    vertex 43.25126535545645 92.73064297677224 -2.2300244007093597
  endloop
endfacet
facet normal 6.557254739192331e-16 0.0 -1.0
  outer loop
    vertex 43.25126535545645 92.73064297677224 -2.2300244007093597
    vertex 43.26912286017786 98.7328509619036 -2.230024400709378
    vertex 45.129999066182584 92.74095301193026 -2.2300244007093752
  endloop
endfacet
facet normal 6.557254739192331e-16 0.0 -1.0
  outer loop
    vertex 45.129999066182584 92.74095301193026 -2.2300244007093752
    vertex 43.26912286017786 98.7328509619036 -2.230024400709378
    vertex 45.14785657090409 98.7431609970616 -2.230024400709374
  endloop
endfacet
facet normal 6.557254739192331e-16 0.0 -1.0
  outer loop
    vertex 45.129999066182584 92.74095301193026 -2.2300244007093752
    vertex 45.14785657090409 98.7431609970616 -2.230024400709374
    vertex 46.078294673906484 91.11907690907418 -2.230024400709374
  endloop
endfacet
facet normal 6.557254739192331e-16 0.0 -1.0
  outer loop
    vertex 46.078294673906484 91.11907690907418 -2.230024400709374
    vertex 45.14785657090409 98.7431609970616 -2.230024400709374
    vertex 46.078294673906484 100.3753471350757 -2.230024400709374
  endloop
endfacet
facet normal -1.0 0.0 -6.557254739192331e-16
  outer loop
    vertex 67.0206301461588 87.50384526319115 -0.10406940070934144
    vertex 67.0206301461589 86.39517006475967 -0.8622552003547083
    vertex 67.0206301461588 86.39517006475967 -0.10406940070934144
  endloop
endfacet
facet normal -0.9914448613738116 0.13052619222004197 -6.140921104957896e-16
  outer loop
    vertex 57.10567251574837 95.87537481718746 -0.10406940070936964
    vertex 57.04169730052913 95.38943481307422 -2.2300244007093863
    vertex 57.04169730052911 95.38943481307422 -0.10406940070935959
  endloop
endfacet
facet normal -0.9914448613738116 0.13052619222004197 -6.140921104957896e-16
  outer loop
    vertex 57.04169730052913 95.38943481307422 -2.2300244007093863
    vertex 57.10567251574837 95.87537481718746 -0.10406940070936964
    vertex 57.10567251574825 95.87537481718746 -2.23002440070935
  endloop
endfacet
facet normal -0.3826834323651053 -0.9238795325112805 -1.405126015541214e-16
  outer loop
    vertex 56.166908515748304 97.50136176150406 -0.104069400709364
    vertex 55.71408451986143 97.68892760196833 -2.2300244007093317
    vertex 56.16690851574828 97.50136176150406 -2.2300244007093726
  endloop
endfacet
facet normal -0.3826834323651053 -0.9238795325112805 -1.405126015541214e-16
  outer loop
    vertex 55.71408451986143 97.68892760196833 -2.2300244007093317
    vertex 56.166908515748304 97.50136176150406 -0.104069400709364
    vertex 55.71408451986143 97.68892760196833 -0.10406940070935661
  endloop
endfacet
facet normal -0.793353340291239 0.6087614290087158 -3.885780586188048e-16
  outer loop
    vertex 56.85413146006486 94.93661081718747 -0.10406940070937952
    vertex 56.55575729641591 94.54776203651984 -2.230024400709367
    vertex 56.55575729641598 94.54776203651984 -0.10406940070937828
  endloop
endfacet
facet normal -0.793353340291239 0.6087614290087158 -3.885780586188048e-16
  outer loop
    vertex 56.55575729641591 94.54776203651984 -2.230024400709367
    vertex 56.85413146006486 94.93661081718747 -0.10406940070937952
    vertex 56.854131460064956 94.93661081718747 -2.2300244007093477
  endloop
endfacet
facet normal -0.6087614290087148 -0.7933533402912397 -2.8622937353617317e-16
  outer loop
    vertex 56.55575729641591 97.20298759785508 -2.230024400709367
    vertex 56.166908515748304 97.50136176150406 -0.104069400709364
    vertex 56.16690851574828 97.50136176150406 -2.2300244007093726
  endloop
endfacet
facet normal -0.6087614290087148 -0.7933533402912397 -2.8622937353617317e-16
  outer loop
    vertex 56.166908515748304 97.50136176150406 -0.104069400709364
    vertex 56.55575729641591 97.20298759785508 -2.230024400709367
    vertex 56.55575729641598 97.20298759785508 -0.10406940070937828
  endloop
endfacet
facet normal -0.9238795325112835 -0.3826834323650978 -5.030698080332741e-16
  outer loop
    vertex 56.85413146006486 96.81413881718747 -0.10406940070937952
    vertex 57.04169730052913 96.36131482130072 -2.2300244007093863
    vertex 57.04169730052911 96.36131482130072 -0.10406940070935959
  endloop
endfacet
facet normal -0.9238795325112835 -0.3826834323650978 -5.030698080332741e-16
  outer loop
    vertex 57.04169730052913 96.36131482130072 -2.2300244007093863
    vertex 56.85413146006486 96.81413881718747 -0.10406940070937952
    vertex 56.854131460064956 96.81413881718747 -2.2300244007093477
  endloop
endfacet
facet normal -0.9238795325112801 0.38268343236510577 -5.238864897449956e-16
  outer loop
    vertex 57.04169730052911 95.38943481307422 -0.10406940070935959
    vertex 56.854131460064956 94.93661081718747 -2.2300244007093477
    vertex 56.85413146006486 94.93661081718747 -0.10406940070937952
  endloop
endfacet
facet normal -0.9238795325112801 0.38268343236510577 -5.238864897449956e-16
  outer loop
    vertex 56.854131460064956 94.93661081718747 -2.2300244007093477
    vertex 57.04169730052911 95.38943481307422 -0.10406940070935959
    vertex 57.04169730052913 95.38943481307422 -2.2300244007093863
  endloop
endfacet
facet normal -0.7933533402912305 -0.6087614290087265 -2.7408630920433547e-16
  outer loop
    vertex 56.55575729641598 97.20298759785508 -0.10406940070937828
    vertex 56.854131460064956 96.81413881718747 -2.2300244007093477
    vertex 56.85413146006486 96.81413881718747 -0.10406940070937952
  endloop
endfacet
facet normal -0.7933533402912305 -0.6087614290087265 -2.7408630920433547e-16
  outer loop
    vertex 56.854131460064956 96.81413881718747 -2.2300244007093477
    vertex 56.55575729641598 97.20298759785508 -0.10406940070937828
    vertex 56.55575729641591 97.20298759785508 -2.230024400709367
  endloop
endfacet
facet normal -0.9914448613738116 -0.13052619222004197 -6.140921104957896e-16
  outer loop
    vertex 57.04169730052911 96.36131482130072 -0.10406940070935959
    vertex 57.10567251574825 95.87537481718746 -2.23002440070935
    vertex 57.10567251574837 95.87537481718746 -0.10406940070936964
  endloop
endfacet
facet normal -0.9914448613738116 -0.13052619222004197 -6.140921104957896e-16
  outer loop
    vertex 57.10567251574825 95.87537481718746 -2.23002440070935
    vertex 57.04169730052911 96.36131482130072 -0.10406940070935959
    vertex 57.04169730052913 96.36131482130072 -2.2300244007093863
  endloop
endfacet
facet normal -0.8687562011655018 0.4952400053877779 -2.1163626406917042e-16
  outer loop
    vertex 46.078294673906434 100.3753471350757 -0.10406940070936153
    vertex 45.14785657090409 98.7431609970616 -2.230024400709374
    vertex 45.147856570904146 98.7431609970616 -0.10406940070935485
  endloop
endfacet
facet normal -0.8687562011655018 0.4952400053877779 -2.1163626406917042e-16
  outer loop
    vertex 45.14785657090409 98.7431609970616 -2.230024400709374
    vertex 46.078294673906434 100.3753471350757 -0.10406940070936153
    vertex 46.078294673906484 100.3753471350757 -2.230024400709374
  endloop
endfacet
facet normal 0.3826834323651053 0.9238795325112805 1.405126015541214e-16
  outer loop
    vertex 54.28938051574824 94.24938787287087 -2.2300244007093295
    vertex 54.74220451163492 94.0618220324066 -0.10406940070936418
    vertex 54.74220451163503 94.0618220324066 -2.2300244007093597
  endloop
endfacet
facet normal 0.3826834323651053 0.9238795325112805 1.405126015541214e-16
  outer loop
    vertex 54.74220451163492 94.0618220324066 -0.10406940070936418
    vertex 54.28938051574824 94.24938787287087 -2.2300244007093295
    vertex 54.289380515748206 94.24938787287087 -0.1040694007094033
  endloop
endfacet
facet normal 0.7933533402912305 0.6087614290087265 2.7408630920433547e-16
  outer loop
    vertex 53.60215757143177 94.93661081718746 -2.2300244007093797
    vertex 53.90053173508064 94.54776203651984 -0.10406940070937053
    vertex 53.90053173508071 94.54776203651984 -2.230024400709366
  endloop
endfacet
facet normal 0.7933533402912305 0.6087614290087265 2.7408630920433547e-16
  outer loop
    vertex 53.90053173508064 94.54776203651984 -0.10406940070937053
    vertex 53.60215757143177 94.93661081718746 -2.2300244007093797
    vertex 53.60215757143161 94.93661081718746 -0.10406940070938392
  endloop
endfacet
facet normal 0.6087614290087148 0.7933533402912397 2.8622937353617317e-16
  outer loop
    vertex 53.90053173508064 94.54776203651984 -0.10406940070937053
    vertex 54.28938051574824 94.24938787287087 -2.2300244007093295
    vertex 53.90053173508071 94.54776203651984 -2.230024400709366
  endloop
endfacet
facet normal 0.6087614290087148 0.7933533402912397 2.8622937353617317e-16
  outer loop
    vertex 54.28938051574824 94.24938787287087 -2.2300244007093295
    vertex 53.90053173508064 94.54776203651984 -0.10406940070937053
    vertex 54.289380515748206 94.24938787287087 -0.1040694007094033
  endloop
endfacet
facet normal 0.8632685262189083 0.5047449372107006 1.804112415015879e-16
  outer loop
    vertex 64.1936008277088 90.95417641631204 -2.2300244007093744
    vertex 65.14189643543259 89.33230031345596 -0.10406940070935396
    vertex 65.14189643543264 89.33230031345596 -2.230024400709381
  endloop
endfacet
facet normal 0.8632685262189083 0.5047449372107006 1.804112415015879e-16
  outer loop
    vertex 65.14189643543259 89.33230031345596 -0.10406940070935396
    vertex 64.1936008277088 90.95417641631204 -2.2300244007093744
    vertex 64.19360082770889 90.95417641631204 -0.10406940070936366
  endloop
endfacet
facet normal 0.9238795325112835 -0.3826834323650978 5.030698080332741e-16
  outer loop
    vertex 53.60215757143177 96.81413881718747 -2.2300244007093797
    vertex 53.414591730967395 96.36131482130071 -0.10406940070935677
    vertex 53.414591730967345 96.36131482130071 -2.2300244007093473
  endloop
endfacet
facet normal 0.9238795325112835 -0.3826834323650978 5.030698080332741e-16
  outer loop
    vertex 53.414591730967395 96.36131482130071 -0.10406940070935677
    vertex 53.60215757143177 96.81413881718747 -2.2300244007093797
    vertex 53.60215757143161 96.81413881718747 -0.10406940070938392
  endloop
endfacet
facet normal 0.793353340291239 -0.6087614290087158 3.885780586188048e-16
  outer loop
    vertex 53.90053173508071 97.20298759785508 -2.230024400709366
    vertex 53.60215757143161 96.81413881718747 -0.10406940070938392
    vertex 53.60215757143177 96.81413881718747 -2.2300244007093797
  endloop
endfacet
facet normal 0.793353340291239 -0.6087614290087158 3.885780586188048e-16
  outer loop
    vertex 53.60215757143161 96.81413881718747 -0.10406940070938392
    vertex 53.90053173508071 97.20298759785508 -2.230024400709366
    vertex 53.90053173508064 97.20298759785508 -0.10406940070937053
  endloop
endfacet
facet normal 0.6087614290087261 -0.7933533402912311 3.1051550219984847e-16
  outer loop
    vertex 54.28938051574823 97.50136176150406 -2.2300244007093344
    vertex 53.90053173508064 97.20298759785508 -0.10406940070937053
    vertex 53.90053173508071 97.20298759785508 -2.230024400709366
  endloop
endfacet
facet normal 0.6087614290087261 -0.7933533402912311 3.1051550219984847e-16
  outer loop
    vertex 53.90053173508064 97.20298759785508 -0.10406940070937053
    vertex 54.28938051574823 97.50136176150406 -2.2300244007093344
    vertex 54.289380515748185 97.50136176150406 -0.10406940070940507
  endloop
endfacet
facet normal -0.6087614290087261 0.7933533402912311 -3.1051550219984847e-16
  outer loop
    vertex 56.166908515748325 94.24938787287087 -0.10406940070937017
    vertex 56.55575729641591 94.54776203651984 -2.230024400709367
    vertex 56.16690851574828 94.24938787287087 -2.2300244007093863
  endloop
endfacet
facet normal -0.6087614290087261 0.7933533402912311 -3.1051550219984847e-16
  outer loop
    vertex 56.55575729641591 94.54776203651984 -2.230024400709367
    vertex 56.166908515748325 94.24938787287087 -0.10406940070937017
    vertex 56.55575729641598 94.54776203651984 -0.10406940070937828
  endloop
endfacet
facet normal 0.005487674946593811 -0.9999849425984777 2.168404344971009e-18
  outer loop
    vertex 67.00277264143737 92.59667258948414 -0.10406940070934956
    vertex 65.12403893071115 92.58636255432614 -2.2300244007093597
    vertex 67.00277264143742 92.59667258948414 -2.230024400709383
  endloop
endfacet
facet normal 0.005487674946593811 -0.9999849425984777 2.168404344971009e-18
  outer loop
    vertex 65.12403893071115 92.58636255432614 -2.2300244007093597
    vertex 67.00277264143737 92.59667258948414 -0.10406940070934956
    vertex 65.12403893071114 92.58636255432614 -0.10406940070935185
  endloop
endfacet
facet normal 0.1305261922200417 -0.9914448613738118 5.767955557622884e-17
  outer loop
    vertex 55.22814451574832 97.75290281718748 -2.230024400709326
    vertex 54.74220451163492 97.68892760196833 -0.10406940070936418
    vertex 54.74220451163503 97.68892760196833 -2.2300244007093597
  endloop
endfacet
facet normal 0.1305261922200417 -0.9914448613738118 5.767955557622884e-17
  outer loop
    vertex 54.74220451163492 97.68892760196833 -0.10406940070936418
    vertex 55.22814451574832 97.75290281718748 -2.230024400709326
    vertex 55.228144515748205 97.75290281718748 -0.10406940070938481
  endloop
endfacet
facet normal 0.38268343236509733 -0.9238795325112837 2.0643209364124004e-16
  outer loop
    vertex 54.74220451163492 97.68892760196833 -0.10406940070936418
    vertex 54.28938051574823 97.50136176150406 -2.2300244007093344
    vertex 54.74220451163503 97.68892760196833 -2.2300244007093597
  endloop
endfacet
facet normal 0.38268343236509733 -0.9238795325112837 2.0643209364124004e-16
  outer loop
    vertex 54.28938051574823 97.50136176150406 -2.2300244007093344
    vertex 54.74220451163492 97.68892760196833 -0.10406940070936418
    vertex 54.289380515748185 97.50136176150406 -0.10406940070940507
  endloop
endfacet
facet normal 0.8632685262189083 0.5047449372107006 1.804112415015879e-16
  outer loop
    vertex 42.320827252454094 100.35472706475967 -2.2300244007093473
    vertex 43.26912286017791 98.7328509619036 -0.10406940070937705
    vertex 43.26912286017786 98.7328509619036 -2.230024400709378
  endloop
endfacet
facet normal 0.8632685262189083 0.5047449372107006 1.804112415015879e-16
  outer loop
    vertex 43.26912286017791 98.7328509619036 -0.10406940070937705
    vertex 42.320827252454094 100.35472706475967 -2.2300244007093473
    vertex 42.320827252454066 100.35472706475967 -0.10406940070935906
  endloop
endfacet
facet normal -0.005487674946593811 0.9999849425984777 -2.168404344971009e-18
  outer loop
    vertex 43.26912286017791 98.7328509619036 -0.10406940070937705
    vertex 45.14785657090409 98.7431609970616 -2.230024400709374
    vertex 43.26912286017786 98.7328509619036 -2.230024400709378
  endloop
endfacet
facet normal -0.005487674946593811 0.9999849425984777 -2.168404344971009e-18
  outer loop
    vertex 45.14785657090409 98.7431609970616 -2.230024400709374
    vertex 43.26912286017791 98.7328509619036 -0.10406940070937705
    vertex 45.147856570904146 98.7431609970616 -0.10406940070935485
  endloop
endfacet
facet normal -0.8632685262189083 -0.5047449372107006 -1.804112415015879e-16
  outer loop
    vertex 45.12999906618255 92.74095301193026 -0.10406940070936048
    vertex 46.078294673906484 91.11907690907418 -2.230024400709374
    vertex 46.078294673906434 91.11907690907418 -0.10406940070936153
  endloop
endfacet
facet normal -0.8632685262189083 -0.5047449372107006 -1.804112415015879e-16
  outer loop
    vertex 46.078294673906484 91.11907690907418 -2.230024400709374
    vertex 45.12999906618255 92.74095301193026 -0.10406940070936048
    vertex 45.129999066182584 92.74095301193026 -2.2300244007093752
  endloop
endfacet
facet normal 0.9914448613738116 0.13052619222004197 6.140921104957896e-16
  outer loop
    vertex 53.35061651574822 95.87537481718746 -2.2300244007093384
    vertex 53.414591730967395 95.38943481307422 -0.10406940070935677
    vertex 53.414591730967345 95.38943481307422 -2.2300244007093473
  endloop
endfacet
facet normal 0.9914448613738116 0.13052619222004197 6.140921104957896e-16
  outer loop
    vertex 53.414591730967395 95.38943481307422 -0.10406940070935677
    vertex 53.35061651574822 95.87537481718746 -2.2300244007093384
    vertex 53.350616515748214 95.87537481718746 -0.10406940070940154
  endloop
endfacet
facet normal 0.9238795325112835 0.3826834323650978 5.030698080332741e-16
  outer loop
    vertex 53.414591730967345 95.38943481307422 -2.2300244007093473
    vertex 53.60215757143161 94.93661081718746 -0.10406940070938392
    vertex 53.60215757143177 94.93661081718746 -2.2300244007093797
  endloop
endfacet
facet normal 0.9238795325112835 0.3826834323650978 5.030698080332741e-16
  outer loop
    vertex 53.60215757143161 94.93661081718746 -0.10406940070938392
    vertex 53.414591730967345 95.38943481307422 -2.2300244007093473
    vertex 53.414591730967395 95.38943481307422 -0.10406940070935677
  endloop
endfacet
facet normal -0.8687562011655018 0.4952400053877779 -2.1163626406917042e-16
  outer loop
    vertex 67.95106824916122 90.97479648662807 -0.10406940070935942
    vertex 67.02063014615887 89.34261034861397 -2.2300244007093766
    vertex 67.0206301461588 89.34261034861397 -0.10406940070934144
  endloop
endfacet
facet normal -0.8687562011655018 0.4952400053877779 -2.1163626406917042e-16
  outer loop
    vertex 67.02063014615887 89.34261034861397 -2.2300244007093766
    vertex 67.95106824916122 90.97479648662807 -0.10406940070935942
    vertex 67.95106824916115 90.97479648662807 -2.230024400709357
  endloop
endfacet
facet normal -0.38268343236509733 0.9238795325112837 -2.0643209364124004e-16
  outer loop
    vertex 55.71408451986143 94.0618220324066 -2.2300244007093317
    vertex 56.166908515748325 94.24938787287087 -0.10406940070937017
    vertex 56.16690851574828 94.24938787287087 -2.2300244007093863
  endloop
endfacet
facet normal -0.38268343236509733 0.9238795325112837 -2.0643209364124004e-16
  outer loop
    vertex 56.166908515748325 94.24938787287087 -0.10406940070937017
    vertex 55.71408451986143 94.0618220324066 -2.2300244007093317
    vertex 55.71408451986143 94.0618220324066 -0.10406940070935661
  endloop
endfacet
facet normal -0.1305261922200417 -0.9914448613738118 -5.767955557622884e-17
  outer loop
    vertex 55.71408451986143 97.68892760196833 -0.10406940070935661
    vertex 55.22814451574832 97.75290281718748 -2.230024400709326
    vertex 55.71408451986143 97.68892760196833 -2.2300244007093317
  endloop
endfacet
facet normal -0.1305261922200417 -0.9914448613738118 -5.767955557622884e-17
  outer loop
    vertex 55.22814451574832 97.75290281718748 -2.230024400709326
    vertex 55.71408451986143 97.68892760196833 -0.10406940070935661
    vertex 55.228144515748205 97.75290281718748 -0.10406940070938481
  endloop
endfacet
facet normal -0.8632685262189083 -0.5047449372107006 -1.804112415015879e-16
  outer loop
    vertex 67.00277264143737 92.59667258948414 -0.10406940070934956
    vertex 67.95106824916115 90.97479648662807 -2.230024400709357
    vertex 67.95106824916122 90.97479648662807 -0.10406940070935942
  endloop
endfacet
facet normal -0.8632685262189083 -0.5047449372107006 -1.804112415015879e-16
  outer loop
    vertex 67.95106824916115 90.97479648662807 -2.230024400709357
    vertex 67.00277264143737 92.59667258948414 -0.10406940070934956
    vertex 67.00277264143742 92.59667258948414 -2.230024400709383
  endloop
endfacet
facet normal -0.005487674946593811 0.9999849425984777 -2.168404344971009e-18
  outer loop
    vertex 43.26912286017791 89.47658073590206 -0.10406940070937705
    vertex 45.14785657090409 89.48689077106008 -2.230024400709374
    vertex 43.26912286017786 89.47658073590206 -2.230024400709378
  endloop
endfacet
facet normal -0.005487674946593811 0.9999849425984777 -2.168404344971009e-18
  outer loop
    vertex 45.14785657090409 89.48689077106008 -2.230024400709374
    vertex 43.26912286017791 89.47658073590206 -0.10406940070937705
    vertex 45.147856570904146 89.48689077106008 -0.10406940070935485
  endloop
endfacet
facet normal 0.1305261922200417 0.9914448613738118 5.767955557622884e-17
  outer loop
    vertex 54.74220451163492 94.0618220324066 -0.10406940070936418
    vertex 55.22814451574832 93.99784681718747 -2.230024400709326
    vertex 54.74220451163503 94.0618220324066 -2.2300244007093597
  endloop
endfacet
facet normal 0.1305261922200417 0.9914448613738118 5.767955557622884e-17
  outer loop
    vertex 55.22814451574832 93.99784681718747 -2.230024400709326
    vertex 54.74220451163492 94.0618220324066 -0.10406940070936418
    vertex 55.228144515748205 93.99784681718747 -0.10406940070938481
  endloop
endfacet
facet normal 0.005487674946593811 -0.9999849425984777 2.168404344971009e-18
  outer loop
    vertex 45.12999906618255 92.74095301193026 -0.10406940070936048
    vertex 43.25126535545645 92.73064297677224 -2.2300244007093597
    vertex 45.129999066182584 92.74095301193026 -2.2300244007093752
  endloop
endfacet
facet normal 0.005487674946593811 -0.9999849425984777 2.168404344971009e-18
  outer loop
    vertex 43.25126535545645 92.73064297677224 -2.2300244007093597
    vertex 45.12999906618255 92.74095301193026 -0.10406940070936048
    vertex 43.25126535545642 92.73064297677224 -0.10406940070937229
  endloop
endfacet
facet normal -0.8687562011655018 0.4952400053877779 -2.1163626406917042e-16
  outer loop
    vertex 46.078294673906434 91.11907690907418 -0.10406940070936153
    vertex 45.14785657090409 89.48689077106008 -2.230024400709374
    vertex 45.147856570904146 89.48689077106008 -0.10406940070935485
  endloop
endfacet
facet normal -0.8687562011655018 0.4952400053877779 -2.1163626406917042e-16
  outer loop
    vertex 45.14785657090409 89.48689077106008 -2.230024400709374
    vertex 46.078294673906434 91.11907690907418 -0.10406940070936153
    vertex 46.078294673906484 91.11907690907418 -2.230024400709374
  endloop
endfacet
facet normal 0.9914448613738114 -0.130526192220045 6.83481049534862e-16
  outer loop
    vertex 53.414591730967345 96.36131482130071 -2.2300244007093473
    vertex 53.350616515748214 95.87537481718746 -0.10406940070940154
    vertex 53.35061651574822 95.87537481718746 -2.2300244007093384
  endloop
endfacet
facet normal 0.9914448613738114 -0.130526192220045 6.83481049534862e-16
  outer loop
    vertex 53.350616515748214 95.87537481718746 -0.10406940070940154
    vertex 53.414591730967345 96.36131482130071 -2.2300244007093473
    vertex 53.414591730967395 96.36131482130071 -0.10406940070935677
  endloop
endfacet
facet normal 0.8687562011655018 -0.4952400053877779 2.1163626406917042e-16
  outer loop
    vertex 65.12403893071115 92.58636255432614 -2.2300244007093597
    vertex 64.19360082770889 90.95417641631204 -0.10406940070936366
    vertex 64.1936008277088 90.95417641631204 -2.2300244007093744
  endloop
endfacet
facet normal 0.8687562011655018 -0.4952400053877779 2.1163626406917042e-16
  outer loop
    vertex 64.19360082770889 90.95417641631204 -0.10406940070936366
    vertex 65.12403893071115 92.58636255432614 -2.2300244007093597
    vertex 65.12403893071114 92.58636255432614 -0.10406940070935185
  endloop
endfacet
facet normal 0.8632685262189083 0.5047449372107006 1.804112415015879e-16
  outer loop
    vertex 42.320827252454094 91.09845683875815 -2.2300244007093473
    vertex 43.26912286017791 89.47658073590206 -0.10406940070937705
    vertex 43.26912286017786 89.47658073590206 -2.230024400709378
  endloop
endfacet
facet normal 0.8632685262189083 0.5047449372107006 1.804112415015879e-16
  outer loop
    vertex 43.26912286017791 89.47658073590206 -0.10406940070937705
    vertex 42.320827252454094 91.09845683875815 -2.2300244007093473
    vertex 42.320827252454066 91.09845683875815 -0.10406940070935906
  endloop
endfacet
facet normal 0.8687562011655018 -0.4952400053877779 2.1163626406917042e-16
  outer loop
    vertex 43.25126535545645 92.73064297677224 -2.2300244007093597
    vertex 42.320827252454066 91.09845683875815 -0.10406940070935906
    vertex 42.320827252454094 91.09845683875815 -2.2300244007093473
  endloop
endfacet
facet normal 0.8687562011655018 -0.4952400053877779 2.1163626406917042e-16
  outer loop
    vertex 42.320827252454066 91.09845683875815 -0.10406940070935906
    vertex 43.25126535545645 92.73064297677224 -2.2300244007093597
    vertex 43.25126535545642 92.73064297677224 -0.10406940070937229
  endloop
endfacet
facet normal -0.005487674946593811 0.9999849425984777 -2.168404344971009e-18
  outer loop
    vertex 65.14189643543259 89.33230031345596 -0.10406940070935396
    vertex 67.02063014615887 89.34261034861397 -2.2300244007093766
    vertex 65.14189643543264 89.33230031345596 -2.230024400709381
  endloop
endfacet
facet normal -0.005487674946593811 0.9999849425984777 -2.168404344971009e-18
  outer loop
    vertex 67.02063014615887 89.34261034861397 -2.2300244007093766
    vertex 65.14189643543259 89.33230031345596 -0.10406940070935396
    vertex 67.0206301461588 89.34261034861397 -0.10406940070934144
  endloop
endfacet
facet normal -0.1305261922200417 0.9914448613738118 -5.767955557622884e-17
  outer loop
    vertex 55.22814451574832 93.99784681718747 -2.230024400709326
    vertex 55.71408451986143 94.0618220324066 -0.10406940070935661
    vertex 55.71408451986143 94.0618220324066 -2.2300244007093317
  endloop
endfacet
facet normal -0.1305261922200417 0.9914448613738118 -5.767955557622884e-17
  outer loop
    vertex 55.71408451986143 94.0618220324066 -0.10406940070935661
    vertex 55.22814451574832 93.99784681718747 -2.230024400709326
    vertex 55.228144515748205 93.99784681718747 -0.10406940070938481
  endloop
endfacet
facet normal -5.551115123125783e-17 -0.5644904628323305 0.8254395903828101
  outer loop
    vertex 65.14189643543277 86.39517006475967 -0.8622552003547019
    vertex 67.0206301461588 87.50384526319115 -0.10406940070934144
    vertex 65.14189643543259 87.50384526319115 -0.10406940070935396
  endloop
endfacet
facet normal -5.551115123125783e-17 -0.5644904628323305 0.8254395903828101
  outer loop
    vertex 67.0206301461588 87.50384526319115 -0.10406940070934144
    vertex 65.14189643543277 86.39517006475967 -0.8622552003547019
    vertex 67.0206301461589 86.39517006475967 -0.8622552003547083
  endloop
endfacet
facet normal 1.0 0.0 6.557254739192331e-16
  outer loop
    vertex 65.14189643543259 87.50384526319115 -0.10406940070935396
    vertex 65.14189643543259 86.39517006475967 -0.10406940070935396
    vertex 65.14189643543277 86.39517006475967 -0.8622552003547019
  endloop
endfacet
facet normal 1.0 0.0 6.557254739192331e-16
  outer loop
    vertex 43.25126535545642 105.21944406475967 -0.10406940070937229
    vertex 43.25126535545642 103.60317863376672 -0.10406940070937229
    vertex 43.25126535545644 105.21944406475967 -0.8622552003547019
  endloop
endfacet
facet normal -0.000583412376668719 0.42524646424709434 0.9050774023669709
  outer loop
    vertex 45.12999906618255 103.60833365134573 -0.10406940070936048
    vertex 43.25126535545644 105.21944406475967 -0.8622552003547019
    vertex 43.25126535545642 103.60317863376672 -0.10406940070937229
  endloop
endfacet
facet normal -0.000583412376668719 0.42524646424709434 0.9050774023669709
  outer loop
    vertex 43.25126535545644 105.21944406475967 -0.8622552003547019
    vertex 45.12999906618255 103.60833365134573 -0.10406940070936048
    vertex 45.12999906618256 105.21944406475967 -0.8622552003547199
  endloop
endfacet
facet normal -1.0 0.0 -6.557254739192331e-16
  outer loop
    vertex 45.12999906618256 105.21944406475967 -0.8622552003547199
    vertex 45.12999906618255 103.60833365134573 -0.10406940070936048
    vertex 45.12999906618255 105.21944406475967 -0.10406940070936048
  endloop
endfacet
facet normal 1.0 0.0 6.557254739192331e-16
  outer loop
    vertex 65.12403893071114 105.21944406475967 -0.10406940070935185
    vertex 65.12403893071114 103.60833365134573 -0.10406940070935185
    vertex 65.12403893071118 105.21944406475967 -0.8622552003547246
  endloop
endfacet
facet normal -1.0 0.0 -6.557254739192331e-16
  outer loop
    vertex 67.00277264143735 105.21944406475967 -0.862255200354692
    vertex 67.00277264143737 103.60833365134573 -0.10406940070934956
    vertex 67.00277264143737 105.21944406475967 -0.10406940070934956
  endloop
endfacet
facet normal -3.5735303605122216e-16 0.42580448181710084 0.9048151984048843
  outer loop
    vertex 67.00277264143737 103.60833365134573 -0.10406940070934956
    vertex 65.12403893071118 105.21944406475967 -0.8622552003547246
    vertex 65.12403893071114 103.60833365134573 -0.10406940070935185
  endloop
endfacet
facet normal -3.5735303605122216e-16 0.42580448181710084 0.9048151984048843
  outer loop
    vertex 65.12403893071118 105.21944406475967 -0.8622552003547246
    vertex 67.00277264143737 103.60833365134573 -0.10406940070934956
    vertex 67.00277264143735 105.21944406475967 -0.862255200354692
  endloop
endfacet
facet normal -6.557254739192331e-16 0.0 1.0
  outer loop
    vertex 73.03345562836337 86.39517006475967 -0.10406940070935096
    vertex 67.0206301461588 87.50384526319115 -0.10406940070934144
    vertex 67.0206301461588 86.39517006475967 -0.10406940070934144
  endloop
endfacet
facet normal -6.557254739192331e-16 0.0 1.0
  outer loop
    vertex 67.0206301461588 87.50384526319115 -0.10406940070934144
    vertex 73.03345562836337 86.39517006475967 -0.10406940070935096
    vertex 67.0206301461588 89.34261034861397 -0.10406940070934144
  endloop
endfacet
facet normal -6.557254739192331e-16 0.0 1.0
  outer loop
    vertex 67.0206301461588 89.34261034861397 -0.10406940070934144
    vertex 73.03345562836337 86.39517006475967 -0.10406940070935096
    vertex 67.95106824916122 90.97479648662807 -0.10406940070935942
  endloop
endfacet
facet normal -6.557254739192331e-16 0.0 1.0
  outer loop
    vertex 67.95106824916122 90.97479648662807 -0.10406940070935942
    vertex 73.03345562836337 86.39517006475967 -0.10406940070935096
    vertex 67.95106824916122 100.36503709991769 -0.10406940070935942
  endloop
endfacet
facet normal -6.557254739192331e-16 0.0 1.0
  outer loop
    vertex 67.00277264143737 101.98691320277376 -0.10406940070934956
    vertex 65.12403893071114 103.60833365134573 -0.10406940070935185
    vertex 65.12403893071114 101.97660316761575 -0.10406940070935185
  endloop
endfacet
facet normal -6.557254739192331e-16 0.0 1.0
  outer loop
    vertex 65.12403893071114 103.60833365134573 -0.10406940070935185
    vertex 67.00277264143737 101.98691320277376 -0.10406940070934956
    vertex 67.00277264143737 103.60833365134573 -0.10406940070934956
  endloop
endfacet
facet normal -6.557254739192331e-16 0.0 1.0
  outer loop
    vertex 67.00277264143737 103.60833365134573 -0.10406940070934956
    vertex 67.00277264143737 101.98691320277376 -0.10406940070934956
    vertex 67.95106824916122 100.36503709991769 -0.10406940070935942
  endloop
endfacet
facet normal -6.557254739192331e-16 0.0 1.0
  outer loop
    vertex 67.00277264143737 103.60833365134573 -0.10406940070934956
    vertex 67.95106824916122 100.36503709991769 -0.10406940070935942
    vertex 67.00277264143737 105.21944406475967 -0.10406940070934956
  endloop
endfacet
facet normal -6.557254739192331e-16 0.0 1.0
  outer loop
    vertex 67.00277264143737 105.21944406475967 -0.10406940070934956
    vertex 67.95106824916122 100.36503709991769 -0.10406940070935942
    vertex 73.03345562836337 105.21944406475967 -0.10406940070935096
  endloop
endfacet
facet normal -6.557254739192331e-16 0.0 1.0
  outer loop
    vertex 73.03345562836337 105.21944406475967 -0.10406940070935096
    vertex 67.95106824916122 100.36503709991769 -0.10406940070935942
    vertex 73.03345562836337 86.39517006475967 -0.10406940070935096
  endloop
endfacet
facet normal -6.557254739192331e-16 0.0 1.0
  outer loop
    vertex 65.12403893071114 92.58636255432614 -0.10406940070935185
    vertex 64.19360082770889 100.34441702960166 -0.10406940070936366
    vertex 64.19360082770889 90.95417641631204 -0.10406940070936366
  endloop
endfacet
facet normal -6.557254739192331e-16 0.0 1.0
  outer loop
    vertex 64.19360082770889 100.34441702960166 -0.10406940070936366
    vertex 65.12403893071114 92.58636255432614 -0.10406940070935185
    vertex 65.14189643543259 98.72254092674558 -0.10406940070935396
  endloop
endfacet
facet normal -6.557254739192331e-16 0.0 1.0
  outer loop
    vertex 65.14189643543259 98.72254092674558 -0.10406940070935396
    vertex 65.12403893071114 92.58636255432614 -0.10406940070935185
    vertex 67.00277264143737 92.59667258948414 -0.10406940070934956
  endloop
endfacet
facet normal -6.557254739192331e-16 0.0 1.0
  outer loop
    vertex 65.14189643543259 98.72254092674558 -0.10406940070935396
    vertex 67.00277264143737 92.59667258948414 -0.10406940070934956
    vertex 67.0206301461588 98.7328509619036 -0.10406940070934144
  endloop
endfacet
facet normal -6.557254739192331e-16 0.0 1.0
  outer loop
    vertex 67.0206301461588 98.7328509619036 -0.10406940070934144
    vertex 67.00277264143737 92.59667258948414 -0.10406940070934956
    vertex 67.95106824916122 90.97479648662807 -0.10406940070935942
  endloop
endfacet
facet normal -6.557254739192331e-16 0.0 1.0
  outer loop
    vertex 67.0206301461588 98.7328509619036 -0.10406940070934144
    vertex 67.95106824916122 90.97479648662807 -0.10406940070935942
    vertex 67.95106824916122 100.36503709991769 -0.10406940070935942
  endloop
endfacet
facet normal -6.557254739192331e-16 0.0 1.0
  outer loop
    vertex 65.14189643543259 86.39517006475967 -0.10406940070935396
    vertex 45.147856570904146 87.53467019631219 -0.10406940070935485
    vertex 45.147856570904146 86.39517006475967 -0.10406940070935485
  endloop
endfacet
facet normal -6.557254739192331e-16 0.0 1.0
  outer loop
    vertex 45.147856570904146 87.53467019631219 -0.10406940070935485
    vertex 65.14189643543259 86.39517006475967 -0.10406940070935396
    vertex 45.147856570904146 89.48689077106008 -0.10406940070935485
  endloop
endfacet
facet normal -6.557254739192331e-16 0.0 1.0
  outer loop
    vertex 45.147856570904146 89.48689077106008 -0.10406940070935485
    vertex 65.14189643543259 86.39517006475967 -0.10406940070935396
    vertex 46.078294673906434 91.11907690907418 -0.10406940070936153
  endloop
endfacet
facet normal -6.557254739192331e-16 0.0 1.0
  outer loop
    vertex 46.078294673906434 91.11907690907418 -0.10406940070936153
    vertex 65.14189643543259 86.39517006475967 -0.10406940070935396
    vertex 54.289380515748206 94.24938787287087 -0.1040694007094033
  endloop
endfacet
facet normal -6.557254739192331e-16 0.0 1.0
  outer loop
    vertex 46.078294673906434 91.11907690907418 -0.10406940070936153
    vertex 54.289380515748206 94.24938787287087 -0.1040694007094033
    vertex 46.078294673906434 100.3753471350757 -0.10406940070936153
  endloop
endfacet
facet normal -6.557254739192331e-16 0.0 1.0
  outer loop
    vertex 46.078294673906434 100.3753471350757 -0.10406940070936153
    vertex 54.289380515748206 94.24938787287087 -0.1040694007094033
    vertex 53.90053173508064 94.54776203651984 -0.10406940070937053
  endloop
endfacet
facet normal -6.557254739192331e-16 0.0 1.0
  outer loop
    vertex 46.078294673906434 100.3753471350757 -0.10406940070936153
    vertex 53.90053173508064 94.54776203651984 -0.10406940070937053
    vertex 53.60215757143161 94.93661081718746 -0.10406940070938392
  endloop
endfacet
facet normal -6.557254739192331e-16 0.0 1.0
  outer loop
    vertex 46.078294673906434 100.3753471350757 -0.10406940070936153
    vertex 53.60215757143161 94.93661081718746 -0.10406940070938392
    vertex 53.414591730967395 95.38943481307422 -0.10406940070935677
  endloop
endfacet
facet normal -6.557254739192331e-16 0.0 1.0
  outer loop
    vertex 46.078294673906434 100.3753471350757 -0.10406940070936153
    vertex 53.414591730967395 95.38943481307422 -0.10406940070935677
    vertex 53.350616515748214 95.87537481718746 -0.10406940070940154
  endloop
endfacet
facet normal -6.557254739192331e-16 0.0 1.0
  outer loop
    vertex 54.289380515748206 94.24938787287087 -0.1040694007094033
    vertex 65.14189643543259 86.39517006475967 -0.10406940070935396
    vertex 54.74220451163492 94.0618220324066 -0.10406940070936418
  endloop
endfacet
facet normal -6.557254739192331e-16 0.0 1.0
  outer loop
    vertex 54.74220451163492 94.0618220324066 -0.10406940070936418
    vertex 65.14189643543259 86.39517006475967 -0.10406940070935396
    vertex 55.228144515748205 93.99784681718747 -0.10406940070938481
  endloop
endfacet
facet normal -6.557254739192331e-16 0.0 1.0
  outer loop
    vertex 55.228144515748205 93.99784681718747 -0.10406940070938481
    vertex 65.14189643543259 86.39517006475967 -0.10406940070935396
    vertex 55.71408451986143 94.0618220324066 -0.10406940070935661
  endloop
endfacet
facet normal -6.557254739192331e-16 0.0 1.0
  outer loop
    vertex 55.71408451986143 94.0618220324066 -0.10406940070935661
    vertex 65.14189643543259 86.39517006475967 -0.10406940070935396
    vertex 56.166908515748325 94.24938787287087 -0.10406940070937017
  endloop
endfacet
facet normal -6.557254739192331e-16 0.0 1.0
  outer loop
    vertex 56.166908515748325 94.24938787287087 -0.10406940070937017
    vertex 65.14189643543259 86.39517006475967 -0.10406940070935396
    vertex 56.55575729641598 94.54776203651984 -0.10406940070937828
  endloop
endfacet
facet normal -6.557254739192331e-16 0.0 1.0
  outer loop
    vertex 56.55575729641598 94.54776203651984 -0.10406940070937828
    vertex 65.14189643543259 86.39517006475967 -0.10406940070935396
    vertex 56.85413146006486 94.93661081718747 -0.10406940070937952
  endloop
endfacet
facet normal -6.557254739192331e-16 0.0 1.0
  outer loop
    vertex 56.85413146006486 94.93661081718747 -0.10406940070937952
    vertex 65.14189643543259 86.39517006475967 -0.10406940070935396
    vertex 57.04169730052911 95.38943481307422 -0.10406940070935959
  endloop
endfacet
facet normal -6.557254739192331e-16 0.0 1.0
  outer loop
    vertex 57.04169730052911 95.38943481307422 -0.10406940070935959
    vertex 65.14189643543259 86.39517006475967 -0.10406940070935396
    vertex 57.10567251574837 95.87537481718746 -0.10406940070936964
  endloop
endfacet
facet normal -6.557254739192331e-16 0.0 1.0
  outer loop
    vertex 57.10567251574837 95.87537481718746 -0.10406940070936964
    vertex 65.14189643543259 86.39517006475967 -0.10406940070935396
    vertex 64.19360082770889 90.95417641631204 -0.10406940070936366
  endloop
endfacet
facet normal -6.557254739192331e-16 0.0 1.0
  outer loop
    vertex 64.19360082770889 90.95417641631204 -0.10406940070936366
    vertex 65.14189643543259 86.39517006475967 -0.10406940070935396
    vertex 65.14189643543259 89.33230031345596 -0.10406940070935396
  endloop
endfacet
facet normal -6.557254739192331e-16 0.0 1.0
  outer loop
    vertex 65.14189643543259 89.33230031345596 -0.10406940070935396
    vertex 65.14189643543259 86.39517006475967 -0.10406940070935396
    vertex 65.14189643543259 87.50384526319115 -0.10406940070935396
  endloop
endfacet
facet normal -6.557254739192331e-16 0.0 1.0
  outer loop
    vertex 65.14189643543259 89.33230031345596 -0.10406940070935396
    vertex 65.14189643543259 87.50384526319115 -0.10406940070935396
    vertex 67.0206301461588 87.50384526319115 -0.10406940070934144
  endloop
endfacet
facet normal -6.557254739192331e-16 0.0 1.0
  outer loop
    vertex 65.14189643543259 89.33230031345596 -0.10406940070935396
    vertex 67.0206301461588 87.50384526319115 -0.10406940070934144
    vertex 67.0206301461588 89.34261034861397 -0.10406940070934144
  endloop
endfacet
facet normal -6.557254739192331e-16 0.0 1.0
  outer loop
    vertex 45.12999906618255 101.99722323793178 -0.10406940070936048
    vertex 43.25126535545642 103.60317863376672 -0.10406940070937229
    vertex 43.25126535545642 101.98691320277376 -0.10406940070937229
  endloop
endfacet
facet normal -6.557254739192331e-16 0.0 1.0
  outer loop
    vertex 43.25126535545642 103.60317863376672 -0.10406940070937229
    vertex 45.12999906618255 101.99722323793178 -0.10406940070936048
    vertex 45.12999906618255 103.60833365134573 -0.10406940070936048
  endloop
endfacet
facet normal -6.557254739192331e-16 0.0 1.0
  outer loop
    vertex 45.12999906618255 103.60833365134573 -0.10406940070936048
    vertex 45.12999906618255 101.99722323793178 -0.10406940070936048
    vertex 46.078294673906434 100.3753471350757 -0.10406940070936153
  endloop
endfacet
facet normal -6.557254739192331e-16 0.0 1.0
  outer loop
    vertex 45.12999906618255 103.60833365134573 -0.10406940070936048
    vertex 46.078294673906434 100.3753471350757 -0.10406940070936153
    vertex 45.12999906618255 105.21944406475967 -0.10406940070936048
  endloop
endfacet
facet normal -6.557254739192331e-16 0.0 1.0
  outer loop
    vertex 45.12999906618255 105.21944406475967 -0.10406940070936048
    vertex 46.078294673906434 100.3753471350757 -0.10406940070936153
    vertex 65.12403893071114 105.21944406475967 -0.10406940070935185
  endloop
endfacet
facet normal -6.557254739192331e-16 0.0 1.0
  outer loop
    vertex 65.12403893071114 105.21944406475967 -0.10406940070935185
    vertex 46.078294673906434 100.3753471350757 -0.10406940070936153
    vertex 54.289380515748185 97.50136176150406 -0.10406940070940507
  endloop
endfacet
facet normal -6.557254739192331e-16 0.0 1.0
  outer loop
    vertex 54.289380515748185 97.50136176150406 -0.10406940070940507
    vertex 46.078294673906434 100.3753471350757 -0.10406940070936153
    vertex 53.90053173508064 97.20298759785508 -0.10406940070937053
  endloop
endfacet
facet normal -6.557254739192331e-16 0.0 1.0
  outer loop
    vertex 53.90053173508064 97.20298759785508 -0.10406940070937053
    vertex 46.078294673906434 100.3753471350757 -0.10406940070936153
    vertex 53.60215757143161 96.81413881718747 -0.10406940070938392
  endloop
endfacet
facet normal -6.557254739192331e-16 0.0 1.0
  outer loop
    vertex 53.60215757143161 96.81413881718747 -0.10406940070938392
    vertex 46.078294673906434 100.3753471350757 -0.10406940070936153
    vertex 53.414591730967395 96.36131482130071 -0.10406940070935677
  endloop
endfacet
facet normal -6.557254739192331e-16 0.0 1.0
  outer loop
    vertex 53.414591730967395 96.36131482130071 -0.10406940070935677
    vertex 46.078294673906434 100.3753471350757 -0.10406940070936153
    vertex 53.350616515748214 95.87537481718746 -0.10406940070940154
  endloop
endfacet
facet normal -6.557254739192331e-16 0.0 1.0
  outer loop
    vertex 65.12403893071114 105.21944406475967 -0.10406940070935185
    vertex 54.289380515748185 97.50136176150406 -0.10406940070940507
    vertex 54.74220451163492 97.68892760196833 -0.10406940070936418
  endloop
endfacet
facet normal -6.557254739192331e-16 0.0 1.0
  outer loop
    vertex 65.12403893071114 105.21944406475967 -0.10406940070935185
    vertex 54.74220451163492 97.68892760196833 -0.10406940070936418
    vertex 55.228144515748205 97.75290281718748 -0.10406940070938481
  endloop
endfacet
facet normal -6.557254739192331e-16 0.0 1.0
  outer loop
    vertex 65.12403893071114 105.21944406475967 -0.10406940070935185
    vertex 55.228144515748205 97.75290281718748 -0.10406940070938481
    vertex 55.71408451986143 97.68892760196833 -0.10406940070935661
  endloop
endfacet
facet normal -6.557254739192331e-16 0.0 1.0
  outer loop
    vertex 65.12403893071114 105.21944406475967 -0.10406940070935185
    vertex 55.71408451986143 97.68892760196833 -0.10406940070935661
    vertex 56.166908515748304 97.50136176150406 -0.104069400709364
  endloop
endfacet
facet normal -6.557254739192331e-16 0.0 1.0
  outer loop
    vertex 65.12403893071114 105.21944406475967 -0.10406940070935185
    vertex 56.166908515748304 97.50136176150406 -0.104069400709364
    vertex 56.55575729641598 97.20298759785508 -0.10406940070937828
  endloop
endfacet
facet normal -6.557254739192331e-16 0.0 1.0
  outer loop
    vertex 65.12403893071114 105.21944406475967 -0.10406940070935185
    vertex 56.55575729641598 97.20298759785508 -0.10406940070937828
    vertex 56.85413146006486 96.81413881718747 -0.10406940070937952
  endloop
endfacet
facet normal -6.557254739192331e-16 0.0 1.0
  outer loop
    vertex 65.12403893071114 105.21944406475967 -0.10406940070935185
    vertex 56.85413146006486 96.81413881718747 -0.10406940070937952
    vertex 57.04169730052911 96.36131482130072 -0.10406940070935959
  endloop
endfacet
facet normal -6.557254739192331e-16 0.0 1.0
  outer loop
    vertex 65.12403893071114 105.21944406475967 -0.10406940070935185
    vertex 57.04169730052911 96.36131482130072 -0.10406940070935959
    vertex 57.10567251574837 95.87537481718746 -0.10406940070936964
  endloop
endfacet
facet normal -6.557254739192331e-16 0.0 1.0
  outer loop
    vertex 65.12403893071114 105.21944406475967 -0.10406940070935185
    vertex 57.10567251574837 95.87537481718746 -0.10406940070936964
    vertex 64.19360082770889 100.34441702960166 -0.10406940070936366
  endloop
endfacet
facet normal -6.557254739192331e-16 0.0 1.0
  outer loop
    vertex 64.19360082770889 100.34441702960166 -0.10406940070936366
    vertex 57.10567251574837 95.87537481718746 -0.10406940070936964
    vertex 64.19360082770889 90.95417641631204 -0.10406940070936366
  endloop
endfacet
facet normal -6.557254739192331e-16 0.0 1.0
  outer loop
    vertex 65.12403893071114 105.21944406475967 -0.10406940070935185
    vertex 64.19360082770889 100.34441702960166 -0.10406940070936366
    vertex 65.12403893071114 101.97660316761575 -0.10406940070935185
  endloop
endfacet
facet normal -6.557254739192331e-16 0.0 1.0
  outer loop
    vertex 65.12403893071114 105.21944406475967 -0.10406940070935185
    vertex 65.12403893071114 101.97660316761575 -0.10406940070935185
    vertex 65.12403893071114 103.60833365134573 -0.10406940070935185
  endloop
endfacet
facet normal -6.557254739192331e-16 0.0 1.0
  outer loop
    vertex 43.25126535545642 92.73064297677224 -0.10406940070937229
    vertex 42.320827252454066 100.35472706475967 -0.10406940070935906
    vertex 42.320827252454066 91.09845683875815 -0.10406940070935906
  endloop
endfacet
facet normal -6.557254739192331e-16 0.0 1.0
  outer loop
    vertex 42.320827252454066 100.35472706475967 -0.10406940070935906
    vertex 43.25126535545642 92.73064297677224 -0.10406940070937229
    vertex 43.26912286017791 98.7328509619036 -0.10406940070937705
  endloop
endfacet
facet normal -6.557254739192331e-16 0.0 1.0
  outer loop
    vertex 43.26912286017791 98.7328509619036 -0.10406940070937705
    vertex 43.25126535545642 92.73064297677224 -0.10406940070937229
    vertex 45.12999906618255 92.74095301193026 -0.10406940070936048
  endloop
endfacet
facet normal -6.557254739192331e-16 0.0 1.0
  outer loop
    vertex 43.26912286017791 98.7328509619036 -0.10406940070937705
    vertex 45.12999906618255 92.74095301193026 -0.10406940070936048
    vertex 45.147856570904146 98.7431609970616 -0.10406940070935485
  endloop
endfacet
facet normal -6.557254739192331e-16 0.0 1.0
  outer loop
    vertex 45.147856570904146 98.7431609970616 -0.10406940070935485
    vertex 45.12999906618255 92.74095301193026 -0.10406940070936048
    vertex 46.078294673906434 91.11907690907418 -0.10406940070936153
  endloop
endfacet
facet normal -6.557254739192331e-16 0.0 1.0
  outer loop
    vertex 45.147856570904146 98.7431609970616 -0.10406940070935485
    vertex 46.078294673906434 91.11907690907418 -0.10406940070936153
    vertex 46.078294673906434 100.3753471350757 -0.10406940070936153
  endloop
endfacet
facet normal -6.557254739192331e-16 0.0 1.0
  outer loop
    vertex 43.26912286017791 86.39517006475967 -0.10406940070937705
    vertex 36.162726628363316 105.21944406475967 -0.10406940070937916
    vertex 36.162726628363316 86.39517006475967 -0.10406940070937916
  endloop
endfacet
facet normal -6.557254739192331e-16 0.0 1.0
  outer loop
    vertex 36.162726628363316 105.21944406475967 -0.10406940070937916
    vertex 43.26912286017791 86.39517006475967 -0.10406940070937705
    vertex 42.320827252454066 91.09845683875815 -0.10406940070935906
  endloop
endfacet
facet normal -6.557254739192331e-16 0.0 1.0
  outer loop
    vertex 42.320827252454066 91.09845683875815 -0.10406940070935906
    vertex 43.26912286017791 86.39517006475967 -0.10406940070937705
    vertex 43.26912286017791 89.47658073590206 -0.10406940070937705
  endloop
endfacet
facet normal -6.557254739192331e-16 0.0 1.0
  outer loop
    vertex 43.26912286017791 89.47658073590206 -0.10406940070937705
    vertex 43.26912286017791 86.39517006475967 -0.10406940070937705
    vertex 43.26912286017791 87.53467019631219 -0.10406940070937705
  endloop
endfacet
facet normal -6.557254739192331e-16 0.0 1.0
  outer loop
    vertex 43.26912286017791 89.47658073590206 -0.10406940070937705
    vertex 43.26912286017791 87.53467019631219 -0.10406940070937705
    vertex 45.147856570904146 87.53467019631219 -0.10406940070935485
  endloop
endfacet
facet normal -6.557254739192331e-16 0.0 1.0
  outer loop
    vertex 43.26912286017791 89.47658073590206 -0.10406940070937705
    vertex 45.147856570904146 87.53467019631219 -0.10406940070935485
    vertex 45.147856570904146 89.48689077106008 -0.10406940070935485
  endloop
endfacet
facet normal -6.557254739192331e-16 0.0 1.0
  outer loop
    vertex 36.162726628363316 105.21944406475967 -0.10406940070937916
    vertex 42.320827252454066 100.35472706475967 -0.10406940070935906
    vertex 43.25126535545642 105.21944406475967 -0.10406940070937229
  endloop
endfacet
facet normal -6.557254739192331e-16 0.0 1.0
  outer loop
    vertex 42.320827252454066 100.35472706475967 -0.10406940070935906
    vertex 36.162726628363316 105.21944406475967 -0.10406940070937916
    vertex 42.320827252454066 91.09845683875815 -0.10406940070935906
  endloop
endfacet
facet normal -6.557254739192331e-16 0.0 1.0
  outer loop
    vertex 43.25126535545642 105.21944406475967 -0.10406940070937229
    vertex 42.320827252454066 100.35472706475967 -0.10406940070935906
    vertex 43.25126535545642 101.98691320277376 -0.10406940070937229
  endloop
endfacet
facet normal -6.557254739192331e-16 0.0 1.0
  outer loop
    vertex 43.25126535545642 105.21944406475967 -0.10406940070937229
    vertex 43.25126535545642 101.98691320277376 -0.10406940070937229
    vertex 43.25126535545642 103.60317863376672 -0.10406940070937229
  endloop
endfacet
facet normal 1.0 0.0 6.557254739192331e-16
  outer loop
    vertex 43.26912286017791 87.53467019631219 -0.10406940070937705
    vertex 43.26912286017791 86.39517006475967 -0.10406940070937705
    vertex 43.26912286017785 86.39517006475967 -0.8622552003546935
  endloop
endfacet
facet normal -1.0 0.0 -6.557254739192331e-16
  outer loop
    vertex 45.147856570904146 87.53467019631219 -0.10406940070935485
    vertex 45.14785657090416 86.39517006475967 -0.8622552003546826
    vertex 45.147856570904146 86.39517006475967 -0.10406940070935485
  endloop
endfacet
facet normal -8.049116928532385e-16 -0.5539508770289898 0.8325493533952286
  outer loop
    vertex 45.14785657090416 86.39517006475967 -0.8622552003546826
    vertex 43.26912286017791 87.53467019631219 -0.10406940070937705
    vertex 43.26912286017785 86.39517006475967 -0.8622552003546935
  endloop
endfacet
facet normal -8.049116928532385e-16 -0.5539508770289898 0.8325493533952286
  outer loop
    vertex 43.26912286017791 87.53467019631219 -0.10406940070937705
    vertex 45.14785657090416 86.39517006475967 -0.8622552003546826
    vertex 45.147856570904146 87.53467019631219 -0.10406940070935485
  endloop
endfacet
endsolid camera-plate-down
