solid Untitled-591d6af5
facet normal 0.9618888549108848 0.2734407262977238 -0.0
  outer loop
    vertex 123.23783555137612 100.30032996536927 7.049916206369744e-15
    vertex 123.48398296439376 99.43445143859478 6.59267900000001
    vertex 123.48398296439376 99.43445143859478 7.049916206369744e-15
  endloop
endfacet
facet normal 0.9618888549108848 0.2734407262977238 -0.0
  outer loop
    vertex 123.48398296439376 99.43445143859478 6.59267900000001
    vertex 123.23783555137612 100.30032996536927 7.049916206369744e-15
    vertex 123.23783555137612 100.30032996536927 6.59267900000001
  endloop
endfacet
facet normal 0.9998849546505586 0.015168304567436905 -0.0
  outer loop
    vertex 123.48398296439376 99.43445143859478 7.049916206369744e-15
    vertex 123.49763725422721 98.5343693687625 6.59267900000001
    vertex 123.49763725422721 98.5343693687625 7.049916206369744e-15
  endloop
endfacet
facet normal 0.9998849546505586 0.015168304567436905 -0.0
  outer loop
    vertex 123.49763725422721 98.5343693687625 6.59267900000001
    vertex 123.48398296439376 99.43445143859478 7.049916206369744e-15
    vertex 123.48398296439376 99.43445143859478 6.59267900000001
  endloop
endfacet
facet normal 0.9697405471188216 -0.24413781205230922 -0.0
  outer loop
    vertex 123.49763725422721 98.5343693687625 7.049916206369744e-15
    vertex 123.2778679035891 97.66142286147551 6.59267900000001
    vertex 123.2778679035891 97.66142286147551 7.049916206369744e-15
  endloop
endfacet
facet normal 0.9697405471188216 -0.24413781205230922 -0.0
  outer loop
    vertex 123.2778679035891 97.66142286147551 6.59267900000001
    vertex 123.49763725422721 98.5343693687625 7.049916206369744e-15
    vertex 123.49763725422721 98.5343693687625 6.59267900000001
  endloop
endfacet
facet normal 0.8735099238729672 -0.4868063402375151 -0.0
  outer loop
    vertex 123.2778679035891 97.66142286147551 7.049916206369744e-15
    vertex 122.8396518305394 96.87510177859315 6.59267900000001
    vertex 122.8396518305394 96.87510177859315 7.049916206369744e-15
  endloop
endfacet
facet normal 0.8735099238729672 -0.4868063402375151 -0.0
  outer loop
    vertex 122.8396518305394 96.87510177859315 6.59267900000001
    vertex 123.2778679035891 97.66142286147551 7.049916206369744e-15
    vertex 123.2778679035891 97.66142286147551 6.59267900000001
  endloop
endfacet
facet normal 0.7177510428585442 -0.6962998208210831 -0.0
  outer loop
    vertex 122.8396518305394 96.87510177859315 7.049916206369744e-15
    vertex 122.21285273627005 96.22899260245678 6.59267900000001
    vertex 122.21285273627005 96.22899260245678 7.049916206369744e-15
  endloop
endfacet
facet normal 0.7177510428585442 -0.6962998208210831 -0.0
  outer loop
    vertex 122.21285273627005 96.22899260245678 6.59267900000001
    vertex 122.8396518305394 96.87510177859315 7.049916206369744e-15
    vertex 122.8396518305394 96.87510177859315 6.59267900000001
  endloop
endfacet
facet normal 0.5130786144130217 -0.8583416193055151 0.0
  outer loop
    vertex 122.21285273627005 96.22899260245678 6.59267900000001
    vertex 121.44018594322114 95.76712660567424 7.049916206369744e-15
    vertex 122.21285273627005 96.22899260245678 7.049916206369744e-15
  endloop
endfacet
facet normal 0.5130786144130217 -0.8583416193055151 0.0
  outer loop
    vertex 121.44018594322114 95.76712660567424 7.049916206369744e-15
    vertex 122.21285273627005 96.22899260245678 6.59267900000001
    vertex 121.44018594322114 95.76712660567424 6.59267900000001
  endloop
endfacet
facet normal -0.0 -0.0 1.0
  outer loop
    vertex 116.66083517050845 98.43065474060367 6.59267900000001
    vertex 116.86695023131308 100.20368331772293 6.59267900000001
    vertex 116.64718088067498 99.33073681043595 6.59267900000001
  endloop
endfacet
facet normal -0.0 -0.0 1.0
  outer loop
    vertex 116.86695023131308 100.20368331772293 6.59267900000001
    vertex 116.66083517050845 98.43065474060367 6.59267900000001
    vertex 116.90698258352612 97.56477621382918 6.59267900000001
  endloop
endfacet
facet normal -0.0 -0.0 1.0
  outer loop
    vertex 116.86695023131308 100.20368331772293 6.59267900000001
    vertex 116.90698258352612 97.56477621382918 6.59267900000001
    vertex 117.30516630436284 100.9900044006053 6.59267900000001
  endloop
endfacet
facet normal -0.0 -0.0 1.0
  outer loop
    vertex 117.30516630436284 100.9900044006053 6.59267900000001
    vertex 116.90698258352612 97.56477621382918 6.59267900000001
    vertex 117.36884858030865 96.79210942078028 6.59267900000001
  endloop
endfacet
facet normal -0.0 -0.0 1.0
  outer loop
    vertex 117.30516630436284 100.9900044006053 6.59267900000001
    vertex 117.36884858030865 96.79210942078028 6.59267900000001
    vertex 117.93196539863216 101.63611357674166 6.59267900000001
  endloop
endfacet
facet normal -0.0 -0.0 1.0
  outer loop
    vertex 117.93196539863216 101.63611357674166 6.59267900000001
    vertex 117.36884858030865 96.79210942078028 6.59267900000001
    vertex 117.968487916684 98.98135190642789 6.59267900000001
  endloop
endfacet
facet normal -0.0 -0.0 1.0
  outer loop
    vertex 117.968487916684 98.98135190642789 6.59267900000001
    vertex 117.36884858030865 96.79210942078028 6.59267900000001
    vertex 118.01495775644501 96.16531032651096 6.59267900000001
  endloop
endfacet
facet normal -0.0 -0.0 1.0
  outer loop
    vertex 117.968487916684 98.98135190642789 6.59267900000001
    vertex 118.01495775644501 96.16531032651096 6.59267900000001
    vertex 118.02754722827561 98.43515426385385 6.59267900000001
  endloop
endfacet
facet normal -0.0 -0.0 1.0
  outer loop
    vertex 118.02754722827561 98.43515426385385 6.59267900000001
    vertex 118.01495775644501 96.16531032651096 6.59267900000001
    vertex 118.80127883932738 95.72709425346123 6.59267900000001
  endloop
endfacet
facet normal -0.0 -0.0 1.0
  outer loop
    vertex 118.02754722827561 98.43515426385385 6.59267900000001
    vertex 118.80127883932738 95.72709425346123 6.59267900000001
    vertex 118.22596049491308 97.92285352926393 6.59267900000001
  endloop
endfacet
facet normal -0.0 -0.0 1.0
  outer loop
    vertex 118.22596049491308 97.92285352926393 6.59267900000001
    vertex 118.80127883932738 95.72709425346123 6.59267900000001
    vertex 118.55020618036846 97.47936215110344 6.59267900000001
  endloop
endfacet
facet normal -0.0 -0.0 1.0
  outer loop
    vertex 118.55020618036846 97.47936215110344 6.59267900000001
    vertex 118.80127883932738 95.72709425346123 6.59267900000001
    vertex 118.97818747701932 97.13490333388987 6.59267900000001
  endloop
endfacet
facet normal -0.0 -0.0 1.0
  outer loop
    vertex 118.97818747701932 97.13490333388987 6.59267900000001
    vertex 118.80127883932738 95.72709425346123 6.59267900000001
    vertex 119.67422534661436 95.5073249028231 6.59267900000001
  endloop
endfacet
facet normal -0.0 -0.0 1.0
  outer loop
    vertex 118.97818747701932 97.13490333388987 6.59267900000001
    vertex 119.67422534661436 95.5073249028231 6.59267900000001
    vertex 119.4807381667714 96.9129513767712 6.59267900000001
  endloop
endfacet
facet normal -0.0 -0.0 1.0
  outer loop
    vertex 119.4807381667714 96.9129513767712 6.59267900000001
    vertex 119.67422534661436 95.5073249028231 6.59267900000001
    vertex 120.02361025062244 96.82863193883213 6.59267900000001
  endloop
endfacet
facet normal -0.0 -0.0 1.0
  outer loop
    vertex 120.02361025062244 96.82863193883213 6.59267900000001
    vertex 119.67422534661436 95.5073249028231 6.59267900000001
    vertex 120.57430741644664 95.52097919265657 6.59267900000001
  endloop
endfacet
facet normal -0.0 -0.0 1.0
  outer loop
    vertex 120.02361025062244 96.82863193883213 6.59267900000001
    vertex 120.57430741644664 95.52097919265657 6.59267900000001
    vertex 120.56980789319647 96.88769125042374 6.59267900000001
  endloop
endfacet
facet normal -0.0 -0.0 1.0
  outer loop
    vertex 120.56980789319647 96.88769125042374 6.59267900000001
    vertex 120.57430741644664 95.52097919265657 6.59267900000001
    vertex 121.08210862778638 97.0861045170612 6.59267900000001
  endloop
endfacet
facet normal -0.0 -0.0 1.0
  outer loop
    vertex 121.08210862778638 97.0861045170612 6.59267900000001
    vertex 120.57430741644664 95.52097919265657 6.59267900000001
    vertex 121.44018594322114 95.76712660567424 6.59267900000001
  endloop
endfacet
facet normal -0.0 -0.0 1.0
  outer loop
    vertex 121.08210862778638 97.0861045170612 6.59267900000001
    vertex 121.44018594322114 95.76712660567424 6.59267900000001
    vertex 121.52560000594688 97.41035020251657 6.59267900000001
  endloop
endfacet
facet normal -0.0 -0.0 1.0
  outer loop
    vertex 121.52560000594688 97.41035020251657 6.59267900000001
    vertex 121.44018594322114 95.76712660567424 6.59267900000001
    vertex 122.21285273627005 96.22899260245678 6.59267900000001
  endloop
endfacet
facet normal -0.0 -0.0 1.0
  outer loop
    vertex 121.52560000594688 97.41035020251657 6.59267900000001
    vertex 122.21285273627005 96.22899260245678 6.59267900000001
    vertex 121.87005882316046 97.83833149916742 6.59267900000001
  endloop
endfacet
facet normal -0.0 -0.0 1.0
  outer loop
    vertex 121.87005882316046 97.83833149916742 6.59267900000001
    vertex 122.21285273627005 96.22899260245678 6.59267900000001
    vertex 122.09201078027913 98.34088218891954 6.59267900000001
  endloop
endfacet
facet normal -0.0 -0.0 1.0
  outer loop
    vertex 122.09201078027913 98.34088218891954 6.59267900000001
    vertex 122.21285273627005 96.22899260245678 6.59267900000001
    vertex 122.17633021821821 98.88375427277055 6.59267900000001
  endloop
endfacet
facet normal -0.0 -0.0 1.0
  outer loop
    vertex 117.93196539863216 101.63611357674166 6.59267900000001
    vertex 118.05280735462308 99.52422399027891 6.59267900000001
    vertex 118.70463219168106 102.09797957352423 6.59267900000001
  endloop
endfacet
facet normal -0.0 -0.0 1.0
  outer loop
    vertex 118.05280735462308 99.52422399027891 6.59267900000001
    vertex 117.93196539863216 101.63611357674166 6.59267900000001
    vertex 117.968487916684 98.98135190642789 6.59267900000001
  endloop
endfacet
facet normal -0.0 -0.0 1.0
  outer loop
    vertex 118.70463219168106 102.09797957352423 6.59267900000001
    vertex 118.05280735462308 99.52422399027891 6.59267900000001
    vertex 118.27475931174175 100.02677468003101 6.59267900000001
  endloop
endfacet
facet normal -0.0 -0.0 1.0
  outer loop
    vertex 118.70463219168106 102.09797957352423 6.59267900000001
    vertex 118.27475931174175 100.02677468003101 6.59267900000001
    vertex 118.6192181289553 100.45475597668187 6.59267900000001
  endloop
endfacet
facet normal -0.0 -0.0 1.0
  outer loop
    vertex 118.70463219168106 102.09797957352423 6.59267900000001
    vertex 118.6192181289553 100.45475597668187 6.59267900000001
    vertex 119.06270950711578 100.77900166213725 6.59267900000001
  endloop
endfacet
facet normal -0.0 -0.0 1.0
  outer loop
    vertex 118.70463219168106 102.09797957352423 6.59267900000001
    vertex 119.06270950711578 100.77900166213725 6.59267900000001
    vertex 119.57051071845555 102.34412698654187 6.59267900000001
  endloop
endfacet
facet normal -0.0 -0.0 1.0
  outer loop
    vertex 119.57051071845555 102.34412698654187 6.59267900000001
    vertex 119.06270950711578 100.77900166213725 6.59267900000001
    vertex 119.57501024170573 100.97741492877469 6.59267900000001
  endloop
endfacet
facet normal -0.0 -0.0 1.0
  outer loop
    vertex 119.57051071845555 102.34412698654187 6.59267900000001
    vertex 119.57501024170573 100.97741492877469 6.59267900000001
    vertex 120.47059278828782 102.35778127637535 6.59267900000001
  endloop
endfacet
facet normal -0.0 -0.0 1.0
  outer loop
    vertex 120.47059278828782 102.35778127637535 6.59267900000001
    vertex 119.57501024170573 100.97741492877469 6.59267900000001
    vertex 120.12120788427976 101.03647424036632 6.59267900000001
  endloop
endfacet
facet normal -0.0 -0.0 1.0
  outer loop
    vertex 120.47059278828782 102.35778127637535 6.59267900000001
    vertex 120.12120788427976 101.03647424036632 6.59267900000001
    vertex 120.66407996813079 100.95215480242724 6.59267900000001
  endloop
endfacet
facet normal -0.0 -0.0 1.0
  outer loop
    vertex 120.47059278828782 102.35778127637535 6.59267900000001
    vertex 120.66407996813079 100.95215480242724 6.59267900000001
    vertex 121.3435392955748 102.1380119257372 6.59267900000001
  endloop
endfacet
facet normal -0.0 -0.0 1.0
  outer loop
    vertex 121.3435392955748 102.1380119257372 6.59267900000001
    vertex 120.66407996813079 100.95215480242724 6.59267900000001
    vertex 121.16663065788288 100.73020284530858 6.59267900000001
  endloop
endfacet
facet normal -0.0 -0.0 1.0
  outer loop
    vertex 121.3435392955748 102.1380119257372 6.59267900000001
    vertex 121.16663065788288 100.73020284530858 6.59267900000001
    vertex 121.59461195453373 100.385744028095 6.59267900000001
  endloop
endfacet
facet normal -0.0 -0.0 1.0
  outer loop
    vertex 121.3435392955748 102.1380119257372 6.59267900000001
    vertex 121.59461195453373 100.385744028095 6.59267900000001
    vertex 122.1298603784572 101.69979585268747 6.59267900000001
  endloop
endfacet
facet normal -0.0 -0.0 1.0
  outer loop
    vertex 122.1298603784572 101.69979585268747 6.59267900000001
    vertex 121.59461195453373 100.385744028095 6.59267900000001
    vertex 121.91885763998913 99.94225264993452 6.59267900000001
  endloop
endfacet
facet normal -0.0 -0.0 1.0
  outer loop
    vertex 122.1298603784572 101.69979585268747 6.59267900000001
    vertex 121.91885763998913 99.94225264993452 6.59267900000001
    vertex 122.11727090662656 99.4299519153446 6.59267900000001
  endloop
endfacet
facet normal -0.0 -0.0 1.0
  outer loop
    vertex 122.1298603784572 101.69979585268747 6.59267900000001
    vertex 122.11727090662656 99.4299519153446 6.59267900000001
    vertex 122.17633021821821 98.88375427277055 6.59267900000001
  endloop
endfacet
facet normal -0.0 -0.0 1.0
  outer loop
    vertex 122.1298603784572 101.69979585268747 6.59267900000001
    vertex 122.17633021821821 98.88375427277055 6.59267900000001
    vertex 122.77596955459353 101.07299675841818 6.59267900000001
  endloop
endfacet
facet normal -0.0 -0.0 1.0
  outer loop
    vertex 122.77596955459353 101.07299675841818 6.59267900000001
    vertex 122.17633021821821 98.88375427277055 6.59267900000001
    vertex 122.21285273627005 96.22899260245678 6.59267900000001
  endloop
endfacet
facet normal -0.0 -0.0 1.0
  outer loop
    vertex 122.77596955459353 101.07299675841818 6.59267900000001
    vertex 122.21285273627005 96.22899260245678 6.59267900000001
    vertex 122.8396518305394 96.87510177859315 6.59267900000001
  endloop
endfacet
facet normal -0.0 -0.0 1.0
  outer loop
    vertex 122.77596955459353 101.07299675841818 6.59267900000001
    vertex 122.8396518305394 96.87510177859315 6.59267900000001
    vertex 123.23783555137612 100.30032996536927 6.59267900000001
  endloop
endfacet
facet normal -0.0 -0.0 1.0
  outer loop
    vertex 123.23783555137612 100.30032996536927 6.59267900000001
    vertex 122.8396518305394 96.87510177859315 6.59267900000001
    vertex 123.2778679035891 97.66142286147551 6.59267900000001
  endloop
endfacet
facet normal -0.0 -0.0 1.0
  outer loop
    vertex 123.23783555137612 100.30032996536927 6.59267900000001
    vertex 123.2778679035891 97.66142286147551 6.59267900000001
    vertex 123.48398296439376 99.43445143859478 6.59267900000001
  endloop
endfacet
facet normal -0.0 -0.0 1.0
  outer loop
    vertex 123.48398296439376 99.43445143859478 6.59267900000001
    vertex 123.2778679035891 97.66142286147551 6.59267900000001
    vertex 123.49763725422721 98.5343693687625 6.59267900000001
  endloop
endfacet
facet normal 0.6962998208210698 0.7177510428585571 -0.0
  outer loop
    vertex 122.1298603784572 101.69979585268747 6.59267900000001
    vertex 122.77596955459353 101.07299675841818 7.049916206369744e-15
    vertex 122.1298603784572 101.69979585268747 7.049916206369744e-15
  endloop
endfacet
facet normal 0.6962998208210698 0.7177510428585571 -0.0
  outer loop
    vertex 122.77596955459353 101.07299675841818 7.049916206369744e-15
    vertex 122.1298603784572 101.69979585268747 6.59267900000001
    vertex 122.77596955459353 101.07299675841818 6.59267900000001
  endloop
endfacet
facet normal -0.779024073422123 0.6269940135510089 0.0
  outer loop
    vertex 121.87005882316046 97.83833149916742 4.324028000000011
    vertex 121.52560000594688 97.41035020251657 7.049916206369744e-15
    vertex 121.52560000594688 97.41035020251657 4.324028000000011
  endloop
endfacet
facet normal -0.779024073422123 0.6269940135510089 0.0
  outer loop
    vertex 121.52560000594688 97.41035020251657 7.049916206369744e-15
    vertex 121.87005882316046 97.83833149916742 4.324028000000011
    vertex 121.87005882316046 97.83833149916742 7.049916206369744e-15
  endloop
endfacet
facet normal -0.9881516445186906 0.15348070704491693 0.0
  outer loop
    vertex 122.17633021821821 98.88375427277055 4.324028000000011
    vertex 122.09201078027913 98.34088218891954 7.049916206369744e-15
    vertex 122.09201078027913 98.34088218891954 4.324028000000011
  endloop
endfacet
facet normal -0.9881516445186906 0.15348070704491693 0.0
  outer loop
    vertex 122.09201078027913 98.34088218891954 7.049916206369744e-15
    vertex 122.17633021821821 98.88375427277055 4.324028000000011
    vertex 122.17633021821821 98.88375427277055 7.049916206369744e-15
  endloop
endfacet
facet normal -0.15348070704489372 -0.9881516445186941 0.0
  outer loop
    vertex 120.66407996813079 100.95215480242724 4.324028000000011
    vertex 120.12120788427976 101.03647424036632 7.049916206369744e-15
    vertex 120.66407996813079 100.95215480242724 7.049916206369744e-15
  endloop
endfacet
facet normal -0.15348070704489372 -0.9881516445186941 0.0
  outer loop
    vertex 120.12120788427976 101.03647424036632 7.049916206369744e-15
    vertex 120.66407996813079 100.95215480242724 4.324028000000011
    vertex 120.12120788427976 101.03647424036632 4.324028000000011
  endloop
endfacet
facet normal 0.3611576309676724 -0.9325047804670059 0.0
  outer loop
    vertex 119.57501024170573 100.97741492877469 4.324028000000011
    vertex 119.06270950711578 100.77900166213725 7.049916206369744e-15
    vertex 119.57501024170573 100.97741492877469 7.049916206369744e-15
  endloop
endfacet
facet normal 0.3611576309676724 -0.9325047804670059 0.0
  outer loop
    vertex 119.06270950711578 100.77900166213725 7.049916206369744e-15
    vertex 119.57501024170573 100.97741492877469 4.324028000000011
    vertex 119.06270950711578 100.77900166213725 4.324028000000011
  endloop
endfacet
facet normal 0.5902014799470614 -0.8072559774125544 0.0
  outer loop
    vertex 119.06270950711578 100.77900166213725 4.324028000000011
    vertex 118.6192181289553 100.45475597668187 7.049916206369744e-15
    vertex 119.06270950711578 100.77900166213725 7.049916206369744e-15
  endloop
endfacet
facet normal 0.5902014799470614 -0.8072559774125544 0.0
  outer loop
    vertex 118.6192181289553 100.45475597668187 7.049916206369744e-15
    vertex 119.06270950711578 100.77900166213725 4.324028000000011
    vertex 118.6192181289553 100.45475597668187 4.324028000000011
  endloop
endfacet
facet normal -0.9998849546505582 -0.015168304567461962 0.0
  outer loop
    vertex 116.64718088067498 99.33073681043595 6.59267900000001
    vertex 116.66083517050845 98.43065474060367 7.049916206369744e-15
    vertex 116.66083517050845 98.43065474060367 6.59267900000001
  endloop
endfacet
facet normal -0.9998849546505582 -0.015168304567461962 0.0
  outer loop
    vertex 116.66083517050845 98.43065474060367 7.049916206369744e-15
    vertex 116.64718088067498 99.33073681043595 6.59267900000001
    vertex 116.64718088067498 99.33073681043595 7.049916206369744e-15
  endloop
endfacet
facet normal 0.4868063402375236 0.8735099238729626 -0.0
  outer loop
    vertex 121.3435392955748 102.1380119257372 6.59267900000001
    vertex 122.1298603784572 101.69979585268747 7.049916206369744e-15
    vertex 121.3435392955748 102.1380119257372 7.049916206369744e-15
  endloop
endfacet
facet normal 0.4868063402375236 0.8735099238729626 -0.0
  outer loop
    vertex 122.1298603784572 101.69979585268747 7.049916206369744e-15
    vertex 121.3435392955748 102.1380119257372 6.59267900000001
    vertex 122.1298603784572 101.69979585268747 6.59267900000001
  endloop
endfacet
facet normal 0.7790240734221431 -0.6269940135509839 -0.0
  outer loop
    vertex 118.6192181289553 100.45475597668187 7.049916206369744e-15
    vertex 118.27475931174175 100.02677468003101 4.324028000000011
    vertex 118.27475931174175 100.02677468003101 7.049916206369744e-15
  endloop
endfacet
facet normal 0.7790240734221431 -0.6269940135509839 -0.0
  outer loop
    vertex 118.27475931174175 100.02677468003101 4.324028000000011
    vertex 118.6192181289553 100.45475597668187 7.049916206369744e-15
    vertex 118.6192181289553 100.45475597668187 4.324028000000011
  endloop
endfacet
facet normal 0.9147574636916093 -0.4040034438225675 -0.0
  outer loop
    vertex 118.27475931174175 100.02677468003101 7.049916206369744e-15
    vertex 118.05280735462308 99.52422399027891 4.324028000000011
    vertex 118.05280735462308 99.52422399027891 7.049916206369744e-15
  endloop
endfacet
facet normal 0.9147574636916093 -0.4040034438225675 -0.0
  outer loop
    vertex 118.05280735462308 99.52422399027891 4.324028000000011
    vertex 118.27475931174175 100.02677468003101 7.049916206369744e-15
    vertex 118.27475931174175 100.02677468003101 4.324028000000011
  endloop
endfacet
facet normal -0.4868063402375343 -0.8735099238729566 0.0
  outer loop
    vertex 118.80127883932738 95.72709425346123 6.59267900000001
    vertex 118.01495775644501 96.16531032651096 7.049916206369744e-15
    vertex 118.80127883932738 95.72709425346123 7.049916206369744e-15
  endloop
endfacet
facet normal -0.4868063402375343 -0.8735099238729566 0.0
  outer loop
    vertex 118.01495775644501 96.16531032651096 7.049916206369744e-15
    vertex 118.80127883932738 95.72709425346123 6.59267900000001
    vertex 118.01495775644501 96.16531032651096 6.59267900000001
  endloop
endfacet
facet normal -0.8735099238729459 0.4868063402375534 0.0
  outer loop
    vertex 117.30516630436284 100.9900044006053 6.59267900000001
    vertex 116.86695023131308 100.20368331772293 7.049916206369744e-15
    vertex 116.86695023131308 100.20368331772293 6.59267900000001
  endloop
endfacet
facet normal -0.8735099238729459 0.4868063402375534 0.0
  outer loop
    vertex 116.86695023131308 100.20368331772293 7.049916206369744e-15
    vertex 117.30516630436284 100.9900044006053 6.59267900000001
    vertex 117.30516630436284 100.9900044006053 7.049916206369744e-15
  endloop
endfacet
facet normal -0.5130786144130419 0.858341619305503 -0.0
  outer loop
    vertex 117.93196539863216 101.63611357674166 6.59267900000001
    vertex 118.70463219168106 102.09797957352423 7.049916206369744e-15
    vertex 117.93196539863216 101.63611357674166 7.049916206369744e-15
  endloop
endfacet
facet normal -0.5130786144130419 0.858341619305503 -0.0
  outer loop
    vertex 118.70463219168106 102.09797957352423 7.049916206369744e-15
    vertex 117.93196539863216 101.63611357674166 6.59267900000001
    vertex 118.70463219168106 102.09797957352423 6.59267900000001
  endloop
endfacet
facet normal -0.9325047804670117 -0.36115763096765746 0.0
  outer loop
    vertex 121.91885763998913 99.94225264993452 4.324028000000011
    vertex 122.11727090662656 99.4299519153446 7.049916206369744e-15
    vertex 122.11727090662656 99.4299519153446 4.324028000000011
  endloop
endfacet
facet normal -0.9325047804670117 -0.36115763096765746 0.0
  outer loop
    vertex 122.11727090662656 99.4299519153446 7.049916206369744e-15
    vertex 121.91885763998913 99.94225264993452 4.324028000000011
    vertex 121.91885763998913 99.94225264993452 7.049916206369744e-15
  endloop
endfacet
facet normal -0.6962998208210701 -0.7177510428585566 0.0
  outer loop
    vertex 118.01495775644501 96.16531032651096 6.59267900000001
    vertex 117.36884858030865 96.79210942078028 7.049916206369744e-15
    vertex 118.01495775644501 96.16531032651096 7.049916206369744e-15
  endloop
endfacet
facet normal -0.6962998208210701 -0.7177510428585566 0.0
  outer loop
    vertex 117.36884858030865 96.79210942078028 7.049916206369744e-15
    vertex 118.01495775644501 96.16531032651096 6.59267900000001
    vertex 117.36884858030865 96.79210942078028 6.59267900000001
  endloop
endfacet
facet normal -0.27344072629772054 0.9618888549108858 -0.0
  outer loop
    vertex 118.70463219168106 102.09797957352423 6.59267900000001
    vertex 119.57051071845555 102.34412698654187 7.049916206369744e-15
    vertex 118.70463219168106 102.09797957352423 7.049916206369744e-15
  endloop
endfacet
facet normal -0.27344072629772054 0.9618888549108858 -0.0
  outer loop
    vertex 119.57051071845555 102.34412698654187 7.049916206369744e-15
    vertex 118.70463219168106 102.09797957352423 6.59267900000001
    vertex 119.57051071845555 102.34412698654187 6.59267900000001
  endloop
endfacet
facet normal -0.9147574636916093 0.4040034438225675 0.0
  outer loop
    vertex 122.09201078027913 98.34088218891954 4.324028000000011
    vertex 121.87005882316046 97.83833149916742 7.049916206369744e-15
    vertex 121.87005882316046 97.83833149916742 4.324028000000011
  endloop
endfacet
facet normal -0.9147574636916093 0.4040034438225675 0.0
  outer loop
    vertex 121.87005882316046 97.83833149916742 7.049916206369744e-15
    vertex 122.09201078027913 98.34088218891954 4.324028000000011
    vertex 122.09201078027913 98.34088218891954 7.049916206369744e-15
  endloop
endfacet
facet normal -0.8072559774125422 -0.5902014799470784 0.0
  outer loop
    vertex 121.59461195453373 100.385744028095 4.324028000000011
    vertex 121.91885763998913 99.94225264993452 7.049916206369744e-15
    vertex 121.91885763998913 99.94225264993452 4.324028000000011
  endloop
endfacet
facet normal -0.8072559774125422 -0.5902014799470784 0.0
  outer loop
    vertex 121.91885763998913 99.94225264993452 7.049916206369744e-15
    vertex 121.59461195453373 100.385744028095 4.324028000000011
    vertex 121.59461195453373 100.385744028095 7.049916206369744e-15
  endloop
endfacet
facet normal -0.9942049237696312 -0.10750148627912934 0.0
  outer loop
    vertex 122.11727090662656 99.4299519153446 4.324028000000011
    vertex 122.17633021821821 98.88375427277055 7.049916206369744e-15
    vertex 122.17633021821821 98.88375427277055 4.324028000000011
  endloop
endfacet
facet normal -0.9942049237696312 -0.10750148627912934 0.0
  outer loop
    vertex 122.17633021821821 98.88375427277055 7.049916206369744e-15
    vertex 122.11727090662656 99.4299519153446 4.324028000000011
    vertex 122.11727090662656 99.4299519153446 7.049916206369744e-15
  endloop
endfacet
facet normal 0.10750148627907284 -0.9942049237696374 0.0
  outer loop
    vertex 120.12120788427976 101.03647424036632 4.324028000000011
    vertex 119.57501024170573 100.97741492877469 7.049916206369744e-15
    vertex 120.12120788427976 101.03647424036632 7.049916206369744e-15
  endloop
endfacet
facet normal 0.10750148627907284 -0.9942049237696374 0.0
  outer loop
    vertex 119.57501024170573 100.97741492877469 7.049916206369744e-15
    vertex 120.12120788427976 101.03647424036632 4.324028000000011
    vertex 119.57501024170573 100.97741492877469 4.324028000000011
  endloop
endfacet
facet normal 0.8583416193054986 0.5130786144130494 -0.0
  outer loop
    vertex 122.77596955459353 101.07299675841818 7.049916206369744e-15
    vertex 123.23783555137612 100.30032996536927 6.59267900000001
    vertex 123.23783555137612 100.30032996536927 7.049916206369744e-15
  endloop
endfacet
facet normal 0.8583416193054986 0.5130786144130494 -0.0
  outer loop
    vertex 123.23783555137612 100.30032996536927 6.59267900000001
    vertex 122.77596955459353 101.07299675841818 7.049916206369744e-15
    vertex 122.77596955459353 101.07299675841818 6.59267900000001
  endloop
endfacet
facet normal -0.24413781205232105 -0.9697405471188187 0.0
  outer loop
    vertex 119.67422534661436 95.5073249028231 6.59267900000001
    vertex 118.80127883932738 95.72709425346123 7.049916206369744e-15
    vertex 119.67422534661436 95.5073249028231 7.049916206369744e-15
  endloop
endfacet
facet normal -0.24413781205232105 -0.9697405471188187 0.0
  outer loop
    vertex 118.80127883932738 95.72709425346123 7.049916206369744e-15
    vertex 119.67422534661436 95.5073249028231 6.59267900000001
    vertex 118.80127883932738 95.72709425346123 6.59267900000001
  endloop
endfacet
facet normal -0.7177510428585566 0.6962998208210701 0.0
  outer loop
    vertex 117.93196539863216 101.63611357674166 6.59267900000001
    vertex 117.30516630436284 100.9900044006053 7.049916206369744e-15
    vertex 117.30516630436284 100.9900044006053 6.59267900000001
  endloop
endfacet
facet normal -0.7177510428585566 0.6962998208210701 0.0
  outer loop
    vertex 117.30516630436284 100.9900044006053 7.049916206369744e-15
    vertex 117.93196539863216 101.63611357674166 6.59267900000001
    vertex 117.93196539863216 101.63611357674166 7.049916206369744e-15
  endloop
endfacet
facet normal -0.9618888549108783 -0.273440726297747 0.0
  outer loop
    vertex 116.66083517050845 98.43065474060367 6.59267900000001
    vertex 116.90698258352612 97.56477621382918 7.049916206369744e-15
    vertex 116.90698258352612 97.56477621382918 6.59267900000001
  endloop
endfacet
facet normal -0.9618888549108783 -0.273440726297747 0.0
  outer loop
    vertex 116.90698258352612 97.56477621382918 7.049916206369744e-15
    vertex 116.66083517050845 98.43065474060367 6.59267900000001
    vertex 116.66083517050845 98.43065474060367 7.049916206369744e-15
  endloop
endfacet
facet normal 0.24413781205233273 0.9697405471188156 -0.0
  outer loop
    vertex 120.47059278828782 102.35778127637535 6.59267900000001
    vertex 121.3435392955748 102.1380119257372 7.049916206369744e-15
    vertex 120.47059278828782 102.35778127637535 7.049916206369744e-15
  endloop
endfacet
facet normal 0.24413781205233273 0.9697405471188156 -0.0
  outer loop
    vertex 121.3435392955748 102.1380119257372 7.049916206369744e-15
    vertex 120.47059278828782 102.35778127637535 6.59267900000001
    vertex 121.3435392955748 102.1380119257372 6.59267900000001
  endloop
endfacet
facet normal 0.01516830456744962 -0.9998849546505584 0.0
  outer loop
    vertex 120.57430741644664 95.52097919265657 6.59267900000001
    vertex 119.67422534661436 95.5073249028231 7.049916206369744e-15
    vertex 120.57430741644664 95.52097919265657 7.049916206369744e-15
  endloop
endfacet
facet normal 0.01516830456744962 -0.9998849546505584 0.0
  outer loop
    vertex 119.67422534661436 95.5073249028231 7.049916206369744e-15
    vertex 120.57430741644664 95.52097919265657 6.59267900000001
    vertex 119.67422534661436 95.5073249028231 6.59267900000001
  endloop
endfacet
facet normal -0.9697405471188216 0.24413781205230922 0.0
  outer loop
    vertex 116.86695023131308 100.20368331772293 6.59267900000001
    vertex 116.64718088067498 99.33073681043595 7.049916206369744e-15
    vertex 116.64718088067498 99.33073681043595 6.59267900000001
  endloop
endfacet
facet normal -0.9697405471188216 0.24413781205230922 0.0
  outer loop
    vertex 116.64718088067498 99.33073681043595 7.049916206369744e-15
    vertex 116.86695023131308 100.20368331772293 6.59267900000001
    vertex 116.86695023131308 100.20368331772293 7.049916206369744e-15
  endloop
endfacet
facet normal -0.6269940135510089 -0.779024073422123 0.0
  outer loop
    vertex 121.59461195453373 100.385744028095 4.324028000000011
    vertex 121.16663065788288 100.73020284530858 7.049916206369744e-15
    vertex 121.59461195453373 100.385744028095 7.049916206369744e-15
  endloop
endfacet
facet normal -0.6269940135510089 -0.779024073422123 0.0
  outer loop
    vertex 121.16663065788288 100.73020284530858 7.049916206369744e-15
    vertex 121.59461195453373 100.385744028095 4.324028000000011
    vertex 121.16663065788288 100.73020284530858 4.324028000000011
  endloop
endfacet
facet normal -0.4040034438225751 -0.9147574636916059 0.0
  outer loop
    vertex 121.16663065788288 100.73020284530858 4.324028000000011
    vertex 120.66407996813079 100.95215480242724 7.049916206369744e-15
    vertex 121.16663065788288 100.73020284530858 7.049916206369744e-15
  endloop
endfacet
facet normal -0.4040034438225751 -0.9147574636916059 0.0
  outer loop
    vertex 120.66407996813079 100.95215480242724 7.049916206369744e-15
    vertex 121.16663065788288 100.73020284530858 4.324028000000011
    vertex 120.66407996813079 100.95215480242724 4.324028000000011
  endloop
endfacet
facet normal 0.2734407262977437 -0.9618888549108793 0.0
  outer loop
    vertex 121.44018594322114 95.76712660567424 6.59267900000001
    vertex 120.57430741644664 95.52097919265657 7.049916206369744e-15
    vertex 121.44018594322114 95.76712660567424 7.049916206369744e-15
  endloop
endfacet
facet normal 0.2734407262977437 -0.9618888549108793 0.0
  outer loop
    vertex 120.57430741644664 95.52097919265657 7.049916206369744e-15
    vertex 121.44018594322114 95.76712660567424 6.59267900000001
    vertex 120.57430741644664 95.52097919265657 6.59267900000001
  endloop
endfacet
facet normal -0.8583416193055174 -0.5130786144130179 0.0
  outer loop
    vertex 116.90698258352612 97.56477621382918 6.59267900000001
    vertex 117.36884858030865 96.79210942078028 7.049916206369744e-15
    vertex 117.36884858030865 96.79210942078028 6.59267900000001
  endloop
endfacet
facet normal -0.8583416193055174 -0.5130786144130179 0.0
  outer loop
    vertex 117.36884858030865 96.79210942078028 7.049916206369744e-15
    vertex 116.90698258352612 97.56477621382918 6.59267900000001
    vertex 116.90698258352612 97.56477621382918 7.049916206369744e-15
  endloop
endfacet
facet normal -0.01516830456746215 0.9998849546505582 -0.0
  outer loop
    vertex 119.57051071845555 102.34412698654187 6.59267900000001
    vertex 120.47059278828782 102.35778127637535 7.049916206369744e-15
    vertex 119.57051071845555 102.34412698654187 7.049916206369744e-15
  endloop
endfacet
facet normal -0.01516830456746215 0.9998849546505582 -0.0
  outer loop
    vertex 120.47059278828782 102.35778127637535 7.049916206369744e-15
    vertex 119.57051071845555 102.34412698654187 6.59267900000001
    vertex 120.47059278828782 102.35778127637535 6.59267900000001
  endloop
endfacet
facet normal -0.5902014799470419 0.8072559774125687 -0.0
  outer loop
    vertex 121.08210862778638 97.0861045170612 4.324028000000011
    vertex 121.52560000594688 97.41035020251657 7.049916206369744e-15
    vertex 121.08210862778638 97.0861045170612 7.049916206369744e-15
  endloop
endfacet
facet normal -0.5902014799470419 0.8072559774125687 -0.0
  outer loop
    vertex 121.52560000594688 97.41035020251657 7.049916206369744e-15
    vertex 121.08210862778638 97.0861045170612 4.324028000000011
    vertex 121.52560000594688 97.41035020251657 4.324028000000011
  endloop
endfacet
facet normal 0.6269940135510089 0.779024073422123 -0.0
  outer loop
    vertex 118.55020618036846 97.47936215110344 4.324028000000011
    vertex 118.97818747701932 97.13490333388987 7.049916206369744e-15
    vertex 118.55020618036846 97.47936215110344 7.049916206369744e-15
  endloop
endfacet
facet normal 0.6269940135510089 0.779024073422123 -0.0
  outer loop
    vertex 118.97818747701932 97.13490333388987 7.049916206369744e-15
    vertex 118.55020618036846 97.47936215110344 4.324028000000011
    vertex 118.97818747701932 97.13490333388987 4.324028000000011
  endloop
endfacet
facet normal -0.10750148627907284 0.9942049237696374 -0.0
  outer loop
    vertex 120.02361025062244 96.82863193883213 4.324028000000011
    vertex 120.56980789319647 96.88769125042374 7.049916206369744e-15
    vertex 120.02361025062244 96.82863193883213 7.049916206369744e-15
  endloop
endfacet
facet normal -0.10750148627907284 0.9942049237696374 -0.0
  outer loop
    vertex 120.56980789319647 96.88769125042374 7.049916206369744e-15
    vertex 120.02361025062244 96.82863193883213 4.324028000000011
    vertex 120.56980789319647 96.88769125042374 4.324028000000011
  endloop
endfacet
facet normal 0.15348070704489372 0.9881516445186941 -0.0
  outer loop
    vertex 119.4807381667714 96.9129513767712 4.324028000000011
    vertex 120.02361025062244 96.82863193883213 7.049916206369744e-15
    vertex 119.4807381667714 96.9129513767712 7.049916206369744e-15
  endloop
endfacet
facet normal 0.15348070704489372 0.9881516445186941 -0.0
  outer loop
    vertex 120.02361025062244 96.82863193883213 7.049916206369744e-15
    vertex 119.4807381667714 96.9129513767712 4.324028000000011
    vertex 120.02361025062244 96.82863193883213 4.324028000000011
  endloop
endfacet
facet normal 0.8072559774125615 0.5902014799470516 -0.0
  outer loop
    vertex 118.22596049491308 97.92285352926393 7.049916206369744e-15
    vertex 118.55020618036846 97.47936215110344 4.324028000000011
    vertex 118.55020618036846 97.47936215110344 7.049916206369744e-15
  endloop
endfacet
facet normal 0.8072559774125615 0.5902014799470516 -0.0
  outer loop
    vertex 118.55020618036846 97.47936215110344 4.324028000000011
    vertex 118.22596049491308 97.92285352926393 7.049916206369744e-15
    vertex 118.22596049491308 97.92285352926393 4.324028000000011
  endloop
endfacet
facet normal 0.4040034438225751 0.9147574636916059 -0.0
  outer loop
    vertex 118.97818747701932 97.13490333388987 4.324028000000011
    vertex 119.4807381667714 96.9129513767712 7.049916206369744e-15
    vertex 118.97818747701932 97.13490333388987 7.049916206369744e-15
  endloop
endfacet
facet normal 0.4040034438225751 0.9147574636916059 -0.0
  outer loop
    vertex 119.4807381667714 96.9129513767712 7.049916206369744e-15
    vertex 118.97818747701932 97.13490333388987 4.324028000000011
    vertex 119.4807381667714 96.9129513767712 4.324028000000011
  endloop
endfacet
facet normal 0.9881516445186911 -0.1534807070449138 -0.0
  outer loop
    vertex 118.05280735462308 99.52422399027891 7.049916206369744e-15
    vertex 117.968487916684 98.98135190642789 4.324028000000011
    vertex 117.968487916684 98.98135190642789 7.049916206369744e-15
  endloop
endfacet
facet normal 0.9881516445186911 -0.1534807070449138 -0.0
  outer loop
    vertex 117.968487916684 98.98135190642789 4.324028000000011
    vertex 118.05280735462308 99.52422399027891 7.049916206369744e-15
    vertex 118.05280735462308 99.52422399027891 4.324028000000011
  endloop
endfacet
facet normal 0.9942049237696398 0.10750148627905035 -0.0
  outer loop
    vertex 117.968487916684 98.98135190642789 7.049916206369744e-15
    vertex 118.02754722827561 98.43515426385385 4.324028000000011
    vertex 118.02754722827561 98.43515426385385 7.049916206369744e-15
  endloop
endfacet
facet normal 0.9942049237696398 0.10750148627905035 -0.0
  outer loop
    vertex 118.02754722827561 98.43515426385385 4.324028000000011
    vertex 117.968487916684 98.98135190642789 7.049916206369744e-15
    vertex 117.968487916684 98.98135190642789 4.324028000000011
  endloop
endfacet
facet normal 0.932504780466984 0.36115763096772885 -0.0
  outer loop
    vertex 118.02754722827561 98.43515426385385 7.049916206369744e-15
    vertex 118.22596049491308 97.92285352926393 4.324028000000011
    vertex 118.22596049491308 97.92285352926393 7.049916206369744e-15
  endloop
endfacet
facet normal 0.932504780466984 0.36115763096772885 -0.0
  outer loop
    vertex 118.22596049491308 97.92285352926393 4.324028000000011
    vertex 118.02754722827561 98.43515426385385 7.049916206369744e-15
    vertex 118.02754722827561 98.43515426385385 4.324028000000011
  endloop
endfacet
facet normal -0.3611576309676862 0.9325047804670005 -0.0
  outer loop
    vertex 120.56980789319647 96.88769125042374 4.324028000000011
    vertex 121.08210862778638 97.0861045170612 7.049916206369744e-15
    vertex 120.56980789319647 96.88769125042374 7.049916206369744e-15
  endloop
endfacet
facet normal -0.3611576309676862 0.9325047804670005 -0.0
  outer loop
    vertex 121.08210862778638 97.0861045170612 7.049916206369744e-15
    vertex 120.56980789319647 96.88769125042374 4.324028000000011
    vertex 121.08210862778638 97.0861045170612 4.324028000000011
  endloop
endfacet
facet normal 0.0 0.0 -1.0
  outer loop
    vertex 118.05280735462308 99.52422399027891 -2.172766999999993
    vertex 118.02754722827561 98.43515426385385 -2.172766999999993
    vertex 117.968487916684 98.98135190642789 -2.172766999999993
  endloop
endfacet
facet normal 0.0 0.0 -1.0
  outer loop
    vertex 118.02754722827561 98.43515426385385 -2.172766999999993
    vertex 118.05280735462308 99.52422399027891 -2.172766999999993
    vertex 118.22596049491308 97.92285352926393 -2.172766999999993
  endloop
endfacet
facet normal 0.0 0.0 -1.0
  outer loop
    vertex 118.22596049491308 97.92285352926393 -2.172766999999993
    vertex 118.05280735462308 99.52422399027891 -2.172766999999993
    vertex 118.27475931174175 100.02677468003101 -2.172766999999993
  endloop
endfacet
facet normal 0.0 0.0 -1.0
  outer loop
    vertex 118.22596049491308 97.92285352926393 -2.172766999999993
    vertex 118.27475931174175 100.02677468003101 -2.172766999999993
    vertex 118.55020618036846 97.47936215110344 -2.172766999999993
  endloop
endfacet
facet normal 0.0 0.0 -1.0
  outer loop
    vertex 118.55020618036846 97.47936215110344 -2.172766999999993
    vertex 118.27475931174175 100.02677468003101 -2.172766999999993
    vertex 118.6192181289553 100.45475597668187 -2.172766999999993
  endloop
endfacet
facet normal 0.0 0.0 -1.0
  outer loop
    vertex 118.55020618036846 97.47936215110344 -2.172766999999993
    vertex 118.6192181289553 100.45475597668187 -2.172766999999993
    vertex 118.97818747701932 97.13490333388987 -2.172766999999993
  endloop
endfacet
facet normal 0.0 0.0 -1.0
  outer loop
    vertex 118.97818747701932 97.13490333388987 -2.172766999999993
    vertex 118.6192181289553 100.45475597668187 -2.172766999999993
    vertex 119.06270950711578 100.77900166213725 -2.172766999999993
  endloop
endfacet
facet normal 0.0 0.0 -1.0
  outer loop
    vertex 118.97818747701932 97.13490333388987 -2.172766999999993
    vertex 119.06270950711578 100.77900166213725 -2.172766999999993
    vertex 119.4807381667714 96.9129513767712 -2.172766999999993
  endloop
endfacet
facet normal 0.0 0.0 -1.0
  outer loop
    vertex 119.4807381667714 96.9129513767712 -2.172766999999993
    vertex 119.06270950711578 100.77900166213725 -2.172766999999993
    vertex 119.57501024170573 100.97741492877469 -2.172766999999993
  endloop
endfacet
facet normal 0.0 0.0 -1.0
  outer loop
    vertex 119.4807381667714 96.9129513767712 -2.172766999999993
    vertex 119.57501024170573 100.97741492877469 -2.172766999999993
    vertex 120.02361025062244 96.82863193883213 -2.172766999999993
  endloop
endfacet
facet normal 0.0 0.0 -1.0
  outer loop
    vertex 120.02361025062244 96.82863193883213 -2.172766999999993
    vertex 119.57501024170573 100.97741492877469 -2.172766999999993
    vertex 120.12120788427976 101.03647424036632 -2.172766999999993
  endloop
endfacet
facet normal 0.0 0.0 -1.0
  outer loop
    vertex 120.02361025062244 96.82863193883213 -2.172766999999993
    vertex 120.12120788427976 101.03647424036632 -2.172766999999993
    vertex 120.56980789319647 96.88769125042374 -2.172766999999993
  endloop
endfacet
facet normal 0.0 0.0 -1.0
  outer loop
    vertex 120.56980789319647 96.88769125042374 -2.172766999999993
    vertex 120.12120788427976 101.03647424036632 -2.172766999999993
    vertex 120.66407996813079 100.95215480242724 -2.172766999999993
  endloop
endfacet
facet normal 0.0 0.0 -1.0
  outer loop
    vertex 120.56980789319647 96.88769125042374 -2.172766999999993
    vertex 120.66407996813079 100.95215480242724 -2.172766999999993
    vertex 121.08210862778638 97.0861045170612 -2.172766999999993
  endloop
endfacet
facet normal 0.0 0.0 -1.0
  outer loop
    vertex 121.08210862778638 97.0861045170612 -2.172766999999993
    vertex 120.66407996813079 100.95215480242724 -2.172766999999993
    vertex 121.16663065788288 100.73020284530858 -2.172766999999993
  endloop
endfacet
facet normal 0.0 0.0 -1.0
  outer loop
    vertex 121.08210862778638 97.0861045170612 -2.172766999999993
    vertex 121.16663065788288 100.73020284530858 -2.172766999999993
    vertex 121.52560000594688 97.41035020251657 -2.172766999999993
  endloop
endfacet
facet normal 0.0 0.0 -1.0
  outer loop
    vertex 121.52560000594688 97.41035020251657 -2.172766999999993
    vertex 121.16663065788288 100.73020284530858 -2.172766999999993
    vertex 121.59461195453373 100.385744028095 -2.172766999999993
  endloop
endfacet
facet normal 0.0 0.0 -1.0
  outer loop
    vertex 121.52560000594688 97.41035020251657 -2.172766999999993
    vertex 121.59461195453373 100.385744028095 -2.172766999999993
    vertex 121.87005882316046 97.83833149916742 -2.172766999999993
  endloop
endfacet
facet normal 0.0 0.0 -1.0
  outer loop
    vertex 121.87005882316046 97.83833149916742 -2.172766999999993
    vertex 121.59461195453373 100.385744028095 -2.172766999999993
    vertex 121.91885763998913 99.94225264993452 -2.172766999999993
  endloop
endfacet
facet normal 0.0 0.0 -1.0
  outer loop
    vertex 121.87005882316046 97.83833149916742 -2.172766999999993
    vertex 121.91885763998913 99.94225264993452 -2.172766999999993
    vertex 122.09201078027913 98.34088218891954 -2.172766999999993
  endloop
endfacet
facet normal 0.0 0.0 -1.0
  outer loop
    vertex 122.09201078027913 98.34088218891954 -2.172766999999993
    vertex 121.91885763998913 99.94225264993452 -2.172766999999993
    vertex 122.11727090662656 99.4299519153446 -2.172766999999993
  endloop
endfacet
facet normal 0.0 0.0 -1.0
  outer loop
    vertex 122.09201078027913 98.34088218891954 -2.172766999999993
    vertex 122.11727090662656 99.4299519153446 -2.172766999999993
    vertex 122.17633021821821 98.88375427277055 -2.172766999999993
  endloop
endfacet
facet normal 0.4040034438225751 0.9147574636916059 -0.0
  outer loop
    vertex 120.66407996813079 100.95215480242724 7.049916206369744e-15
    vertex 121.16663065788288 100.73020284530858 -2.172766999999993
    vertex 120.66407996813079 100.95215480242724 -2.172766999999993
  endloop
endfacet
facet normal 0.4040034438225751 0.9147574636916059 -0.0
  outer loop
    vertex 121.16663065788288 100.73020284530858 -2.172766999999993
    vertex 120.66407996813079 100.95215480242724 7.049916206369744e-15
    vertex 121.16663065788288 100.73020284530858 7.049916206369744e-15
  endloop
endfacet
facet normal 0.3611576309676862 -0.9325047804670005 0.0
  outer loop
    vertex 121.08210862778638 97.0861045170612 7.049916206369744e-15
    vertex 120.56980789319647 96.88769125042374 -2.172766999999993
    vertex 121.08210862778638 97.0861045170612 -2.172766999999993
  endloop
endfacet
facet normal 0.3611576309676862 -0.9325047804670005 0.0
  outer loop
    vertex 120.56980789319647 96.88769125042374 -2.172766999999993
    vertex 121.08210862778638 97.0861045170612 7.049916206369744e-15
    vertex 120.56980789319647 96.88769125042374 7.049916206369744e-15
  endloop
endfacet
facet normal -0.15348070704489375 -0.9881516445186941 0.0
  outer loop
    vertex 120.02361025062244 96.82863193883213 7.049916206369744e-15
    vertex 119.4807381667714 96.9129513767712 -2.172766999999993
    vertex 120.02361025062244 96.82863193883213 -2.172766999999993
  endloop
endfacet
facet normal -0.15348070704489375 -0.9881516445186941 0.0
  outer loop
    vertex 119.4807381667714 96.9129513767712 -2.172766999999993
    vertex 120.02361025062244 96.82863193883213 7.049916206369744e-15
    vertex 119.4807381667714 96.9129513767712 7.049916206369744e-15
  endloop
endfacet
facet normal -0.9942049237696398 -0.10750148627905036 0.0
  outer loop
    vertex 117.968487916684 98.98135190642789 7.049916206369744e-15
    vertex 118.02754722827561 98.43515426385385 -2.172766999999993
    vertex 118.02754722827561 98.43515426385385 7.049916206369744e-15
  endloop
endfacet
facet normal -0.9942049237696398 -0.10750148627905036 0.0
  outer loop
    vertex 118.02754722827561 98.43515426385385 -2.172766999999993
    vertex 117.968487916684 98.98135190642789 7.049916206369744e-15
    vertex 117.968487916684 98.98135190642789 -2.172766999999993
  endloop
endfacet
facet normal -0.7790240734221431 0.6269940135509839 0.0
  outer loop
    vertex 118.6192181289553 100.45475597668187 7.049916206369744e-15
    vertex 118.27475931174175 100.02677468003101 -2.172766999999993
    vertex 118.27475931174175 100.02677468003101 7.049916206369744e-15
  endloop
endfacet
facet normal -0.7790240734221431 0.6269940135509839 0.0
  outer loop
    vertex 118.27475931174175 100.02677468003101 -2.172766999999993
    vertex 118.6192181289553 100.45475597668187 7.049916206369744e-15
    vertex 118.6192181289553 100.45475597668187 -2.172766999999993
  endloop
endfacet
facet normal -0.5902014799470614 0.8072559774125544 -0.0
  outer loop
    vertex 118.6192181289553 100.45475597668187 7.049916206369744e-15
    vertex 119.06270950711578 100.77900166213725 -2.172766999999993
    vertex 118.6192181289553 100.45475597668187 -2.172766999999993
  endloop
endfacet
facet normal -0.5902014799470614 0.8072559774125544 -0.0
  outer loop
    vertex 119.06270950711578 100.77900166213725 -2.172766999999993
    vertex 118.6192181289553 100.45475597668187 7.049916206369744e-15
    vertex 119.06270950711578 100.77900166213725 7.049916206369744e-15
  endloop
endfacet
facet normal 0.6269940135510089 0.7790240734221232 -0.0
  outer loop
    vertex 121.16663065788288 100.73020284530858 7.049916206369744e-15
    vertex 121.59461195453373 100.385744028095 -2.172766999999993
    vertex 121.16663065788288 100.73020284530858 -2.172766999999993
  endloop
endfacet
facet normal 0.6269940135510089 0.7790240734221232 -0.0
  outer loop
    vertex 121.59461195453373 100.385744028095 -2.172766999999993
    vertex 121.16663065788288 100.73020284530858 7.049916206369744e-15
    vertex 121.59461195453373 100.385744028095 7.049916206369744e-15
  endloop
endfacet
facet normal -0.9881516445186911 0.1534807070449138 0.0
  outer loop
    vertex 118.05280735462308 99.52422399027891 7.049916206369744e-15
    vertex 117.968487916684 98.98135190642789 -2.172766999999993
    vertex 117.968487916684 98.98135190642789 7.049916206369744e-15
  endloop
endfacet
facet normal -0.9881516445186911 0.1534807070449138 0.0
  outer loop
    vertex 117.968487916684 98.98135190642789 -2.172766999999993
    vertex 118.05280735462308 99.52422399027891 7.049916206369744e-15
    vertex 118.05280735462308 99.52422399027891 -2.172766999999993
  endloop
endfacet
facet normal 0.807255977412542 0.5902014799470784 -0.0
  outer loop
    vertex 121.59461195453373 100.385744028095 -2.172766999999993
    vertex 121.91885763998913 99.94225264993452 7.049916206369744e-15
    vertex 121.91885763998913 99.94225264993452 -2.172766999999993
  endloop
endfacet
facet normal 0.807255977412542 0.5902014799470784 -0.0
  outer loop
    vertex 121.91885763998913 99.94225264993452 7.049916206369744e-15
    vertex 121.59461195453373 100.385744028095 -2.172766999999993
    vertex 121.59461195453373 100.385744028095 7.049916206369744e-15
  endloop
endfacet
facet normal -0.10750148627907286 0.9942049237696374 -0.0
  outer loop
    vertex 119.57501024170573 100.97741492877469 7.049916206369744e-15
    vertex 120.12120788427976 101.03647424036632 -2.172766999999993
    vertex 119.57501024170573 100.97741492877469 -2.172766999999993
  endloop
endfacet
facet normal -0.10750148627907286 0.9942049237696374 -0.0
  outer loop
    vertex 120.12120788427976 101.03647424036632 -2.172766999999993
    vertex 119.57501024170573 100.97741492877469 7.049916206369744e-15
    vertex 120.12120788427976 101.03647424036632 7.049916206369744e-15
  endloop
endfacet
facet normal 0.7790240734221232 -0.6269940135510089 -0.0
  outer loop
    vertex 121.87005882316046 97.83833149916742 -2.172766999999993
    vertex 121.52560000594688 97.41035020251657 7.049916206369744e-15
    vertex 121.52560000594688 97.41035020251657 -2.172766999999993
  endloop
endfacet
facet normal 0.7790240734221232 -0.6269940135510089 -0.0
  outer loop
    vertex 121.52560000594688 97.41035020251657 7.049916206369744e-15
    vertex 121.87005882316046 97.83833149916742 -2.172766999999993
    vertex 121.87005882316046 97.83833149916742 7.049916206369744e-15
  endloop
endfacet
facet normal 0.9325047804670117 0.36115763096765746 -0.0
  outer loop
    vertex 121.91885763998913 99.94225264993452 -2.172766999999993
    vertex 122.11727090662656 99.4299519153446 7.049916206369744e-15
    vertex 122.11727090662656 99.4299519153446 -2.172766999999993
  endloop
endfacet
facet normal 0.9325047804670117 0.36115763096765746 -0.0
  outer loop
    vertex 122.11727090662656 99.4299519153446 7.049916206369744e-15
    vertex 121.91885763998913 99.94225264993452 -2.172766999999993
    vertex 121.91885763998913 99.94225264993452 7.049916206369744e-15
  endloop
endfacet
facet normal 0.9942049237696312 0.10750148627912934 -0.0
  outer loop
    vertex 122.11727090662656 99.4299519153446 -2.172766999999993
    vertex 122.17633021821821 98.88375427277055 7.049916206369744e-15
    vertex 122.17633021821821 98.88375427277055 -2.172766999999993
  endloop
endfacet
facet normal 0.9942049237696312 0.10750148627912934 -0.0
  outer loop
    vertex 122.17633021821821 98.88375427277055 7.049916206369744e-15
    vertex 122.11727090662656 99.4299519153446 -2.172766999999993
    vertex 122.11727090662656 99.4299519153446 7.049916206369744e-15
  endloop
endfacet
facet normal -0.6269940135510089 -0.7790240734221232 0.0
  outer loop
    vertex 118.97818747701932 97.13490333388987 7.049916206369744e-15
    vertex 118.55020618036846 97.47936215110344 -2.172766999999993
    vertex 118.97818747701932 97.13490333388987 -2.172766999999993
  endloop
endfacet
facet normal -0.6269940135510089 -0.7790240734221232 0.0
  outer loop
    vertex 118.55020618036846 97.47936215110344 -2.172766999999993
    vertex 118.97818747701932 97.13490333388987 7.049916206369744e-15
    vertex 118.55020618036846 97.47936215110344 7.049916206369744e-15
  endloop
endfacet
facet normal -0.4040034438225751 -0.9147574636916059 0.0
  outer loop
    vertex 119.4807381667714 96.9129513767712 7.049916206369744e-15
    vertex 118.97818747701932 97.13490333388987 -2.172766999999993
    vertex 119.4807381667714 96.9129513767712 -2.172766999999993
  endloop
endfacet
facet normal -0.4040034438225751 -0.9147574636916059 0.0
  outer loop
    vertex 118.97818747701932 97.13490333388987 -2.172766999999993
    vertex 119.4807381667714 96.9129513767712 7.049916206369744e-15
    vertex 118.97818747701932 97.13490333388987 7.049916206369744e-15
  endloop
endfacet
facet normal -0.932504780466984 -0.36115763096772885 0.0
  outer loop
    vertex 118.02754722827561 98.43515426385385 7.049916206369744e-15
    vertex 118.22596049491308 97.92285352926393 -2.172766999999993
    vertex 118.22596049491308 97.92285352926393 7.049916206369744e-15
  endloop
endfacet
facet normal -0.932504780466984 -0.36115763096772885 0.0
  outer loop
    vertex 118.22596049491308 97.92285352926393 -2.172766999999993
    vertex 118.02754722827561 98.43515426385385 7.049916206369744e-15
    vertex 118.02754722827561 98.43515426385385 -2.172766999999993
  endloop
endfacet
facet normal 0.5902014799470419 -0.8072559774125687 0.0
  outer loop
    vertex 121.52560000594688 97.41035020251657 7.049916206369744e-15
    vertex 121.08210862778638 97.0861045170612 -2.172766999999993
    vertex 121.52560000594688 97.41035020251657 -2.172766999999993
  endloop
endfacet
facet normal 0.5902014799470419 -0.8072559774125687 0.0
  outer loop
    vertex 121.08210862778638 97.0861045170612 -2.172766999999993
    vertex 121.52560000594688 97.41035020251657 7.049916206369744e-15
    vertex 121.08210862778638 97.0861045170612 7.049916206369744e-15
  endloop
endfacet
facet normal -0.9147574636916093 0.4040034438225675 0.0
  outer loop
    vertex 118.27475931174175 100.02677468003101 7.049916206369744e-15
    vertex 118.05280735462308 99.52422399027891 -2.172766999999993
    vertex 118.05280735462308 99.52422399027891 7.049916206369744e-15
  endloop
endfacet
facet normal -0.9147574636916093 0.4040034438225675 0.0
  outer loop
    vertex 118.05280735462308 99.52422399027891 -2.172766999999993
    vertex 118.27475931174175 100.02677468003101 7.049916206369744e-15
    vertex 118.27475931174175 100.02677468003101 -2.172766999999993
  endloop
endfacet
facet normal -0.3611576309676724 0.9325047804670059 -0.0
  outer loop
    vertex 119.06270950711578 100.77900166213725 7.049916206369744e-15
    vertex 119.57501024170573 100.97741492877469 -2.172766999999993
    vertex 119.06270950711578 100.77900166213725 -2.172766999999993
  endloop
endfacet
facet normal -0.3611576309676724 0.9325047804670059 -0.0
  outer loop
    vertex 119.57501024170573 100.97741492877469 -2.172766999999993
    vertex 119.06270950711578 100.77900166213725 7.049916206369744e-15
    vertex 119.57501024170573 100.97741492877469 7.049916206369744e-15
  endloop
endfacet
facet normal 0.10750148627907286 -0.9942049237696374 0.0
  outer loop
    vertex 120.56980789319647 96.88769125042374 7.049916206369744e-15
    vertex 120.02361025062244 96.82863193883213 -2.172766999999993
    vertex 120.56980789319647 96.88769125042374 -2.172766999999993
  endloop
endfacet
facet normal 0.10750148627907286 -0.9942049237696374 0.0
  outer loop
    vertex 120.02361025062244 96.82863193883213 -2.172766999999993
    vertex 120.56980789319647 96.88769125042374 7.049916206369744e-15
    vertex 120.02361025062244 96.82863193883213 7.049916206369744e-15
  endloop
endfacet
facet normal 0.15348070704489375 0.9881516445186941 -0.0
  outer loop
    vertex 120.12120788427976 101.03647424036632 7.049916206369744e-15
    vertex 120.66407996813079 100.95215480242724 -2.172766999999993
    vertex 120.12120788427976 101.03647424036632 -2.172766999999993
  endloop
endfacet
facet normal 0.15348070704489375 0.9881516445186941 -0.0
  outer loop
    vertex 120.66407996813079 100.95215480242724 -2.172766999999993
    vertex 120.12120788427976 101.03647424036632 7.049916206369744e-15
    vertex 120.66407996813079 100.95215480242724 7.049916206369744e-15
  endloop
endfacet
facet normal -0.8072559774125615 -0.5902014799470517 0.0
  outer loop
    vertex 118.22596049491308 97.92285352926393 7.049916206369744e-15
    vertex 118.55020618036846 97.47936215110344 -2.172766999999993
    vertex 118.55020618036846 97.47936215110344 7.049916206369744e-15
  endloop
endfacet
facet normal -0.8072559774125615 -0.5902014799470517 0.0
  outer loop
    vertex 118.55020618036846 97.47936215110344 -2.172766999999993
    vertex 118.22596049491308 97.92285352926393 7.049916206369744e-15
    vertex 118.22596049491308 97.92285352926393 -2.172766999999993
  endloop
endfacet
facet normal 0.10750148627907284 -0.9942049237696374 0.0
  outer loop
    vertex 120.12120788427976 101.03647424036632 6.59267900000001
    vertex 119.57501024170573 100.97741492877469 4.324028000000011
    vertex 120.12120788427976 101.03647424036632 4.324028000000011
  endloop
endfacet
facet normal 0.10750148627907284 -0.9942049237696374 0.0
  outer loop
    vertex 119.57501024170573 100.97741492877469 4.324028000000011
    vertex 120.12120788427976 101.03647424036632 6.59267900000001
    vertex 119.57501024170573 100.97741492877469 6.59267900000001
  endloop
endfacet
facet normal 0.0 0.0 -1.0
  outer loop
    vertex 118.05280735462308 99.52422399027891 4.324028000000011
    vertex 118.02754722827561 98.43515426385385 4.324028000000011
    vertex 117.968487916684 98.98135190642789 4.324028000000011
  endloop
endfacet
facet normal 0.0 0.0 -1.0
  outer loop
    vertex 118.02754722827561 98.43515426385385 4.324028000000011
    vertex 118.05280735462308 99.52422399027891 4.324028000000011
    vertex 118.22596049491308 97.92285352926393 4.324028000000011
  endloop
endfacet
facet normal 0.0 0.0 -1.0
  outer loop
    vertex 118.22596049491308 97.92285352926393 4.324028000000011
    vertex 118.05280735462308 99.52422399027891 4.324028000000011
    vertex 118.27475931174175 100.02677468003101 4.324028000000011
  endloop
endfacet
facet normal 0.0 0.0 -1.0
  outer loop
    vertex 118.22596049491308 97.92285352926393 4.324028000000011
    vertex 118.27475931174175 100.02677468003101 4.324028000000011
    vertex 118.55020618036846 97.47936215110344 4.324028000000011
  endloop
endfacet
facet normal 0.0 0.0 -1.0
  outer loop
    vertex 118.55020618036846 97.47936215110344 4.324028000000011
    vertex 118.27475931174175 100.02677468003101 4.324028000000011
    vertex 118.6192181289553 100.45475597668187 4.324028000000011
  endloop
endfacet
facet normal 0.0 0.0 -1.0
  outer loop
    vertex 118.55020618036846 97.47936215110344 4.324028000000011
    vertex 118.6192181289553 100.45475597668187 4.324028000000011
    vertex 118.97818747701932 97.13490333388987 4.324028000000011
  endloop
endfacet
facet normal 0.0 0.0 -1.0
  outer loop
    vertex 118.97818747701932 97.13490333388987 4.324028000000011
    vertex 118.6192181289553 100.45475597668187 4.324028000000011
    vertex 119.06270950711578 100.77900166213725 4.324028000000011
  endloop
endfacet
facet normal 0.0 0.0 -1.0
  outer loop
    vertex 118.97818747701932 97.13490333388987 4.324028000000011
    vertex 119.06270950711578 100.77900166213725 4.324028000000011
    vertex 119.4807381667714 96.9129513767712 4.324028000000011
  endloop
endfacet
facet normal 0.0 0.0 -1.0
  outer loop
    vertex 119.4807381667714 96.9129513767712 4.324028000000011
    vertex 119.06270950711578 100.77900166213725 4.324028000000011
    vertex 119.57501024170573 100.97741492877469 4.324028000000011
  endloop
endfacet
facet normal 0.0 0.0 -1.0
  outer loop
    vertex 119.4807381667714 96.9129513767712 4.324028000000011
    vertex 119.57501024170573 100.97741492877469 4.324028000000011
    vertex 120.02361025062244 96.82863193883213 4.324028000000011
  endloop
endfacet
facet normal 0.0 0.0 -1.0
  outer loop
    vertex 120.02361025062244 96.82863193883213 4.324028000000011
    vertex 119.57501024170573 100.97741492877469 4.324028000000011
    vertex 120.12120788427976 101.03647424036632 4.324028000000011
  endloop
endfacet
facet normal 0.0 0.0 -1.0
  outer loop
    vertex 120.02361025062244 96.82863193883213 4.324028000000011
    vertex 120.12120788427976 101.03647424036632 4.324028000000011
    vertex 120.56980789319647 96.88769125042374 4.324028000000011
  endloop
endfacet
facet normal 0.0 0.0 -1.0
  outer loop
    vertex 120.56980789319647 96.88769125042374 4.324028000000011
    vertex 120.12120788427976 101.03647424036632 4.324028000000011
    vertex 120.66407996813079 100.95215480242724 4.324028000000011
  endloop
endfacet
facet normal 0.0 0.0 -1.0
  outer loop
    vertex 120.56980789319647 96.88769125042374 4.324028000000011
    vertex 120.66407996813079 100.95215480242724 4.324028000000011
    vertex 121.08210862778638 97.0861045170612 4.324028000000011
  endloop
endfacet
facet normal 0.0 0.0 -1.0
  outer loop
    vertex 121.08210862778638 97.0861045170612 4.324028000000011
    vertex 120.66407996813079 100.95215480242724 4.324028000000011
    vertex 121.16663065788288 100.73020284530858 4.324028000000011
  endloop
endfacet
facet normal 0.0 0.0 -1.0
  outer loop
    vertex 121.08210862778638 97.0861045170612 4.324028000000011
    vertex 121.16663065788288 100.73020284530858 4.324028000000011
    vertex 121.52560000594688 97.41035020251657 4.324028000000011
  endloop
endfacet
facet normal 0.0 0.0 -1.0
  outer loop
    vertex 121.52560000594688 97.41035020251657 4.324028000000011
    vertex 121.16663065788288 100.73020284530858 4.324028000000011
    vertex 121.59461195453373 100.385744028095 4.324028000000011
  endloop
endfacet
facet normal 0.0 0.0 -1.0
  outer loop
    vertex 121.52560000594688 97.41035020251657 4.324028000000011
    vertex 121.59461195453373 100.385744028095 4.324028000000011
    vertex 121.87005882316046 97.83833149916742 4.324028000000011
  endloop
endfacet
facet normal 0.0 0.0 -1.0
  outer loop
    vertex 121.87005882316046 97.83833149916742 4.324028000000011
    vertex 121.59461195453373 100.385744028095 4.324028000000011
    vertex 121.91885763998913 99.94225264993452 4.324028000000011
  endloop
endfacet
facet normal 0.0 0.0 -1.0
  outer loop
    vertex 121.87005882316046 97.83833149916742 4.324028000000011
    vertex 121.91885763998913 99.94225264993452 4.324028000000011
    vertex 122.09201078027913 98.34088218891954 4.324028000000011
  endloop
endfacet
facet normal 0.0 0.0 -1.0
  outer loop
    vertex 122.09201078027913 98.34088218891954 4.324028000000011
    vertex 121.91885763998913 99.94225264993452 4.324028000000011
    vertex 122.11727090662656 99.4299519153446 4.324028000000011
  endloop
endfacet
facet normal 0.0 0.0 -1.0
  outer loop
    vertex 122.09201078027913 98.34088218891954 4.324028000000011
    vertex 122.11727090662656 99.4299519153446 4.324028000000011
    vertex 122.17633021821821 98.88375427277055 4.324028000000011
  endloop
endfacet
facet normal 0.9147574636916093 -0.4040034438225675 -0.0
  outer loop
    vertex 122.09201078027913 98.34088218891954 -2.172766999999993
    vertex 121.87005882316046 97.83833149916742 7.049916206369744e-15
    vertex 121.87005882316046 97.83833149916742 -2.172766999999993
  endloop
endfacet
facet normal 0.9147574636916093 -0.4040034438225675 -0.0
  outer loop
    vertex 121.87005882316046 97.83833149916742 7.049916206369744e-15
    vertex 122.09201078027913 98.34088218891954 -2.172766999999993
    vertex 122.09201078027913 98.34088218891954 7.049916206369744e-15
  endloop
endfacet
facet normal -0.7790240734221232 0.6269940135510089 0.0
  outer loop
    vertex 121.87005882316046 97.83833149916742 6.59267900000001
    vertex 121.52560000594688 97.41035020251657 4.324028000000011
    vertex 121.52560000594688 97.41035020251657 6.59267900000001
  endloop
endfacet
facet normal -0.7790240734221232 0.6269940135510089 0.0
  outer loop
    vertex 121.52560000594688 97.41035020251657 4.324028000000011
    vertex 121.87005882316046 97.83833149916742 6.59267900000001
    vertex 121.87005882316046 97.83833149916742 4.324028000000011
  endloop
endfacet
facet normal -0.5902014799470419 0.8072559774125687 -0.0
  outer loop
    vertex 121.08210862778638 97.0861045170612 6.59267900000001
    vertex 121.52560000594688 97.41035020251657 4.324028000000011
    vertex 121.08210862778638 97.0861045170612 4.324028000000011
  endloop
endfacet
facet normal -0.5902014799470419 0.8072559774125687 -0.0
  outer loop
    vertex 121.52560000594688 97.41035020251657 4.324028000000011
    vertex 121.08210862778638 97.0861045170612 6.59267900000001
    vertex 121.52560000594688 97.41035020251657 6.59267900000001
  endloop
endfacet
facet normal -0.3611576309676862 0.9325047804670005 -0.0
  outer loop
    vertex 120.56980789319647 96.88769125042374 6.59267900000001
    vertex 121.08210862778638 97.0861045170612 4.324028000000011
    vertex 120.56980789319647 96.88769125042374 4.324028000000011
  endloop
endfacet
facet normal -0.3611576309676862 0.9325047804670005 -0.0
  outer loop
    vertex 121.08210862778638 97.0861045170612 4.324028000000011
    vertex 120.56980789319647 96.88769125042374 6.59267900000001
    vertex 121.08210862778638 97.0861045170612 6.59267900000001
  endloop
endfacet
facet normal 0.4040034438225751 0.9147574636916059 -0.0
  outer loop
    vertex 118.97818747701932 97.13490333388987 6.59267900000001
    vertex 119.4807381667714 96.9129513767712 4.324028000000011
    vertex 118.97818747701932 97.13490333388987 4.324028000000011
  endloop
endfacet
facet normal 0.4040034438225751 0.9147574636916059 -0.0
  outer loop
    vertex 119.4807381667714 96.9129513767712 4.324028000000011
    vertex 118.97818747701932 97.13490333388987 6.59267900000001
    vertex 119.4807381667714 96.9129513767712 6.59267900000001
  endloop
endfacet
facet normal 0.932504780466984 0.36115763096772885 -0.0
  outer loop
    vertex 118.02754722827561 98.43515426385385 4.324028000000011
    vertex 118.22596049491308 97.92285352926393 6.59267900000001
    vertex 118.22596049491308 97.92285352926393 4.324028000000011
  endloop
endfacet
facet normal 0.932504780466984 0.36115763096772885 -0.0
  outer loop
    vertex 118.22596049491308 97.92285352926393 6.59267900000001
    vertex 118.02754722827561 98.43515426385385 4.324028000000011
    vertex 118.02754722827561 98.43515426385385 6.59267900000001
  endloop
endfacet
facet normal 0.9942049237696398 0.10750148627905035 -0.0
  outer loop
    vertex 117.968487916684 98.98135190642789 4.324028000000011
    vertex 118.02754722827561 98.43515426385385 6.59267900000001
    vertex 118.02754722827561 98.43515426385385 4.324028000000011
  endloop
endfacet
facet normal 0.9942049237696398 0.10750148627905035 -0.0
  outer loop
    vertex 118.02754722827561 98.43515426385385 6.59267900000001
    vertex 117.968487916684 98.98135190642789 4.324028000000011
    vertex 117.968487916684 98.98135190642789 6.59267900000001
  endloop
endfacet
facet normal 0.9881516445186911 -0.1534807070449138 -0.0
  outer loop
    vertex 118.05280735462308 99.52422399027891 4.324028000000011
    vertex 117.968487916684 98.98135190642789 6.59267900000001
    vertex 117.968487916684 98.98135190642789 4.324028000000011
  endloop
endfacet
facet normal 0.9881516445186911 -0.1534807070449138 -0.0
  outer loop
    vertex 117.968487916684 98.98135190642789 6.59267900000001
    vertex 118.05280735462308 99.52422399027891 4.324028000000011
    vertex 118.05280735462308 99.52422399027891 6.59267900000001
  endloop
endfacet
facet normal 0.9147574636916093 -0.4040034438225675 -0.0
  outer loop
    vertex 118.27475931174175 100.02677468003101 4.324028000000011
    vertex 118.05280735462308 99.52422399027891 6.59267900000001
    vertex 118.05280735462308 99.52422399027891 4.324028000000011
  endloop
endfacet
facet normal 0.9147574636916093 -0.4040034438225675 -0.0
  outer loop
    vertex 118.05280735462308 99.52422399027891 6.59267900000001
    vertex 118.27475931174175 100.02677468003101 4.324028000000011
    vertex 118.27475931174175 100.02677468003101 6.59267900000001
  endloop
endfacet
facet normal 0.5902014799470615 -0.8072559774125544 0.0
  outer loop
    vertex 119.06270950711578 100.77900166213725 6.59267900000001
    vertex 118.6192181289553 100.45475597668187 4.324028000000011
    vertex 119.06270950711578 100.77900166213725 4.324028000000011
  endloop
endfacet
facet normal 0.5902014799470615 -0.8072559774125544 0.0
  outer loop
    vertex 118.6192181289553 100.45475597668187 4.324028000000011
    vertex 119.06270950711578 100.77900166213725 6.59267900000001
    vertex 118.6192181289553 100.45475597668187 6.59267900000001
  endloop
endfacet
facet normal 0.6269940135510089 0.7790240734221232 -0.0
  outer loop
    vertex 118.55020618036846 97.47936215110344 6.59267900000001
    vertex 118.97818747701932 97.13490333388987 4.324028000000011
    vertex 118.55020618036846 97.47936215110344 4.324028000000011
  endloop
endfacet
facet normal 0.6269940135510089 0.7790240734221232 -0.0
  outer loop
    vertex 118.97818747701932 97.13490333388987 4.324028000000011
    vertex 118.55020618036846 97.47936215110344 6.59267900000001
    vertex 118.97818747701932 97.13490333388987 6.59267900000001
  endloop
endfacet
facet normal 0.3611576309676724 -0.9325047804670059 0.0
  outer loop
    vertex 119.57501024170573 100.97741492877469 6.59267900000001
    vertex 119.06270950711578 100.77900166213725 4.324028000000011
    vertex 119.57501024170573 100.97741492877469 4.324028000000011
  endloop
endfacet
facet normal 0.3611576309676724 -0.9325047804670059 0.0
  outer loop
    vertex 119.06270950711578 100.77900166213725 4.324028000000011
    vertex 119.57501024170573 100.97741492877469 6.59267900000001
    vertex 119.06270950711578 100.77900166213725 6.59267900000001
  endloop
endfacet
facet normal 0.9881516445186906 -0.1534807070449169 -0.0
  outer loop
    vertex 122.17633021821821 98.88375427277055 -2.172766999999993
    vertex 122.09201078027913 98.34088218891954 7.049916206369744e-15
    vertex 122.09201078027913 98.34088218891954 -2.172766999999993
  endloop
endfacet
facet normal 0.9881516445186906 -0.1534807070449169 -0.0
  outer loop
    vertex 122.09201078027913 98.34088218891954 7.049916206369744e-15
    vertex 122.17633021821821 98.88375427277055 -2.172766999999993
    vertex 122.17633021821821 98.88375427277055 7.049916206369744e-15
  endloop
endfacet
facet normal 0.8072559774125615 0.5902014799470516 -0.0
  outer loop
    vertex 118.22596049491308 97.92285352926393 4.324028000000011
    vertex 118.55020618036846 97.47936215110344 6.59267900000001
    vertex 118.55020618036846 97.47936215110344 4.324028000000011
  endloop
endfacet
facet normal 0.8072559774125615 0.5902014799470516 -0.0
  outer loop
    vertex 118.55020618036846 97.47936215110344 6.59267900000001
    vertex 118.22596049491308 97.92285352926393 4.324028000000011
    vertex 118.22596049491308 97.92285352926393 6.59267900000001
  endloop
endfacet
facet normal 0.15348070704489375 0.9881516445186941 -0.0
  outer loop
    vertex 119.4807381667714 96.9129513767712 6.59267900000001
    vertex 120.02361025062244 96.82863193883213 4.324028000000011
    vertex 119.4807381667714 96.9129513767712 4.324028000000011
  endloop
endfacet
facet normal 0.15348070704489375 0.9881516445186941 -0.0
  outer loop
    vertex 120.02361025062244 96.82863193883213 4.324028000000011
    vertex 119.4807381667714 96.9129513767712 6.59267900000001
    vertex 120.02361025062244 96.82863193883213 6.59267900000001
  endloop
endfacet
facet normal 0.7790240734221431 -0.6269940135509839 -0.0
  outer loop
    vertex 118.6192181289553 100.45475597668187 4.324028000000011
    vertex 118.27475931174175 100.02677468003101 6.59267900000001
    vertex 118.27475931174175 100.02677468003101 4.324028000000011
  endloop
endfacet
facet normal 0.7790240734221431 -0.6269940135509839 -0.0
  outer loop
    vertex 118.27475931174175 100.02677468003101 6.59267900000001
    vertex 118.6192181289553 100.45475597668187 4.324028000000011
    vertex 118.6192181289553 100.45475597668187 6.59267900000001
  endloop
endfacet
facet normal -0.15348070704489375 -0.9881516445186941 0.0
  outer loop
    vertex 120.66407996813079 100.95215480242724 6.59267900000001
    vertex 120.12120788427976 101.03647424036632 4.324028000000011
    vertex 120.66407996813079 100.95215480242724 4.324028000000011
  endloop
endfacet
facet normal -0.15348070704489375 -0.9881516445186941 0.0
  outer loop
    vertex 120.12120788427976 101.03647424036632 4.324028000000011
    vertex 120.66407996813079 100.95215480242724 6.59267900000001
    vertex 120.12120788427976 101.03647424036632 6.59267900000001
  endloop
endfacet
facet normal -0.10750148627907284 0.9942049237696374 -0.0
  outer loop
    vertex 120.02361025062244 96.82863193883213 6.59267900000001
    vertex 120.56980789319647 96.88769125042374 4.324028000000011
    vertex 120.02361025062244 96.82863193883213 4.324028000000011
  endloop
endfacet
facet normal -0.10750148627907284 0.9942049237696374 -0.0
  outer loop
    vertex 120.56980789319647 96.88769125042374 4.324028000000011
    vertex 120.02361025062244 96.82863193883213 6.59267900000001
    vertex 120.56980789319647 96.88769125042374 6.59267900000001
  endloop
endfacet
facet normal -0.807255977412542 -0.5902014799470784 0.0
  outer loop
    vertex 121.59461195453373 100.385744028095 6.59267900000001
    vertex 121.91885763998913 99.94225264993452 4.324028000000011
    vertex 121.91885763998913 99.94225264993452 6.59267900000001
  endloop
endfacet
facet normal -0.807255977412542 -0.5902014799470784 0.0
  outer loop
    vertex 121.91885763998913 99.94225264993452 4.324028000000011
    vertex 121.59461195453373 100.385744028095 6.59267900000001
    vertex 121.59461195453373 100.385744028095 4.324028000000011
  endloop
endfacet
facet normal -0.4040034438225751 -0.9147574636916059 0.0
  outer loop
    vertex 121.16663065788288 100.73020284530858 6.59267900000001
    vertex 120.66407996813079 100.95215480242724 4.324028000000011
    vertex 121.16663065788288 100.73020284530858 4.324028000000011
  endloop
endfacet
facet normal -0.4040034438225751 -0.9147574636916059 0.0
  outer loop
    vertex 120.66407996813079 100.95215480242724 4.324028000000011
    vertex 121.16663065788288 100.73020284530858 6.59267900000001
    vertex 120.66407996813079 100.95215480242724 6.59267900000001
  endloop
endfacet
facet normal -0.9325047804670117 -0.36115763096765746 0.0
  outer loop
    vertex 121.91885763998913 99.94225264993452 6.59267900000001
    vertex 122.11727090662656 99.4299519153446 4.324028000000011
    vertex 122.11727090662656 99.4299519153446 6.59267900000001
  endloop
endfacet
facet normal -0.9325047804670117 -0.36115763096765746 0.0
  outer loop
    vertex 122.11727090662656 99.4299519153446 4.324028000000011
    vertex 121.91885763998913 99.94225264993452 6.59267900000001
    vertex 121.91885763998913 99.94225264993452 4.324028000000011
  endloop
endfacet
facet normal -0.9881516445186906 0.15348070704491693 0.0
  outer loop
    vertex 122.17633021821821 98.88375427277055 6.59267900000001
    vertex 122.09201078027913 98.34088218891954 4.324028000000011
    vertex 122.09201078027913 98.34088218891954 6.59267900000001
  endloop
endfacet
facet normal -0.9881516445186906 0.15348070704491693 0.0
  outer loop
    vertex 122.09201078027913 98.34088218891954 4.324028000000011
    vertex 122.17633021821821 98.88375427277055 6.59267900000001
    vertex 122.17633021821821 98.88375427277055 4.324028000000011
  endloop
endfacet
facet normal -0.9942049237696312 -0.10750148627912934 0.0
  outer loop
    vertex 122.11727090662656 99.4299519153446 6.59267900000001
    vertex 122.17633021821821 98.88375427277055 4.324028000000011
    vertex 122.17633021821821 98.88375427277055 6.59267900000001
  endloop
endfacet
facet normal -0.9942049237696312 -0.10750148627912934 0.0
  outer loop
    vertex 122.17633021821821 98.88375427277055 4.324028000000011
    vertex 122.11727090662656 99.4299519153446 6.59267900000001
    vertex 122.11727090662656 99.4299519153446 4.324028000000011
  endloop
endfacet
facet normal -0.6269940135510089 -0.7790240734221232 0.0
  outer loop
    vertex 121.59461195453373 100.385744028095 6.59267900000001
    vertex 121.16663065788288 100.73020284530858 4.324028000000011
    vertex 121.59461195453373 100.385744028095 4.324028000000011
  endloop
endfacet
facet normal -0.6269940135510089 -0.7790240734221232 0.0
  outer loop
    vertex 121.16663065788288 100.73020284530858 4.324028000000011
    vertex 121.59461195453373 100.385744028095 6.59267900000001
    vertex 121.16663065788288 100.73020284530858 6.59267900000001
  endloop
endfacet
facet normal -0.9147574636916093 0.4040034438225675 0.0
  outer loop
    vertex 122.09201078027913 98.34088218891954 6.59267900000001
    vertex 121.87005882316046 97.83833149916742 4.324028000000011
    vertex 121.87005882316046 97.83833149916742 6.59267900000001
  endloop
endfacet
facet normal -0.9147574636916093 0.4040034438225675 0.0
  outer loop
    vertex 121.87005882316046 97.83833149916742 4.324028000000011
    vertex 122.09201078027913 98.34088218891954 6.59267900000001
    vertex 122.09201078027913 98.34088218891954 4.324028000000011
  endloop
endfacet
facet normal 0.0 0.0 -1.0
  outer loop
    vertex 117.93196539863216 101.63611357674166 7.049916206369744e-15
    vertex 118.05280735462308 99.52422399027891 7.049916206369744e-15
    vertex 117.968487916684 98.98135190642789 7.049916206369744e-15
  endloop
endfacet
facet normal 0.0 0.0 -1.0
  outer loop
    vertex 118.05280735462308 99.52422399027891 7.049916206369744e-15
    vertex 117.93196539863216 101.63611357674166 7.049916206369744e-15
    vertex 118.70463219168106 102.09797957352423 7.049916206369744e-15
  endloop
endfacet
facet normal 0.0 0.0 -1.0
  outer loop
    vertex 118.05280735462308 99.52422399027891 7.049916206369744e-15
    vertex 118.70463219168106 102.09797957352423 7.049916206369744e-15
    vertex 118.27475931174175 100.02677468003101 7.049916206369744e-15
  endloop
endfacet
facet normal 0.0 0.0 -1.0
  outer loop
    vertex 118.27475931174175 100.02677468003101 7.049916206369744e-15
    vertex 118.70463219168106 102.09797957352423 7.049916206369744e-15
    vertex 118.6192181289553 100.45475597668187 7.049916206369744e-15
  endloop
endfacet
facet normal 0.0 0.0 -1.0
  outer loop
    vertex 118.6192181289553 100.45475597668187 7.049916206369744e-15
    vertex 118.70463219168106 102.09797957352423 7.049916206369744e-15
    vertex 119.06270950711578 100.77900166213725 7.049916206369744e-15
  endloop
endfacet
facet normal 0.0 0.0 -1.0
  outer loop
    vertex 119.06270950711578 100.77900166213725 7.049916206369744e-15
    vertex 118.70463219168106 102.09797957352423 7.049916206369744e-15
    vertex 119.57051071845555 102.34412698654187 7.049916206369744e-15
  endloop
endfacet
facet normal 0.0 0.0 -1.0
  outer loop
    vertex 119.06270950711578 100.77900166213725 7.049916206369744e-15
    vertex 119.57051071845555 102.34412698654187 7.049916206369744e-15
    vertex 119.57501024170573 100.97741492877469 7.049916206369744e-15
  endloop
endfacet
facet normal 0.0 0.0 -1.0
  outer loop
    vertex 119.57501024170573 100.97741492877469 7.049916206369744e-15
    vertex 119.57051071845555 102.34412698654187 7.049916206369744e-15
    vertex 120.47059278828782 102.35778127637535 7.049916206369744e-15
  endloop
endfacet
facet normal 0.0 0.0 -1.0
  outer loop
    vertex 119.57501024170573 100.97741492877469 7.049916206369744e-15
    vertex 120.47059278828782 102.35778127637535 7.049916206369744e-15
    vertex 120.12120788427976 101.03647424036632 7.049916206369744e-15
  endloop
endfacet
facet normal 0.0 0.0 -1.0
  outer loop
    vertex 120.12120788427976 101.03647424036632 7.049916206369744e-15
    vertex 120.47059278828782 102.35778127637535 7.049916206369744e-15
    vertex 120.66407996813079 100.95215480242724 7.049916206369744e-15
  endloop
endfacet
facet normal 0.0 0.0 -1.0
  outer loop
    vertex 120.66407996813079 100.95215480242724 7.049916206369744e-15
    vertex 120.47059278828782 102.35778127637535 7.049916206369744e-15
    vertex 121.3435392955748 102.1380119257372 7.049916206369744e-15
  endloop
endfacet
facet normal 0.0 0.0 -1.0
  outer loop
    vertex 120.66407996813079 100.95215480242724 7.049916206369744e-15
    vertex 121.3435392955748 102.1380119257372 7.049916206369744e-15
    vertex 121.16663065788288 100.73020284530858 7.049916206369744e-15
  endloop
endfacet
facet normal 0.0 0.0 -1.0
  outer loop
    vertex 121.16663065788288 100.73020284530858 7.049916206369744e-15
    vertex 121.3435392955748 102.1380119257372 7.049916206369744e-15
    vertex 121.59461195453373 100.385744028095 7.049916206369744e-15
  endloop
endfacet
facet normal 0.0 0.0 -1.0
  outer loop
    vertex 121.59461195453373 100.385744028095 7.049916206369744e-15
    vertex 121.3435392955748 102.1380119257372 7.049916206369744e-15
    vertex 122.1298603784572 101.69979585268747 7.049916206369744e-15
  endloop
endfacet
facet normal 0.0 0.0 -1.0
  outer loop
    vertex 121.59461195453373 100.385744028095 7.049916206369744e-15
    vertex 122.1298603784572 101.69979585268747 7.049916206369744e-15
    vertex 121.91885763998913 99.94225264993452 7.049916206369744e-15
  endloop
endfacet
facet normal 0.0 0.0 -1.0
  outer loop
    vertex 121.91885763998913 99.94225264993452 7.049916206369744e-15
    vertex 122.1298603784572 101.69979585268747 7.049916206369744e-15
    vertex 122.11727090662656 99.4299519153446 7.049916206369744e-15
  endloop
endfacet
facet normal 0.0 0.0 -1.0
  outer loop
    vertex 122.11727090662656 99.4299519153446 7.049916206369744e-15
    vertex 122.1298603784572 101.69979585268747 7.049916206369744e-15
    vertex 122.17633021821821 98.88375427277055 7.049916206369744e-15
  endloop
endfacet
facet normal 0.0 0.0 -1.0
  outer loop
    vertex 122.17633021821821 98.88375427277055 7.049916206369744e-15
    vertex 122.1298603784572 101.69979585268747 7.049916206369744e-15
    vertex 122.77596955459353 101.07299675841818 7.049916206369744e-15
  endloop
endfacet
facet normal 0.0 0.0 -1.0
  outer loop
    vertex 122.17633021821821 98.88375427277055 7.049916206369744e-15
    vertex 122.77596955459353 101.07299675841818 7.049916206369744e-15
    vertex 122.21285273627005 96.22899260245678 7.049916206369744e-15
  endloop
endfacet
facet normal 0.0 0.0 -1.0
  outer loop
    vertex 122.21285273627005 96.22899260245678 7.049916206369744e-15
    vertex 122.77596955459353 101.07299675841818 7.049916206369744e-15
    vertex 122.8396518305394 96.87510177859315 7.049916206369744e-15
  endloop
endfacet
facet normal 0.0 0.0 -1.0
  outer loop
    vertex 122.8396518305394 96.87510177859315 7.049916206369744e-15
    vertex 122.77596955459353 101.07299675841818 7.049916206369744e-15
    vertex 123.23783555137612 100.30032996536927 7.049916206369744e-15
  endloop
endfacet
facet normal 0.0 0.0 -1.0
  outer loop
    vertex 122.8396518305394 96.87510177859315 7.049916206369744e-15
    vertex 123.23783555137612 100.30032996536927 7.049916206369744e-15
    vertex 123.2778679035891 97.66142286147551 7.049916206369744e-15
  endloop
endfacet
facet normal 0.0 0.0 -1.0
  outer loop
    vertex 123.2778679035891 97.66142286147551 7.049916206369744e-15
    vertex 123.23783555137612 100.30032996536927 7.049916206369744e-15
    vertex 123.48398296439376 99.43445143859478 7.049916206369744e-15
  endloop
endfacet
facet normal 0.0 0.0 -1.0
  outer loop
    vertex 123.2778679035891 97.66142286147551 7.049916206369744e-15
    vertex 123.48398296439376 99.43445143859478 7.049916206369744e-15
    vertex 123.49763725422721 98.5343693687625 7.049916206369744e-15
  endloop
endfacet
facet normal 0.0 0.0 -1.0
  outer loop
    vertex 116.86695023131308 100.20368331772293 7.049916206369744e-15
    vertex 116.66083517050845 98.43065474060367 7.049916206369744e-15
    vertex 116.64718088067498 99.33073681043595 7.049916206369744e-15
  endloop
endfacet
facet normal 0.0 0.0 -1.0
  outer loop
    vertex 116.66083517050845 98.43065474060367 7.049916206369744e-15
    vertex 116.86695023131308 100.20368331772293 7.049916206369744e-15
    vertex 116.90698258352612 97.56477621382918 7.049916206369744e-15
  endloop
endfacet
facet normal 0.0 0.0 -1.0
  outer loop
    vertex 116.90698258352612 97.56477621382918 7.049916206369744e-15
    vertex 116.86695023131308 100.20368331772293 7.049916206369744e-15
    vertex 117.30516630436284 100.9900044006053 7.049916206369744e-15
  endloop
endfacet
facet normal 0.0 0.0 -1.0
  outer loop
    vertex 116.90698258352612 97.56477621382918 7.049916206369744e-15
    vertex 117.30516630436284 100.9900044006053 7.049916206369744e-15
    vertex 117.36884858030865 96.79210942078028 7.049916206369744e-15
  endloop
endfacet
facet normal 0.0 0.0 -1.0
  outer loop
    vertex 117.36884858030865 96.79210942078028 7.049916206369744e-15
    vertex 117.30516630436284 100.9900044006053 7.049916206369744e-15
    vertex 117.93196539863216 101.63611357674166 7.049916206369744e-15
  endloop
endfacet
facet normal 0.0 0.0 -1.0
  outer loop
    vertex 117.36884858030865 96.79210942078028 7.049916206369744e-15
    vertex 117.93196539863216 101.63611357674166 7.049916206369744e-15
    vertex 117.968487916684 98.98135190642789 7.049916206369744e-15
  endloop
endfacet
facet normal 0.0 0.0 -1.0
  outer loop
    vertex 117.36884858030865 96.79210942078028 7.049916206369744e-15
    vertex 117.968487916684 98.98135190642789 7.049916206369744e-15
    vertex 118.01495775644501 96.16531032651096 7.049916206369744e-15
  endloop
endfacet
facet normal 0.0 0.0 -1.0
  outer loop
    vertex 118.01495775644501 96.16531032651096 7.049916206369744e-15
    vertex 117.968487916684 98.98135190642789 7.049916206369744e-15
    vertex 118.02754722827561 98.43515426385385 7.049916206369744e-15
  endloop
endfacet
facet normal 0.0 0.0 -1.0
  outer loop
    vertex 118.01495775644501 96.16531032651096 7.049916206369744e-15
    vertex 118.02754722827561 98.43515426385385 7.049916206369744e-15
    vertex 118.80127883932738 95.72709425346123 7.049916206369744e-15
  endloop
endfacet
facet normal 0.0 0.0 -1.0
  outer loop
    vertex 118.80127883932738 95.72709425346123 7.049916206369744e-15
    vertex 118.02754722827561 98.43515426385385 7.049916206369744e-15
    vertex 118.22596049491308 97.92285352926393 7.049916206369744e-15
  endloop
endfacet
facet normal 0.0 0.0 -1.0
  outer loop
    vertex 118.80127883932738 95.72709425346123 7.049916206369744e-15
    vertex 118.22596049491308 97.92285352926393 7.049916206369744e-15
    vertex 118.55020618036846 97.47936215110344 7.049916206369744e-15
  endloop
endfacet
facet normal 0.0 0.0 -1.0
  outer loop
    vertex 118.80127883932738 95.72709425346123 7.049916206369744e-15
    vertex 118.55020618036846 97.47936215110344 7.049916206369744e-15
    vertex 118.97818747701932 97.13490333388987 7.049916206369744e-15
  endloop
endfacet
facet normal 0.0 0.0 -1.0
  outer loop
    vertex 118.80127883932738 95.72709425346123 7.049916206369744e-15
    vertex 118.97818747701932 97.13490333388987 7.049916206369744e-15
    vertex 119.67422534661436 95.5073249028231 7.049916206369744e-15
  endloop
endfacet
facet normal 0.0 0.0 -1.0
  outer loop
    vertex 119.67422534661436 95.5073249028231 7.049916206369744e-15
    vertex 118.97818747701932 97.13490333388987 7.049916206369744e-15
    vertex 119.4807381667714 96.9129513767712 7.049916206369744e-15
  endloop
endfacet
facet normal 0.0 0.0 -1.0
  outer loop
    vertex 119.67422534661436 95.5073249028231 7.049916206369744e-15
    vertex 119.4807381667714 96.9129513767712 7.049916206369744e-15
    vertex 120.02361025062244 96.82863193883213 7.049916206369744e-15
  endloop
endfacet
facet normal 0.0 0.0 -1.0
  outer loop
    vertex 119.67422534661436 95.5073249028231 7.049916206369744e-15
    vertex 120.02361025062244 96.82863193883213 7.049916206369744e-15
    vertex 120.57430741644664 95.52097919265657 7.049916206369744e-15
  endloop
endfacet
facet normal 0.0 0.0 -1.0
  outer loop
    vertex 120.57430741644664 95.52097919265657 7.049916206369744e-15
    vertex 120.02361025062244 96.82863193883213 7.049916206369744e-15
    vertex 120.56980789319647 96.88769125042374 7.049916206369744e-15
  endloop
endfacet
facet normal 0.0 0.0 -1.0
  outer loop
    vertex 120.57430741644664 95.52097919265657 7.049916206369744e-15
    vertex 120.56980789319647 96.88769125042374 7.049916206369744e-15
    vertex 121.08210862778638 97.0861045170612 7.049916206369744e-15
  endloop
endfacet
facet normal 0.0 0.0 -1.0
  outer loop
    vertex 120.57430741644664 95.52097919265657 7.049916206369744e-15
    vertex 121.08210862778638 97.0861045170612 7.049916206369744e-15
    vertex 121.44018594322114 95.76712660567424 7.049916206369744e-15
  endloop
endfacet
facet normal 0.0 0.0 -1.0
  outer loop
    vertex 121.44018594322114 95.76712660567424 7.049916206369744e-15
    vertex 121.08210862778638 97.0861045170612 7.049916206369744e-15
    vertex 121.52560000594688 97.41035020251657 7.049916206369744e-15
  endloop
endfacet
facet normal 0.0 0.0 -1.0
  outer loop
    vertex 121.44018594322114 95.76712660567424 7.049916206369744e-15
    vertex 121.52560000594688 97.41035020251657 7.049916206369744e-15
    vertex 122.21285273627005 96.22899260245678 7.049916206369744e-15
  endloop
endfacet
facet normal 0.0 0.0 -1.0
  outer loop
    vertex 122.21285273627005 96.22899260245678 7.049916206369744e-15
    vertex 121.52560000594688 97.41035020251657 7.049916206369744e-15
    vertex 121.87005882316046 97.83833149916742 7.049916206369744e-15
  endloop
endfacet
facet normal 0.0 0.0 -1.0
  outer loop
    vertex 122.21285273627005 96.22899260245678 7.049916206369744e-15
    vertex 121.87005882316046 97.83833149916742 7.049916206369744e-15
    vertex 122.09201078027913 98.34088218891954 7.049916206369744e-15
  endloop
endfacet
facet normal 0.0 0.0 -1.0
  outer loop
    vertex 122.21285273627005 96.22899260245678 7.049916206369744e-15
    vertex 122.09201078027913 98.34088218891954 7.049916206369744e-15
    vertex 122.17633021821821 98.88375427277055 7.049916206369744e-15
  endloop
endfacet
endsolid Untitled-591d6af5
